<svg xmlns="http://www.w3.org/2000/svg" viewBox="0 0 63.46 65.22"><defs><style>.cls-1{fill-rule:evenodd;}</style></defs><title>资源 7</title><g id="图层_2" data-name="图层 2"><g id="央铋_1" data-name="央铋 1"><path class="cls-1" d="M32.46.31c.13-.1.36-.1.39-.29-.27-.08-.26.13-.49.09C32.3.27,32.52.15,32.46.31Z"/><path class="cls-1" d="M42.81.7c.3.39,1.31.08,1.51.58A3.9,3.9,0,0,1,46,1.57c.28-.1.36,0,.77,0A18,18,0,0,0,42.66.31c.07.42-.5.21-.58.48A1.36,1.36,0,0,0,42.81.7Z"/><path class="cls-1" d="M41.3.5c-.12,0-.42-.09-.39.1C41,.56,41.33.69,41.3.5Z"/><path class="cls-1" d="M32.65,1.08c0-.08.05-.24-.09-.19-.05.21-.53,0-.49.29C32.3,1.18,32.36,1,32.65,1.08Z"/><path class="cls-1" d="M31.49,1.18a2.58,2.58,0,0,0-1.26.29C30.61,1.72,31.12,1.27,31.49,1.18Z"/><path class="cls-1" d="M32.17,1.28v.19c.13-.13.42-.09.68-.09v-.2A1.74,1.74,0,0,1,32.17,1.28Z"/><path class="cls-1" d="M33.63,1.86a8.22,8.22,0,0,0,2.28-.39c.19.25.39-.09.58.1.51-.41,1.76-.09,2.58-.19-.09-.19-.51,0-.63-.2-.69.25-1.33-.16-2.24.1-1-.33-1.86.24-2.87.19C33.38,1.65,33.77,1.49,33.63,1.86Z"/><path class="cls-1" d="M39.65,1.28c0-.2-.34-.05-.48-.1v.2A.59.59,0,0,1,39.65,1.28Z"/><path class="cls-1" d="M27,1.38c-.23,0-.37.15-.68.09.07.2-.11.16-.1.3C26.52,1.65,26.88,1.63,27,1.38Z"/><path class="cls-1" d="M25.37,2.74a.23.23,0,0,1,.29-.2c0-.08.05-.24-.1-.19-.23.29-.82.22-1,.58C24.9,2.92,25,2.66,25.37,2.74Z"/><path class="cls-1" d="M48.25,2.74c0-.08.15-.08.15-.2-.3.07-.29-.16-.59-.09v.19C48.06,2.57,48.07,2.74,48.25,2.74Z"/><path class="cls-1" d="M39.26,4.87a3,3,0,0,0-1.84-.09C37.84,5,38.68,4.81,39.26,4.87Z"/><path class="cls-1" d="M33,5.07c-.4-.08-.5.15-.87.1.15.3.58-.12.68.09C32.77,5.06,33.12,5.27,33,5.07Z"/><path class="cls-1" d="M31.39,5.36c.28,0,.66.08.68-.19-.28,0-.19.1-.44,0C31.63,5.31,31.37,5.19,31.39,5.36Z"/><path class="cls-1" d="M25.56,5.46c.28,0,.49,0,.58-.2C25.86,5.24,25.65,5.29,25.56,5.46Z"/><path class="cls-1" d="M30.32,5.65c.23,0,.22-.17.49-.1a.23.23,0,0,0-.2-.19C30.59,5.53,30.3,5.44,30.32,5.65Z"/><path class="cls-1" d="M17.88,5.55c0,.25-.37.15-.38.39C17.71,6,18.16,5.72,17.88,5.55Z"/><path class="cls-1" d="M24,6.14a3.35,3.35,0,0,0,1.16-.59c-.44.08-.75.29-1.16.39Z"/><path class="cls-1" d="M41.59,5.85c-.71.1-1.53-.42-1.94,0A4.1,4.1,0,0,0,41.59,5.85Z"/><path class="cls-1" d="M39.75,6.24h-.68c0,.18.3,0,.19.29.23-.15.19-.21.49-.1Z"/><path class="cls-1" d="M39.85,6.92h.48c0-.14-.16-.1-.1-.3h-.38c-.07.22.29,0,.29.15S39.78,6.7,39.85,6.92Z"/><path class="cls-1" d="M39.75,7c-.27.06-.77-.12-.88.1C39.14,7.05,39.64,7.23,39.75,7Z"/><path class="cls-1" d="M15.75,7.21c-.23,0-.42.1-.49.29h.29C15.55,7.33,15.75,7.37,15.75,7.21Z"/><path class="cls-1" d="M27.7,7.5c.27.07.26-.13.48-.1A.21.21,0,0,0,28,7.21C28,7.38,27.68,7.28,27.7,7.5Z"/><path class="cls-1" d="M33.63,7.3a1.33,1.33,0,0,0-.68.2C33.22,7.48,33.61,7.58,33.63,7.3Z"/><path class="cls-1" d="M43.54,7.69h.39a.22.22,0,0,0-.2-.19C43.81,7.7,43.46,7.49,43.54,7.69Z"/><path class="cls-1" d="M47.72,9c0-.14-.17-.1-.1-.3-.23.07-.16-.16-.39-.09C47.35,8.73,47.43,9,47.72,9Z"/><path class="cls-1" d="M50.24,9.44a.23.23,0,0,0,.2.29A.24.24,0,0,0,50.24,9.44Z"/><path class="cls-1" d="M49.37,10.22v.19c.53,0,1.2.41,1.75.1C50.42,10.53,50,10.25,49.37,10.22Z"/><path class="cls-1" d="M50.63,11.19h.29a.21.21,0,0,0-.19-.19C50.79,11.15,50.57,11,50.63,11.19Z"/><path class="cls-1" d="M14.58,14c.39-.59,1.15-.8,1.26-1.65.2.06.16-.11.29-.1,0-.43.51-.34.59-.68-.06,0-.12,0-.1-.1-.17.09-.29.31-.49.1a.85.85,0,0,1-.58.39c0,.19-.08.21-.14.29s-.13.16-.34.1l.19-.1c0-.26.17-.38.24-.58h.34c.16-.56.67-.76.88-1.27a5,5,0,0,0-1.22,1.07,2.63,2.63,0,0,0-1.31,1.36,3.45,3.45,0,0,0,.87-.47c-.25.45-.79.62-1,1.15a.37.37,0,0,0-.38.34c-.34.53-.9.82-1.07,1.51C13.51,15.14,13.43,14,14.58,14Z"/><path class="cls-1" d="M11.76,12.16c0,.17-.2.13-.19.29C11.77,12.53,12,12.21,11.76,12.16Z"/><path class="cls-1" d="M9.14,12.65c-.21,0-.31.08-.29.29A.52.52,0,0,0,9.14,12.65Z"/><path class="cls-1" d="M55.39,15.22c.07.18.36.13.49.25.08-.37-.21-.38-.39-.49C55.53,15.13,55.32,15,55.39,15.22Z"/><path class="cls-1" d="M8.85,20.52a.26.26,0,0,1-.15.29c-.33.19-.3.41-.63.49-.16.59-.64.85-.68,1.55A2.16,2.16,0,0,0,8.65,21.3c.17,0,.13-.2.29-.2-.06-.29.1-.36.1-.58Z"/><path class="cls-1" d="M3,22c0,.14-.17.09-.1.29C3,22.29,3.24,22,3,22Z"/><path class="cls-1" d="M58,23.43c0-.22-.17-.21-.1-.48-.17,0-.12-.2-.29-.2A.92.92,0,0,0,58,23.43Z"/><path class="cls-1" d="M58,24.7v-.39c-.16.06,0-.16-.2-.1A.49.49,0,0,0,58,24.7Z"/><path class="cls-1" d="M6.51,25.18H6.32c.07.2-.11.16-.1.3h.2C6.35,25.28,6.52,25.32,6.51,25.18Z"/><path class="cls-1" d="M58.89,26.16c0,.14.21.11.29.19a2.47,2.47,0,0,1,.1-1L59,25.18C58.9,25.5,59.36,26.08,58.89,26.16Z"/><path class="cls-1" d="M54.91,26.06c0-.18.11-.57-.1-.58C54.86,25.65,54.7,26,54.91,26.06Z"/><path class="cls-1" d="M6.32,25.77H6v.29c-.41.17-.29.88-.68,1.07-.13.91-.56,1.52-.68,2.43.17,0,.12-.2.29-.2v-.58c.16.06,0-.16.19-.1.11-.83.78-1.1,1-1.84-.18-.17.11-.29-.1-.49C6.24,26.27,6.19,25.93,6.32,25.77Z"/><path class="cls-1" d="M59.09,26.74h.38v-.29h-.38Z"/><path class="cls-1" d="M4.67,26.54c0,.06,0,.12-.1.1v.29C4.66,26.9,4.89,26.58,4.67,26.54Z"/><path class="cls-1" d="M56.36,26.74v-.2h-.19C56.13,26.71,56.2,26.78,56.36,26.74Z"/><path class="cls-1" d="M54.42,27.22a.22.22,0,0,0,.29-.19A.24.24,0,0,0,54.42,27.22Z"/><path class="cls-1" d="M59.38,28.39c-.2.07-.16-.1-.29-.1a4.63,4.63,0,0,0,0,1.66.22.22,0,0,0-.2.19c-.06.16.16,0,.1.19.17-.09.12-.09.29,0,.11-.22.27-.38.1-.63.33-.2,0-.61.19-1A.22.22,0,0,1,59.38,28.39Zm-.1,1.26h-.19c0-.13.16-.09.09-.29C59.36,29.32,59.25,29.55,59.28,29.65Zm0-.48c-.21,0-.05-.41-.1-.59C59.39,28.6,59.23,29,59.28,29.17Z"/><path class="cls-1" d="M4.86,29.56c0,.27-.31.27-.39.48s.17.1.1.29C4.79,30.26,5.13,29.8,4.86,29.56Z"/><path class="cls-1" d="M61.32,31.6a.24.24,0,0,0,.2.29V31.5c-.08,0-.18,0-.2-.05.1-.47.12-1-.29-1.21.19.57-.13,1.07.1,1.55C61.33,31.87,61.12,31.52,61.32,31.6Z"/><path class="cls-1" d="M56.27,30.92c.06-.16-.16,0-.1-.2-.16-.06,0,.16-.19.1.07-.19-.21,0-.2-.15v-.34h-.39a.88.88,0,0,1,.2.78c.18-.15.13,0,.39,0C55.9,30.88,56.1,30.91,56.27,30.92Z"/><path class="cls-1" d="M55.68,31.21v.39h.2c-.19-.22,0-.12.1-.29C55.78,31.37,55.82,31.2,55.68,31.21Z"/><path class="cls-1" d="M55.68,31.89a.24.24,0,0,1-.19-.29H55.3c0,.18.2.25.19.48A.21.21,0,0,0,55.68,31.89Z"/><path class="cls-1" d="M59.86,32.37c0-.14.11-.49-.09-.48C59.81,32,59.66,32.38,59.86,32.37Z"/><path class="cls-1" d="M61,32c.06.22-.16.16-.1.38h.2C61.09,32.25,61.22,32,61,32Z"/><path class="cls-1" d="M57,32.37c-.26.07-.21-.18-.39-.19.07.2-.11.15-.1.29.19,0,.06.27.1.39h.19C56.68,32.56,56.84,32.49,57,32.37Z"/><path class="cls-1" d="M61.71,33.3c-.27-.14.07-.89-.19-1h-.1c.15.16,0,.24,0,.43.22.64.07,1.65.29,2.29C62,34.53,61.58,33.94,61.71,33.3Z"/><path class="cls-1" d="M60.64,34.42c-.11,0-.33.41-.1.48A6.41,6.41,0,0,0,61,32.57h-.2C60.91,33.32,60.54,33.64,60.64,34.42Z"/><path class="cls-1" d="M4,32.76c-.13.05-.22.19-.2-.09H3.6v.39c.16.06,0-.16.19-.1s-.1.15-.09.29h.19C3.86,33,4.06,33,4,32.76Z"/><path class="cls-1" d="M55.88,32.67h-.29c-.06.25.18.2.19.39s0-.16.2-.1C56,32.82,55.81,32.86,55.88,32.67Z"/><path class="cls-1" d="M4.67,33.35V34c.16-.05.32-.57.1-.68Z"/><path class="cls-1" d="M56.36,33.54v-.19h-.19C56.13,33.51,56.2,33.58,56.36,33.54Z"/><path class="cls-1" d="M57.63,33.44v.68c.17-.07.07-.41.19-.53C57.75,33.55,57.75,33.44,57.63,33.44Z"/><path class="cls-1" d="M57.14,34v-.39c-.19,0-.06.27-.09.39Z"/><path class="cls-1" d="M55.49,34.32v-.2H55.3C55.26,34.29,55.32,34.36,55.49,34.32Z"/><path class="cls-1" d="M61.42,34.42h-.2a.59.59,0,0,1,.1.48C61.52,34.91,61.37,34.56,61.42,34.42Z"/><path class="cls-1" d="M3.41,34.61v.29c.09,0,.31-.35.09-.39C3.5,34.57,3.49,34.63,3.41,34.61Z"/><path class="cls-1" d="M60.06,35.48v.3c.14,0,.11-.22.19-.3Z"/><path class="cls-1" d="M57.43,37.91a1.56,1.56,0,0,0,.2-1.45C57.38,36.87,57.48,37.2,57.43,37.91Z"/><path class="cls-1" d="M60.06,36.46c-.13.12-.1.42-.1.68C60.07,37,60.29,36.58,60.06,36.46Z"/><path class="cls-1" d="M58.11,36.75c-.15.06,0-.16-.19-.1V37C58.06,37,58,36.83,58.11,36.75Z"/><path class="cls-1" d="M59.38,37.14a.43.43,0,0,0,.19-.39h-.19Z"/><path class="cls-1" d="M.59,38c0-.27.17-.31.09-.63-.19-.07-.15.11-.29.1-.06.16.16,0,.1.19a1.1,1.1,0,0,0,0,1.17c.23-.13.19-.53.29-.78C.71,38,.6,38,.59,38Z"/><path class="cls-1" d="M58.41,38.21c-.09-.08-.06-.28-.2-.3,0,.14-.16.1-.1.3Z"/><path class="cls-1" d="M.59,38.89c-.38.67,0,1.46-.2,2.33A4.84,4.84,0,0,0,.59,38.89Z"/><path class="cls-1" d="M56.56,40.73c.28-.25-.09-.65.1-.87h-.2c0,.1.08.33-.1.29.17.39-.2,1-.38,1.36.34-.09.14.38.19.58-.17,0-.22.17-.19.39.07,0,.18,0,.19.05s0,.17.1.15c0-.24.17-.31,0-.49.31-.15.24-.66.48-.88C56.62,41.19,56.69,40.86,56.56,40.73Z"/><path class="cls-1" d="M.1,41.8v.29H.3A.24.24,0,0,0,.1,41.8Z"/><path class="cls-1" d="M2,42.48c.31,0,.28-.24.39-.39H2.24C2.3,42.35,2.05,42.3,2,42.48Z"/><path class="cls-1" d="M55.1,43.45a.23.23,0,0,0,.2.29A.24.24,0,0,0,55.1,43.45Z"/><path class="cls-1" d="M.68,47.44c.07-.22-.29,0-.29-.15s.12,0,.2,0A12.35,12.35,0,0,0,.3,44.62c0,.76.06,1.65,0,2.33-.13,0,0-.27-.15-.19s-.1.42-.1.68C.19,47.63.46,47.49.68,47.44Z"/><path class="cls-1" d="M55.88,45.1a2.64,2.64,0,0,0-.29.49h.19C55.69,45.34,56.19,45.25,55.88,45.1Z"/><path class="cls-1" d="M55.59,45.69c-.34,0-.43.29-.49.58C55.3,46.11,55.55,46,55.59,45.69Z"/><path class="cls-1" d="M2.24,46.27c-.08.43.13.59.1,1a.23.23,0,0,0,.29-.19C2.45,46.84,2.47,46.43,2.24,46.27Z"/><path class="cls-1" d="M53.35,46.76a1.4,1.4,0,0,0-1.16,1c.39,0,.39-.39.87-.29.08-.2-.23-.25-.05-.39l.15.29c.15.06,0-.16.19-.1,0-.14-.15-.14-.19-.24S53.35,46.9,53.35,46.76Z"/><path class="cls-1" d="M1.17,47.05c0,.06,0,.11-.1.1.23.61-.05,1.73.39,2.13.07-.81-.16-1.32-.1-2.13C1.21,47.21,1.33,47,1.17,47.05Z"/><path class="cls-1" d="M2.63,47.53a.23.23,0,0,0-.2-.19c0,.15-.1.09-.19.1a.68.68,0,0,1,.1.48h.19C2.4,47.79,2.41,47.56,2.63,47.53Z"/><path class="cls-1" d="M.68,48c-.33,0-.32-.33-.58-.39-.07.46.11.67.1,1.07.12.13.47.15.48-.1C.51,48.43.76,48.35.68,48Z"/><path class="cls-1" d="M53.06,48.12a.23.23,0,0,0-.19-.29c0,.16-.2.12-.2.29C52.93,48.12,52.87,48,53.06,48.12Z"/><path class="cls-1" d="M5.54,48.7a3.14,3.14,0,0,0,.29,1.46c.1-.41-.2-.66,0-.88C5.5,49.32,5.77,48.76,5.54,48.7Z"/><path class="cls-1" d="M.39,49.38c0,.15-.1.49.1.49S.51,49.42.39,49.38Z"/><path class="cls-1" d="M3.11,51.13H2.92c.06.46.08.95.39,1.17A6.79,6.79,0,0,0,3.11,51.13Z"/><path class="cls-1" d="M1.07,51.71h.2a.24.24,0,0,0-.2-.29Z"/><path class="cls-1" d="M53.06,52.39v.39c.45,0,.4-.58.78-.68,0-.38.41-.3.39-.68C53.66,51.57,53.61,52.22,53.06,52.39Z"/><path class="cls-1" d="M19.83,51.91c0,.2.34.05.48.09C20.32,51.8,20,52,19.83,51.91Z"/><path class="cls-1" d="M1.07,52.49c-.16-.06,0-.45-.19-.49v.59C1,52.65.92,52.43,1.07,52.49Z"/><path class="cls-1" d="M54.62,52.39a.23.23,0,0,0,.29-.19A.23.23,0,0,0,54.62,52.39Z"/><path class="cls-1" d="M1.75,53.56c-.29-.29-.11-1.06-.48-1.26,0,.05,0,.11-.1.09C1.51,52.64,1.26,53.47,1.75,53.56Z"/><path class="cls-1" d="M3.21,52.49c.15.21.11.6.39.68a4.82,4.82,0,0,0-.29-.78C3.3,52.45,3.29,52.51,3.21,52.49Z"/><path class="cls-1" d="M4.09,52.39c0,.24,0,.47.19.49C4.23,52.7,4.23,52.48,4.09,52.39Z"/><path class="cls-1" d="M53.74,53c.2.06.15-.11.29-.1,0,.19-.26.19-.29.39h.39c.26-.27-.09-.48-.1-.78A.42.42,0,0,0,53.74,53Z"/><path class="cls-1" d="M1.17,52.88c-.16.06,0-.16-.19-.1,0,.29,0,.59.29.58A.63.63,0,0,1,1.17,52.88Z"/><path class="cls-1" d="M1.66,53.66c.06.19-.11.15-.1.29.14,0,.09.16.29.09C1.88,53.82,1.82,53.68,1.66,53.66Z"/><path class="cls-1" d="M3.7,53.66V54c.16,0,.12.2.29.19C4,53.92,3.89,53.72,3.7,53.66Z"/><path class="cls-1" d="M1.46,53.85H1.27c.07.22.06.52.29.58C1.56,54.21,1.4,54.14,1.46,53.85Z"/><path class="cls-1" d="M4.28,54c.08-.08.27,0,.29-.19H4.18C4.12,54,4.34,53.89,4.28,54Z"/><path class="cls-1" d="M7,54.53c0,.22,0,.36.19.39C7.22,54.7,7.17,54.56,7,54.53Z"/><path class="cls-1" d="M1.75,55.11c0,.22,0,.37.2.39C2,55.28,1.92,55.14,1.75,55.11Z"/><path class="cls-1" d="M2,55.79v.3a.24.24,0,0,0,.2-.2C2.08,56,2.2,55.73,2,55.79Z"/><path class="cls-1" d="M6.71,55.79a.24.24,0,0,0,.19.3A.23.23,0,0,0,6.71,55.79Z"/><path class="cls-1" d="M5.74,56.57c-.31.08-.14-.31-.39-.29-.07.27.13.26.1.49.16,0,.23,0,.19.19h.19C5.79,56.84,5.69,56.78,5.74,56.57Z"/><path class="cls-1" d="M49.66,56.67c.19,0,.41,0,.39-.29C49.8,56.35,49.63,56.42,49.66,56.67Z"/><path class="cls-1" d="M18.18,57.83c.11.05.17.15.38.1a1.58,1.58,0,0,0-.29-.39C18.34,57.74,18.17,57.7,18.18,57.83Z"/><path class="cls-1" d="M33.72,57.74v.19c.18,0,.57.11.59-.1A.83.83,0,0,1,33.72,57.74Z"/><path class="cls-1" d="M19.83,58.42c.06.26.27.38.58.39C20.27,58.62,20.19,58.38,19.83,58.42Z"/><path class="cls-1" d="M11.67,59.49a.23.23,0,0,1,.29.19c.26-.07.25.13.48.1-.3-.25-.51-.59-1-.68C11.48,59.28,11.73,59.23,11.67,59.49Z"/><path class="cls-1" d="M15.94,60.07c-.07-.19-.26-.26-.49-.29C15.52,60,15.71,60,15.94,60.07Z"/><path class="cls-1" d="M21.77,60.07h.29a.23.23,0,0,0-.29-.2Z"/><path class="cls-1" d="M31,60v.2a.51.51,0,0,0,.49-.2Z"/><path class="cls-1" d="M23.71,60.26v-.19c-.07.08-.27,0-.29.19Z"/><path class="cls-1" d="M31,60.65c.3,0,.75.11.78-.19A1,1,0,0,0,31,60.65Z"/><path class="cls-1" d="M16.23,60.94a2.44,2.44,0,0,1,1,.39c.08-.08.28,0,.3-.19a7.9,7.9,0,0,0-1.37-.49C16.07,60.85,16.24,60.81,16.23,60.94Z"/><path class="cls-1" d="M14,60.75a.22.22,0,0,0,.29.19A.24.24,0,0,0,14,60.75Z"/><path class="cls-1" d="M28,61.72a.43.43,0,0,0,.39-.19C28.16,61.5,28,61.55,28,61.72Z"/><path class="cls-1" d="M26.92,61.62c.09.15.31.15.49.2C27.5,61.5,27.11,61.66,26.92,61.62Z"/><path class="cls-1" d="M23.91,61.72c.05.31,1,.25,1.16.1C24.87,61.6,24.27,61.78,23.91,61.72Z"/><path class="cls-1" d="M34.4,62c.08-.18.54,0,.59-.19h-.68C34.25,62,34.46,61.86,34.4,62Z"/><path class="cls-1" d="M19.34,62.89c0-.18-.37-.09-.29-.39A6.69,6.69,0,0,0,18,62.21c0,.16.2.12.2.29h.38c-.06.2.11.15.1.29C19,62.75,19,63,19.34,62.89Z"/><path class="cls-1" d="M15.55,63.37a.46.46,0,0,0,.39.2c.06-.16-.16,0-.1-.2Z"/><path class="cls-1" d="M16.33,63.66c0,.14.49.33.58.1C16.62,63.83,16.62,63.6,16.33,63.66Z"/><path class="cls-1" d="M10.69,64c0,.16.17.22.39.19A.42.42,0,0,0,10.69,64Z"/><path class="cls-1" d="M20.12,64.05c.12,0,.42.1.39-.09C20.39,64,20.09,63.86,20.12,64.05Z"/><path class="cls-1" d="M20.9,65h-.3a.45.45,0,0,0,.39.19C21.05,65.06,20.84,65.18,20.9,65Z"/><path class="cls-1" d="M42.66,1.28a1.53,1.53,0,0,1,.68.1C43.3,1.21,42.78,1.05,42.66,1.28Z"/><path class="cls-1" d="M29.2,1.86c.08-.13.34-.08.35-.29a1.56,1.56,0,0,0-1.37.58C28.54,2.08,28.66,1.76,29.2,1.86Z"/><path class="cls-1" d="M1,36.94a51.19,51.19,0,0,1,2.13-8.16c.16.06,0-.16.2-.1-.06-.38.25-.39.19-.78.37-.25.42-.81.68-1.16-.1-.33.15-.47.2-.58s0-.22,0-.3.16-.12.19-.19,0-.2,0-.29S4.86,25,5,24.8s.09-.62.19-.88c0-.08.17-.11.2-.19s0-.21,0-.3c.08-.25.37-.47.29-.77a.56.56,0,0,0,.29-.59c.16.06,0-.15.2-.09a8,8,0,0,1,1-1.75,3.22,3.22,0,0,1,.68-1.17,5.63,5.63,0,0,1,1.16-1.75c0-.34.29-.36.3-.68.13,0,.09-.16.29-.09,0-.1-.22-.2,0-.3s0,.13.14.1c.06-.23.38-.21.3-.58-.17.09-.17.35-.39.39.41-.92,1.2-1.46,1.65-2.34h.19a1.58,1.58,0,0,1,1.27-.87c.09-.17.18-.34.48-.29v-.2a7.1,7.1,0,0,0,1.07-1.06,4.75,4.75,0,0,1,1.17-1c.32-.33.57-.72.87-1.07A.36.36,0,0,1,16.62,9c.21-.33.61-.46.83-.78h.43c0-.27.3-.17.49-.29s.5-.64,1-.59c0-.18.08-.21.15-.29h.14A11.47,11.47,0,0,1,22.4,5.07h.25c.3-.36.89-.43,1.31-.68,0,.14.26,0,.24.19a25.22,25.22,0,0,1,2.82-1c.17-.51.78-.57,1.36-.68,0-.12.11-.12.14-.19.91-.1,1.47-.55,2.43-.59a13.14,13.14,0,0,1,2.19-.38c-.06-.16.16,0,.1-.2a31,31,0,0,0-3.65.49c-1.21.22-2.14.73-3.45.87,0,.15-.17.18-.24.29s0-.12-.14-.09c-.34.18-.81.64-1.17.48a1.73,1.73,0,0,1-1.07.44c.44-.5,1.33-.55,1.8-1h.34c0-.07,0-.18.05-.2s.16,0,.14-.09h-.39c-.72.51-1.83.62-2.43,1.26a3.14,3.14,0,0,1,.49.15C22.3,4.79,21.13,5.48,19.83,6c-.07-.2.1-.15.09-.29h-.38c0,.12-.11.12-.15.19a1.37,1.37,0,0,0-.87.49.75.75,0,0,0-.59.29c-.07,0,0-.12-.14-.1s-.08.29-.15.39c-.24-.27-.54.1-.73.2,0,.15.17.06.1.24s-.25.17-.29.34c.07,0,.18,0,.19,0-.29.35-.69.86-1.16.87,0-.07.12,0,.09-.14-.67.14-.94.67-1.65.77-.06-.15.16,0,.1-.19a5.21,5.21,0,0,0-1.65,1.55c-.39,0-.27.45-.59.49-.06.16.16,0,.1.2-.28.1-.38.39-.48.68.23.08.15-.14.24-.2a.65.65,0,0,0,.34.24c-.41.32-.53.93-1.07,1.12v.29a.37.37,0,0,0-.39.39,1,1,0,0,0-.68.68H9.92c0,.26-.28.54-.49.44a3.5,3.5,0,0,0,.87-1.6c-.36.12-.43.54-.77.68,0,.28-.22.36-.39.48,0,.24-.15.31-.29.39.25.25-.12.3-.1.58.12,0,.35-.06.39,0-.28.23-.31.69-.68.83,0,.47-.6.31-.59.78H7.68c0,.24-.15.3-.29.38.12-1.11.88-1.57,1.36-2.33a5.63,5.63,0,0,0-1.21,1.36c-.08,0,0-.12-.15-.09s.16,0,.1.19a.88.88,0,0,0-.44.49,11.25,11.25,0,0,0-1.7,2.62v.58c-.25.08-.25.4-.39.59.29.06.19-.26.49-.2,0-.23.17-.22.09-.48.61-.47.68-1.47,1.36-1.85-.52,1.36-1.45,2.31-1.84,3.79-.3,0-.28.24-.39.39.07,0,.18,0,.19.05-.17.1-.19.35-.48.34a1.65,1.65,0,0,1,.19-.68c-.2-.07-.15.1-.29.09V23c-.46.35-.41,1.21-.87,1.55,0,.34.14.29,0,.54,0,.07.13.12.19.19a4.6,4.6,0,0,1-.78,1.51c.14-.57.48-.95.59-1.56-.3.07-.28.44-.49.59v.29c-.55.68-.63,1.83-1.07,2.62a1.72,1.72,0,0,1-.29,1C1.26,31,.76,32.19.49,33.54c0,.19.06.42-.1.58.41,0,.28-.63.49-.87-.1-.75.38-.91.48-1.46a.92.92,0,0,1,.15-.68h.15C1.51,32.26,1,33,1,34.32c.18,0,0-.31.29-.2a1.93,1.93,0,0,1-.15,1c-.2-.07-.18-.46-.05-.59-.15.06,0-.15-.19-.09,0,.68-.34,1-.29,1.74.19.08,0-.21.14-.19.5.08.05.65.05,1ZM2,30.63c.09,0,.1,0,.1-.1.22,0,0,.35-.1.39Zm-.58,1.94c.21-.08,0,.27.2.19,0,.12-.15.18-.1.39h-.2C1.37,32.93,1.53,32.86,1.46,32.57Z"/><path class="cls-1" d="M48.69,2.83c.44.57,1.31.7,1.84,1.17.12,0,.18-.15.39-.1.13.56.94.43,1.17.88.3-.08.3.15.49.19-.3-.61-1.15-.67-1.37-1.36h-.38c-.46-.45-1.2-.61-1.66-1.07h-.29c.06-.15-.15,0-.09-.19h-.3c.17.23.5.28.68.48Zm.87.1c-.05.15.11.09.2.1.06.16-.16,0-.1.19C49.45,3.14,49.33,3,49,3,49.12,2.73,49.46,3.15,49.56,2.93Z"/><path class="cls-1" d="M28.48,3.13c.22,0,.29-.17.58-.1,0-.19-.27-.06-.39-.1C28.75,3.14,28.4,2.92,28.48,3.13Z"/><path class="cls-1" d="M31.29,4.1A2,2,0,0,1,30,4.39c0,.07,0,.18-.05.19s-.17,0-.14.1c.61.06.82-.28,1.36-.29C31.13,4.19,31.3,4.24,31.29,4.1Z"/><path class="cls-1" d="M8.36,23.05c0-.09.05-.25-.1-.2.07.23-.16.16-.09.39S8.16,23,8.36,23.05Z"/><path class="cls-1" d="M56.8,47.44c.36,0,.29-.46.63-.49,0-.5.38-.59.39-1.07-.28,0-.23.42-.48.49v-.2a.23.23,0,0,0-.2.2c.08,0,.18,0,.2.05s-.07.19-.15.24H57c.06.3-.14.35-.24.49s0-.13-.15-.1-.2.12-.2.29c.08,0,.18,0,.2,0s-.32.16-.29.44c-.2-.07-.16.1-.29.09v.2c-.83.68-1.58,1.57-2.34,2.33a3.32,3.32,0,0,1-1,.78c-.08.14-.15.3-.39.29a1.05,1.05,0,0,1-.68.48c-.05.13-.22.39-.39.25.07-.12.25-.12.2-.34-.21,0-.27.05-.39.09a.4.4,0,0,1,.63-.29c.32-.34.62-.71.93-1.07-.08,0-.18,0-.2,0l.15-.15c.07,0,0,.12.14.1.22-.53.85-.64,1-1.27-.25,0-.33.53-.58.29-.06.16.16,0,.1.2-.1,0-.1.06-.15.1s0-.13-.14-.1,0,.11-.1.1c-.06.15.16,0,.1.19-.1,0-.1.07-.15.1s0-.13-.14-.1a10.84,10.84,0,0,1-2.34,2.14v-.49c.34,0,.25-.34.59-.29.06-.16-.16,0-.1-.19.22,0,.36,0,.39-.2-.14,0-.1.17-.29.1.06-.16-.16,0-.1-.2.09,0,.1-.06.14-.09s0,.12.15.09-.17,0-.1-.24a.61.61,0,0,1,.68-.24c.08-.21-.27,0-.19-.2-.18.14-.12,0-.34,0-.2.14-.25.44-.54.49,0,.21.06.27.1.39h-.29c.1.36-.44.56-.68.78,0,0,0,.15,0,.19a.74.74,0,0,1-.78.15c0-.2.16-.27.29-.34v-.29c.18,0,.09-.37.39-.3a5.26,5.26,0,0,1,1.17-1,4.07,4.07,0,0,1,.58-1.07c-.39.23-.81.42-1,.88-.23-.09-.16.13-.24.19s-.14,0-.15-.05a2.54,2.54,0,0,0,.49-.63c-.09,0-.25,0-.2-.1.49.14.27-.44.68-.38.06-.16-.15,0-.09-.2.15.06,0-.16.19-.1,0,.14.16.1.1.3.17-.24.13-.11.48-.1,0-.27-.35-.23-.09-.49-.13,0-.16-.2-.2-.34.47-.52,1-1,1.46-1.5.06-.16-.16,0-.1-.2.22-.08.25-.34.39-.48-.16-.06,0,.15-.19.09,0-.29.23-.31.34-.48.12.19.17-.09.34.1.06-.16-.16,0-.1-.2.17,0,.12-.2.29-.19v.39c.19-.16.13,0,.39,0-.11-.31.3-.09.19-.39-.21,0-.27.05-.38.09a1.65,1.65,0,0,0,.19-.68c.36.08.12-.46.49-.39-.07-.35.16-.42.09-.77a5.84,5.84,0,0,0,1.17-1.85c-.38.43-.57,1.05-1.07,1.36,0-.26.16-.2,0-.39.26-.1.12-.59.49-.58a.29.29,0,0,1-.1-.49c-.24,0-.2.55-.49.34a4.21,4.21,0,0,0,.34-.63c.13,0,0,.27.15.2a5.93,5.93,0,0,1,.1-2c.21,0,.21-.25.19-.49.19,0,.29-.07.29-.24s-.23,0-.19-.1.09-.26.29-.24c.07-.27-.13-.26-.1-.49h.29c0-.2.11-.25.15-.39l.14.15c-.17.12,0,.53-.19.68.08,0,.07.15.19.14,0-.22,0-.36.2-.38a3.58,3.58,0,0,1-.2.68c.25.06,0,.41,0,.53l.3.15c.32-.62.14-1.74.58-2.24,0-.26,0-.55.1-.68-.4.12-.16.89-.49,1.07.14-.43-.12-1-.1-1.65-.07,0-.18,0-.19,0,.26-.16-.11-.4.1-.54h-.2v1.17c-.14,0-.09.16-.29.1.11.16.36.66.1.87v-.39c-.16,0-.09.27-.25.3s-.15-.08-.14-.2c.21,0,.21-.24.19-.48-.08,0-.28,0-.29-.05s.27,0,.2-.15c-.09,0-.29.06-.3,0v-.34c.24,0,.31-.18.49,0v-.48c-.07,0-.18,0-.19-.05v-.15h.29v-.39c-.09,0-.29.06-.29,0s.14-.21.29-.24a.83.83,0,0,0-.1-.58c-.17.09-.21.3-.19.58h-.3c-.07.21.27,0,.2.2H55.2c0,.13.16.09.1.29h-.2c0,.18.06.48-.05.58l-.14-.15c0-.07.15,0,.09-.19s-.15,0-.09-.19c.19-1-.46-2.2-.44-3.16.06,0,.09.14.24.09-.26-.13,0-.47-.29-.77h.2c.07-.21-.27,0-.2-.2.2.07.15-.1.29-.09-.08.36.32.45.1.68.22,0,.07.45.39.38.08-.3-.15-.3-.2-.48.3-.53-.4-.8-.29-1.46a.21.21,0,0,1-.19-.19c-.06-.16.16,0,.1-.2-.08,0-.18,0-.2-.05s.1-.18.29-.14c0,.3.12.39.29.48,0-.31-.33-.6-.09-.87-.16-.06,0,.16-.2.1s-.11-.31-.29-.34v-.15h.2c0-.22.07-.56-.1-.63.17-.08.06-.23,0-.34.21-.08,0-.54.1-.78-.22,0-.16.27-.25.39-.13-.2.06-.73-.14-.87a1.88,1.88,0,0,0,.29-.39c-.2-.08-.25.23-.39.05.24-.22-.18-.69.1-1-.34,0-.08-.63-.39-.68a2.81,2.81,0,0,0,0-1.41c-.15,0-.42.07-.49,0s0-.14,0-.15c.16.14.17,0,.44.1-.1-.21-.54-.33-.34-.68.33.24.37.76.73,1,0-.26,0-.55-.1-.68s0,.16-.19.1a1.37,1.37,0,0,0-.39-.54c0-.08.12,0,.09-.14s-.18,0-.19-.05.13-.1.1-.25-.14-.28-.29-.34c.19-.09.05-.27-.1-.29,0-.05,0-.14.05-.14s.1.16.29.09.15-.07.14-.19-.11.23-.19.05.12,0,.1-.15-.12.23-.2,0,.13,0,.1-.14,0,.15-.19.09c.08-.19-.24-.25,0-.39,0,.11.18.12.34.1V21c.08,0,.24-.05.19.09s.2-.21.29-.05c-.17.09-.22.07-.09.25h-.2c0,.13.17.09.1.29-.1,0-.34-.08-.29.1h.29c0,.3.29.22.19.58h.2c0-.2-.23-.32,0-.49l.24.25c-.19.12.09.17-.1.34.2.11.18.43.39.53-.08.05-.12.13-.09.29.32.3-.17.48-.39.54a.22.22,0,0,0,.19.19c-.06-.31.2-.16.29-.1s0-.18,0-.19.09.14.24.1-.15,0-.09-.2c.2.08,0-.27.19-.19-.05.21.06.27.1.39s-.15.17-.1.39h-.19c0,.14.06.41,0,.48s-.21-.08-.34-.1c.08.23.31.56.1.78.19.07.15-.1.29-.1.16.23,0,.83.39.78,0-.08-.06-.28,0-.29.28.17,0,.86.44.92,0,.17-.07.16-.19.15,0,.14.16.09.09.29H56c.08-.49-.27-.9,0-1.26-.19-.12-.11-.77,0-1,.07,0,0,.12.14.09V24.5c-.13,0-.09.17-.29.1,0-.47-.25-.78-.29-1.26h.19a5.54,5.54,0,0,0,.2,1,.22.22,0,0,0,.19-.19c-.25-.48-.24-1.48-.43-1.85.21.06.14.4.43.39,0-.26-.34-.47-.24-.68.06.05.09.14.24.09.08-.44-.46-.53-.34-.87.79.88,1.18,2.16,1.9,3.11a2.32,2.32,0,0,0-.2-.58c.16-.06,0,.15.2.09,0-.44-.37-.41-.29-.87l-.29-.15c.25-.47-.25-.84-.3-1.31-.07,0-.18,0-.19,0a.22.22,0,0,1,.19-.24,7.08,7.08,0,0,0,.88,1.46c.09-.27-.23-.38-.05-.59a15.61,15.61,0,0,1,.92,1.46,1.19,1.19,0,0,0-.19-.53c.17-.42-.24-1.05-.58-1.27.05-.15-.08-.11-.1-.19s.12,0,.1-.15a17.72,17.72,0,0,0-4.38-4.71c0-.08.13,0,.1-.14h-.19c.1-.19-.21-.21,0-.3.14.2.41.27.63.39,0-.06,0-.11.1-.09-.4-.6-1.5-.74-1.41-1.66.26,0,.35.27.73.2.08.34.59.25.58.68h.48V16a6.16,6.16,0,0,1,2.43,1.95.53.53,0,0,1,.59.48c.07,0,.18,0,.19.05a9.33,9.33,0,0,1,1.94,3c.35.11.16.76.59.78,0-.14-.15-.14-.2-.24v-.24a.87.87,0,0,1-.19-.59,5,5,0,0,1-.78-1.36c-.14-.08-.3-.15-.29-.39A7.22,7.22,0,0,1,57.53,18a1.24,1.24,0,0,1-.78-.77c-.22,0-.36,0-.39-.2h.3c0-.19-.26-.19-.39-.29-.06.16.16,0,.09.19a7.59,7.59,0,0,1-1.74-1.26c-.38,0-.39-.39-.59-.58h-.48v-.29c-.2-.07-.16.1-.29.09-.43-.51-1.38-.5-1.46-1.36.15,0,.18,0,.24-.09.44.09.54.52,1,.58,0-.46-.59-.25-.48-.78a1.71,1.71,0,0,1-.88-.58c.32-.05.6.08.39.29.26,0,.48-.26.68-.15,0,.08-.13,0-.1.15.35-.25.7.17,1.17.1-.06.15.16,0,.1.19.65.15,1,.62,1.55.88,0-.26-.16-.21,0-.39-.36-.33-1-.39-1.17-.88a6.5,6.5,0,0,1-1.65-.63c0-.08.13,0,.1-.14-.13.12-.36.12-.39-.1-.16-.06,0,.16-.19.1.07-.21-.27,0-.2-.2a9.75,9.75,0,0,1-2.23-.48c-.18-.44-.62-.62-.88-1,.1,0,.1-.06.15-.09s.09.13.24.09v-.19c-.41,0-.52-.25-1-.2-.09-.3-.56-.21-.58-.58-.37,0-.45-.2-.59-.39a.9.9,0,0,1-.77-.39,15.06,15.06,0,0,0-3.21-.92c0-.08.12,0,.1-.14a.67.67,0,0,0-.54.19c-.1-.21-.22,0-.39,0,0-.14-.26,0-.24-.19.22,0,.36,0,.39-.2s-.34.08-.29-.1h.39a5.72,5.72,0,0,0-1.17-.19V7.3c.18-.17.18.06.49,0-.07.23.16.17.09.39-.21-.05-.27.06-.39.1,0-.14-.16-.09-.09-.29-.16-.06,0,.16-.2.1a.71.71,0,0,1,.05.48c0-.11-.19-.06-.24-.14s.12,0,.1-.15c-.2-.07-.16.11-.3.1s.16,0,.1-.2c-.23-.08-.16.14-.24.2-.08-.17-.44,0-.54-.2,0,.2-.1.25-.14.39-.21-.06-.21.08-.34.1-.07-.2.1-.16.1-.29-.15.05-.09-.11-.1-.2-.2-.08-.25.23-.39,0a.33.33,0,0,1,.39-.14c-.09-.28-.31,0-.49,0a2.43,2.43,0,0,1-.14.48.53.53,0,0,1-.44-.1c-.06.16.16,0,.1.2.11,0,.35-.06.39.05s0,.14-.05.14a8,8,0,0,0-1-.19c0,.12-.11.12-.15.19s0-.12-.15-.09a1.06,1.06,0,0,1-1.06.19c0,.2-.11.25-.15.39-.13,0-.39.06-.44,0s0-.14.05-.15.09.14.24.1,0-.11.1-.1c0-.24-.32-.19-.58-.19,0,.07,0,.18-.05.19s-.14,0-.15,0c.22-.52,1.46,0,1.75-.44-.11,0-.35.06-.39,0s0-.14.05-.15c.2.16.74-.15,1,.1.08-.25.31-.34.68-.29-.22-.33-.78-.09-1.07-.15,0-.07.13,0,.1-.14h-.58c-.07.23.36,0,.29.19-.36-.1-.38,0-.68-.05,0-.14.36.07.29-.14-.24,0-.47,0-.58.1.06-.16-.16,0-.1-.2.13,0,.24,0,.2-.14s-.24-.19-.39-.25c-.1.22.16.32,0,.39,0-.08-.16-.07-.15-.19a.76.76,0,0,1-.68,0c0-.08.12,0,.1-.15-.21-.05-.27,0-.39.1V7c.74.07,1.3-.24,1.84-.09v-.2c-.39-.06-1,.13-1.26-.1h.49V6.43c-.12-.06-.12.23-.2.05s.28-.08.29-.24h-.29a.64.64,0,0,1-.87.43c0-.07.12,0,.19,0,.08-.19-.21,0-.19-.14s.27,0,.19-.15S35,6.44,35,6.24a4.66,4.66,0,0,1-1.75.19c-.09.08-.05.27-.2.29V6.43c-.13.21-.7,0-.82.19-.44-.29-1.29.25-1.8.1a.92.92,0,0,1-1.07.2c0,.14-.11.08-.19.09s.06.29-.05.29-.38-.14-.59-.19,0,.23-.09.19-.17,0-.15.1c.27.09.38-.23.58-.05-.32.05,0,.17-.14.34-.08-.18-.37.15-.54-.09a.57.57,0,0,1-.77.19,9.75,9.75,0,0,1-2.14.68c0,.15-.17.18-.24.29s-.05-.15-.2-.1A15.17,15.17,0,0,1,22.06,10c-.1.29-.44.34-.68.49,0-.2.11-.25.15-.39.07,0,0,.13.14.1s0-.18,0-.2l2.43-1.55a9.17,9.17,0,0,0,1.7-.58c.06-.16-.15,0-.09-.2.09,0,.09-.06.14-.09a1.57,1.57,0,0,0,.83-.2c.06-.16-.16,0-.1-.19s.15.1.29.09-.16,0-.1-.19c1-.31,1.43-.93,2.73-.68.06-.12-.23-.12-.05-.19.44.37,1-.3,1.31-.1,0-.07,0-.18.05-.2.17.22.27-.08.48.1.06,0,.09-.14.25-.1,0-.14-.22-.11-.3-.19-.21.27-.69,0-1,0,0,.18.31,0,.2.29h-.39c0-.3-.29-.29-.58-.29-.07.16.15,0,.09.19-.3,0-.46.22-.68,0-.92.49-2.16.66-3.06,1.17-.2.06-.21-.08-.34-.1a2.64,2.64,0,0,1-.15.29c-.07,0,0-.12-.14-.09-.13.45-.67.5-1.07.68v-.2c-.21.15-.6.11-.68.39.09,0,.29-.06.29.05-.88.43-1.63,1-2.52,1.41-.14,0-.1-.17-.3-.1s.16,0,.1.2a6,6,0,0,1-.78.48c0-.17,0-.23-.19-.19-.07.19.1.15.1.29-.1,0-.1.06-.15.1s-.21-.08-.34-.1a7.78,7.78,0,0,1-1.07.68,2.26,2.26,0,0,1-.87.68c-.16.2-.27.45-.59.49a3,3,0,0,1-1,.77c-.05.1-.09.2-.14.29-.59.27-.78.94-1.41,1.17-.16.33-.29.68-.68.78,0,.24-.15.3-.29.39,0,.32-.3.42-.49.58a3.64,3.64,0,0,1-.78,1.07c-.34.72-1.12,1-1.36,1.84-.3-.1-.09.31-.39.2A2.17,2.17,0,0,1,10,20a2.73,2.73,0,0,1-.68,1.17v.29a2.7,2.7,0,0,0-.68,1.26c-.26,0-.18.41-.39.49a22.07,22.07,0,0,1-1.07,2.53.46.46,0,0,1-.19.48,2.34,2.34,0,0,1-.49,1.36V28c-.15-.06,0,.16-.19.1v.48c-.16,0,0,.16-.19.1-.14,1.2-1,2.18-.78,3.4.06.16-.16,0-.1.2.06,0,.12,0,.1.09-.43,1.42-.83,2.86-1.17,4.38-.14,1.53-.32,3-.39,4.37a11.44,11.44,0,0,0,0,2.19s0,0-.09,0c.08.66,0,2.12.09,2.91-.23-.07,0,.36-.19.29,0-.31.12-.84-.19-.87a.83.83,0,0,1-.1.58c.14.13.25.43.1.58.18,0,0,.31.29.2,0-.15-.11-.49.09-.49,0,.71.43,1.49.3,2a24.68,24.68,0,0,1,.48,2.68c.18.07.08.34,0,.43.35,0,.15.56.29.68s.24,0,.1.2c.16.06,0-.16.19-.1a16.69,16.69,0,0,1,1.07,2.43c-.08,0-.24-.05-.19.1.34.1.43.47.68.68v-.39c-.54-.23-.33-1.19-.78-1.51a23.94,23.94,0,0,1-.48-2.52c-.18-.3-.29-.87,0-1.12-.28-.7-.18-1.77-.39-2.53-.16-.06,0,.16-.2.1,0-.1-.06-.1-.09-.15s.06-.19.14-.24,0,.12.15.1.05-.28.19-.29a1.8,1.8,0,0,1,.1.77,4.45,4.45,0,0,0,0-1.75c.16.06,0-.15.19-.09.15,1.17.41,2.24.49,3.49.2,0,0,.31.1.44a8.2,8.2,0,0,1,.48,1.85c.14,0,.1.26.1.44A9.82,9.82,0,0,1,7.39,54a5.56,5.56,0,0,1,.87,1.55c.47.44.63,1.19,1.27,1.46v.19c.07,0,.18,0,.19.05A10.12,10.12,0,0,1,11,58.9c.26-.06.21.19.39.2,0-.08,0-.18.05-.2a3.59,3.59,0,0,1,1.51,1,.76.76,0,0,1,.87.59c.32,0,.38.27.78.19a.93.93,0,0,0,.78.49v-.2c-.15,0-.42.07-.49,0s.12,0,.2,0a2,2,0,0,0-1.27-.68c-.32-.42-.93-.56-1.26-1-.62-.06-.7-.66-1.26-.77v-.2H11a24.49,24.49,0,0,1-2-2.57v-.24c-.12,0-.11-.11-.19-.15a11.58,11.58,0,0,1-1-3.26c.33.66.62,1.36.92,2,.12.07.12-.22.2,0s-.16,0-.1.19c.17.37.43.64.58,1,.15.08.31.15.29.39.41.43.75.94,1.17,1.36a.54.54,0,0,1,.49.49c.15.06,0-.16.19-.1s-.16,0-.1.19.1-.16.3-.09c.95.72,2,1.34,3,2,.22-.07.16.16.39.09-.4-.48-1.12-.63-1.46-1.16h-.29c.06-.16-.16,0-.1-.2-.93-.28-1.26-1.16-2.14-1.5.07-.19-.13-.1-.1-.25h-.29c-.28-.72-.89-1.11-1.07-1.94-.12,0-.11-.11-.19-.15s.12,0,.1-.14c-.3-.08-.37-.64-.25-1,.25.22.2.74.54.87.14,0,.09-.16.29-.1.05-.21,0-.27-.1-.38.16.06,0-.16.2-.1.15.46.51.71.68,1.16.14.09.3.15.29.39.17.13.38.21.39.49.19.16.45.26.48.58.85.81,2.07,1.24,2.92,2a12.32,12.32,0,0,1,1.65.88c.39,0,.49.22.88.19-.23-.35-.75-.42-1-.78-.75-.09-1-.68-1.75-.77-.32-.35-.57-.79-1.06-1-.09.19.23.24,0,.38-.26-.17-.34-.52-.72-.58v-.19a1.49,1.49,0,0,1-.88-1c-.07,0-.18,0-.19,0-.2-.51-.66-.74-.68-1.41-.42-.23-.21-1.09-.49-1.46H11c0,.41.29.55.49.78,0-.29-.31-.5-.24-.68.15.1.17.35.34.43.07.25-.15.21-.1.44.21.08,0-.27.2-.19,0,.23.17.3,0,.48.12.07.11-.22.19,0s-.15,0-.1.2a2.75,2.75,0,0,0,.59.48c0,.08-.13,0-.1.15.4.41.67.95,1.07,1.36a2.26,2.26,0,0,1,.87.68c.21,0,.31.08.29.29.23,0,.22.17.49.1.07.33.47.34.68.49s.11.22.19.29.15,0,.2,0,.05.16.09.19.15,0,.2,0,.13.25.19.29.29,0,.39.1.05.17.1.19a8,8,0,0,0,1.46.59c.07,0,.13.16.19.19a9.39,9.39,0,0,0,2.63,1c-.07.16.15,0,.09.2.61-.09,1,.42,1.46.19.14.34,1,.44,1.12,0,.07,0,.25,0,.24.05s-.12,0-.1.15.35,0,.29.29c.66-.17,1.29.5,1.66,0,0-.1-.22-.2-.05-.29,1.4.25,3-.14,4.52-.1v-.19a18.43,18.43,0,0,1-3-.1,1,1,0,0,1-1,0,2.55,2.55,0,0,1-1.75-.1c-.07.21.27,0,.2.2h-.29c0-.17,0-.24-.2-.2s.16,0,.1.2c-.74.06-1.29-.5-1.94-.2a.43.43,0,0,0-.49-.29c-.06.16.16,0,.1.19a16.23,16.23,0,0,1-3-1c0-.13.28,0,.2-.14-.42-.07-.53-.45-1-.49v-.19c-.16-.06,0,.15-.2.09-.08-.53-.73-.5-1-.87H17c-.55-.68-1.62-.84-1.94-1.75-.54-.13-.6-.73-1-1,.06-.26-.16-.25-.09-.53a.53.53,0,0,1-.25-.68,5.14,5.14,0,0,0,1.51,1.84c0-.06,0-.11.1-.09-.1-.2-.2-.39-.29-.59h.38c0,.21.25.21.49.2,0,.17.2.16.29.24s0,.14-.05.15l-.43-.15c0-.08.12,0,.09-.15s-.2.09-.19.25a8.15,8.15,0,0,0,1,1.07c.06.2-.08.21-.1.34.15.14.41.17.49.38h.39c.06-.15-.16,0-.1-.19.33,0,.65.44.49.68a.24.24,0,0,0,.29-.19.5.5,0,0,1-.29-.3c.47.15.72.52,1.36.49v.19c.9.14,1.21.87,2.23.88.11.26.47.28.68.44,0,.1-.19.1-.19.24.27-.07.26.13.48.1,0-.22-.27-.12-.29-.3,1.26.12,2.4.72,3.7.49-.24-.22-.88,0-1.27-.1-.06-.24-.37-.24-.58-.34,1.11,0,2.5.63,3.59,0,.07.42-.45.27-.77.29v.2c.67.13,1.64,0,2.13.29a1.76,1.76,0,0,1,1-.1c.09.06-.08.37.14.2a.37.37,0,0,1,.63-.3c.3-.18.83-.29,1,.1a5.39,5.39,0,0,1,1.16.05.34.34,0,0,1-.39.15c-.06.15.16,0,.1.19s-.12,0-.1.1c.19-.17.64-.07,1-.1,0-.37.78-.16,1-.14-.07.18-.34.15-.59.14,0,.17.33.07.39.2a.23.23,0,0,1,.2-.2v.2c1.12,0,2.55.44,3.54,0,.18.19.78.1,1,0l.14.14c-.16.21-.4.66-.78.34a7.91,7.91,0,0,1-1.26.2c.15.42.66-.09.87.19a.63.63,0,0,0-.48.1c0,.13.16.09.1.29.7-.26,1.85.23,2.62-.1.65.32,1.38-.11,2-.1a6.77,6.77,0,0,0,3.5-1.55c-.22-.1-.32.16-.39,0,.09-.23.36-.13.53,0s.1-.19.25-.2-.16,0-.1-.19a28.67,28.67,0,0,1,2.43-1.55c0-.13-.2-.16-.34-.2-.66.38-1.17.9-1.85,1.26,0-.11-.19-.06-.24-.14a10.72,10.72,0,0,0,1.26-.92c-.4.11-.59.44-1.07.48a5.53,5.53,0,0,1-2,1.12,6,6,0,0,1,.88-.44c.05-.38.57-.3.63-.68.18-.07.09.14.24.1.23-.2.37-.47.78-.49.21-.66,1.15-.59,1.36-1.26a2,2,0,0,0-.78.39c.21-.59,1-.56,1.32-1.07h.24c.06-.19.35-.39.48-.34-.26.36-.69.54-.92.92H48a.22.22,0,0,0,.19.2,17,17,0,0,0,1.9-1.56c.5-.06.54-.59,1-.68.43-.5,1-.9,1.46-1.36,0-.21.05-.27.09-.39a19.09,19.09,0,0,1-3.11,2.53c0,.12-.19.28-.29.15.19-.36.7-.38.78-.83.47,0,.31-.6.78-.58,0-.19.08-.21.14-.3a3.77,3.77,0,0,0,1-1c-.72.27-1,1.24-1.75,1.31,0-.07.12,0,.2,0s0-.18.05-.2c.45-.14.52-.67,1-.78.28-.28.56-.82,1-.82,0,.1-.19.1-.2.24.24.09.16-.13.25-.19a.81.81,0,0,0,.53-.59c-.18,0-.16.2-.24.3-.19-.07-.1.13-.24.09.18-.65.74-.94,1.16-1.36a.37.37,0,0,1,.39-.39.53.53,0,0,1,.49-.48c.26-.71,1-.95,1.26-1.65h.19c0-.21.08-.31.29-.3A8.13,8.13,0,0,1,56.8,47.44Zm-.73-11.52c.1.2-.26.18-.29.1S56.05,35.84,56.07,35.92Zm-.39,1.31c-.17.19-.07.64-.09,1-.28,0-.24.41-.49.48C55.27,38.18,55.22,37.45,55.68,37.23Zm-.77,1.56c.22,0,.06.42-.1.39C54.76,39,54.86,38.91,54.91,38.79Zm-.29.48h.29c-.2.13-.14.52-.39.59A.88.88,0,0,0,54.62,39.27Zm.19-14.47c.08,0,.09,0,.1-.1a.46.46,0,0,1,.19.48C54.91,25.15,54.91,24.93,54.81,24.8ZM57.53,22c-.19-.07-.26-.26-.29-.49C57.35,21.64,57.52,21.73,57.53,22Zm-1.36-1.36a.22.22,0,0,0,.19.19c0,.14-.16.1-.09.29-.14-.15-.32-.26-.39-.48Zm-.68-.88c.1.1,0,.35.29.29a.22.22,0,0,1-.19.2,2.64,2.64,0,0,0-.29-.49Zm0,5.54c-.1.1,0,.35-.29.29v-.29Zm-1.75-4.86a.46.46,0,0,1,.2.39C53.77,20.79,53.71,20.64,53.74,20.42Zm-.29,9.72c.07-.33-.14-.38-.1-.68a1.58,1.58,0,0,0,.34.29c.17-.14-.09-.26-.14-.34.13-.23.05-.27,0-.53-.16-.06,0,.15-.2.09,0-.23.18-.3,0-.48.15.05.09-.11.1-.2.17,0,.12.2.29.2,0,.34.07.58.29.68v.58c-.15.06,0-.16-.19-.1s.16.1.1.3c-.09,0-.25-.05-.2.09-.11,0-.07-.09-.14-.09s.11.07,0,.19Zm.1.1h.19c0,.08-.05.24.1.19-.19.22,0,.12.1.29C53.63,30.73,53.6,30.47,53.55,30.24Zm.77-2.43c.21,0,0,.4.1.58-.19,0,0-.42-.19-.49C54.31,27.92,54.32,27.87,54.32,27.81Zm.1,3c.16-.06,0,.16.2.1,0,.12-.15.18-.1.39-.2,0-.2-.26-.29-.39C54.31,30.91,54.47,31,54.42,30.82Zm0,11c0,.4-.36.48-.29,1-.3-.07-.21.25-.39.29A2.7,2.7,0,0,1,54.42,41.8Zm-.29-13.41v.19a.22.22,0,0,1-.29-.19Zm-.78-2.33h.2c-.07.29.09.36.09.58-.22.07-.16-.16-.38-.1A.63.63,0,0,0,53.35,26.06Zm.59,1.26c-.24.25.09.48,0,.88-.26,0-.27-.22-.3-.44a3.06,3.06,0,0,1-.38-.54C53.45,27.45,53.72,27.07,53.94,27.32Zm-.49.39a.27.27,0,0,0,0,.39.22.22,0,0,1-.19.19,1.4,1.4,0,0,1-.1-.68C53.3,27.6,53.25,27.78,53.45,27.71ZM53,20c.18.08.08.28.3.1,0,.34.32.32.38.58-.22,0-.21-.17-.48-.09-.06-.16.15,0,.1-.2-.12,0-.18.15-.39.1A.65.65,0,0,0,53,20Zm-.09,1.85c.17.09.18.34.29.49-.17,0-.13-.2-.29-.2Zm-.2-1.46c-.09.17-.09.13,0,.29-.16.06,0-.15-.19-.09.19-.2,0-.2-.1-.39C52.55,20.22,52.5,20.43,52.67,20.42Zm-1-5.83c.12.05.18.15.39.1-.07.29.16.29.1.58A.23.23,0,0,1,52,15H51.6C51.55,14.77,51.66,14.71,51.7,14.59Zm-.29-.14c0,.13-.06.29-.2.34-.13-.12-.14-.37-.29-.49C51.15,14.28,51.35,14.3,51.41,14.45Zm-1-1.41c0,.1-.1.07-.1.14s.27.06.19.29a.6.6,0,0,0,.68,0c0,.14-.16.1-.09.29-.42,0-.66-.25-1.07-.29-.07-.35-.37-.47-.49-.77A2,2,0,0,1,50.44,13Zm-1.07-.29c0,.37.41.3.39.68-.14-.06-.25-.14-.39-.2.08-.3-.15-.3-.2-.48ZM36.54,8h.39c0,.17-.17.23-.39.2ZM5.35,45.59V45.1c.08,0,.09,0,.1-.09C5.67,45.09,5.44,45.5,5.35,45.59Zm.29-3.89c-.21,0,0-.47-.1-.68C5.75,41.07,5.59,41.5,5.64,41.7Zm.1-1.16c-.3-.37.09-.88,0-1.36C6,39.55,5.62,40,5.74,40.54Zm.19-5.35a.22.22,0,0,1-.19-.29c.08,0,.09,0,.09-.1.16-.06,0,.16.2.1C6,35,5.86,35,5.93,35.19Zm.1,2a5.25,5.25,0,0,1,.48-2.52c.06,0,.09,0,.1,0C6.35,35.51,6.29,36.48,6,37.23ZM8,46.46c-.2,0,0-.33-.1-.48C8.08,46,7.93,46.32,8,46.46Zm.78-9.61H8.46c0,.14.15.14.19.24s-.1.38-.29.44a5.11,5.11,0,0,1,.1-1h.29Zm-.29-.39c0-.14.16-.1.1-.3-.19.05-.09.37-.39.3,0,.28,0,.49-.2.58.13.13.13.36-.1.39,0,1.32-.69,2.43-.38,3.79a.63.63,0,0,1,.48-.1.22.22,0,0,1-.19.29c0-.11.09-.07.09-.14-.17-.21-.19.16-.29.19.07.11.24.12.2.34.15.06,0-.16.19-.1,0,.21.12.64-.1.68,0-.24,0-.52-.14-.58-.15.11,0,.31,0,.39-.16.06,0-.16-.2-.1v-.58c-.21.11,0,.61-.09.87.15.06,0-.15.19-.09v.48c-.39.26-.17,1.13-.39,1.56-.07-.69.17-1.7-.19-2.09.05-.2.15-.27,0-.44.22-.67,0-1.77.29-2.38-.23-1,.14-1.71.19-3.06A4,4,0,0,0,7.19,38c-.15.06,0-.16-.19-.1.08-.29.27-.82.1-1.06.17-.1.21-.31.19-.59.16-.68.38-1.3.49-2,.14,0,.11.21.19.29-.27.27.2.69-.19.83,0,.13.27-.05.19.14-.51,0-.29.69-.39.83l.15.15c.28-.22.13-.88.44-1.07v.39c.15.06,0-.16.19-.1.07.29-.16.29-.1.58.15-.08.21-.24.2-.48.19-.08,0,.21.14.19s-.15-.3,0-.58c.23,0,.42,0,.48.14C8.82,35.81,9,36.45,8.46,36.46Zm.87,2.81c-.2,0,0-.4-.09-.58C9.44,38.71,9.28,39.1,9.33,39.27ZM10.6,52.59c-.22.31.18.68.19,1.07a4,4,0,0,1-.58-1.27C10.35,52.45,10.46,52.53,10.6,52.59Zm.48,1.65c-.19-.07-.26-.26-.29-.49C11,53.77,11,54.11,11.08,54.24Zm13.7,6.61h.49c.07.2-.27,0-.2.19-.16-.09-.12-.09-.29,0ZM13.9,55.5a.22.22,0,0,1-.19-.29h.19Zm-.19-1.16c0,.22,0,.36.19.38,0,.19-.26.14-.19.39-.28,0-.18-.41-.49-.39a1.45,1.45,0,0,0-.29-.68c-.16-.06,0,.16-.2.1,0,.18.21.25.2.49-.4-.28-.48-.88-.68-1.36.16-.06,0,.15.19.09a.22.22,0,0,0-.19-.19v-.58a1,1,0,0,1,.39.68c.14,0,.08-.11.09-.2a.24.24,0,0,1,.2.29c.21,0,.27.06.39.1C13.11,53.76,13.43,54.21,13.71,54.34ZM14.58,51c.27.09.32.39.39.68C14.7,51.63,14.65,51.32,14.58,51Zm.39.78a.47.47,0,0,1,.19.49C15,52.28,15,52.05,15,51.81ZM18.56,53c-.15-.06,0,.15-.19.09s-.31-.27-.49-.39V52.3c.09.17.25.26.3.48.15.06,0-.16.19-.1.1.26.45.27.58.49h-.29C18.72,53,18.5,53.13,18.56,53Zm.2.68v-.2a.24.24,0,0,1,.29.2ZM35.18,6.72c-.21,0-.31-.08-.29-.29A4,4,0,0,1,35.18,6.72Zm-.68-.19a.23.23,0,0,1-.29.19A.22.22,0,0,1,34.5,6.53ZM31.1,7.6c.27-.08.26.13.49.09.06-.15-.16,0-.1-.19s.53-.21.58,0A16.07,16.07,0,0,1,35.18,7v.2c-.18,0-.48-.07-.58,0s.51-.09.48.14-.56,0-.39.39c-.18-.1-.25.26-.29,0,.18,0,.07-.19.1-.29-.18.17-.15,0-.44,0-.15.19-.72.4-1,.19a2.43,2.43,0,0,1-1.07.2c0,.26-.34.58-.53.29.11,0,.35.06.39,0a3.94,3.94,0,0,0-1.56-.05C30.43,7.76,31.11,8,31.1,7.6Zm2.53.29c-.33.29-1.07.16-1.56.29A3.16,3.16,0,0,1,33.63,7.89ZM29.25,7.4c.36,0,.71-.32.93-.1,0-.18.36,0,.34-.19.1,0,.33-.08.29.1A1.52,1.52,0,0,0,30,7.5c-.27-.26-.4.17-.78.1Zm.68,1.94c0,.18-.31.08-.29.3-.29-.07-.36.09-.58.09A1.53,1.53,0,0,1,29.93,9.34Zm-.19-1.16c-.25.27-.8.24-1.17.39C28.73,8.21,29.23,8.18,29.74,8.18Zm-3.3,3.21a1.06,1.06,0,0,1-.59.29A1,1,0,0,1,26.44,11.39ZM21.38,51.52v.19c-.24,0-.34-.18-.48-.29C21.16,51.35,21.15,51.55,21.38,51.52Zm-1.16,2.72a.24.24,0,0,1,.29.19A.22.22,0,0,1,20.22,54.24Zm1.26,4.08c.64,0,1.17.55,1.65.39v.19A3.38,3.38,0,0,1,21.48,58.32ZM22,53.75c.34.21,1,.08,1.26.39A1,1,0,0,1,22,53.75Zm.77,5.35a.49.49,0,0,1,.49.19C23.05,59.24,22.83,59.24,22.74,59.1Zm1-4.67c-.06.16.16,0,.1.2a1.71,1.71,0,0,0-.68-.1c.09-.17.09-.12,0-.29.27.06.17-.26.39-.24-.65-.24-1.46-.32-2.14-.54,0-.11.09-.07.1-.14-.28-.26-.93-.14-.88-.73h-.38c.25-.25.81,0,1,.19.14,0,.09-.16.29-.1-.07.2.1.16.1.3.26.08.33-.22.43,0,0-.09.18-.08.15-.25s-.27.05-.19-.14c-.16-.06,0,.15-.2.09-.1-.35-.79-.11-.87-.48-.23.25-.75-.07-.88.1-.23-.32-.74-.36-.78-.88h.2c0-.14-.17-.09-.1-.29.18,0,.4,0,.44.1.18-.08-.11-.08-.05-.2.25,0,.42,0,.39.29.29-.06.29.17.58.1,0,.11-.09.07-.1.15s.08-.12.2,0c.07.27.43.25.39.63a.78.78,0,0,0,.58.15,2.16,2.16,0,0,1-.29-.59c.21,0,.27-.05.39-.09v.19c.19.07.15-.11.29-.1.07.39.49.42.78.59.11.36.66.31.77.68h-.38c0,.18.3,0,.19.29a1.7,1.7,0,0,1,1.36.58c-.26-.05-.33.09-.44.19s-.18-.14-.29-.19,0,.17,0,.24c.45.15.67.54,1.17.63,0-.24-.37-.14-.39-.38a5.36,5.36,0,0,1,1.85.58c.06.16-.16,0-.1.19a3.8,3.8,0,0,0-1.56-.19,2.24,2.24,0,0,0-1.16-.2v-.29ZM26.24,59c0-.17.19-.07.29-.1,0-.2-.34,0-.34-.19-.24.11-.16,0-.43,0-.06.16.15,0,.09.19-.08,0-.09,0-.09.1s-.1-.16-.3-.1c0,.26.36.1.39.29h-.78V59h.3c-.13-.26-.53-.25-.88-.29.05-.18.67-.13.73,0a2.77,2.77,0,0,1,.54-.29c.14-.05.08.11.09.19.31-.28.49.15.88.1C26.74,59,26.49,59,26.24,59Zm.88.19c0-.31.61-.2.68,0Zm-.2-1.94c-.07-.2.27,0,.2-.19.24.14.57.2.68.48C27.33,57.61,27.36,57.2,26.92,57.25Zm6.61,2.24c-.17,0-.23,0-.2-.2h.2Zm-.39-.88c.08-.3-.31-.14-.29-.39h.39c0,.36.68,0,.68.39Zm.1-.48c0-.15.15-.15.19-.25-.89-.29-1.89.24-3-.05,0-.16.26-.09.29-.24s-.21,0-.29-.05c.11-.3,0-.22,0-.58-.17.09-.34.18-.29.49a4.87,4.87,0,0,1-2.24-.3c0-.15.17,0,.1-.24s-.6,0-.58-.34c.11,0,.07.09.14.1l.15-.15c-.19-.18-.6-.15-1-.14-.06-.16.15,0,.09-.2-.24.29-.47-.24-.68,0v-.34c0-.08-.22,0-.24-.14-.18-.07-.09.13-.24.09,0-.2-.34,0-.49-.09v-.2c-.16-.06,0,.16-.19.1s-.36-.1-.39-.29c.38-.15.61,0,.87-.1,0,.18.36-.14.49.1,1.58-.34,2.49.81,3.79,1.07v.19A2,2,0,0,1,31.2,57c-.11.13-.36.13-.39.34.16.08.6,0,.58-.24a2.19,2.19,0,0,1,.88.09c0,.14-.17.1-.1.3.17-.37.9-.14,1.16,0,.12-.05.18-.15.39-.1,0,.12.11.12.15.19.27-.19.41.07.82,0,0,.15-.21.11-.29.2s.16,0,.1.19c.21,0,.27,0,.39-.1,0,.17-.2.13-.2.3A11.6,11.6,0,0,0,33.24,58.13Zm-.78-47V10.9c.08,0,.09,0,.1.1.12-.14.47-.15.48.09Zm.78-.14c0-.21.47-.3.68-.2C33.91,11,33.45,11.06,33.24,11ZM34.6,60.36c0-.21.47,0,.68-.1C35.18,60.37,34.72,60.59,34.6,60.36ZM33,9.15c-.08.21.27,0,.19.19-.1,0-.34-.07-.29.1-.28-.18-.73.14-1.07.2,0-.21-.37-.05-.53-.1-.16.37-.7.34-1.07.48-.16.06-.12-.07-.2-.09s0,.23-.09.19c-.45-.29-.73.14-1.22.1a3.7,3.7,0,0,1,1.6-.68c.11,0,0-.21.05-.29.3,0,.73-.37.93-.2.06-.08.18-.1.14-.29-.29.13-.66.18-1,.29V8.76c.35.25.63-.23,1.07-.19,0,.16.2.12.19.29.12,0,.12-.11.2-.15s-.21,0-.29-.05V8.37c.17.22.51.27.77.39-.09-.17-.18-.33-.48-.29.19-.3.65.21.87-.1-.09.17-.09.13,0,.29-.08,0-.18,0-.19.05s.33,0,.34.15c.1,0,.1-.19.24-.2.07-.23-.36,0-.29-.19a.48.48,0,0,0,.48-.19,5.94,5.94,0,0,0,1.75-.1c-.22.39-1.13.1-1.45.39-.16.06,0-.16-.2-.1s-.25.24-.39.34a11.35,11.35,0,0,0,2.24-.15A10,10,0,0,1,33,9.15Zm3.2,50.34a.43.43,0,0,1-.39.19A.43.43,0,0,1,36.15,59.49Zm-.09.29c0-.2.34,0,.34-.2.18,0,.19.17.43.1C36.59,59.86,36.46,59.68,36.06,59.78ZM37.8,10.12c.38.13.71-.25.88,0C38.6,10.28,37.88,10.28,37.8,10.12Zm1.56-1.94V7.89h.29C39.56,8,39.46,8.08,39.36,8.18Zm.29,2.09c-.1-.2.27-.18.29-.1S39.68,10.35,39.65,10.27ZM41.3,8.86c-.75.11-.95-.65-1.55-.39V8.28c.73-.06.85.17,1.55.29Zm3.21,50.92c.17.08.08.28.29.09v.2h-.29ZM47.62,10.7c0-.19-.19-.26-.29-.38h.39c-.08.3.24.2.29.38Zm1.46,42h-.29c0-.16.2-.12.19-.29.17.09.12.09.29,0C49.28,52.56,49.07,52.52,49.08,52.68Zm.48-.09v-.2H50C49.92,52.56,49.78,52.61,49.56,52.59Z"/><path class="cls-1" d="M14.05,59.58c-.12-.06-.12-.24-.34-.19a8.32,8.32,0,0,0,2.13,1.26c-.44-.46-1.19-.62-1.65-1.07.61.14,1,.53,1.56.68-.2-.42-.9-.33-1.07-.77A1.19,1.19,0,0,0,14.05,59.58Z"/><path class="cls-1" d="M56.36,34.22a.27.27,0,0,1,0-.39c-.19.19-.26,0-.38-.09a2.08,2.08,0,0,0,.19.58C56.26,34.31,56.41,34.37,56.36,34.22Z"/><path class="cls-1" d="M46.26,7.94c0-.11-.27,0-.39-.05v-.2c-.22-.07-.52-.06-.58-.29-.18,0-.49.06-.59-.05s.13,0,.1-.14a6.86,6.86,0,0,0-3.21-.88v.2c1.18,0,1.77.63,2.82.77-.06.16.16,0,.1.2.53-.08.62.29,1.07.29V8C45.79,7.64,46.11,8.39,46.26,7.94Z"/><path class="cls-1" d="M22.35,6.82c-1.25.85-2.91,1.3-3.88,2.43C19.79,8.53,21,7.7,22.35,7Z"/><path class="cls-1" d="M34.31,7.4c-.06-.16.15,0,.09-.19-.12,0-.17.14-.38.09C34,7.48,34.21,7.37,34.31,7.4Z"/><path class="cls-1" d="M37.51,7.3c0,.23.33,0,.39,0s0,.12.1.1-.16,0-.1-.19C37.78,7.25,37.72,7.35,37.51,7.3Z"/><path class="cls-1" d="M48.4,8c0-.18-.26-.13-.2-.38-.29,0-.38-.21-.58-.3C47.78,7.62,48.14,7.75,48.4,8Z"/><path class="cls-1" d="M46.16,7.4v.2a3.38,3.38,0,0,1,.68.19A1,1,0,0,0,46.16,7.4Z"/><path class="cls-1" d="M13.51,8.76c.25,0,.34-.18.49-.29C13.75,8.48,13.66,8.65,13.51,8.76Z"/><path class="cls-1" d="M17.25,10.9a6.17,6.17,0,0,0,2.09-1.56,2.29,2.29,0,0,0-1.21.78,4.1,4.1,0,0,0-1.51,1.17A.58.58,0,0,0,17.25,10.9Z"/><path class="cls-1" d="M17.79,9.83c.05-.14.14-.25.19-.39-.32.17-.49.49-.87.58a.22.22,0,0,0,.19.2C17.41,10,17.42,9.75,17.79,9.83Z"/><path class="cls-1" d="M13.32,13.91c.4,0,.46-.44.68-.68A2.59,2.59,0,0,0,13.32,13.91Z"/><path class="cls-1" d="M12.64,14.49a2.07,2.07,0,0,0,.77-1h.2c-.07-.29.26-.19.19-.48C13.36,13.47,12.81,13.8,12.64,14.49Z"/><path class="cls-1" d="M63.26,24.36a24.58,24.58,0,0,0-1.55-4.18v-.24c-.15-.31-.49-.42-.68-.73-.06-.09,0-.25-.1-.34-.4-.56-1.23-.91-1.36-1.65-.12,0-.12-.11-.19-.15s.12,0,.09-.15,0,.16-.19.1.16,0,.1-.19-.2.21-.29.05.13-.1.09-.25,0,.16-.19.1a41.45,41.45,0,0,0-3.4-2.92v.49c.93.07,1.08.93,1.84,1.17,0,.26.17.25.3.34.05.31.38.35.48.63.49,0,.37.67.88.68v.19c.18,0,.21.08.29.15A35,35,0,0,1,62,21.15v.24a.51.51,0,0,1,.2.49c.28.25.25.81.48,1.12v.29c.27.54.31,1.31.58,1.85,0,.32,0,.63.2.72C63.5,25.25,63.18,25,63.26,24.36Z"/><path class="cls-1" d="M11.57,15.18a4.27,4.27,0,0,1-.88.87c0,.21-.08.31-.29.29-.27.41-.71.65-.87,1.17h-.2C8.84,18.4,8.2,19.16,7.68,20a.57.57,0,0,1-.29.59v.29c.3,0,.33-.25.39-.49H8c.27-.41.36-1,.78-1.26,0-.24.15-.31.29-.39,0-.52.56-.55.58-1.07.14,0,.1-.16.3-.1,0-.32.31-.33.29-.68.19.07.15-.1.29-.09,0-.25.09-.34.14-.49.08,0,0,.13.15.1a8.1,8.1,0,0,1,1-1.26Z"/><path class="cls-1" d="M5.45,24.7c-.16-.06,0,.16-.2.1v.38c-.35.24-.3.87-.48,1.27.79-1.18,1.35-2.6,2-3.89.06-.16-.16,0-.1-.19.27-.31.3-.87.68-1.07v-.39c-.53.57-.74,1.46-1.26,2C6.05,23.68,5.53,24,5.45,24.7Z"/><path class="cls-1" d="M11.18,16.24c.24,0,.3-.14.39-.29A1.88,1.88,0,0,0,11.18,16.24Z"/><path class="cls-1" d="M57.24,16.15a.92.92,0,0,0,.39.39A.87.87,0,0,0,57.24,16.15Z"/><path class="cls-1" d="M57.82,17.22V17a.47.47,0,0,1-.39-.39h-.19A2,2,0,0,0,57.82,17.22Z"/><path class="cls-1" d="M57.73,16.63a.84.84,0,0,0,.38.39A.84.84,0,0,0,57.73,16.63Z"/><path class="cls-1" d="M11.47,16.73c-.26-.05-.25.17-.34.29a2.94,2.94,0,0,0-.83,1.07c.19,0,.25-.2.49-.19C10.93,17.42,11.36,17.24,11.47,16.73Z"/><path class="cls-1" d="M55,17.51c-.12-.17-.2-.38-.48-.39C54.6,17.33,54.86,17.36,55,17.51Z"/><path class="cls-1" d="M10,17.6v.2a1.08,1.08,0,0,0,.49-.58C10.22,17.23,10.32,17.62,10,17.6Z"/><path class="cls-1" d="M58.31,17.6c0-.07,0-.17,0-.19.54.48,1,1.06,1.5,1.55,0-.26-.16-.25-.29-.34a3.86,3.86,0,0,0-1.16-1.31c-.14,0-.1.17-.3.1A.22.22,0,0,0,58.31,17.6Z"/><path class="cls-1" d="M60.83,20.33a9.78,9.78,0,0,0,1,1.74A4.7,4.7,0,0,0,60.83,20.33Z"/><path class="cls-1" d="M60.15,20.42v.29c.19.19.68.42.49.68.3-.07.21.25.39.3A2.91,2.91,0,0,0,60.15,20.42Z"/><path class="cls-1" d="M58.5,21.39c.1.14.1.36.29.39,0-.12-.14-.18-.09-.39Z"/><path class="cls-1" d="M61.32,22.27c0-.25-.18-.34-.29-.49C61.06,22,61.13,22.2,61.32,22.27Z"/><path class="cls-1" d="M56.66,23.05c-.09-.31-.33-.46-.39-.78h-.2c-.06.29.26.19.2.48C56.57,22.68,56.41,23.07,56.66,23.05Z"/><path class="cls-1" d="M60.35,23.24c-.08-.38-.11-.79-.39-1A3.13,3.13,0,0,0,60.35,23.24Z"/><path class="cls-1" d="M60.64,25c-.13-.32,0-.86-.39-1-.06.38.26.39.2.78C60.65,24.72,60.44,25.06,60.64,25Z"/><path class="cls-1" d="M58.6,25.57h.29c-.18-.3-.18-.78-.48-1C58.4,25.05,58.82,25.18,58.6,25.57Z"/><path class="cls-1" d="M58.11,25c-.06.23.17.16.1.39a.23.23,0,0,0,.29-.2.22.22,0,0,0-.19-.19c-.06.16.16,0,.1.19h-.2C58.2,25.1,58.26,24.94,58.11,25Z"/><path class="cls-1" d="M56,25.28c.13.13,0,.47.29.49-.13-.13-.1-.42-.1-.68A.21.21,0,0,0,56,25.28Z"/><path class="cls-1" d="M59.09,26.84c0,.26-.12.76.09.87v-.78h.1v.68C59.64,27.52,59.49,26.75,59.09,26.84Z"/><path class="cls-1" d="M56.46,29.36c-.15-.06,0,.16-.19.1,0-.54-.25-1.27,0-1.75,0-.12-.15-.18-.1-.39-.29.07-.19-.26-.49-.19,0,.24.38.14.39.39a.75.75,0,0,1-.68-.2c-.06.23.16.16.1.39h.29c-.05.2.23.32,0,.49,0-.11-.18-.12-.34-.1v.29c.2.07.15-.1.29-.1s.06.46.2.59h-.2c0-.1.08-.34-.1-.3s0,.21-.14.2h-.15a2,2,0,0,0-.19-.58c-.16-.06,0,.15-.2.09,0,.12.15.18.1.39-.08,0-.24-.05-.19.1a.72.72,0,0,1,.09.87c.23.07.17-.16.39-.09,0,.23.18.3,0,.48.19,0,.14.26.39.2,0-.2-.21-.47-.05-.68.17.13.23.39.34.58.22,0,.12-.27.29-.29s-.15,0-.09-.2A.22.22,0,0,0,56.46,29.36Zm-.87.1c-.07-.23.16-.16.09-.39.21,0,.31.08.3.29C55.75,29.3,55.81,29.52,55.59,29.46Z"/><path class="cls-1" d="M61.13,29.85v-.29c-.16-.06,0,.15-.2.09s.11-.15.1-.29c-.17.09-.12.09-.29,0-.07.29.16.29.09.59C61,30,60.93,29.78,61.13,29.85Z"/><path class="cls-1" d="M58.79,32c.15-.06.25-.14.39-.2v-.48h-.29c0,.3-.21.38,0,.58C58.83,31.89,58.78,31.9,58.79,32Z"/><path class="cls-1" d="M55.59,34.61c.18,0,.08-.37.39-.29,0-.18-.2-.07-.3-.1C55.75,34.45,55.52,34.38,55.59,34.61Z"/><path class="cls-1" d="M3.89,34.51c0,.21-.05.27-.1.39.16.06,0-.16.2-.1C4,34.7,4.07,34.47,3.89,34.51Z"/><path class="cls-1" d="M59.67,36.26a3.82,3.82,0,0,0,.48-1.65A6,6,0,0,0,59.67,36.26Z"/><path class="cls-1" d="M58.21,34.9c.28-.11.11.22.29.2.07-.23-.16-.17-.09-.39A.22.22,0,0,0,58.21,34.9Z"/><path class="cls-1" d="M56.07,40.05h.2c-.05-.21,0-.27.09-.39C56.17,39.69,56.17,39.92,56.07,40.05Z"/><path class="cls-1" d="M59.28,41c-.13.94-.78,1.36-1,2.24a7.42,7.42,0,0,0,1.55-3.21C59.6,40.31,59.61,40.84,59.28,41Z"/><path class="cls-1" d="M55.68,41.22c-.14.05-.24.14-.38.19.17.18,0,.25,0,.49C55.57,41.81,55.5,41.39,55.68,41.22Z"/><path class="cls-1" d="M55.3,43.36h.29c0-.3.21-.44.29-.68A1.34,1.34,0,0,0,55.3,43.36Z"/><path class="cls-1" d="M60.15,44.13c.06-.36.12-.72.49-.77v-.3a4.79,4.79,0,0,0-1,1.66C59.89,44.58,59.9,44.23,60.15,44.13Z"/><path class="cls-1" d="M55.93,43.26c-.24.36-.63.57-.73,1.07.23-.19.32-.52.58-.68v.58c.32-.1.21-.63.39-.87C56,43.39,56.11,43.19,55.93,43.26Z"/><path class="cls-1" d="M59.28,43.36c-.25,0-.09.36-.39.29a12.4,12.4,0,0,1-1.07,1.75.27.27,0,0,1,0,.39c.2.06.16-.11.29-.1v.19a.9.9,0,0,0,.39-.58c-.2,0-.26.42-.48.24a.72.72,0,0,0,.19-.44c.23,0,.23-.13.34-.19s.1.19.24.19c-.06-.19.11-.15.1-.29-.15.16-.41,0-.48-.19.19,0,.26-.19.38-.29v.29c.16.06,0-.16.2-.1s-.16,0-.1.2c.19-.07.26-.26.29-.49-.08,0-.28.2-.39.05v-.15C59.13,44.05,59.07,43.56,59.28,43.36Z"/><path class="cls-1" d="M56.75,45.49a1.41,1.41,0,0,0-.48.49A1.33,1.33,0,0,0,56.75,45.49Z"/><path class="cls-1" d="M53.64,46.17h-.29c-.06.16.16,0,.1.2-.06,0-.12,0-.1.09A.46.46,0,0,0,53.64,46.17Z"/><path class="cls-1" d="M56,46.37c-.25,0-.11.41-.49.29,0,.21-.05.27-.1.39A1.4,1.4,0,0,0,56,46.37Z"/><path class="cls-1" d="M57.73,47.24h-.2c-.33.65-1,1-1.17,1.75.72-.55,1.07-1.46,1.75-2,0-.34.34-.24.3-.58C58.15,46.63,57.81,46.81,57.73,47.24Z"/><path class="cls-1" d="M52.58,47.92h-.2c0,.34-.32.32-.39.59C52.37,48.49,52.38,48.11,52.58,47.92Z"/><path class="cls-1" d="M52.77,48.6c0-.13-.17-.09-.1-.29h-.19c0,.29-.31.38-.1.58-.36-.09-.28.24-.58.2v.19c.07,0,.18,0,.19,0s-.25.17-.29.34h.19c0-.46.57-.34.69-.68-.08,0-.18,0-.2-.05C52.52,48.84,52.59,48.66,52.77,48.6Z"/><path class="cls-1" d="M52.19,49.77a.43.43,0,0,1-.39.19v.2c.2-.08.38-.4.58-.2,0-.16.2-.12.2-.29C52.38,49.73,52.38,50,52.19,49.77Z"/><path class="cls-1" d="M20.22,51.62v-.2c-.2.07-.16-.1-.3-.1A.55.55,0,0,0,20.22,51.62Z"/><path class="cls-1" d="M49.76,51.71v-.19a.46.46,0,0,0-.29.29C49.6,51.82,49.56,51.65,49.76,51.71Z"/><path class="cls-1" d="M22.45,52.78c.18.22,0,.12-.1.29.24,0,.31-.17.49,0C22.87,52.82,22.7,52.75,22.45,52.78Z"/><path class="cls-1" d="M53.35,53.56a1.26,1.26,0,0,1-1,.58v.15c0,.13.23,0,.2.09s-.16.27-.39.25c-.06.16.15,0,.09.19a2.2,2.2,0,0,0-.77.68c.64-.26,1-.82,1.65-1.07.09-.46.47-.62.68-1C53.64,53.52,53.52,53.73,53.35,53.56Z"/><path class="cls-1" d="M5.54,54.14c-.13-.16-.08-.5-.29-.58,0,.22.16.29.1.58Z"/><path class="cls-1" d="M48.3,57.25c.12,0,.18-.14.39-.1V57c-.69.12-.93.69-1.56.87a.24.24,0,0,0,.29.2c-.11-.33.28-.22.39-.29s.25-.39.49-.39c0,.06,0,.11.1.1C48.46,57.29,48.24,57.41,48.3,57.25Z"/><path class="cls-1" d="M48.69,57.45c-.06.15.16,0,.1.19H48.4c0,.14.21.11.29.19,0-.18.27-.18.19-.48C48.73,57.29,48.85,57.51,48.69,57.45Z"/><path class="cls-1" d="M13.22,58.71c-.14,0-.1.16-.29.1-.2-.23-.33-.52-.68-.59v.2c.51.11.8.94,1.36.68-.25,0-.33-.09-.49-.15S13.26,58.86,13.22,58.71Z"/><path class="cls-1" d="M19.63,59c-.06-.13-.2-.18-.39-.19A.45.45,0,0,0,19.63,59Z"/><path class="cls-1" d="M20.7,58.9c.13.17.21.38.49.39C21,59.2,21,58.88,20.7,58.9Z"/><path class="cls-1" d="M18.76,60.56c-.35.06-.38-.21-.68-.2a2.58,2.58,0,0,0,1.65.68C19.57,60.72,18.84,61,18.76,60.56Z"/><path class="cls-1" d="M13.41,60.46a.74.74,0,0,1,.39.39Q13.88,60.39,13.41,60.46Z"/><path class="cls-1" d="M20.7,61.24c-.27.07-.26-.14-.48-.1-.08.2.27,0,.19.19C20.51,61.3,20.75,61.41,20.7,61.24Z"/><path class="cls-1" d="M17.3,61.53a3.1,3.1,0,0,0,2,.68c.06-.16-.16,0-.1-.2h-.58c0-.16-.2-.12-.19-.29-.16-.06,0,.16-.2.1s.16,0,.1-.2C18,61.91,17.81,61.39,17.3,61.53Z"/><path class="cls-1" d="M18.86,61.72c0,.19.35.1.38.29h.39A1.13,1.13,0,0,0,18.86,61.72Z"/><path class="cls-1" d="M17.59,62c-.3.05-.38-.13-.58-.19C17.05,62,17.46,62.25,17.59,62Z"/><path class="cls-1" d="M19.44,62.21c-.06.15.16,0,.1.19a8.83,8.83,0,0,0,.92.2c0-.08.15-.08.14-.2C20.33,62.22,19.7,62.4,19.44,62.21Z"/><path class="cls-1" d="M22.16,62.69c-.53.23-.67-.14-1.26-.09.18.21,0,.11-.1.29a.49.49,0,0,1,.49.19H21c.31.2.69-.12,1,.1,0-.18.19-.07.29-.1C22.2,62.89,22,62.89,22.16,62.69Z"/><path class="cls-1" d="M14.68,64c.22,0,.36,0,.39-.2-.23-.13-.56-.16-.78-.29C14.36,63.69,14.61,63.73,14.68,64Z"/><path class="cls-1" d="M15.75,64.15c.29-.13.6.33.68-.05-.26-.09-.66,0-.88-.14C15.48,64.16,15.82,64,15.75,64.15Z"/><path class="cls-1" d="M20.31,64.93c-.6,0-.81-.42-1.45-.39A2.24,2.24,0,0,0,20.31,64.93Z"/></g></g></svg>