<svg xmlns="http://www.w3.org/2000/svg" viewBox="0 0 58.6 59.88"><title>资源 1</title><g id="图层_2" data-name="图层 2"><g id="央铋_1" data-name="央铋 1"><path d="M27.1,6c.07.33-.59-.07-.52.26h.78A.32.32,0,0,0,27.1,6Z"/><path d="M38.51,10.27c.56,0,.66.37,1.16.39C39.5,10.39,38.85,9.94,38.51,10.27Z"/><path d="M44.08,11.76c.29.6,1,.76,1.3,1.36h.39A8.71,8.71,0,0,0,43,10.66C43.17,11.25,43.71,11.42,44.08,11.76Z"/><path d="M41.1,12.22a1.17,1.17,0,0,1,.52.51c1,.08,1.4.67,2.07,1-.08-.21.21,0,.13-.26a.46.46,0,0,1-.52-.19c0-.1.17-.05.13-.2-.19.07-.11-.14-.13-.26-.39.09-.26-.34-.65-.26v-.25c-.32,0-.4-.2-.51-.39h-.52a.92.92,0,0,0-.91-.52C40.79,11.75,41.21,11.72,41.1,12.22Z"/><path d="M45.77,14.29V14c-.53-.17-.79-.6-1.17-.91h-.39c0,.25.34.18.26.52C45.07,13.69,45.21,14.2,45.77,14.29Z"/><path d="M48.75,16.75a7,7,0,0,0-1.82-2.2c0,.59.59.54.52,1.17C48.12,15.82,48.06,16.66,48.75,16.75Z"/><path d="M46,14.68c0,.34.19.42.52.39C46.43,14.88,46.35,14.66,46,14.68Z"/><path d="M46.41,15.72c0,.24.35.17.26.52h.65c-.08.2.21,0,.13.25-.11,0-.32-.06-.26.13.3,0,.49,0,.52.26s-.22.13-.13.39h.78c-.18-.85-.93-1.15-1.43-1.68C46.77,15.64,46.69,15.78,46.41,15.72Z"/><path d="M47.06,17.92c.57.12.67.71,1.3.78-.09-.47-.49-.64-.65-1h-.65Z"/><path d="M50.17,20.9c.36-.1.35.18.65.13.1-.35-.17-.34-.13-.65-.47,0-.35-.68-.9-.64C49.83,20.21,50.35,20.21,50.17,20.9Z"/><path d="M50,21.16c0-.46-.38-.48-.38-.91h-.78a2.62,2.62,0,0,0,.78,1C49.58,20.87,49.92,21.08,50,21.16Z"/><path d="M50.3,21.81v.39h.26C50.45,22.09,50.5,21.83,50.3,21.81Z"/><path d="M49.79,28.81c-.1.66.18.94.12,1.56h.39C50.13,29.85,50.21,29.08,49.79,28.81Z"/><path d="M53.42,29.85v-.52h-.26A.57.57,0,0,0,53.42,29.85Z"/><path d="M52.38,30.11v-.39h-.26C52.23,29.82,52.19,30.08,52.38,30.11Z"/><path d="M50.3,30.89V30.5H50A.31.31,0,0,0,50.3,30.89Z"/><path d="M51.47,32.44c.1-.44-.19-.5-.13-.91h-.26C51.29,31.76,51.15,32.33,51.47,32.44Z"/><path d="M50,44.63a8.44,8.44,0,0,0-.38,1.68,2.46,2.46,0,0,0,.9-1.81C50.26,44.41,50.35,44.71,50,44.63Z"/><path d="M43.69,44.63c0,.25-.34.18-.26.52.17-.18.63-.06.65-.39C43.82,44.85,43.88,44.62,43.69,44.63Z"/><path d="M8.69,55.52v-.26a3,3,0,0,1-1.17-.91H7.26C6.66,53.48,5.67,53,5.19,52a5.81,5.81,0,0,1-.91-1.43,13.44,13.44,0,0,1-2.6-3.43v-.33a2,2,0,0,1-.51-1.16H.91a10.27,10.27,0,0,0,1,2.46c-.32-.13-.41-.49-.77-.58a3.07,3.07,0,0,0-.52-1.37c0,.56.3.83.26,1.43a1.12,1.12,0,0,1,.26.78A28.72,28.72,0,0,1,3,51.5c.1,0,.24,0,.26.06-.06.26.23.17.13.46.68.12.62,1,1.17,1.23v.32c.25,0,.28.11.39.2,0,.33.38.38.51.65s.33.39.65.58c.16.09.26.41.39.52s.2,0,.26,0,.24.4.39.52.2,0,.26,0,.09.23.13.26.19,0,.26,0,.06.21.13.26.19,0,.26,0,.15.31.26.39.19,0,.26,0,.07.22.13.26a3.2,3.2,0,0,0,1.16.38c.12.37.42-.06.65,0,.13-.65-.29-.74-.26-1.29C9.64,56.21,9.33,55.7,8.69,55.52Z"/><path d="M10.89,57.72c.07.19.19.33.26.52h.52C11.66,57.82,11.3,57.75,10.89,57.72Z"/><path d="M54.19,35.94c-.09,0-.24,0-.26-.06a16,16,0,0,0,0-4.48c-.36.15-.14-.28-.39-.25A19.29,19.29,0,0,1,53.61,35c-.37-.45.11-1.17-.32-1.68-.27.73.23,2.14-.07,3.11A7.41,7.41,0,0,1,53,33.22c-.26,0-.26-.35-.52-.39.29,1.07,0,2.72.26,3.5-.28,0-.05.15,0,.2-.28.3-.06,1.1-.13,1.62-.5.06-.62-.25-1,0-.19-.09-.22-.34-.19-.65a.78.78,0,0,0-.78.45c0,.19.4-.05.39.13v.33c-.41.06-.57.37-1,.38,0-.11.07-.32-.13-.25.06.46-.57.58-.77.58.17-.46.86-.93,1.29-.71,0-.08,0-.16.13-.13a.66.66,0,0,1,0-.78c-.11,0-.38.08-.39-.07-.08-.41.49-.16.39-.58-.3.19-.24.27-.65.13,0,.56-.29.82-.25,1.43a.7.7,0,0,0-.25,0v0s-.2-.21-.22-.07.05,0,0,.09a.11.11,0,0,1-.09-.07c0-.1.16-.05.13-.19-.18-.07-.22,0-.24.07a.15.15,0,0,1,0-.08s0,0,0,0,0,.06-.1.07c0-.25-.2-.35,0-.53-.3,0-.54-.25-.78,0v-.26c.44-.12.91-.54,1.36-.26.26-.11.36-.38.71-.39-.05-.4.35-.35.39-.65-.35.15-.58.75-1,.59.1-.53.72-.53.77-1.11-.15,0-.47.08-.51-.06s.22-.17.12-.46a.5.5,0,0,0-.39.29c-.05,0-.07.07-.15.08a.17.17,0,0,0,0,.12.5.5,0,0,1-.53.29c0,.38-.3.48-.52.65,0-1.18,1.67-1.42,1.3-2.59-.36.4-.81,0-1,.39V33.09h.12a.19.19,0,0,1,.07-.12h.07s0,0,0-.05l.3-.21a2.46,2.46,0,0,0,0-.66,1.12,1.12,0,0,0,.62.79,15.29,15.29,0,0,1,0-2.46c-.18-.17-.13-.57-.13-.91-.17,0-.16-.15-.26-.19-.09-.6-.19-1.19-.31-1.75a.82.82,0,0,0,.78-.15,2.14,2.14,0,0,0-.09-1.29A4.55,4.55,0,0,1,50,27.26c.39-.05.28.41.39.64-.11,0-.32-.06-.26.13s.21,0,.13.26c.21.08.05-.21.26-.13s0,.61.26.65c.32-.71-.18-1.72-.26-2.46-.24,0,0,.41-.39.26v-.39h.39c-.28-.72-.4-1.58-.65-2.34-.28-.09,0,.39-.19.39s-.62-.47-.32-.77c-.08,0-.16,0-.13-.13-.2-.05-.08.22-.33.13s-.61-.37-.32-.65c-.26-.09-.21.14-.39.13v-.65c-.56-.12-.64-1-.71-1.43.44.57,1,1,1.1,2,.4-.1.19.41.52.39,0-.16-.08-.47.06-.52a2,2,0,0,1,.46,1c.26.08,0-.39.32-.25.81,1,.84,2.79,1.62,3.82,0,.31,0,.55.26.58,0-.71-.35-1.42-.2-2.07.52.58.35,1.86,1,2.33-.09-.26.14-.2.13-.39a1,1,0,0,1-.2-1c.19.41.25,1,.46,1.36s-.2.88.19.84a19.32,19.32,0,0,0-2-7.78c-.1.11-.36.07-.39.26a.85.85,0,0,1,.13.65c.31.06.26.47.52.58.18,1.17.84,2.19.84,3.31-.69-.67-.59-2.13-1.36-2.72.09.26-.14.2-.13.38.33.52.93,1.11.72,1.95-.57-.84-.7-2.12-1.24-3-.35.28-.78-.18-1.29-.13-.1-.4-.5-.85-.33-1.3.27.32.27.9.59,1.17,0-.83-.5-1.23-.52-2.08h-.39c0-.2-.06-.24-.13-.32s.2-.06.13-.26-.24-.4-.65-.32c0,.09,0,.24-.06.26-.22-.37-.77-.74-.46-1.24-.11-.2-.43-.22-.39-.58-.15,0-.47.08-.52-.06s.37.06.26-.2-.38-.39-.38-.78c-.31.05-.3-.22-.65-.13.16.4,0,.38,0,.91.28.11.32.45.51.65-.52-.3-1.11-.52-1.16-1.3a1.42,1.42,0,0,1-.65-.9c-.3,0-.56-.43-.45-.65a5.92,5.92,0,0,0,.84.52v-.39a20.88,20.88,0,0,0-3.63-3h-.78c-.4-.64-1.27-.81-1.55-1.56l-.25-.1c0-.05-.08-.05-.13-.06l-.1,0s0,0,0,0a.41.41,0,0,0,.3-.1c0-.19-.17-.26-.23-.43.09-.06.13-.19.25-.1a.48.48,0,0,0-.22-.44c.07,0,.09-.08.2-.08a5.82,5.82,0,0,1-.13-.82c0,.11-.18,0-.25.09a2.37,2.37,0,0,0-.77-1.26c0,.09,0,.24-.17.24,0-.21,0-.11-.17-.08.11-.16-.08-.26-.07-.46A.73.73,0,0,1,36.37,7c.08.15-.1.11-.19.14s0,.24-.06.27c0-.31-.45,0-.47-.35-.11,0-.1.08-.14.13S35.41,7,35.27,7s-.13.34-.25.46c0-.24,0-.24-.15-.29a2.44,2.44,0,0,0-.1-2c-.87-.12-1.34.21-1.48,1,0,.25.17.52-.16.66a.45.45,0,0,1,.17.08c-.14.06-.11.24-.09.42a2.74,2.74,0,0,1-.85,0L32.3,7.2h.05c0-.09,0-.15-.12-.14s-.13.09-.15.16a.06.06,0,0,1,0,0c0-.27.16-.5,0-.79-.13,0-.11,0-.31,0a.48.48,0,0,0-.17-.28,1.07,1.07,0,0,0,.29-.48c-.21,0-.19-.1-.24-.23a.24.24,0,0,1-.32,0,.65.65,0,0,0-.22.33.6.6,0,0,1,0-.19c0-.07-.1,0-.12-.09.2-.62-.56-.11-.65.21-.17-.21-.37,0-.57.08,0,.18,0,.32-.1.39-.1-.2-.07.27-.4.11a.71.71,0,0,0,0,.79.33.33,0,0,0-.08.47l-1.29-.22A1.51,1.51,0,0,0,27.71,7a.87.87,0,0,0-1,.14c-.41,0-.82-.09-1.25-.12a.84.84,0,0,0,0-.52.84.84,0,0,1,.83-.12c.05-.1.21-.1.2-.26-.26.09-.21-.14-.39-.13-.14.24-.66-.18-.93.08A.74.74,0,0,0,24,6.15v0c-.52.15-1,.3-1.27-.21h-.91c.08-.21-.21,0-.13-.26a6.1,6.1,0,0,0-1.3.26V5.73a11.77,11.77,0,0,0-4.47,1.43A9.88,9.88,0,0,0,12.25,9.1c-1.19-.13-1.33.79-2.53.65-.17.48-.87.42-.9,1H8.56c-.24.71-1,.93-1.17,1.69H7.13c0,.37-.3.48-.52.64a4.83,4.83,0,0,1-1.68,1.82c.05.4-.23.46-.13.91a5.53,5.53,0,0,0-1.17,2.46c-.17,1.9-.72,3.43-1,5.19.22-.07.18-.38.33-.52.34-.05.26.34.45.45-.11,1.09-.89,2.16-.52,3.31-.26.27-.05.82-.13,1.29s-.44,1.16-.52,1.69a5.32,5.32,0,0,1-.13,1.43c0,.08-.22.07-.26.12s0,.2,0,.26c-.2.31-.64.37-.77.78a9,9,0,0,1,1-.78v1.56c-.22.12-.22.47-.51.52-.24.89-1.28,1-1.56,1.81.87-.42,1.3-1.29,2.07-1.81.14,1.62-.39,3.22,0,4.67-.56,2.55.66,4.43.91,6.61.16,0,.16.14.26.19-.1.42.2.45.13.85.31.06.26.47.52.58-.07.35.22.34.13.71,1,1.89,2.44,3.27,3.63,4.93.3-.09.22.21.52.13,0,.07,0,.2,0,.26a14.29,14.29,0,0,0,1,1c.24.17.74.18,1,.39s.38.63.91.52c1.44,1.26,3.73,2,6,2.6a15.08,15.08,0,0,0,3.11.25c.05.26.35.27.39.52h1.17c.46-.6,1,.2,1.88,0s1.53.09,2.46-.13c.07-.21.46-.1.72-.13a.31.31,0,0,1,.39-.26v-.51c.81-.1,1.38-.67,2.2-.39-.06-.25.11-.28.19-.39.71,0,.92-.6,1.63-.65.08-.21-.21,0-.13-.26.12,0,.12-.09.19-.13s.12.19.32.13c.08-.21-.21-.05-.13-.26.61-.17.64-.92,1.43-.91-.18-.44.42-.09.39-.39-.36-.11-.51.31-.78.07.2-.29.76-.65,1.17-.32-.08-.21.21,0,.13-.26s-.05.21-.26.13c0-.63.54-.68,1-.78.07-.43.41-.58.58-.91.24-.09.12.18.32.13.14-.32.5-.42.59-.78h.32c.29-.64,1-.88,1.36-1.42.1,0,.05.16.2.13,0-.25.34-.18.26-.52-.18,0-.16.49-.39.19.2-.23.47-.39.58-.71.25-.1.13.18.33.13.17-.43.26-.95.77-1-.06-.62.54-.58.78-.91,0-.6.09-1.2.78-1.16a.31.31,0,0,1,.26-.39.62.62,0,0,1,.39-.78c.08-.21-.21,0-.13-.26s.33-.19.52-.26c.16.2.69,0,.77.32-.09.12-.51.68-.06.72.06-.35.19-.63.71-.52.1-.27-.36,0-.26-.26.41.1.19-.42.52-.39.08.34-.25.27-.26.52.37-.15.15.29.39.26,0-.23-.05-.49.26-.39,0-.38.3-.48.52-.65-.18.17-.06.63-.39.65.07.35-.08.48-.13.71a.44.44,0,0,0,.52.2c.16-.27.21-.66.65-.65.31-.66,0-1.28.58-1.82.27-.07.28.11.45.13-.08-.3.22-.21.13-.51.43,0,.39-.78.91-.46,0,.24-.28.28-.39.46s.21,0,.13.25c-.29,0-.3.35-.13.52-.29,0-.3.35-.13.52-.31.12-.14.72-.65.65.11.23.38.1.13.39.25,0,.18-.34.52-.26.09.3-.21.22-.13.52.56-.09.54-.76,1.3-.65-.24-.59.14-1.92,1-1.43.12-.11.2-.26.43-.27l0,0,.07,0h0c.21,0,.49.14.78.06a.51.51,0,0,1,.09-.16l.16,0c.08.35-.35.21-.39.45h.52c-.06.67.56.66.39,1.43H51c-.05.66-.07,1-.13,1.36.1,0,.1.21.26.2.36-.21.81-.32.78-.91-.1,0-.24,0-.26-.07-.05-.44.31-.47.45-.71.57.32,1.13-.41,1.24-1C53.22,43,53,43,53,42.81c.18,0,.12-.22.39-.13.09-.26-.14-.2-.13-.39.22,0,.16-.26.38-.25v-.91c-.09,0-.24,0-.25-.07.16-.28.57-.73.25-1.1.33-.15.26-.69.26-1.17-.09,0-.23,0-.26-.06-.09-.38.23-.34.26-.58a1.42,1.42,0,0,1,.26-1.43C53.92,36.45,54.25,36.35,54.19,35.94ZM42,37.89a1.77,1.77,0,0,1-.49.27s-.08-.09-.12-.07a1,1,0,0,0,0,.1l-.21.09c0-.12.06-.33-.13-.26,0-.15.12-.1.13-.2s-.14-.25-.39-.19l.06-.15h.2c.42,0,.81.06.9-.4.21.09.21-.28.42-.33l.06.07a1.7,1.7,0,0,0-.21.67c-.27-.09-.21.14-.39.13C41.8,37.84,42.09,37.68,42,37.89Zm-.78.52h.26l-.06.11a.08.08,0,0,0-.07,0,.38.38,0,0,0,0,.1.62.62,0,0,1-.25.17C41.09,38.61,41.32,38.67,41.23,38.41Zm.26.34h0a.12.12,0,0,1,0-.1c.22,0,.17-.33.5-.25a2,2,0,0,0-.26.9.31.31,0,0,0-.26.39c-.19,0-.13-.22-.39-.13v-.39C41.41,39.22,41.5,39,41.49,38.75ZM32.93,7.9a2.72,2.72,0,0,0-.24-.24,1.45,1.45,0,0,0,.37,0c0-.17.14-.18.22-.26s0,.21.09.3h0l-.07,0c.07.12,0,.17.19.21a1,1,0,0,0,.07-.18c.09.08.16.19.25.27.15-.1.23,0,.38,0a.9.9,0,0,0-.33.25.1.1,0,0,0,0,0c-.09.06-.21.17-.08.25a1,1,0,0,0-.07.18l-.76-.26A1.51,1.51,0,0,1,32.93,7.9ZM30.6,54.74v-.26H31A.31.31,0,0,1,30.6,54.74Zm.65-.26c0-.26.34-.26.51-.39C31.65,54.28,31.57,54.5,31.25,54.48ZM32.41,54H32c0-.19.29-.15.39-.26Zm3.44-4.79a4.45,4.45,0,0,1-2.14,1.42v-.26c-1.25.4-2.05,1.24-3.5,1.43A10.22,10.22,0,0,1,31.37,51v-.52a4.35,4.35,0,0,0,1.43-1.81c.19-.11.41-.2.39-.52.57,0,.32-.76,1-.65.21-.48.66-.72,1-1.1.06-.26-.22-.16-.12-.45.45.38.73-.23,1.16-.26a7.57,7.57,0,0,1,1.56-2.08c-.08.55.28.67.52.91,0,.56-.17.92-.59,1-.14.38-.47.56-.71.84.25.57-.37,1.17-.91,1.36.05,1-1.25.57-1.16,1.56-.49,0-.49.51-.91.58.09.24-.18.12-.13.32.22-.11.38-.4.65-.13.21.08,0-.21.26-.13.08-.21-.21,0-.13-.26s.67-.1.64-.51c.39.08.26-.35.65-.26,0-.37.23-.55.65-.52.08-.21-.21,0-.13-.26.18,0,.13-.22.39-.13.18-.42.45-1.38,1-1,.23-.12-.08-.26-.06-.39.58,0,.36-.75.91-.77v.51c-.48.32-.52,1.09-1.11,1.3A4.35,4.35,0,0,1,35.85,49.17Zm2.66-.78h-.26A2.56,2.56,0,0,1,37,49.68a24.5,24.5,0,0,1,1.56-1.94C38.87,47.85,38.44,48.16,38.51,48.39Zm.13-2.85c.24,0,.17-.35.51-.26.08.51-.19.67-.38.9A.88.88,0,0,0,38.64,45.54Zm.13,2.2a2.92,2.92,0,0,1,.9-1.17A2.71,2.71,0,0,1,38.77,47.74Zm2.85-6.09c.08.64-.52.6-.39,1.29-.26.05-.26.35-.52.39v-.52c.22,0,.16-.26.39-.26V42c.42-.62-.23-1.11-.26-1.69.24,0,.06.5.32.52.07,0,.07-.15.2-.13a.31.31,0,0,0-.26-.26.45.45,0,0,1,.19-.52c.25-.09.13.18.33.13,0,.19-.2.19-.26.32s.12.06.19.07a3.22,3.22,0,0,1,1-1c0,.44-.42.81-.5,1.23h0v0a.75.75,0,0,0,.12.56C41.89,41.32,42,41.75,41.62,41.65Zm.94-1.17a.32.32,0,0,0-.14,0c.07-.42.19-.81.62-.88C42.85,39.84,42.79,40.24,42.56,40.48Zm6.42-9h0a1.25,1.25,0,0,1,.07-.23,3.86,3.86,0,0,0,.09.51A2.86,2.86,0,0,0,49,31.51Zm-.36-5.68c.13,0,.13-.09.19-.13a2.27,2.27,0,0,1,.29.41,1.23,1.23,0,0,0-.36.06h0C48.7,26.07,48.66,25.94,48.62,25.83ZM48.42,24c.59-.09.67.33.85.65-.16.06-.24.2-.52.13-.09.3.21.22.13.52.33,0,.11-.49.52-.39.1.4.25.77.38,1.15-.21.17-.36,0-.49-.09h0a3.06,3.06,0,0,1-.15-.54c-.55-.06-.63-.59-.91-.91C48.35,24.42,48.33,24.15,48.42,24Zm2.66,17.25-.11,0a1.19,1.19,0,0,0-.08-.16l.19-.08Zm1-1.43c-.3.21-.64.41-1,.65a1.79,1.79,0,0,0-.32.3,1.94,1.94,0,0,1-.2-.33c-.17,0-.14,0-.25.09-.1-.18-.3-.22-.47-.29,0,.1-.14.14-.17.23-.63.08-.74.64-.6,1.16-.22,0-.53-.24-.78-.25.09-.27-.14-.21-.13-.39.22,0,.31,0,.26-.26.73-.35,1.87-.29,1.94-1.3.38,0,.71,0,.65-.39.31.05.29-.22.65-.13v.39c.4.06.51-.18.78-.26,0,.19-.22.13-.13.39.21.08,0-.21.26-.13C52.61,39.61,52.26,39.69,52.05,39.83Zm1.11-2.78s.07,0,.08-.07h-.08v-.14c.16,0,.15.14.26.19-.06.37-.39.83-.13,1.11H53C52.94,37.65,53.13,37.43,53.16,37.05Zm.26,3.56h-.26c-.06-.51.3-.75-.13-1a2.31,2.31,0,0,0,.13-1.1c.16,0,.15.14.26.19.06.25-.23.16-.13.45.21.08,0-.21.25-.13C53.5,39.63,53.24,40.19,53.42,40.61Z"/><path d="M49.79,19.35c-.2-.33-.33-.72-.65-.91,0,.37.28.4.26.78C49.66,19.13,49.6,19.36,49.79,19.35Z"/><path d="M51.08,23.11c-.22-.25-.15-.8-.65-.78.06.24.28.33.26.65C51,22.89,50.9,23.12,51.08,23.11Z"/><path d="M51.08,28.94c-.29,0,.05.57-.39.39v.26H51C50.91,29.29,51.18,29.3,51.08,28.94Z"/><path d="M50.82,33.09a2.21,2.21,0,0,0-.39-.52c-.08.3.22.22.13.52Z"/><path d="M18,59c0,.1,0,.24-.06.26-.25.09-.13-.18-.33-.13.07.22-.2.1-.32.13-.23-.27-.88-.12-1-.52-.93-.41-2.58-.1-3.64-.39,0,.42.5.28.52.65a18.66,18.66,0,0,0,4.67.78c.09-.26-.14-.21-.13-.39a4.94,4.94,0,0,1,1.3.06c-.14.19-.55.1-.65.33.84-.13,1.52.23,2.07,0,.07-.31-.54.06-.38-.33a3.88,3.88,0,0,1,2.33.07c0-.08,0-.15.13-.13-.07-.19-.19-.33-.26-.52A37.09,37.09,0,0,1,18,59Z"/><path d="M56.42,25c.06-.27-.09-.36-.19-.55C55.73,24.49,55.91,25.22,56.42,25Z"/><path d="M58.37,41.57c-.2.06-.09-.29-.26-.28s-.29-.17-.45-.19c0-.55-.24-.57-.3-1A1.63,1.63,0,0,0,56.07,40c0,.17-.19.14-.22.25-.21.7-.08,1.35.61,1.59-.13.5.27,1,.57,1.34.28-.11.13,0,.29.17a7,7,0,0,0,1.09-.49,4.7,4.7,0,0,1,.14-.81C58.43,41.86,58.34,41.87,58.37,41.57Z"/><path d="M52.55,23.48c.26.53.66.11,1,.16a1.38,1.38,0,0,0,0-1.52c-.73-.31-1.1.13-1.42.69.17.19.14.47.17.76C52.44,23.68,52.38,23.48,52.55,23.48Z"/><path d="M55.08,23.83s.05,0,0,0,0,.06,0,.06,0-.1-.07-.09c.12.17,0,.1-.07.22.13-.06.12.08.22.07s0-.07.1-.07S55.12,23.88,55.08,23.83Z"/><path d="M58.11,28.17c.09-.36.33-.54.23-.93a1.24,1.24,0,0,0-1-.58c.05.25-.14.05-.23.19s0,.37-.26.41a3.47,3.47,0,0,0,.49,1.08C57.64,28.25,57.84,28.22,58.11,28.17Z"/><path d="M56.64,24c.14-.18,0-.3,0-.53-.34-.1-.42.14-.53.34C56.32,23.87,56.35,24.11,56.64,24Z"/><path d="M57.24,21.39c.15-.21.37-.36.43-.64-.22,0-.2-.1-.25-.23a.24.24,0,0,1-.32,0C56.81,20.74,56.69,21.37,57.24,21.39Z"/><path d="M58.6,24.46c0-.16-.16-.16-.2-.29C57.83,24.29,58.24,25.08,58.6,24.46Z"/><path d="M7.42,10.45a.63.63,0,0,0,.42.21C8.21,10.23,7.43,9.88,7.42,10.45Z"/><path d="M27.6,6.15c.35-.07.62.17.88.34.2-.24-.1-.37-.16-.61A4.37,4.37,0,0,0,28.24,5c-.26-.5-1.36-1.3-1.67-.63S27.35,6,27.6,6.15Z"/><path d="M14.18,2.82a4.21,4.21,0,0,0,.34.47c.29.37.77.39,1.23.7.06-.06.13-.08.19-.15a1.36,1.36,0,0,0,.16,1c.48.08.75.44,1.19.56l0,0,.13.18c.43-.11.43.61.81.36,0-.33-.57-.49-.43-.86-.1-.37.15-.48.09-.81-.35,0-.3-.49-.34-.84a.38.38,0,0,1-.41-.26c.13-.11-.15-.33.07-.22,0-.11-.25-.27-.28-.17s.05.13.09.31a1,1,0,0,0-1,.59A.62.62,0,0,1,15.92,3c-.1-.2-.29-.24-.36-.42s.08-.12.07-.14c-.44-.63-1.44-1-1.54-.09,0,.12.14.3.16.37S14.16,2.79,14.18,2.82Z"/><path d="M21.52,4.78a.85.85,0,0,0,.05-.37c-.14,0-.3-.15-.42,0S21.33,4.75,21.52,4.78Z"/><path d="M46.19,14.28c.67.05.59-1.11-.15-1C45.91,13.82,45.69,13.93,46.19,14.28Z"/><path d="M22,3.28A5.85,5.85,0,0,0,24,5c-.09.18.23.23.14.42l.14.06c-.29,0-.65-.11-.7.11h.9c.3.17.6.38.82.31-.13-.26-.35-.32-.23-.7a6.29,6.29,0,0,0-.83-.55,2.69,2.69,0,0,0-2.07-2.13C22,2.76,22.07,3,22,3.28Z"/><path d="M35.34,5.42c-.08,0,0-.06.1-.06s-.09-.18-.24-.17,0,.08,0,.09,0,0,0,0-.07.11-.08.17S35.29,5.54,35.34,5.42Z"/><path d="M14,2.31c-.12-.84-.49-2.29-1.69-2C11.82,1.42,13,2.35,14,2.31Z"/><path d="M12.39,4.75c.2-.09.18.1.2.24a.85.85,0,0,1,.66.16c.22-.17.23-.07.51-.08-.1-.21.08-.22.17-.29a1.8,1.8,0,0,1,.17-.92.66.66,0,0,1-.27-.43c-.35,0-.33-.51-.75-.41,0,.12.05.24-.07.27-.09-.19-.18-.07-.34-.21a8.36,8.36,0,0,1-.51.81C12.24,4.3,12.48,4.39,12.39,4.75Z"/><path d="M6,2.44a1.31,1.31,0,0,1,.66-.2c.1,0,.06.17.09.25s-.19,0-.22.2C7.2,3.12,8,3.3,8.29,4.07c.49,0,1.1.64,1.71,1,.1-.11.15-.12.13-.28a14.79,14.79,0,0,1-2.89-2c0-.2.16-.1.18-.27-.15,0-.09-.2-.32-.2A3.44,3.44,0,0,0,4.08,0c-.3.19-.24.51-.25.85A3.74,3.74,0,0,0,6,2.44Z"/><path d="M15.45,4.8a2.2,2.2,0,0,1-.53-.34c-.39.47.21.91.61,1C15.64,5.17,15.31,5.06,15.45,4.8Z"/><path d="M14.16,7c.08-.21.32,0,.59,0s.13-.41.28-.2c0-.25.06-.25.25-.41a2.62,2.62,0,0,0,0-.74c-.22.11-.17-.14-.2-.28-.19.11-.13-.12-.23-.12a.93.93,0,0,0-1.29.93c0-.06.07-.14.1-.07A1,1,0,0,0,14.16,7Z"/></g></g></svg>