<svg xmlns="http://www.w3.org/2000/svg" viewBox="0 0 60.37 60.51"><defs><style>.cls-1{fill-rule:evenodd;}</style></defs><title>资源 6</title><g id="图层_2" data-name="图层 2"><g id="央铋_1" data-name="央铋 1"><path class="cls-1" d="M43.2.15c.15-.12.11,0,.3,0V0h-.45A.19.19,0,0,0,43.2.15Z"/><path class="cls-1" d="M44.93.68c0-.19-.25-.15-.45-.15C44.49.72,44.73.68,44.93.68Z"/><path class="cls-1" d="M47,1.51h-.45C46.59,1.71,47,1.71,47,1.51Z"/><path class="cls-1" d="M48.7,2.48c0-.13.15-.09.15-.22s-.28-.08-.38-.15c0,.15-.33,0-.3.22C48.41,2.32,48.42,2.53,48.7,2.48Z"/><path class="cls-1" d="M44.56,2.33c.21,0,.31.14.52.15-.06-.21-.3-.25-.52-.3Z"/><path class="cls-1" d="M39.74,2.48c0-.15-.26,0-.37-.07C39.36,2.56,39.63,2.45,39.74,2.48Z"/><path class="cls-1" d="M34.47,2.56v.15c.14-.07.38,0,.46-.15Z"/><path class="cls-1" d="M37.33,3.09h.3c0-.12-.16-.09-.22-.16C37.46,3.06,37.29,3,37.33,3.09Z"/><path class="cls-1" d="M33,3c-.09,0-.32-.07-.3.08C32.84,3.05,33.07,3.16,33,3Z"/><path class="cls-1" d="M33.8,3c-.1,0-.33-.07-.3.08C33.59,3.05,33.82,3.16,33.8,3Z"/><path class="cls-1" d="M38.46,3.24V3.09h-.15Q38.27,3.29,38.46,3.24Z"/><path class="cls-1" d="M29.58,3.39c-.09,0-.32-.08-.3.07C29.38,3.43,29.61,3.53,29.58,3.39Z"/><path class="cls-1" d="M36.81,3.54c-.05-.12.12,0,.07-.15h-.3C36.6,3.5,36.75,3.47,36.81,3.54Z"/><path class="cls-1" d="M39.22,4.14c-.1,0-.33-.07-.31.07C39,4.18,39.24,4.29,39.22,4.14Z"/><path class="cls-1" d="M35,4.59c-.3-.2-1.07.06-1.28-.23,0,.14-.18,0-.19.16-.16-.17-.57,0-.71.07Z"/><path class="cls-1" d="M32.44,4.59h.3A.15.15,0,0,0,32.44,4.59Z"/><path class="cls-1" d="M36.43,4.52c-.09,0-.32-.08-.3.07C36.22,4.56,36.45,4.66,36.43,4.52Z"/><path class="cls-1" d="M32,4.59A11.56,11.56,0,0,0,29.36,5,20.79,20.79,0,0,0,32,4.59Z"/><path class="cls-1" d="M37.26,4.67c0-.16-.26,0-.38-.08C36.88,4.75,37.14,4.63,37.26,4.67Z"/><path class="cls-1" d="M37.48,4.74h.38C37.8,4.6,37.51,4.52,37.48,4.74Z"/><path class="cls-1" d="M34.1,4.89c-.13-.17-.57,0-.83-.07C33.4,5,33.84,4.85,34.1,4.89Z"/><path class="cls-1" d="M37.48,5c0,.15.27,0,.38.07C37.87,4.89,37.6,5,37.48,5Z"/><path class="cls-1" d="M26.5,5a.38.38,0,0,0-.38.15C26.31,5.2,26.48,5.2,26.5,5Z"/><path class="cls-1" d="M26.42,5.42c-.06.06-.21,0-.22.15h.22Z"/><path class="cls-1" d="M54.42,6.32c-.47-.31-.78-.78-1.51-.83v.15h.23c0,.24.57.45.75.53s0,.13.07.15.12,0,.16,0,.17.25.3.3c-.08,0-.26-.06-.23.08h.3c-.05-.15.08-.12.08-.23s-.22,0-.23,0S54.44,6.4,54.42,6.32Z"/><path class="cls-1" d="M13.48,5.57c-.32-.05-.31.24-.6.22V6C13.09,5.84,13.4,5.81,13.48,5.57Z"/><path class="cls-1" d="M33,5.87V6h.46C33.48,5.78,33.18,5.91,33,5.87Z"/><path class="cls-1" d="M38.24,5.87c0,.16.26,0,.37.08C38.62,5.79,38.35,5.91,38.24,5.87Z"/><path class="cls-1" d="M16.71,6.1c-.3,0-.34.2-.52.3h.3C16.51,6.25,16.64,6.19,16.71,6.1Z"/><path class="cls-1" d="M32.37,6.62c-.16,0-.12.08-.23.08s0-.09-.07-.08v.15C32.24,6.79,32.35,6.75,32.37,6.62Z"/><path class="cls-1" d="M20.78,6.7c-.1,0-.33-.08-.3.07C20.57,6.74,20.8,6.85,20.78,6.7Z"/><path class="cls-1" d="M32,6.7a1,1,0,0,0-.6.15C31.62,6.83,32,6.93,32,6.7Z"/><path class="cls-1" d="M54.64,7c.15,0,.17.06.23.11s-.1,0-.08.11c.44.15.49.69,1,.79.06.15-.1.08-.07.19.2.05.27.23.37.38s0-.12.15-.08c.14.24.19.56.53.61a26.69,26.69,0,0,0-1.58-2.26c-.17,0-.28,0-.3-.15h-.3C54.52,6.87,54.69,6.82,54.64,7Z"/><path class="cls-1" d="M28.53,7c.06-.07.21,0,.22-.15H28.3C28.32,7,28.47,6.93,28.53,7Z"/><path class="cls-1" d="M30,7.07c.22-.13.71,0,.83-.22C30.44,6.86,30.09,6.85,30,7.07Z"/><path class="cls-1" d="M26.8,7.37A5.15,5.15,0,0,0,28.3,7a7.35,7.35,0,0,0-2,.3C26.28,7.52,26.69,7.48,26.8,7.37Z"/><path class="cls-1" d="M28.75,7.15c-.17.06-.64,0-.82.22.35.06.52-.08.82-.07Z"/><path class="cls-1" d="M18.67,7.37a.36.36,0,0,0-.3.16C18.54,7.55,18.65,7.5,18.67,7.37Z"/><path class="cls-1" d="M12.5,8c.18,0,.13-.13.3-.08-.12-.19.08-.26-.07-.37-.07.16-.35.1-.38.3.15.06.19-.18.3,0S12.5,7.87,12.5,8Z"/><path class="cls-1" d="M33,7.53c-.3.24-.6,0-1,.15.22.21.92,0,1,.07,0-.15.21,0,.3-.07S33,7.62,33,7.53Z"/><path class="cls-1" d="M34.25,7.68c.33,0,.85.09,1-.08C34.85,7.6,34.59,7.48,34.25,7.68Z"/><path class="cls-1" d="M19.5,7.75V7.6c-.19,0-.24.12-.3.23C19.37,7.88,19.32,7.7,19.5,7.75Z"/><path class="cls-1" d="M26.72,7.6c-.13,0-.31,0-.37.15C26.53,7.76,26.71,7.76,26.72,7.6Z"/><path class="cls-1" d="M25.82,7.83c-.31,0-.41.13-.6.22C25.51,8.07,25.74,8,25.82,7.83Z"/><path class="cls-1" d="M34.47,7.83c0,.13.16.09.15.22H35.9c.06-.18-.28,0-.22-.15C35.4,8,35,7.88,34.47,7.83Z"/><path class="cls-1" d="M24.32,7.9c-.36.13-.78.18-1,.45C23.69,8.23,24.12,8.18,24.32,7.9Z"/><path class="cls-1" d="M32.89,8.43c.31,0,.73.07.83-.15C33.44,8.32,33,8.16,32.89,8.43Z"/><path class="cls-1" d="M35.9,8.43c.07-.07.22,0,.23-.15H35.9Z"/><path class="cls-1" d="M26.65,8.35c-.1,0-.33-.07-.3.08C26.44,8.4,26.67,8.5,26.65,8.35Z"/><path class="cls-1" d="M22.36,9.18c.43-.22,1-.26,1.35-.6A6.68,6.68,0,0,0,22.36,9Z"/><path class="cls-1" d="M33.2,8.8H34V8.73H33.2Z"/><path class="cls-1" d="M30.86,9.33c.14-.07.37,0,.45-.15h-.45Z"/><path class="cls-1" d="M56.9,9.82c0,.28.21.35.38.45a.29.29,0,0,0,.3.27c0-.1-.15-.17.07-.15v-.23c-.41-.19-.43-.78-1-.75A.43.43,0,0,0,56.9,9.82Z"/><path class="cls-1" d="M26.57,9.71v.15A.62.62,0,0,1,27,9.78C27,9.62,26.71,9.75,26.57,9.71Z"/><path class="cls-1" d="M33,9.71v.07h.45C33.41,9.62,33.11,9.75,33,9.71Z"/><path class="cls-1" d="M25.9,10a.36.36,0,0,0,.37-.15C26.08,9.85,26,9.9,25.9,10Z"/><path class="cls-1" d="M30,10.31c.11,0,.38.08.38-.08S29.93,10.16,30,10.31Z"/><path class="cls-1" d="M32.82,10.61c0-.11-.13-.07-.08-.22.37-.22.65-.06,1.13-.16a4,4,0,0,0-1.58,0C32.39,10.44,32.45,10.67,32.82,10.61Z"/><path class="cls-1" d="M31.46,10.31a1.9,1.9,0,0,0-.75-.08c0,.25.42.08.53.23C31.3,10.4,31.45,10.42,31.46,10.31Z"/><path class="cls-1" d="M31.54,10.31v.08H32C32,10.22,31.68,10.35,31.54,10.31Z"/><path class="cls-1" d="M57.58,10.61c.05,0,.14,0,.15,0s-.06.26,0,.34.21-.11.22-.27c-.15-.06-.12-.3-.3-.33C57.7,10.54,57.57,10.5,57.58,10.61Z"/><path class="cls-1" d="M24.39,10.84V11c.1-.08.28-.08.3-.23C24.52,10.71,24.57,10.89,24.39,10.84Z"/><path class="cls-1" d="M29.21,10.84c0-.16-.27,0-.38-.08C28.82,10.92,29.09,10.8,29.21,10.84Z"/><path class="cls-1" d="M32.89,11.44c.29-.1.52.22.68,0s-.28,0-.22-.15c.14,0,.44.09.37-.15-.69.18-1.33-.25-2.18-.15C31.79,11.33,32.54,11.19,32.89,11.44Z"/><path class="cls-1" d="M36.05,11.29a.18.18,0,0,0,.23-.15A.19.19,0,0,0,36.05,11.29Z"/><path class="cls-1" d="M28.3,11.21c.28.28.69.2,1.13.15C29.23,11.14,28.71,11.23,28.3,11.21Z"/><path class="cls-1" d="M29.51,11.21v.15c.25,0,.47.16.6-.07C29.87,11.3,29.79,11.16,29.51,11.21Z"/><path class="cls-1" d="M32.29,11.78c0,.1-.21,0-.15.11a2.72,2.72,0,0,0,.68-.15c-.1-.35-.78-.12-.9-.45-.15,0-.38,0-.42.07-.21,0-.78-.28-.79,0C31,11.75,31.92,11.5,32.29,11.78Z"/><path class="cls-1" d="M11.15,12.27h.15c.25-.36.62-.61.9-.94,0-.09-.16,0-.23,0v.11c-.42.34-.79.74-1.2,1.09v.23C10.92,12.59,11.12,12.51,11.15,12.27Z"/><path class="cls-1" d="M34.62,11.59a1.55,1.55,0,0,1-.82-.15C33.86,11.68,34.56,12.05,34.62,11.59Z"/><path class="cls-1" d="M33,11.74a1.84,1.84,0,0,0,.61.23C33.69,11.64,33.3,11.76,33,11.74Z"/><path class="cls-1" d="M15.66,12.19a.19.19,0,0,0,.23-.15A.18.18,0,0,0,15.66,12.19Z"/><path class="cls-1" d="M31.77,12.42c.22-.05.27.07.45.07C32.25,12.32,31.81,12.26,31.77,12.42Z"/><path class="cls-1" d="M8.59,13.85c.49-.22.68-.73,1-1.13H9.41A10.53,10.53,0,0,0,8.59,13.85Z"/><path class="cls-1" d="M18,12.87c-.18,0-.38.06-.37.3C17.73,13.06,17.93,13,18,12.87Z"/><path class="cls-1" d="M30.11,13.09c.09,0,.32.08.3-.07C30.32,13.05,30.09,13,30.11,13.09Z"/><path class="cls-1" d="M31.31,13.32c.06-.06.21,0,.23-.15A6.47,6.47,0,0,1,30.49,13C30.58,13.3,31.18,13.08,31.31,13.32Z"/><path class="cls-1" d="M59.23,13.24A.4.4,0,0,0,59,13C59,13.18,59.07,13.26,59.23,13.24Z"/><path class="cls-1" d="M35.6,13.47a2.79,2.79,0,0,0-1-.38A1.84,1.84,0,0,0,35.6,13.47Z"/><path class="cls-1" d="M30,13.39h.38c0-.11-.16-.08-.23-.15C30.24,13.4,30,13.24,30,13.39Z"/><path class="cls-1" d="M57.12,13.24c0,.2.11.25.31.23,0-.11-.13-.07-.08-.23Z"/><path class="cls-1" d="M31.16,13.55a.19.19,0,0,0,.23-.16h-.23Z"/><path class="cls-1" d="M32.44,13.39c0,.16.26,0,.38.08C32.82,13.31,32.56,13.43,32.44,13.39Z"/><path class="cls-1" d="M59.16,13.7h.22c-.07-.11-.07-.28-.22-.31Z"/><path class="cls-1" d="M32.29,14.22c0-.15-.26,0-.37-.07C31.91,14.3,32.18,14.19,32.29,14.22Z"/><path class="cls-1" d="M57.8,14.52c-.1,0-.07-.12-.22-.07a3.21,3.21,0,0,0,.3,1C57.94,15,57.77,14.88,57.8,14.52Z"/><path class="cls-1" d="M11.6,14.6c-.2,0-.16.14-.3.15.06.31-.15.36-.15.6h.15c0-.17.07-.32.22-.37s-.12,0-.07-.16A.17.17,0,0,0,11.6,14.6Z"/><path class="cls-1" d="M11.07,15.8h.23v-.15A.18.18,0,0,0,11.07,15.8Z"/><path class="cls-1" d="M9.34,16.41h.15c-.06-.07,0-.22-.15-.23Z"/><path class="cls-1" d="M9,17.38H8.81c0,.18-.12.13-.07.3C8.89,17.66,8.89,17.48,9,17.38Z"/><path class="cls-1" d="M9.19,17.46c-.09.19-.3.25-.3.53C9.13,18,9.32,17.57,9.19,17.46Z"/><path class="cls-1" d="M8.59,17.83a.19.19,0,0,0-.23.16A.19.19,0,0,0,8.59,17.83Z"/><path class="cls-1" d="M6.56,18.51a.4.4,0,0,0,.22-.37H6.63C6.69,18.34,6.53,18.34,6.56,18.51Z"/><path class="cls-1" d="M41.25,18.51c0,.19.28.07.22.3.18,0,.13.13.3.08-.05-.22-.24-.31-.37-.45C41.44,18.55,41.31,18.5,41.25,18.51Z"/><path class="cls-1" d="M44.86,18.66a.17.17,0,0,0,.15-.22h-.15Z"/><path class="cls-1" d="M6.33,19.11a.4.4,0,0,1,.23-.37.17.17,0,0,0-.16-.15c0,.11-.08.06-.15.07,0,.17,0,.21-.07.3A.17.17,0,0,0,6.33,19.11Z"/><path class="cls-1" d="M52.16,18.81c0,.17.06.24.22.23A.38.38,0,0,0,52.16,18.81Z"/><path class="cls-1" d="M8.36,19.72a.18.18,0,0,0-.15-.23c0,.12-.12,0-.07.15S8.21,19.77,8.36,19.72Z"/><path class="cls-1" d="M52,19.49c0,.11-.13.07-.08.23S52.18,19.51,52,19.49Z"/><path class="cls-1" d="M7.38,19.72h.3A.15.15,0,0,0,7.38,19.72Z"/><path class="cls-1" d="M6.48,21.52c.14-.71.51-1.19.68-1.88H7c-.3.63-.53,1.33-.83,2C6.34,21.64,6.39,21.56,6.48,21.52Z"/><path class="cls-1" d="M54.64,19.64v.3h.15C54.69,19.89,54.78,19.66,54.64,19.64Z"/><path class="cls-1" d="M8.21,19.87A.17.17,0,0,0,8,20h.22Z"/><path class="cls-1" d="M7.53,19.94a.28.28,0,0,0-.3.3h.15C7.33,20,7.53,20.09,7.53,19.94Z"/><path class="cls-1" d="M7.76,20.54c.23,0,.26-.19.3-.37H7.91C8,20.39,7.71,20.32,7.76,20.54Z"/><path class="cls-1" d="M5.69,20.92c-.23.6-.39,1.27-.6,1.88-.12-.33.18-.57.11-1,.32-.16.15-.81.45-1a.75.75,0,0,1,0-.49.05.05,0,0,0-.07,0,.19.19,0,0,1-.15.15.4.4,0,0,1-.15.53c0,.26-.06.45-.23.52a10.44,10.44,0,0,1-.38,1.58c.19.32-.19.63-.07,1.13a.18.18,0,0,0,.15-.15c-.14-.31.19-.71.26-1,0,0,.11,0,.12,0a.9.9,0,0,0-.16.57c.13.05,0-.12.16-.08,0-.57.29-.91.3-1.5.14,0,0-.21.07-.3S6,21.05,5.69,20.92Z"/><path class="cls-1" d="M54,20.69v-.22h-.15A.18.18,0,0,0,54,20.69Z"/><path class="cls-1" d="M60.29,20.77c-.13.05,0-.12-.15-.08s.21.31,0,.38-.06-.24-.23-.22,0,.44-.23.37c.13.09.27.48,0,.53.14.14,0,.14,0,.37,0,0,.09,0,.08.08.14,0,0-.24.23-.15,0,.15-.09.12-.08.22s.06.12.08.19c-.31.52-.05,1.59-.38,2.07,0,.12.12,0,.07.15a17.48,17.48,0,0,0-.45,1.73c.15.54-.39,1.16-.15,1.81.23-.19.28-.57.45-.83V27c.31-.52.34-1.33.61-1.89,0-.18,0-.36.07-.45A17,17,0,0,0,60.29,20.77Z"/><path class="cls-1" d="M57.65,21.15c0,.16-.18.48.08.52,0-.16,0-.21.07-.3S57.76,21.16,57.65,21.15Z"/><path class="cls-1" d="M6.33,21.67c-.31,0-.34.32-.38.6A.74.74,0,0,0,6.33,21.67Z"/><path class="cls-1" d="M58.56,23.78V23.4c.45-.26,0-1,.3-1.35,0-.09-.12-.14-.08-.3h-.15c0,.21,0,.41-.23.37,0,.23-.15.33-.15.57.34.23,0,.7.08,1.17-.06.06-.21,0-.23.15l.23.22C58.39,24.06,58.37,23.83,58.56,23.78Z"/><path class="cls-1" d="M1.74,22.05a.18.18,0,0,0,.15-.23h-.3A.18.18,0,0,0,1.74,22.05Z"/><path class="cls-1" d="M59.16,22.65c0,.16.18.22.15.45.12,0,.08-.24.15-.34A.27.27,0,0,0,59.16,22.65Z"/><path class="cls-1" d="M1.14,23.25c-.19.27-.06.85-.38,1,0,.3-.07.72.08.9A3,3,0,0,0,1.14,23.25Z"/><path class="cls-1" d="M59.38,23.48h-.22c.06.21-.15.7.15.68,0-.16-.08-.12-.08-.23C59.42,23.92,59.38,23.68,59.38,23.48Z"/><path class="cls-1" d="M59.31,25.06a1.06,1.06,0,0,1,.07-.56c-.1-.07-.11-.22-.3-.19-.11.3,0,.36-.07.67C59.1,25,59.14,25.1,59.31,25.06Z"/><path class="cls-1" d="M59.23,25.29H59c.14.15-.11.33-.15.52A.19.19,0,0,1,59,26c-.11.15-.08.43-.15.6H59C59.05,26.11,59.29,25.84,59.23,25.29Z"/><path class="cls-1" d="M.69,25.89c.2-.05.14-.36.22-.53H.76C.74,25.54.64,25.64.69,25.89Z"/><path class="cls-1" d="M53.51,25.36v.3a.33.33,0,0,0,.15-.3Z"/><path class="cls-1" d="M53.21,25.51v.23c.11,0,.09-.17.15-.23Z"/><path class="cls-1" d="M51.48,26.64c0-.27.22-.62,0-.83C51.58,26.14,51.26,26.43,51.48,26.64Z"/><path class="cls-1" d="M.54,26.19v-.3c-.15,0-.05.2-.08.3Z"/><path class="cls-1" d="M44.71,26.41c-.07-.13,0-.37-.15-.45C44.56,26.16,44.52,26.4,44.71,26.41Z"/><path class="cls-1" d="M46.29,26.79v.15c.11,0,.07-.13.22-.07,0-.08.07-.27-.07-.23Q46.49,26.84,46.29,26.79Z"/><path class="cls-1" d="M45.39,27.17V27h-.15Q45.2,27.21,45.39,27.17Z"/><path class="cls-1" d="M47.79,27h-.22a.46.46,0,0,1,.07.37C47.75,27.33,47.75,27.15,47.79,27Z"/><path class="cls-1" d="M58.71,27.47v-.3c-.16-.06-.12.08-.23.07.06.26-.11.29-.08.53.16.05.12-.08.23-.08s-.12,0-.07-.15C58.68,27.59,58.58,27.42,58.71,27.47Z"/><path class="cls-1" d="M58.4,28.14c-.12.05,0-.12-.15-.07,0,.12-.12,0-.07.15s.12,0,.07.15a1,1,0,0,0-.3.53c.11,0,.19-.11.3-.15A1.34,1.34,0,0,1,58.4,28.14Z"/><path class="cls-1" d="M2.72,28.6v-.3c-.15,0-.05.2-.08.3Z"/><path class="cls-1" d="M3.62,28.37H3.39v.15C3.46,28.46,3.61,28.48,3.62,28.37Z"/><path class="cls-1" d="M58.56,29.05a2.88,2.88,0,0,1-.31,1.28c0,.12.13,0,.08.15s-.18.28-.08.37a.19.19,0,0,0-.15.15c.62-.27.54-1.29.68-2C58.63,28.92,58.66,29.05,58.56,29.05Z"/><path class="cls-1" d="M49.9,29.05c0,.1-.13.07-.07.22S50.08,29.06,49.9,29.05Z"/><path class="cls-1" d="M50,29.5c.14,0,.24-.34.07-.38C50.11,29.33,50,29.32,50,29.5Z"/><path class="cls-1" d="M47.19,29.65v-.3c.08,0,.26.06.23-.08h-.3C47.15,29.39,47,29.66,47.19,29.65Z"/><path class="cls-1" d="M45.84,29.65H46a.19.19,0,0,0-.15-.23Z"/><path class="cls-1" d="M46.59,30c0,.11-.08.38.08.37C46.63,30.29,46.75,30,46.59,30Z"/><path class="cls-1" d="M57.43,30.48c-.13,0,0-.12-.15-.08s.08.12.07.23a.17.17,0,0,0-.15.22h.3A.46.46,0,0,1,57.43,30.48Z"/><path class="cls-1" d="M49.75,30.55c0,.18-.12.13-.07.3S49.92,30.58,49.75,30.55Z"/><path class="cls-1" d="M55,30.55c0,.56-.32.84-.3,1.43.15,0,0-.32.22-.3a7.52,7.52,0,0,1,.23-1.13Z"/><path class="cls-1" d="M54.34,30.93h.53C54.71,30.85,54.36,30.51,54.34,30.93Z"/><path class="cls-1" d="M49.37,31.31c.15,0,.16-.23.31-.08v-.15c-.29.11,0-.32-.23-.3C49.51,31,49.34,31.07,49.37,31.31Z"/><path class="cls-1" d="M46.44,30.93a.49.49,0,0,1-.08.38c.13,0,0,.12.15.07S46.6,30.94,46.44,30.93Z"/><path class="cls-1" d="M55.17,31.83c0,.18-.13.17-.08.38C55.24,32.24,55.33,31.87,55.17,31.83Z"/><path class="cls-1" d="M53.29,32.36c0,.17,0,.28.15.3-.06-.21.1-.2.07-.38S53.39,32.37,53.29,32.36Z"/><path class="cls-1" d="M54.57,32.66c.11,0,.08-.16.15-.23h-.15Z"/><path class="cls-1" d="M45.84,34.24c0,.11-.13.07-.08.23S46,34.26,45.84,34.24Z"/><path class="cls-1" d="M48.17,34.84v.3a.71.71,0,0,0,.23-.52C48.26,34.63,48.34,34.86,48.17,34.84Z"/><path class="cls-1" d="M50.8,34.62h-.15c0,.41-.25.6-.3,1C50.62,35.39,50.64,34.93,50.8,34.62Z"/><path class="cls-1" d="M2.49,35.52a1.35,1.35,0,0,0,.3.9A2.39,2.39,0,0,0,2.49,35.52Z"/><path class="cls-1" d="M2.27,36.42c0-.17-.14-.17-.08-.37-.15,0,0,.34-.23.15v.15C2.13,36.31,2.17,36.39,2.27,36.42Z"/><path class="cls-1" d="M2.19,37s0,.09-.07.08a.17.17,0,0,0,.15.15C2.24,37.17,2.33,37,2.19,37Z"/><path class="cls-1" d="M45.31,37.63a.33.33,0,0,0,.15-.3h-.15Z"/><path class="cls-1" d="M52.84,39.13c-.05.23,0,.53-.3.53.05.15-.09.12-.08.22h.22a.19.19,0,0,1,.16-.15v-.22c.15.05.11-.08.22-.08s-.12,0-.07-.15.09-.15.22-.15c0-.22,0-.42.3-.37a.42.42,0,0,1,0-.38C53.08,38.42,53.14,39,52.84,39.13Z"/><path class="cls-1" d="M45.31,39.66c.19,0,.24-.12.3-.23C45.42,39.42,45.38,39.55,45.31,39.66Z"/><path class="cls-1" d="M.08,39.73c.05.13-.12,0-.07.15a1.45,1.45,0,0,0,.53.83C.47,40.3.39,39.9.08,39.73Z"/><path class="cls-1" d="M51.48,40.49v.3c.14,0,0-.24.23-.15,0-.2.3-.39.07-.53C51.67,40.23,51.76,40.54,51.48,40.49Z"/><path class="cls-1" d="M46.36,40.79h-.3v.37C46.23,41.11,46.29,40.94,46.36,40.79Z"/><path class="cls-1" d="M7.53,41.09c.06.16-.21,0-.15.15.17,0,.21,0,.3.07A.18.18,0,0,0,7.53,41.09Z"/><path class="cls-1" d="M45.31,41.77c0,.1-.13.07-.07.22S45.49,41.78,45.31,41.77Z"/><path class="cls-1" d="M44.18,42.82c.1-.07.28-.07.3-.23C44.29,42.57,44.16,42.62,44.18,42.82Z"/><path class="cls-1" d="M2.49,44.4a1.88,1.88,0,0,0,.68,1c0-.43-.36-.6-.45-1Z"/><path class="cls-1" d="M3.77,47.26c0,.17.08.32.23.38C4,47.46,3.92,47.31,3.77,47.26Z"/><path class="cls-1" d="M4.3,47.86v.3a9.41,9.41,0,0,1,.67,1c.26-.06.32.08.46.15a15.06,15.06,0,0,0-.91-1.43Z"/><path class="cls-1" d="M40.42,48.76v-.15h-.15Q40.23,48.81,40.42,48.76Z"/><path class="cls-1" d="M9.64,50c0-.11-.11-.19-.15-.3H9.34C9.43,49.86,9.41,50.08,9.64,50Z"/><path class="cls-1" d="M5.65,50.65c0,.36.24.51.38.75a2.55,2.55,0,0,0-.3-.83S5.72,50.66,5.65,50.65Z"/><path class="cls-1" d="M40,52a.18.18,0,0,0-.23.15H40Z"/><path class="cls-1" d="M39.14,52.38c.18,0,.17-.14.38-.08C39.48,52.14,39.11,52.23,39.14,52.38Z"/><path class="cls-1" d="M43.35,52.45c.07-.06.22,0,.23-.15h-.23Z"/><path class="cls-1" d="M37.18,52.38a3.83,3.83,0,0,1-.9.22c0,.26-.4.16-.45.38a1.25,1.25,0,0,0,.71-.3C36.87,52.68,37.17,52.68,37.18,52.38Z"/><path class="cls-1" d="M42.45,52.75c.26-.09.59-.12.75-.3C42.91,52.51,42.59,52.54,42.45,52.75Z"/><path class="cls-1" d="M34,53c0,.17-.23.17-.3.3H34C34,53.18,34.1,53,34,53Z"/><path class="cls-1" d="M41.17,53.88h.15c0-.08.06-.26-.07-.22C41.3,53.81,41.16,53.77,41.17,53.88Z"/><path class="cls-1" d="M28.53,54v-.15h-.45c0,.12.12,0,.07.15C28.29,53.82,28.34,54,28.53,54Z"/><path class="cls-1" d="M29,53.81V54h.23C29.19,53.85,29,53.87,29,53.81Z"/><path class="cls-1" d="M24.32,54.11h.3a.19.19,0,0,0-.15-.23C24.55,54.09,24.3,54,24.32,54.11Z"/><path class="cls-1" d="M30.11,54c-.23,0-.23-.12-.45-.07C29.69,54.06,30,54.21,30.11,54Z"/><path class="cls-1" d="M30.26,54.18c.09-.19.65.08.68-.19C30.75,54,30.19,53.85,30.26,54.18Z"/><path class="cls-1" d="M25.44,54.18a.64.64,0,0,1,.46.08C26,54,25.45,54.07,25.44,54.18Z"/><path class="cls-1" d="M27.4,54.56c.09-.25-.5-.19-.53-.08C27.07,54.48,27.3,54.46,27.4,54.56Z"/><path class="cls-1" d="M34.17,54.41v.15a.18.18,0,0,0,.23-.15Z"/><path class="cls-1" d="M38.61,54.48c0,.37-.62.13-.75.38.34,0,.47-.13.83-.08,0-.05,0-.13,0-.15h.11C38.82,54.52,38.67,54.55,38.61,54.48Z"/><path class="cls-1" d="M36.2,54.63v.08h.46C36.64,54.55,36.34,54.67,36.2,54.63Z"/><path class="cls-1" d="M31.39,54.78c.18,0,.54.1.6-.07C31.81,54.75,31.45,54.62,31.39,54.78Z"/><path class="cls-1" d="M27.48,54.93a.92.92,0,0,0-.68-.15C26.88,55,27.2,54.93,27.48,54.93Z"/><path class="cls-1" d="M26.2,55.16V55c-.12,0-.39.08-.38-.08-.15.13-.48,0-.68-.07.05.12-.12,0-.07.15.23,0,.29.16.45,0-.06.16.21,0,.15.15A.47.47,0,0,1,26.2,55.16Z"/><path class="cls-1" d="M37.48,55.09a.17.17,0,0,0-.15-.16c-.59.27-1.41.3-1.95.61A11.42,11.42,0,0,0,37.48,55.09Z"/><path class="cls-1" d="M26.72,55.09c-.17,0-.17-.14-.37-.08-.05.23.2.15.15.38.24,0,.37.12.67.07-.05-.2-.42-.1-.6-.19C26.61,55.2,26.72,55.2,26.72,55.09Z"/><path class="cls-1" d="M27.55,55.09c-.24,0-.32-.14-.6-.08.06.19.39.11.53.23C27.43,55.11,27.6,55.21,27.55,55.09Z"/><path class="cls-1" d="M29.06,55.31c.22.1.64,0,.82.15.21-.15.66,0,1-.07-.24-.16-.78,0-1-.23,0,.11-.16.09-.22.15,0-.13-.16-.09-.15-.22h-.23C29.39,55.34,29,55.14,29.06,55.31Z"/><path class="cls-1" d="M31.84,55.16h-.23a.19.19,0,0,0,.23.15Z"/><path class="cls-1" d="M26.12,55.39v.11c0,.06-.09,0-.15,0s.2.15.23.3c.3-.19.68.09,1.12,0C27.12,55.49,26.29,55.77,26.12,55.39Z"/><path class="cls-1" d="M32.82,55.39c-.24,0-.33.17-.6.15C32.35,55.71,32.77,55.54,32.82,55.39Z"/><path class="cls-1" d="M27.93,55.61a.46.46,0,0,1,.37.08C28.41,55.46,27.92,55.49,27.93,55.61Z"/><path class="cls-1" d="M30.11,55.76a.33.33,0,0,0-.3-.15C29.83,55.74,29.94,55.78,30.11,55.76Z"/><path class="cls-1" d="M33.42,55.91a1.67,1.67,0,0,0,.75-.15c.19,0,.6.12.6-.11-.39-.15-.7.19-1,0C33.73,55.84,33.48,55.79,33.42,55.91Z"/><path class="cls-1" d="M30.86,55.69c-.09,0-.32-.08-.3.07C30.66,55.73,30.88,55.84,30.86,55.69Z"/><path class="cls-1" d="M28.08,55.91h.22c0-.11-.16-.08-.22-.15Z"/><path class="cls-1" d="M29.09,55.91c-.09-.14-.43,0-.64-.07.06.15-.08.12-.07.22s.09,0,.07.08a5.52,5.52,0,0,1,2-.08C30.2,55.8,29.46,55.78,29.09,55.91Z"/><path class="cls-1" d="M32.74,55.84c-.23.11-.91-.09-1.13.22C32,56,32.65,56.2,32.74,55.84Z"/><path class="cls-1" d="M33.35,55.84H33c0,.1.16.12.26.15S33.35,55.93,33.35,55.84Z"/><path class="cls-1" d="M30.56,56.06c.15,0,.37,0,.41-.07,0,.08.33.15.27,0S30.57,55.83,30.56,56.06Z"/><path class="cls-1" d="M26.57,56.14c-.36-.27-.59,0-1.05-.15v.22c.23,0,.17.23.45.16.05-.13-.12,0-.07-.16C26.14,56.21,26.27,56.09,26.57,56.14Z"/><path class="cls-1" d="M26.72,56.14H27A.18.18,0,0,0,26.8,56C26.84,56.11,26.68,56,26.72,56.14Z"/><path class="cls-1" d="M39.82,56.82a1.28,1.28,0,0,0,.52-.15V57c.16.05,0-.21.15-.15,0-.13-.12,0-.07-.15a.35.35,0,0,1,.45,0c0-.21.18-.22.38-.23-.07-.22.16-.14.3-.15v-.15c-.62.06-1,.4-1.58.45C40.05,56.8,39.8,56.67,39.82,56.82Z"/><path class="cls-1" d="M41.77,56.29a.18.18,0,0,0,.23-.15A.19.19,0,0,0,41.77,56.29Z"/><path class="cls-1" d="M34.62,57V57h.46C35.06,56.88,34.76,57,34.62,57Z"/><path class="cls-1" d="M26.05,57.34a19.88,19.88,0,0,1-2.26-.3c.46.37,1.41.25,1.95.53h1C26.61,57.38,26.25,57.36,26.05,57.34Z"/><path class="cls-1" d="M27.25,57.19c0-.15-.26,0-.38-.07C26.87,57.27,27.14,57.16,27.25,57.19Z"/><path class="cls-1" d="M29.06,57.12h-.31v.15A.35.35,0,0,0,29.06,57.12Z"/><path class="cls-1" d="M30.34,57.19c-.05.12.12,0,.07.15a.17.17,0,0,0,.15-.15Z"/><path class="cls-1" d="M31.31,57.19c-.2.05-.59-.09-.67.08C30.84,57.22,31.23,57.36,31.31,57.19Z"/><path class="cls-1" d="M28.08,57.27c0,.2.52.21.6.07A1.55,1.55,0,0,1,28.08,57.27Z"/><path class="cls-1" d="M39.89,57.57h.23a.17.17,0,0,0-.15-.15C40,57.54,39.85,57.45,39.89,57.57Z"/><path class="cls-1" d="M28.23,57.72v-.15H28C28,57.68,28.17,57.66,28.23,57.72Z"/><path class="cls-1" d="M39.37,58.06c.08-.06.23,0,.3-.11s-.13-.08-.08-.23c-.15.05-.12-.08-.22-.08,0,.18.12.13.07.31-.21,0-.53.21-.68,0h.38c-.07-.29-.3-.06-.53-.08.07.27-.29.11-.45.15,0,.06,0,.14,0,.15-.64-.1-1,.39-1.58.15-.06.2-.3.23-.56.23.26.31.83,0,1.35.07,0,.15.09.12.08.23s.07-.13.22-.08c-.06-.22.24-.28.38-.19-.13.06-.18.15-.3,0,.06.37.47,0,.68,0,0-.18-.28,0-.23-.15a.49.49,0,0,1,.38.08c.62-.26,1.39-.37,2-.68C40.05,57.84,39.71,58.11,39.37,58.06Z"/><path class="cls-1" d="M30.64,57.72v.07h.45C31.07,57.63,30.77,57.76,30.64,57.72Z"/><path class="cls-1" d="M13.78,57.87h-.23a.33.33,0,0,0,.3.15C13.9,57.9,13.73,58,13.78,57.87Z"/><path class="cls-1" d="M35.83,58a.36.36,0,0,0,.37-.15h-.37Z"/><path class="cls-1" d="M26.12,58c0,.15.26,0,.38.07C26.5,57.86,26.24,58,26.12,58Z"/><path class="cls-1" d="M29,58c0,.15.26,0,.38.07C29.36,57.86,29.1,58,29,58Z"/><path class="cls-1" d="M40.8,58c.05.15-.09.11-.08.22h.15C40.85,58.09,40.93,57.91,40.8,58Z"/><path class="cls-1" d="M26.65,58c.17.16.56.11.79.23.06-.22.64.08.64-.19A7.05,7.05,0,0,1,26.65,58Z"/><path class="cls-1" d="M30.79,58.47c-.06.07-.21,0-.23.15.49.09,1-.15,1.28,0,.52-.17,1.35,0,1.58-.3A16.13,16.13,0,0,1,30.79,58.47Z"/><path class="cls-1" d="M22.51,60.13c-.12,0-.05.13-.19.07s-.38-.09-.41-.3c-.89-.09-1.67-.65-2.45-.6-.22-.18-.81-.65-1.09-.3h.23c0,.25.32.12.22.45.48-.39.89.36,1.43.38.19-.19.58.07.83.07,0,.15.08.12.07.23.6.1,1.23.18,1.81.3C23,60.19,22.63,60.26,22.51,60.13Z"/><path class="cls-1" d="M36.24,59.07c.06-.1.26-.06.27-.22a9.47,9.47,0,0,0-2.19.37C34.93,59.44,35.58,59.05,36.24,59.07Z"/><path class="cls-1" d="M32,59.22a.18.18,0,0,0-.15-.22c-.41.33-.92-.13-1.28.22.55,0,1.2.29,1.73.08,0,.05,0,.09.08.07.16-.21.85.11.83-.3A3.21,3.21,0,0,1,32,59.22Z"/><path class="cls-1" d="M24.62,60.5a2.74,2.74,0,0,0-1.13-.22A1.89,1.89,0,0,0,24.62,60.5Z"/><path class="cls-1" d="M8.74,49.33a.82.82,0,0,1-.34-.26c0,.14.18.52.41.6C8.85,49.49,8.68,49.52,8.74,49.33Z"/><path class="cls-1" d="M52.38,14.07h-.15c0,.14.16.19.15.38h.16C52.5,14.31,52.38,14.26,52.38,14.07Z"/><path class="cls-1" d="M57.73,21.9c-.17,0-.09.21-.23.22,0-.45.08-1-.22-1.16.06-.73-.05-1.66,0-2.52.12.37,0,1,.27,1.2a21.2,21.2,0,0,0-.68-4.44c-.12,0,0,.12-.15.08,0-.23-.16-.3-.23-.46.26-.26,0-.55.08-1-.06,0-.14,0-.15,0,0-.56-.33-.81-.38-1.32a2.12,2.12,0,0,1-.45-1,5.12,5.12,0,0,1-.68-1,.54.54,0,0,1-.3-.45c-.56-.37-.73-1.13-1.35-1.43.05-.15-.08-.12-.08-.23A.41.41,0,0,1,52.84,8c-.2-.18-.46-.3-.53-.61a2,2,0,0,1-.53-.52h-.15c0-.11-.13-.08-.07-.23-.23,0-.15-.2-.38-.15V6.32c-.39-.16-.58-.52-.9-.75-.22,0-.28-.17-.38-.3s-.23-.12-.3-.23c-.26,0-.19-.26-.45-.22.16.26.53.32.68.6.36,0,.23.46.6.45,0,.11.13.07.07.23.51.08.56.62,1,.79,0,.19.2.17.23.33-.27,0-.19-.26-.45-.22V6.85c-.36-.13-.57-.42-.91-.57-.3-.59-1.11-.67-1.5-1.16h-.23c0-.11-.13-.08-.07-.23-.14,0-.06.24-.23.23,0-.22,0-.12-.15-.08-.05-.2.14-.16.15-.3-.32-.1-.52-.33-.9-.38V4.21c-.12,0,0,.13-.15.08V4.14c-.12,0-.33.05-.38,0S47,4.07,47,4s-.09,0-.08-.08a.34.34,0,0,1-.45.08c.05.19.34.16.38.37.12,0,0-.12.15-.07.05.23.24.33.45.41,0,0,0,.11,0,.12a3.68,3.68,0,0,1-.49-.23c0,.06,0,.14,0,.15s-.19,0-.18,0V4.59h.22c0-.11-.16-.09-.22-.15,0,.15-.07.16-.12.23a3.62,3.62,0,0,1-.86-.42c0-.08.14-.08.15-.19-.22,0-.13.2-.27.23s-.06-.11-.18-.08V4.06c-.45-.13-.82-.33-1.28-.45,0,.12.12,0,.07.15-.66,0-1-.41-1.58-.56,0-.05,0-.11,0-.11.2,0,.23.19.49.15-.05-.49-.7,0-.9-.23h.37a1.75,1.75,0,0,0-1-.3c-.11-.31-.67-.18-.9-.38-.14.12-.1,0-.3,0v.15a.38.38,0,0,1,.38.15h-.31c.78.41,1.77.6,2.56,1h.3c0,.12.13,0,.08.15a11,11,0,0,1,1.73.64c.08.2-.19,0-.15.19s.47.09.53.3c-.23,0-.46,0-.53-.22-.24,0-.31-.1-.38-.23A4.24,4.24,0,0,1,43.5,4,12.84,12.84,0,0,1,41,3.24c-.11,0-.05.13-.19.07-.69-.46-1.58-.25-2.44-.53-.27.09-.75-.18-1.28-.07.35.25,1.06.14,1.5.3v.15c.2,0,.43,0,.53-.07.06.07.22.05.3.11s-.16,0-.22,0c.18.26.94.27,1.2.22v.15H41c0,.07,0,.19.08.15s.5.06.75.08c-.05.15.08.12.07.22a4.36,4.36,0,0,0,.68,0c0,.06-.09,0-.07.11A4.3,4.3,0,0,1,44.11,5c.27,0,.51,0,.6.22-.31-.12-.71-.14-.9-.37a2.62,2.62,0,0,1-1.36-.46c-.31.12-.85-.09-1.13-.07,0,.28.39.11.45.3a.87.87,0,0,1,.76.3c.39.1.92.05,1.2.26a.26.26,0,0,0-.19.19L42.3,5a2.86,2.86,0,0,0-1.43-.3.36.36,0,0,1,.38.15H41c0,.14.2,0,.3.07.27-.14.73.17,1,.3-.18,0-.17-.13-.38-.07a1,1,0,0,0,1,.22c0,.17,0,.21-.08.3.1-.12.43,0,.53-.15,0,.13-.12,0-.08.15a2.34,2.34,0,0,1,1.28.53C44.29,6.1,44,6.1,43.84,6c-.11.1-.12.31-.41.23.13.07.16.23.22.37-.16,0-.2,0-.3-.07,0,.12.13,0,.08.15.29,0,.36.14.56,0,0,.11.21,0,.19.15s-.11-.11-.26-.08,0,.18-.08.15-.13,0-.11.08H44c-.05.15.08.12.08.22A6.93,6.93,0,0,1,46.67,8.8c-.24,0-.26-.19-.53-.15A20.05,20.05,0,0,0,44,7.37c-.05-.12.12,0,.08-.15-.23.18-.55,0-.79-.07-.14.15-.51,0-.57-.15.18,0,.13.12.3.07-.14-.23-.53-.22-.75-.18,0-.1.21,0,.15-.12s-.19.18-.3,0,.21,0,.15-.11c-.23,0-.27.13-.53.07.15.21.55.16.68.38a8.8,8.8,0,0,1-1.2-.34V6.7h.3c0-.14-.24,0-.15-.23-.91-.08-1.76-.66-2.71-.45a19.55,19.55,0,0,1,2.56.64c-.09.06-.24,0-.3.11-.22-.31-1-.09-1.13-.45-.64,0-1.15-.16-1.81-.15,0,.12.12,0,.08.15h-.15V6.17h-.38c-.06.16.21,0,.15.15-.11,0-.32,0-.38,0s.23,0,.23-.18c-.2,0-.16.14-.3.15a.28.28,0,0,0-.38,0c-.72-.35-1.31.15-2.14-.15-.07.13-.41.08-.49,0a.39.39,0,0,1-.53.07c-1.36,0-2.57.26-3.87.38-.22.12-.6.08-.72.3.62-.14,1.44-.07,2-.23-.09,0-.27,0-.3,0a26.35,26.35,0,0,1,4.25-.18c.07,0,.16-.24.27-.12s-.1,0-.08.12a5.62,5.62,0,0,1,2,.22,3.57,3.57,0,0,1-1.16-.07c-.46.18-1.29-.24-1.81,0-.2-.22-.76.19-1-.08-.27.13-.77,0-.91.3.25,0,.38-.12.68-.07v.15c.23-.18.61,0,.83.07A8.41,8.41,0,0,1,37.41,7c.36,0,.49.18.83.19a44,44,0,0,0-4.82-.12c-.05.13.12,0,.08.15-1-.09-1.63.19-2.56.15.15.34.6-.06.83.16.24-.22,1,.06,1.24-.16a22.65,22.65,0,0,1,4,.23h.38c0,.12.12,0,.07.15h-.6c.06.16.49.14.34.38,0-.14-.32-.06-.49-.08,0,.07.05.22,0,.23-.26-.06-.2,0-.49,0,0,.13.25.06.23.22,1.33.19,2.5.53,3.76.79v.12A13,13,0,0,0,37.63,9a.17.17,0,0,0-.15-.16,8.14,8.14,0,0,1-1.95-.07c0,.13.24.06.22.23-.39,0-.46-.12-.75,0,0-.15-.21-.05-.3-.08V8.73H34c0,.06,0,.14,0,.15-.34,0-.62.11-1,.15v-.3a.51.51,0,0,0-.41.15c-.05-.1-.52-.14-.56,0,.13,0,.37-.05.45,0s-.11.07-.08.19.35,0,.45.11a21.67,21.67,0,0,0-3.61.56c.4.06.57-.11.94-.07a11,11,0,0,1,2.86-.3,15.58,15.58,0,0,1,2.3-.08c.17,0,.27.11.45.15s.52,0,.68.23c-.26-.06-.3.11-.53.07-.06.24.19.16.22.3H34c.16.2.56.15.91.15,0,.13.12,0,.07.16a1.49,1.49,0,0,1,1.43.3,2.54,2.54,0,0,1,1.13.3,7.55,7.55,0,0,0-1.2-.08c.07.25.58.07.75.23.55,0,.9.2,1.43.22,0,.25.2.28.37.34-.13.14-.22-.07-.37,0,0,.31.43.13.45.38-.17-.08-.45,0-.6-.15,0,.13-.16.1-.15.23a2.64,2.64,0,0,1,1.13.48c-.09.13-.31.19-.15.34-.18,0-.29,0-.31-.15-.3.05-.43-.07-.67-.07v.22c.18,0,.23.12.3.23a2.14,2.14,0,0,0-.6-.23,15.28,15.28,0,0,1,2.55,2.26h.38a.18.18,0,0,0,.23.15c-.07.18.1.12.15.19v.26a4.2,4.2,0,0,1,.9,1c-.25-.23-.56-.4-.68-.75-.33-.12-.36-.54-.75-.6,0,.18.39.24.26.45-.06-.1-.06-.27-.26-.23.08-.23-.23-.07-.15-.3q-.2,0-.15-.15a1.46,1.46,0,0,1-.83-.75c-.25,0-.33-.23-.45-.38-.3-.07-.42-.33-.6-.52-.18,0-.33-.08-.38-.23a3.92,3.92,0,0,1-.83-.6.17.17,0,0,1-.22-.15c.06,0,.19,0,.15-.08A4.4,4.4,0,0,1,35.53,12c-.23,0-.46,0-.45-.23H34.7c.06.27.42.24.53.45-.5,0-.76-.25-1.28-.22-.05.25.23.18.3.33s-.1,0-.08.12c.57.29,1.4-.07,1.81.45.59,0,.78.48,1.35.52.39.35.93.54,1.28.91.2.08.26-.17.38,0-.16.46.65.58.6,1.17.1,0,.09.08.15.11a1.24,1.24,0,0,0,.75.94c.08.3.32.43.46.68.25-.06.29.11.52.07.23.55.78.78.91,1.43a.19.19,0,0,1,.15.15c.6,0,.55.61,1.12.61,0,.46.55.63.49,1H44c0-.54-.65-.4-.75-.83-.15.05-.12-.08-.23-.07.08.31.16.62.45.71v.26c.22,0,.23.31.15.38.13,0,0-.12.16-.07,0,.29.15,0,.3.07,0,.23.12.23.07.45.19-.13.18-.44.27-.68.55.26-.38,1.52.26,1.74a3.81,3.81,0,0,1,.19-1.13c.17.06.09.38.11.6h.15c0-.11-.13-.07-.08-.23.13,0,0-.12.16-.07a.5.5,0,0,1-.08.37c.15,0,0,.24.19.15s0-.17.07-.15.2,0,.19,0c0,.78-.09,1.57-.19,2.3-.06,0,0-.1-.11-.08.11.16.33.46.15.68.2,0-.06.38.19.3s0-.23.07-.23a2.72,2.72,0,0,1,.42,1.21c.14,0,.49.19.6,0-.22-.16-.07-.23-.15-.53h.15c0-.11-.11-.11-.15-.19.13,0,0-.32.08-.49h.15c0-.11-.13,0-.08-.18s0-.21.15-.19c0,.23,0,.55.08.68-.23.12-.19.82-.08,1.05h-.22a6,6,0,0,1-.08,1.43c.11,0,.19-.11.3-.15v.3c-.07,0-.19,0-.15.07s.16,0,.15.12-.19.13-.07.26c-.13.05,0-.12-.15-.07a.76.76,0,0,0,.15.48c-.15.09,0,.44-.08.64.31-.21,0-1,.3-1.28.05-.12-.12,0-.07-.15.12.05,0-.12.15-.07,0-.22,0-.49-.08-.6.15.05.12-.08.23-.08v-.6h.15c0-.27.08-.37.15-.53a.15.15,0,0,1-.15-.15c.15.05.12-.08.22-.07-.08.33.15.58,0,.75.14,0,.06.15.08.23s0-.13.15-.08-.18-.09,0-.15l.11.11c-.09.46.17.88,0,1.17a.2.2,0,0,1,0,.3c.14,0,.06.15.08.23h-.15c.11.35,0,.56.07.82h-.15c.2.17-.1.38.08.53-.19.4-.24.94-.41,1.35-.11-.36.13-.69-.12-1-.14.12-.1,0-.3,0a1.89,1.89,0,0,0-.37,1.2c-.1,0-.14.11-.31.08s.18.09,0,.15-.08-.15-.19-.15c0,.16,0,.2.08.3-.19.08-.15.4-.15.67h.15c-.12-.12-.09-.47.15-.45.06-.16-.21,0-.15-.15s.21,0,.3.08c0-.14-.21-.31,0-.38-.05.19,0,.23.15.26s-.1.13,0,.27h-.15c.17.24-.09.58-.08.9.12-.11.16-.3.46-.22,0-.18.12-.13.07-.31s-.19.18-.3,0,.21,0,.15-.11-.19,0-.15-.08.21,0,.3.08.14-.14.19-.23c.1.1.13.2.26.08a15.89,15.89,0,0,0-.37,1.8H47a2.74,2.74,0,0,1-.3.76.22.22,0,0,1,0,.3h.22c0-.07,0-.19.08-.15-.08.24.17.35,0,.52,0,0,0-.09,0-.15s-.08.13-.23.08c0,.09.11.14.08.3h-.15c0,.15.14.2.22.3h-.22c0,.58-.33.88-.38,1.43-.26,0-.28.22-.38.38.12,0,0-.12.15-.08-.06.18.11.12.15.19-.12.32,0,.89-.18,1.17-.06,0,0-.1-.12-.08v.38c-.16,0-.24.06-.22.22s0-.12.15-.07c.06.29-.18.27-.23.45.13,0,.1-.16.23-.15,0,.18-.13.17-.08.37-.57.14-.61.8-1.28.83a1.38,1.38,0,0,1-.45.45v-.22a2.1,2.1,0,0,0,.68-.53,2,2,0,0,0,.53-.68c.2,0,.21-.23.37-.3h-.22c0,.06,0,.14,0,.15,0-.28-.22,0-.34-.11.26-.18.32-.55.53-.79-.24-.06-.11.24-.3.23,0-.14.15-.2.15-.38.24,0,.31-.41.52-.23,0-.1-.12-.07-.07-.22s.22-.23.3-.38c-.24.14-.26.5-.6.53a1.26,1.26,0,0,1-.46.6v-.3c.24.08.07-.23.31-.15,0-.12-.13,0-.08-.15s.1-.2.3-.15c-.12-.14,0-.1,0-.3-.16.09-.29.21-.45.3v-.15c.15.05.12-.08.23-.08-.08-.27.18-.22.15-.45h-.23c0,.17,0,.28-.15.3v-.45c-.18.1-.07.49-.3.53,0,.1.13.07.07.22-.27,0-.16.29-.37.3.06-.16,0-.4.22-.45,0-.24-.09-.28-.22-.34.25-.08.15-.52.52-.48,0-.19.12-.24.23-.31a.29.29,0,0,1,.3-.45c-.07-.06,0-.25-.19-.22s0,.17-.07.15c-.38.11-.42.56-.79.68,0-.3.17-.38.15-.68.25,0,.12-.33.45-.23-.2-.16-.12-.32-.08-.6-.1,0-.07-.13-.22-.07s.12,0,.07.15c-.21,0-.15.25-.45.15,0,.09.12.13.08.3-.15-.06-.12.08-.23.07V35.9c.28.05.06-.4.38-.3,0-.13-.12,0-.08-.16-.13,0-.09.16-.22.16a5.51,5.51,0,0,0,.11-.61h.11c0,.2.11.25.3.23,0-.13-.15-.1-.15-.23s.08.13.23.08c0-.15.06-.16.11-.23.08.13.08,0,.19,0v.23c.22-.11.13-.52.15-.83-.15-.05-.12.08-.22.08,0-.16.08-.2.11-.31s0,.1.11.08A1,1,0,0,1,45.54,33v.15h.22c0-.06-.15-.22,0-.3s0,.1.12.08c.07-.18-.11-.13-.15-.19l.11-.12c.06,0,0,.1.11.08a1.08,1.08,0,0,1,0-.75c-.16-.06,0,.21-.15.15,0-.18.13-.23.08-.45-.18-.06,0,.28-.15.22,0-.61.23-1,.22-1.58,0,0-.14,0-.15,0s0-.1,0-.11,0,.1.11.08.13-.45-.07-.45c0,0,0,.08-.08.07s.13.05.08.19-.11.17-.23.19c0,.23,0,.45-.15.52,0-.35,0-.74.15-.9-.07-.47.14-1.63-.22-2,0,.33-.21.59,0,.83-.16,0-.08.46,0,.52-.17.76-.13,1.89-.61,2.39v0h0l-.09.08s0-.08.09-.08l0,0a5.68,5.68,0,0,1,.15-1.71,9.1,9.1,0,0,0-.3-2.93c-.12-.05,0,.12-.15.07s0-.07-.07-.11c0-.51-.37-.66-.45-1.09-.07,0-.22,0-.23,0s0-.11,0-.11,0,.09.11.07c0-.2-.13-.19-.23-.26.19-.17,0-.49-.22-.53.1-.11,0-.56-.15-.71s-.22,0-.23,0v-.19c-.39-.13-.48-.57-.67-.9.1,0,.07-.13.22-.08,0-.13-.15-.09-.15-.22a.19.19,0,0,0,.15-.23c-.06,0-.22.05-.22,0s.08-.14.22-.11c0,.29.39.26.38.6a.27.27,0,0,1,.3.11c0,.06-.1,0-.08.12.29,0,.3.3.53.37,0-.32-.54-.36-.3-.67-.07-.08-.22-.06-.3-.12v-.18c-.63-.6-1.16-1.3-1.73-2,.49-.09.38.42.68.53.12,0,0-.13.15-.08,0-.19-.39-.29-.34-.45,0,.08.16.11.19.23h.3c-.22-.23-.82-.42-.61-.83-.12-.05,0,.12-.15.07,0-.22.08-.27.08-.45-.27,0-.39-.11-.38-.37-.1-.07-.4-.13-.26-.31.63.21.77.91,1.39,1.13-.05.16.08.12.08.23.13-.07.09-.07.22,0,0-.4-.65-.33-.49-.75.08,0,.08.14.19.15,0-.3-.32-.24-.3-.53a2.09,2.09,0,0,1-1.28-.9c.1,0,.19,0,.15-.12s-.32-.12-.19-.26.16.32.42.3c0-.11-.13-.07-.08-.22-.28,0-.26-.35-.37-.53-.06,0-.14,0-.16,0-.08-.33-.47-.35-.52-.71-.47-.06-.49-.57-1-.61a2.27,2.27,0,0,1,.45.57c-.08,0-.09.14-.07.26a3.92,3.92,0,0,1,.6.83c.09,0,.27-.05.3,0s-.12.07-.08.22A2,2,0,0,1,41,19a1.29,1.29,0,0,1-.68-.6q-.2,0-.15-.15c-.16,0-.23-.06-.22-.22a1.09,1.09,0,0,1-.53-.46c-.22,0-.38,0-.45-.15h.23c0-.16-.22-.09-.23-.22-.14.13-.19,0-.38,0,0,.11.11.19.15.3h-.15v-.23c-.22,0-.28-.17-.37-.3h.15v.15h.22c0-.15-.2-.15-.22-.3.2-.05.15.15.3.15-.11-.27-.43-.32-.53-.6-.17.05-.12-.12-.3-.08,0-.15-.08-.11-.07-.22-.25,0-.33-.23-.46-.38-.36-.11-.56-.39-.9-.52-.12-.05,0,.12-.15.07.08-.27-.16-.24-.23-.38-.53.25-.76-.42-1.35-.37V14.3h-.45v-.15c-.11,0-.07.12-.23.07v-.15c.86-.08,1.12.44,1.73.6a8.7,8.7,0,0,0-1.65-.9c-.11,0-.08.13-.23.08V13.7c-.19.05-.41-.23-.52,0,.19,0,.32,0,.3.22h-.53c.65.34,1.48.5,2.11.87-.07.26,0,.23-.08.41.12.05,0-.12.15-.07v.15c.12,0,.05-.13.19-.08.21.2.54.29.64.6a1.47,1.47,0,0,1,.9.68c.58.08.62.69,1.13.83,0,.17.13.12.08.3H38a1.21,1.21,0,0,0-1.13-.83c0-.14-.2-.1-.15-.3-.25,0-.32-.22-.45-.38a18.28,18.28,0,0,1-1.66-.82c0,.25.34.22.38.45s-.08.09-.11.15c0-.12-.27-.06-.42-.08a.15.15,0,0,1-.15.15c-.06-.1-.28,0-.37-.11s.1-.07.07-.19c-.2,0-.26.19-.45.23,0-.19-.11-.24-.22-.3s0,.12-.15.07-.25-.11-.38-.15c.07.18.3.2.53.23a1.21,1.21,0,0,0,.82.52c.06.2.34.17.38.38-.15-.07-.36-.24-.53-.07,0-.13.12,0,.08-.15s-.22.15-.3,0,.09,0,.07-.11c-.39-.18-.6-.55-1.2-.53-.05.1.17.09,0,.15-.32-.27-1-.21-1.25-.52h.31c0-.2-.27-.11-.38-.19.13-.08.49-.07.53.07s-.11.08-.08.19c.21-.17.63.19.75-.15-.3-.07-.37-.38-.67-.26,0-.06.09,0,.07-.11-.3.15-.55-.05-.83-.12,0-.06.1,0,.08-.11-.22-.16-.77,0-.9-.23-.29.15-.63-.06-1.21,0v-.15c-.11,0-.19.11-.3.15s-.28-.07-.3-.22h.53c0-.12-.13,0-.08-.15-1,.07-1.92,0-2.75.07-.34-.17-1.11.1-1.39,0,.4-.44,1.48-.2,2-.56a13.51,13.51,0,0,0-1.81.11,4.84,4.84,0,0,1,1.66-.34v-.15c-.42-.08-.74.14-1.06,0a.24.24,0,0,1,.12-.27c.06.08.17.1.26.15-.08-.23.23-.06.15-.3-.22,0-.4.18-.6,0,.13-.08,0-.08,0-.19.21,0,.31-.13.53-.15.05-.15-.09-.12-.08-.22A3.36,3.36,0,0,1,27,12.34c.17-.25.71-.15.91-.37a12.59,12.59,0,0,0-2.82.37c-.1-.21-.32.08-.42,0,.06-.05.08-.14.23-.11V12a.34.34,0,0,0,.3-.16c-.56,0-.8.36-1.36.38a1.51,1.51,0,0,1-1.05.34c.31-.48,1.14-.44,1.66-.72.06-.14-.17,0-.15-.11.06-.34.49-.31.71-.49.07.11.38-.07.64,0,0-.09.08-.09.11-.15.54.06,1-.21,1.51,0,.07-.12.29-.08.34-.22a4.85,4.85,0,0,1-1.51-.08c-.13.07-.09.07-.22,0s0,.14,0,.15c-.39-.09-.84.16-1.17,0a5.85,5.85,0,0,1-1.5.57c.09-.17.39-.13.45-.34-.27.1-.56.37-.91.26a.57.57,0,0,1,.68-.26c0-.12.09-.07.15-.08s0-.14,0-.15.07.11.19.08c.31-.24.85-.26,1.2-.45,0,.06,0,.18.08.15.05-.2-.15-.16-.15-.3a.59.59,0,0,1,.52,0c0-.15-.23,0-.15-.23-.18.12-.54.06-.6.3.08,0,.26-.06.23.08-.53.08-1.06,0-1.4.37-.08-.14-.4,0-.52.08-.22-.26-.49.26-.72,0a13.27,13.27,0,0,1-2.1.9c0,.07,0,.22,0,.23s0-.1-.11-.08.12,0,.07.15c-.2.13-.48.18-.68.3,0-.12.13,0,.08-.15s-.13.13-.3.08a.26.26,0,0,1-.12.3c-.45,0-.49.43-.86.52,0-.23.25-.2.07-.37h.23c0-.09-.07-.16-.19-.15s-.09.18-.26.15a2,2,0,0,1-1.06.79,4.58,4.58,0,0,1,.46-.42,5.71,5.71,0,0,0-1.21.61c0,.12.12,0,.08.15-.15-.06,0,.16-.12.15s-.35.08-.48,0c.34-.43,1-.56,1.24-1.09h.26a.19.19,0,0,1,.15-.15c.05-.09-.17-.09,0-.15s0,.1.12.08c.63-.44,1.29-.84,1.92-1.28h.18c.11-.38.58-.4.79-.68.06,0,0,.1.12.08s.06-.17.11-.23a6,6,0,0,0,1.28-.68A3.9,3.9,0,0,0,23,9.56c-.38,0-.71.36-1,.22-1,.59-2.13,1.06-3,1.73-.05,0-.07-.1-.19-.07s0,.09-.07.07c-.05.13.12,0,.07.15-.71.3-1.06.95-1.88,1.13-.36.36-1,.48-1.2.94,0,.11.17,0,.15.08a2.24,2.24,0,0,1-.61.34c0-.07,0-.19-.07-.15s-.21,0-.23.15.28-.05.3,0v.12c-.25.12-.52.22-.6.52.27-.16.56-.51.91-.48-.43.18-.55.85-1.13.75,0-.05.1-.07.07-.19-.17,0-.21.21-.26.38,0-.14-.15-.18-.26-.23-.08.13-.24.17-.46.15a.38.38,0,0,1-.22.23.89.89,0,0,1,.83-.83c.1-.25.39-.31.67-.38a.28.28,0,0,1,.3-.3c0-.05,0-.14,0-.15.7-.37,1.17-1,1.92-1.28,0-.14.06-.16.11-.22s0,.09.12.07c.1-.17.13-.42.45-.37.11-.22.39-.27.68-.31a1.94,1.94,0,0,1,.9-.6c0-.05,0-.14,0-.15s0,.1.11.08.15-.1.15-.23-.19.18-.3,0c.21-.2.44,0,.68,0-.11-.11,0-.35.11-.45.25.14.66-.16.86-.3-.26,0-.47.26-.67.19.2-.12.45-.2.64-.34,0,.08.13.09.26.07s-.21,0-.15-.15c.15.05.12-.08.22-.07s-.12,0-.07.15.12-.08.23-.08-.18-.09,0-.15c.2.23.36-.14.64-.07.05-.16-.08-.12-.08-.23.16,0,.24-.06.23-.22a3,3,0,0,1-1.06.37c.06.18-.09.16-.22.15s0,.22,0,.23-.07-.11-.19-.08-.12.16-.22.08,0,.14,0,.15c-.48,0-.71.32-1.09.45-.13-.24-.44-.12-.6,0,0-.05,0-.09.07-.07.05-.13-.12,0-.07-.16h.37c0-.17-.28,0-.3-.11.16-.23.46-.32.53-.64-.18,0-.23.13-.45.08v.22c-.18-.06-.12.11-.19.15s-.15-.08-.11-.22c-.48,0-.69.31-1.13.37.08.24-.24.07-.15.31.18.06.12-.11.18-.16a.59.59,0,0,0,.42-.07c.14.15.38,0,.49-.08,0,.09.15.05.19.12s-.2.13-.31.19-.13-.12-.3-.08.21,0,.15.15a1.57,1.57,0,0,1-.6-.07c0,.09.11.13.08.3s-.41,0-.45.22a3.66,3.66,0,0,1,1.2-.34,1.66,1.66,0,0,1-.53.19c0,.23-.26.16-.26.38-.06,0,0-.1-.11-.08s-.09.07-.15.08.15.09.15.22a7,7,0,0,1-1.58,1c-.21.45-.76.55-1.13.83,0,.12.12,0,.07.15-.22,0-.22.25-.34.38-.43.05-.4.57-.86.6,0,0,0,.14,0,.15-.39.27-.63.69-1.09.9v-.22c-.16.11-.18.37-.45.37,0-.06,0-.19-.08-.15a.89.89,0,0,1-.9.6,3.25,3.25,0,0,1-.68.83c-.09.46-.66.45-.9.75,0,.22-.17.28-.3.38-.14.33-.42.51-.45.94,0,.1.17,0,.15.08-.31.53-.56,1.12-.83,1.69-.05.12.12,0,.08.15-.15-.06,0,.16-.12.15s-.19,0-.19,0,.11-.07.08-.19c-.33,0-.4.21-.45.46.15,0,.24-.18.37,0a.72.72,0,0,1-.37.49c-.06-.21.1-.2.07-.38H7.38v.3h-.3c-.06.16.21,0,.15.15s-.19-.08-.3-.11.12-.21.23-.26c-.14-.27,0-.35,0-.61-.45,0-.29.67-.6.83,0,.41-.24.57-.23,1-.34.25-.22,1-.49,1.28l-.11-.11c0-.13.33-.62,0-.64.09.13,0,.52-.15.67.07.13.07.1,0,.23s.26-.06.22.08c-.17,0-.28,0-.3.15.15.05.12-.09.23-.08v.15H5.5c-.06.16.21,0,.15.15-.15-.05-.12.08-.22.08,0,.34-.06.7-.38.75.15.25-.15.57-.3.75a8.3,8.3,0,0,1,.3-1.5c-.11,0-.07-.13-.23-.08a1.66,1.66,0,0,1-.22.83c-.06-.31.11-.39.07-.68-.17-.05-.12.13-.3.08,0,.17-.13.17-.07.37.21,0,.18.43.07.53.12-.05,0,.12.15.08s-.06-.27.08-.23c0,.34-.08.62-.3.75v.45c.2.05.15-.14.3-.15a5.21,5.21,0,0,0-.45,1.43c-.28.15-.27.59-.38.91-.19,0-.25.1-.23.3.11,0,.09-.29.23-.12-.18.23-.15.66-.34.87-.08,0-.08-.15-.19-.15,0,.23-.12.22-.07.45.1-.08.15-.2.3-.22a1.43,1.43,0,0,1-.53.82c-.09.35,0,.6-.07.83H3c0-.17,0-.28.15-.3,0,.35-.29.78-.15,1.05-.12,0,0-.12-.15-.07,0,.23.13.27.07.53.14,0,0-.24.23-.16.05-.12-.12,0-.08-.15h.15c0,.31,0,.35,0,.53,0-.08-.14-.09-.27-.07-.1.76.18,1.71.08,2.48a1.2,1.2,0,0,1,.15.75c.19,0,0-.44.11-.52.13.1.17.3.26.45-.13.07-.09.07-.22,0,0,.25.24.19.3.34-.05.36.13.49.08.86,0,0,.13,0,.15,0,0,.29.14.65.11.86-.12,0-.06-.21-.19-.22s0,.16-.11.15A4.38,4.38,0,0,1,3,36.72c-.35.08,0,.48-.11.68-.21-.18-.3-.48-.57-.6-.09.43.33.54.19.9,0-.06-.15-.08-.11-.22h-.3a.17.17,0,0,0,.15.22c.12,0,0-.12.15-.07s.12.07.07.22c.12,0,0-.12.15-.07.07.52.62.92.45,1.43.13,0,0-.12.15-.08s-.08.12-.07.23,0-.12.15-.08c.07.31.35.4.38.75.09,0,.09.09.15.12s.13.09.07.26c.23.13.15.56.45.6,0-.32-.35-.35-.3-.75-.05,0-.14,0-.15,0,0-.36-.38-.47-.26-.79l.11.23c.12.05,0-.12.15-.08s-.08.12-.07.23c.15-.06,0,.21.15.15s-.06-.26.07-.23a.5.5,0,0,0,.3.49c.06.15-.1.08-.07.19.18.28.53.6.41,1.05-.16-.07-.16-.31-.34-.37.5.93.86,2,1.36,2.93a1.88,1.88,0,0,1-.68-.9,1.46,1.46,0,0,1-.45-.83,16.94,16.94,0,0,0-1.36-1.95.26.26,0,0,1-.11.3c-.13-.39-.56-.47-.56-1-.41-.15-.39-.72-.53-1.13a4.86,4.86,0,0,1-.75-1.73c-.06,0-.14,0-.15,0a.16.16,0,0,0,.07-.19c-.16,0-.21,0-.3.08s.11.14.08.3c.15,0,.12-.08.22-.08a.53.53,0,0,1-.07.38c.05,0,.14,0,.15,0A6.14,6.14,0,0,1,1.7,39c-.21-.21-.28-.57-.49-.79.1-.44-.3-1-.52-1.39.09.76.49,1.21.6,2a15.33,15.33,0,0,0,1,2v.19c.21.08.27.32.3.6.05,0,.14,0,.15,0,.07.39.39.53.45.94a1.93,1.93,0,0,1,.53.9c.28.09.16.59.52.6.08-.14-.16-.16,0-.22a.4.4,0,0,1,.12.52h.22a1.54,1.54,0,0,0,.3.76c.13,0,0-.12.15-.08,0,.24.25.26.08.49.17.21.25.5.53.6,0,.06-.1,0-.08.12.23.06.4.45.3.6.21,0,.19.21.3.3s0-.12.15-.08a1.83,1.83,0,0,0,.46,1c.14.06,0-.16.11-.15s.14.24.34.23c0-.07-.16-.22,0-.3s.42.34.26.52c.3.08.28.48.45.68-.12-.05,0,.12-.15.08v.45c.35.26.43.8.76,1.09v.26c.13,0,.17.13.15.3a1.69,1.69,0,0,1,.45.6c.24.25.69.49.71.83-.27-.34-.8-.42-.94-.9-.27,0-.2-.3-.52-.23.17.4.5.65.67,1.06a.2.2,0,0,0-.3,0A3.87,3.87,0,0,1,7,51c-.11,0-.08.12-.23.07-.08-.26-.4-.47-.34-.75.06,0,0,.1.12.07a1.08,1.08,0,0,0-.38-.6c0,.07.15.22,0,.3a6.53,6.53,0,0,1-.79-1.73,1.77,1.77,0,0,0-.68-.52,2.5,2.5,0,0,0,.68,1.09c.11.47.46.71.6,1.16-.21,0-.07.16-.11.23s-.07-.11-.19-.08a3.87,3.87,0,0,0,.9,1.32c0,.08,0,.25,0,.26s-.06-.1-.19-.07c0,.28.16.34.31.45-.06-.06-.14-.28,0-.38.19.21.49.51.52.76-.07-.12-.18-.19-.41-.15,0,.15.08.12.08.22s0-.12.15-.07,0,.07.07.11-.09,0-.07.11c.21.07.16.39.3.53a.19.19,0,0,0,.15-.15c0-.13-.19-.33-.11-.45.08.14.12.32.26.41-.23.16.24.38,0,.57.21.24.59.31.68.67.1,0,.07.13.22.08,0,.15.08.12.08.22s-.18,0-.15.15.12-.08.22-.07c.06.18.3.17.38.34s-.11.07-.08.19.08-.13.23-.08c.07.28.46.24.45.6.4.07.55.38.9.49.2.5.88.51,1.21.87.56.06.79.46,1.35.52,0,.13.12,0,.08.15h.3c-.12-.25-.52-.23-.68-.45.3.21.86-.22,1,.23.12,0,.05-.13.19-.08a16.42,16.42,0,0,1,1.62.83c.34,0,.64.27,1,.38.08,0,.2,0,.31,0s.17.16.33.15.23-.24.42-.15c-.05.12.12,0,.07.15h.38c-.11-.15-.36-.17-.45-.34s.09,0,.07-.11-.3-.08-.15-.23c-.23.21-.35-.15-.6-.15.06-.23-.24-.11-.23-.3.07,0,.19,0,.16-.08a3.25,3.25,0,0,1-1.06-.56c0-.09.17-.08.15-.23a7.79,7.79,0,0,1-1-.56,7,7,0,0,0,1.36.45,4.8,4.8,0,0,1,.6.3c.06,0,.16,0,.23,0s.29.23.45.3.15,0,.22,0,.28.3.53.23c-.05.12.12,0,.08.15.23,0,.42.17.6,0,.17.1.42.12.6.23,0-.08-.17-.16,0-.23s.31.26.64.23v.22c.17.11.47.09.53.3,1,.25,2.09.48,3.16.68a3.88,3.88,0,0,0,1.35.07,7.17,7.17,0,0,0,1.36.15c0-.12-.22-.1-.3-.18s.09,0,.07-.12a1.13,1.13,0,0,1-.68-.3c-.26.16-.88-.22-1.12-.07-.1-.16-.45-.05-.53-.23h.38c-.11-.12-.37-.08-.46-.22-.06.06-.21,0-.22.15s.26-.06.22.07A21.72,21.72,0,0,1,20.93,58c.05-.13-.12,0-.08-.16a1.7,1.7,0,0,1-1-.26c0-.06.1,0,.08-.11-.1.1-.52.14-.53-.08a.88.88,0,0,1-.67-.26c0-.06.09,0,.07-.11s-.1.2-.3.15c0-.28-.1,0-.15-.12l.11-.11a14.78,14.78,0,0,1,2,.38c.18.38,1,.16,1.2.49,0,.06-.1,0-.07.11s.15-.17.22,0-.09,0-.07.12c.64.13,1.27.28,1.95.37v-.15c-.37,0-.56-.17-.9-.19.72-.09,1.52.4,2,.19a19.22,19.22,0,0,0,2.79.38c.05-.1-.18-.09,0-.15.06.13.43.1.41-.08-1.1.08-1.94-.36-2.86-.22v-.23c-.2-.07-.21.27-.37.11,0-.06.21,0,.15-.19-.16.09-.16.08-.08-.07-.42.2-.73-.17-1.2-.15v-.15a2.07,2.07,0,0,0-.91-.15c.05-.12-.12,0-.07-.15a10,10,0,0,1-2.41-.57s0-.1,0-.11c.06.14.34.07.41,0,0,.19.25.15.45.15v.15c.49-.1,1.1.19,1.58.15.05-.12-.12,0-.07-.15a8.7,8.7,0,0,1-1.81-.49v-.11a30.92,30.92,0,0,0,3.84.68.19.19,0,0,0,.15.15c.42-.27,1.12.16,1.51-.08-.12,0-.38.08-.38-.07s-.07,0-.11.07c-.54-.2-1.38-.11-1.85-.37-.23,0-.45,0-.52-.15A2,2,0,0,1,22.28,56c.41,0,.86.37,1.28.15a2.44,2.44,0,0,0,1,.15v-.15a3.53,3.53,0,0,1-1.2-.38h.22c0-.23.31-.15.38-.3a12.27,12.27,0,0,0,1.8.23c0-.28-.25-.35-.45-.45,0,.19-.15.17-.26.22a.57.57,0,0,1-.11-.11c0-.06.09,0,.07-.11s0,.12-.15.07-.05-.07-.07-.11v-.34a.18.18,0,0,1-.23-.15c.16,0,.21,0,.3.07v-.15a1.55,1.55,0,0,1-1.2-.15c1.17-.09,1.72.11,3,0a.19.19,0,0,0-.15-.15c-.26.08-.72-.06-1,.08,0-.17-.33,0-.38,0a5.32,5.32,0,0,0-1.28-.34c0-.1.21,0,.15-.11a1.88,1.88,0,0,1-.6-.12c0-.12.05-.12.15-.11.06-.16-.21,0-.15-.15a1,1,0,0,1,.57.08c.1,0,0-.18.07-.15s.61.2.79.07a24.34,24.34,0,0,0,3.16.3c0-.17-.2-.12-.3-.19.4,0,.76-.27,1.05-.11.5-.19,1.34.18,1.89-.07,0,.22.15-.16.15.07.09,0,.13-.11.3-.07,0,.06,0,.18.07.15s0-.14,0-.15c.63,0,1.09-.15,1.69-.16,0-.15.09-.11.08-.22-.12,0,0-.12-.15-.08s0,.13-.15.08c.06-.15-.16,0-.15-.11s-.05-.2,0-.19c.25.09,1.08-.22,1.39-.08-.05-.12.12,0,.07-.15-.48.1-1.13.07-1.43.15V52.6c.58.08,1-.31,1.4-.15.13-.17.4-.22.56-.37,0,.06,0,.18.07.15V52c-.15,0-.11-.08-.22-.08s-.16.12-.26.16S34,52,34,51.92a13.49,13.49,0,0,0,1.36-.37c.06-.15-.17,0-.15-.11s.36-.28.52-.12c0-.12.12,0,.08-.15-.33,0-.68,0-.83-.15.29,0,.31-.12.49,0,.39-.35,1.14-.34,1.54-.68,0-.12-.12,0-.07-.15a1.4,1.4,0,0,0,1.28-.37c-.62,0-1.12.26-1.73.11a6,6,0,0,1,1.2-.34c.18-.29.56-.36,1-.37.27-.22.9-.08,1.09-.38a7,7,0,0,1-.91.07c.05-.12-.12,0-.07-.15.29,0,.37-.13.68-.07,0-.13.13-.17.3-.15,0-.14-.15,0-.23-.08,0-.21-.14-.26-.22-.37.15-.05.11.08.22.07a.19.19,0,0,1,.15-.15v.15H40c.06-.16-.21,0-.15-.15.27,0,.43-.23.6-.07a.59.59,0,0,1,.68-.23c0-.09-.12-.14-.08-.3-.15.16-.3,0-.45-.08s.06.27-.08.23v-.3a.52.52,0,0,1-.6.26,1.49,1.49,0,0,1,.83-.56c0-.18.13-.13.08-.3.26-.07.39-.28.64-.38.15.19.34-.1.48-.15s-.12-.07-.07-.23c.23,0,.27-.23.6-.15,0-.09-.17-.09,0-.15s0,.1.12.08,0-.14,0-.15,0,.09.12.07c.1-.2.16-.44.52-.37.07-.11.12-.24.3-.23,0-.19.11-.25.31-.22,0-.2.25-.28.37-.19s-.09,0-.07.11a.19.19,0,0,0,.15-.15,1.24,1.24,0,0,0-.49-.23c0,.06-.12.06-.12.15s.16-.16.23,0c-.11.09-.25.24-.38.11,0,.25-.22.28-.37.38,0-.11.13-.08.07-.23-.28.17-.52.38-.82.53,0-.17.06-.24.22-.23A5.67,5.67,0,0,1,44,43.87l.11-.22c.21-.16.51-.22.57-.53.25,0,.35-.38.68-.19,0,0,0,.11,0,.11s-.07-.1-.19-.07c.06.18-.09.16-.23.15,0,.13.14.19.15.34s-.14.23-.37.19v.22a.52.52,0,0,1,.37-.07c.06-.17.35-.25.16-.45h.3c.05-.33.5-.25.52-.61-.32.1-.42.43-.75.53,0-.23.2-.2.23-.38l-.23-.11a.29.29,0,0,1,.3-.26c0-.26.35-.15.3-.45a4.65,4.65,0,0,0-.83.52c0-.22.16-.29.23-.45-.15.13-.49.3-.3.53-.14,0-.1.2-.3.15,0,.21-.13.32-.38.3a.37.37,0,0,1-.45.34c0-.08.15-.08.15-.19-.29,0-.3.43-.53.23a.25.25,0,0,1-.37.26c.17-.06-.06-.13,0-.19s0,.1.11.08.2-.15.3-.23-.12,0-.08-.15c.33.1.35-.25.53-.07,0-.13-.12,0-.07-.16-.23.06-.28-.07-.46-.07,0,.08.17.15,0,.23-.15-.26-.28.23-.49,0a.45.45,0,0,1,.53-.34c.12-.15.2-.34.45-.37,0-.2.11-.25.3-.23.24-.5.74-.74,1-1.2,0,0,.19-.05.19,0a.17.17,0,0,1-.15.18v.31c.33-.28.29-.94.64-1.21.14,0,.07.1.18.08a.18.18,0,0,1,.3-.15c.23-.68.75-1.07,1-1.74a1.22,1.22,0,0,0-.56.46c0-.06-.12-.06-.11-.15s.07-.43.15-.61h.15a3.79,3.79,0,0,1,.75-1,.69.69,0,0,1,.38-.53c0-.12-.13,0-.08-.15h.15c0-.31.26-.44.3-.75-.28,0-.12.48-.45.45a2.18,2.18,0,0,1-.45.68v-.3h.15a.17.17,0,0,0-.15-.15c-.08.07,0,.27-.23.22,0,.25-.22.33-.37.46,0-.35.28-.33.22-.68-.05,0-.14,0-.15,0s.21,0,.15-.11-.14,0-.15,0,0-.19,0-.19.11,0,.11,0-.09,0-.07.11a.17.17,0,0,0,.22-.15c0-.12-.12,0-.07-.15s.07-.13.22-.07c-.18-.23.15-.41.08-.76h-.23c0,.07,0,.22,0,.23s-.07-.11-.19-.08v.38H47c0,.12.21.07.23.19s-.05.15-.12.19a.51.51,0,0,0-.26-.19c.12-.17,0-.19,0-.34,0,.08.14.09.26.08.06-.17-.11-.12-.07-.27A8,8,0,0,0,48,33.26h.12v.45c-.32.23-.28.83-.38,1.28.29-.11.24-.56.53-.67a15.24,15.24,0,0,0,.6-2.26c.12,0,0-.12.15-.08a11.61,11.61,0,0,0,.3-2.48c.12.05,0-.12.15-.08s-.13-.07-.08-.22h.15c-.05-.15.09-.12.08-.23s-.18,0-.15-.15h.3c-.14-.14,0-.14,0-.37l-.23-.12c.19-.06-.1-.15,0-.26s.08.12.23.07a.26.26,0,0,0,.11-.3c-.07,0-.19,0-.15-.07h.3a.45.45,0,0,1,0-.45c.05,0,.11,0,.12,0s-.1,0-.08.12.12.08.23.07,0-.19.07-.15v.3a1.62,1.62,0,0,0,.23-.75c-.15,0-.12.26-.19.38s0-.19-.19-.15-.15.16-.22,0c.14,0,0-.28.11-.33s0,.16,0,.22.21,0,.3-.07-.08-.33.07-.3-.13,0-.07-.19,0-.15.11-.19,0,.09.11.07a12,12,0,0,1,.61-2c0-.12-.13,0-.08-.15s.09-.21.23-.22-.06.26.07.22c0-.19,0-.31.15-.37,0,.18,0,.47,0,.6s-.16-.12-.33-.08c0,.09.11.14.07.3.15.06,0-.16.11-.15l.12.12a3,3,0,0,1-.15.6c.06.05.08.14.22.11a.33.33,0,0,1,.15-.3c-.1-.1-.09-.28.08-.3s-.12,0-.08-.15.13-.15.19-.23.11,0,.11,0c0,.2-.31.61,0,.71,0-.21.16-.32.19-.52.14.2-.11.34,0,.6-.19,0-.32,0-.3.23.11,0,.08-.13.23-.08,0,.65-.12,1.23-.15,1.81.07,0,.19,0,.15.07s-.32.08-.38.23.13.07.08.22h.22c.05-.4.33-.57.3-1.05.11,0,.2-.11.3-.15v-.3h.23c.1-.35.09-.82.45-.9,0,.06,0,.18.08.15s0-.21-.08-.31c.12,0,0,.13.15.08s.05-.28.12-.38c.06.14.14.19,0,.3.1.05.09-.17.15,0-.17,1-.43,2.49-.67,3.65h.15a4.3,4.3,0,0,1,.6-1.88c0,.39-.29.82-.15,1.12-.12,0,0,.13-.15.08-.05.12.12,0,.07.15-.12,0,0,.12-.15.08a.47.47,0,0,1-.07.37c.06,0,.19,0,.15.08-.3,0-.21.34-.45.37,0-.06,0-.19-.08-.15a7.16,7.16,0,0,1-.3,1.13v.45a2.57,2.57,0,0,0-.22.6c0,.19-.16.58,0,.61s0-.24.08-.23.08,0,.19,0,.12.07.07.23h-.3c.08.09.2.15.23.3s-.12.14-.08.3c.15,0,.08-.28.23-.3s-.13,0-.08-.15.08-.28.23-.3-.13,0-.08-.15a.48.48,0,0,1,.38-.08v-.15c-.07,0-.22.15-.3,0a4.79,4.79,0,0,0,.34-.72c.06,0,0,.1.11.08a.62.62,0,0,1-.08-.45h.23c0-.14,0-.31.15-.38,0,.2,0,.43.07.53s-.14.2-.22.3a.47.47,0,0,1,.07.37h-.15c.09.24,0,.18,0,.46.29-.15.18-.69.53-.76-.1-.1,0-.22.08-.3-.06-.06-.14-.28,0-.37s0,.21.11.15.29-.53,0-.61c-.07.11-.07.28-.22.31,0-.26.18-.37.15-.68-.15,0,0,.24-.23.15,0,.06.05.22,0,.22s.11-.24,0-.45h.15c0-.17.13-.17.08-.37-.11,0-.2.11-.31.15s.13,0,.08.15h-.15c0,.09.11.14.07.3-.15-.05-.11.08-.22.07v-.15h.15c-.16-.23.16-.51.15-.82h-.15c0,.11,0,.32,0,.37a.5.5,0,0,1,.08-.52h.26c.05-.16-.08-.12-.07-.23.16-.06.1-.35.3-.38.06.42-.19.52-.15.91.19-.28.16-.8.52-.91,0,.25.34.24.19.45-.1,0,0-.21-.11-.15,0,.2,0,.27-.23.23a1.12,1.12,0,0,1-.19.75c-.06,0,0-.09-.11-.07s-.11.14-.07.3.11-.08.22-.08c0,.2-.14.16-.15.3s.07.13.23.08c0-.35.17-.45.18-.75h.12c-.09.22.18.1.22.18s-.09,0-.15,0,.12.14.08.3c-.2,0-.11.27-.19.38-.06-.13-.14-.18,0-.3h-.15c.2.44-.25.71-.15,1.28.09,0,.14-.11.3-.08,0-.42.25-.53.27-.9,0,.06.11.06.11.15s-.12,0-.08.15c.14,0,.06.15.08.23s.12-.08.22-.08c-.17-.26.24-.81.08-1.05A2.56,2.56,0,0,0,56,27.92s.11,0,.12,0-.13.09-.08.26.12-.08.23-.08c0,.17,0,.21.07.31-.15-.06,0,.16-.11.15s0-.2-.19-.15.08.11.08.22c-.16-.05-.12.08-.23.08s.12,0,.08.15c-.33.88-.57,1.84-.83,2.78.15.05.12-.08.22-.07.06-.68.41-1.05.46-1.73.51-.3.23-1.37.82-1.58A8.18,8.18,0,0,0,57,26a10,10,0,0,0,.53-2.11c0-.12-.12,0-.07-.15C57.73,23.21,57.47,22.4,57.73,21.9ZM40.87,2.63A2.55,2.55,0,0,1,42.15,3,3.21,3.21,0,0,1,40.87,2.63ZM44,5.57c.17.06.41,0,.45.22A.74.74,0,0,1,44,5.57ZM33,9.18a1.38,1.38,0,0,1,1,0Zm2.71,0c0-.15.2,0,.3-.07C36,9.25,35.77,9.15,35.68,9.18Zm-.23,1.05c.24-.19.9,0,1.21-.11,0,0,0,0,.07,0C36.42,10.4,36,10.21,35.45,10.23Zm1.21.16a.48.48,0,0,1,.6-.08C37.19,10.6,36.88,10.38,36.66,10.39Zm4.51-1.81c-.19-.08-.5-.05-.6-.23A.73.73,0,0,1,41.17,8.58Zm-1.28.07c-.21,0-.38,0-.45-.15.61.14,1.43.08,1.66.61-.28.05-.33-.13-.61-.08,0-.08.08,0,.08-.11S40,8.87,39.89,8.65Zm2.86,9.26c0-.19-.08-.2-.07-.34-.17-.1-.36-.17-.38-.41H42c0-.09-.11-.14-.08-.3h.38c.08.2.3.28.3.56.17.1.39.14.45.34.12,0,0-.12.15-.08s.26.2.3.38h-.22a.19.19,0,0,0,.15.15.18.18,0,0,0,.15-.22c.29,0,0,.51.3.45,0,.11-.08.06-.15.07.14.13-.06.2,0,.45C43.39,18.63,43.17,18.17,42.75,17.91Zm1.51,1.81c-.18.05-.13-.13-.3-.08,0-.12,0-.14.07-.19-.44-.07-.57-.46-.83-.71.37.07.43.45.72.6.13-.07-.05-.15,0-.23a.56.56,0,0,1,.38.38h-.15C44.1,19.62,44.26,19.59,44.26,19.72Zm0-1.28a1.58,1.58,0,0,1,0,.6c-.31-.11-.33-.5-.3-.94a29.1,29.1,0,0,1-2-2.33c-.06,0-.08-.15-.23-.12.06-.15-.08-.12-.07-.22-.16,0-.21,0-.3.07s-.12,0-.08-.15h.15c0-.35-.42-.33-.45-.68a.45.45,0,0,1-.38-.33c-.16-.13-.39-.19-.45-.42.22.11.47.18.53.45.71.17,1,.76,1.58,1.06-.11.36.22.28.23.52.36,0,.19.46.6.38-.17.17,0,.29,0,.53.22-.1-.08-.26,0-.45.13.17.22.38.45.45s.07-.13.23-.08a3,3,0,0,1,.45,1.47c.05.09.18.09.15.26C44.32,18.53,44.35,18.44,44.29,18.44Zm1.1,1.13c0-.24-.23-.18-.15-.46-.28.07-.29-.14-.34-.3-.07.2-.06.48-.27.53,0-.3-.08-.76.08-.94-.07-.13-.15.05-.23,0v-.3c.22.21.14-.19.38-.15v-.16a.62.62,0,0,1-.45.08c.05-.25.36-.54.15-.83a.33.33,0,0,1,.3-.15c0,.34.19.77.07,1,0,.08.22,0,.31,0a1.78,1.78,0,0,0,.3.94C45.33,19.13,45.72,19.47,45.39,19.57ZM45.46,21a.18.18,0,0,1,.23-.15A.2.2,0,0,1,45.46,21Zm.45,3.68c-.12.05,0-.12-.15-.07.07-.13.07-.1,0-.23.07,0,.07,0,.08-.07s0,.21.15.15C46,24.61,45.91,24.58,45.91,24.68Zm.3.3c-.14,0,0-.23-.22-.15,0-.14.24,0,.15-.22C46.29,24.6,46.18,24.87,46.21,25Zm-.07-.52a1.4,1.4,0,0,0,.07-.6C46.32,23.9,46.39,24.53,46.14,24.46Zm.68,3.08c0-.17-.14-.17-.08-.37.07,0,.19,0,.15-.08C47.07,27.16,46.92,27.51,46.82,27.54Zm1-3.08c-.12-.05,0,.12-.15.07v-.37c.12-.05,0,.12.15.07C47.72,24.36,47.72,24.33,47.79,24.46Zm-2.1,7.45v.3h-.08C45.64,32.11,45.54,31.88,45.69,31.91Zm-.53,2.48c.15,0,.12.08.23.08v.3c-.13,0,0-.13-.15-.08,0-.1.14-.17-.08-.15Zm-.6-2.11v-.45h.15A.64.64,0,0,1,44.56,32.28Zm.07-5.11c0,.12,0,.14.08.18a1,1,0,0,0,.07.72c-.1.05,0,.28-.15.3a4.7,4.7,0,0,0-.15-1.2ZM23.49,11.59c.29,0,.43-.17.67-.23,0,.12.13,0,.08.15-.35,0-.57.18-.9.23C23.28,11.58,23.55,11.75,23.49,11.59ZM3.09,33.64c0-.2,0-.43.08-.53a.19.19,0,0,1,.15.15C3.15,33.29,3.22,33.56,3.09,33.64Zm.08.3c-.09-.3.26-.4.3-.15S3.34,34,3.17,33.94Zm.15,4.21H3.17c0-.23-.17-.33-.15-.6C3.24,37.63,3.18,38,3.32,38.15Zm.07.38c-.09,0-.16-.14-.15.07-.1,0-.07-.12-.22-.07a7.46,7.46,0,0,0-.3-1.13c.27.22.23.75.49,1,0,0,0-.1,0-.15h.15c-.05.15.09.12.08.22S3.4,38.48,3.39,38.53Zm.61-7c-.06.15.08.12.07.23H3.92c0-.19.08-.2.08-.34s-.1,0-.15,0a1.69,1.69,0,0,1,.22-.53c-.08.24.14.42,0,.49.06.14.06-.08.15,0S4.16,31.54,4,31.53ZM5.28,45.15v-.22a.18.18,0,0,1,.15.22Zm1.35,6c.15.13.35.21.38.45C6.86,51.5,6.66,51.42,6.63,51.17Zm4.74-31.9a.79.79,0,0,1-.38.67c.06-.15.24-.3.08-.45C11.22,19.46,11.22,19.29,11.37,19.27Zm-.3-.61c.08.25-.22.46,0,.61-.11.16-.09.46-.3.52,0,.12.12,0,.08.15-.37.26-.47.79-.91,1,0-.14.16-.19.15-.38-.09,0-.14.12-.3.08A10.68,10.68,0,0,1,11.07,18.66Zm-1,.68c0,.24-.19.25-.15.53-.19,0-.11.29-.3.3A9.32,9.32,0,0,1,10.09,19.34Zm-1,2.33c.28-.08.34-.36.38-.67.15.05.12-.09.23-.08s-.13,0-.08-.15.14-.11.3-.08c-.1.19-.29.29-.37.49l.11.12s0-.09.11-.08-.12,0-.07-.15h.15c-.06.5-.54.57-.61,1.05H9c0,.11.13.08.07.23-.3,0-.12.43-.37.45C8.83,22.39,9,22.1,9.11,21.67ZM6.71,39.06c0,.32.24.31.22.6.12.05,0-.12.15-.08,0,.13.12,0,.08.15h-.3v.12c0,.08.21,0,.3,0-.1.1-.23.16-.08.3-.13,0-.18,0-.15.16a.38.38,0,0,1-.22-.23h.22l-.22-.45c.08,0,0,.07.11.07.1-.34-.28-.52-.34-.82C6.61,38.9,6.58,39.06,6.71,39.06Zm-.31-4c-.07.13-.07.09,0,.22H6.1c0-.18,0-.36.15-.37C6.22,35.05,6.28,35.1,6.4,35.07ZM6,28.6a.68.68,0,0,0,.15-.46c.16.06,0-.2.15-.15-.11.29-.09.72-.3.91C6,28.7,6.15,28.74,6,28.6Zm-.6,3.57c.11-.17-.16-.79.15-.94a.62.62,0,0,1,.15-.75c-.05.17.13.58-.15.52,0,.1.08.1.11.15s.09-.13.26-.07a.33.33,0,0,1-.3.15c0,.12,0,.23-.07.26s.16,0,.22,0-.12,0-.07-.15c.23,0,.23.14.37,0-.07.13-.07.1,0,.23s-.07,0-.07.07-.06-.07-.11-.07-.07.1-.19.07c0,.14.07.37-.15.3,0,.12.12,0,.07.15s-.12,0-.07.15S5.49,32.2,5.43,32.17Zm.22,3.24c.06-.15-.1-.08-.07-.19h.15c-.05-.09-.14-.2,0-.26a4.38,4.38,0,0,1-.23-1.7h.15c-.2-.28.36-.69.15-1,.12,0,0-.12.15-.07v-.45c.17.14,0,.58.15.75H5.88c0,.14.15.05.22.07a3.31,3.31,0,0,0,.15,1.81c-.25-.1,0,.25-.22.23s.07-.33-.08-.3,0-.08.08-.08c-.26-.18,0-.9-.34-1a2.65,2.65,0,0,0,.11,1.36c-.21.17.11.44,0,.75.16.06,0-.21.15-.15s.06.15.08.22.14-.11.3-.07c-.09.15-.22.25-.3.41.08.06.24.22.07.3.13.11.14.35.23.49-.08,0,0-.07-.11-.07s0,.13,0,.19.09,0,.15,0V37c-.24,0-.23-.27-.45-.3C5.85,36.28,5.43,35.85,5.65,35.41Zm.91,11.85c-.19-.06-.2-.31-.31-.45.11,0,.08.12.23.07C6.45,47.06,6.61,47.05,6.56,47.26Zm3.91,4.82c-.11,0-.08-.13-.23-.08v-.19a2,2,0,0,0-.37-.11c.12.11.26.19.3.38a.76.76,0,0,1-.53-.53c.12,0,.14,0,.19.07.12-.16,0-.36-.26-.3v-.15c.12,0,0,.12.15.08s-.13-.08-.08-.23h.15c0,.16.06.24.23.23,0,.25.22.28.37.37-.06.24.12.24.15.38S10.47,52,10.47,52.08Zm.15-.38a1.83,1.83,0,0,0-.15-.45,1.18,1.18,0,0,1,.52.67C10.82,51.9,10.85,51.67,10.62,51.7ZM9.19,48.24a.17.17,0,0,1,.15-.15q0,.19.15.15c0,.1-.13.07-.08.22s0-.12.16-.07.15.09.15.22.07-.12.22-.07c-.18.26.45.64.23.94.18.36.52.56.68.94A6.62,6.62,0,0,1,9.64,49.1c0-.05-.09,0-.15,0-.18-.47-.52-.79-.68-1.28.24.13.24.51.53.6A.17.17,0,0,0,9.19,48.24Zm1.84.67c-.17.21.16.25.12.46a.94.94,0,0,1-.61-.46h.23c0-.11-.13-.14-.19-.22s-.12.06-.11.15a.32.32,0,0,1-.38-.23c.06,0,.15,0,.15,0-.18,0-.13-.25-.3-.27,0-.08.07-.05.08-.11s-.1-.18-.15-.26c-.21,0-.2.13-.27-.08-.08,0,0,.16,0,.23s-.11-.2-.31-.15a.55.55,0,0,0-.45-.46c0-.19-.15-.14-.22-.22V47c-.12,0,0,.13-.15.08-.12-.21-.33-.32-.38-.6-.13,0-.28,0-.23-.15-.13,0-.09.15-.22.15a.17.17,0,0,0-.15-.15c0-.09.07-.06.07-.12s-.19-.13-.3-.18a1.15,1.15,0,0,0-.56-.91,1,1,0,0,0,.64,1c0,.23.18.24.15.49.62.52.68,1.6,1.5,1.92a2.3,2.3,0,0,0,.45.68c.05.18.07.38.31.37a.18.18,0,0,0,.15.23c0,.08-.08,0-.08.11s.19.09.15.26c.29.14.56.3.6.68a.7.7,0,0,1-.52-.56c0-.09-.16,0-.23,0,0,.14.21.12.15.34.17,0,.17.2.38.19-.18.17.11.14.07.37-.29,0-.22-.28-.52-.22-.15-.57-.8-.64-.91-1.24,0-.06-.09,0-.15,0,0,.19,0,.32.23.3,0,.49.39.61.6.9,0,.13-.15.1-.15.23-.11-.05-.24-.09-.26-.23-.12.08,0,.24,0,.3-.48-.27-.7-.8-1-1.2,0-.08.07-.06.08-.11s-.1,0-.15,0,.12,0,.07-.19L8,49.52a.15.15,0,0,1,.15-.15c0-.13-.13,0-.08-.15s.09-.09.15-.12-.11-.16-.22-.19c.08-.3-.16-.29-.16-.52a.4.4,0,0,1,.23.37h.15c0-.23-.16-.34-.22-.52H7.68c-.08-.16-.26-.53-.15-.64s-.16,0-.22,0c0-.18-.07-.39-.3-.38v-.3c-.16-.05-.12.08-.23.08,0-.27-.16-.29-.15-.53h.15A.62.62,0,0,1,6.86,46c-.29-.39-.38-1-.76-1.28,0-.17,0-.28-.15-.3s.08,0,.08-.11-.1,0-.15,0c0-.18-.13-.23-.08-.45.21.06.21.34.45.37a.29.29,0,0,0,.23.38v.34s.09,0,.08.11h.3a2.4,2.4,0,0,0,.11.23c.14-.11-.1-.15,0-.3.3,0,.14.51.45.52v.23c.16,0,.12-.08.23-.08s-.12,0-.08-.15c.19,0,.27.19.38.3-.07.13-.07.1,0,.23-.13,0-.17-.16-.26-.23-.15.17.08.27.11.38s.14-.11.3-.07c0,.15.18.31,0,.41.16,0,.25.13.45.11,0,.13,0,.28.15.23-.1.37.34.21.3.52.13,0,.24,0,.27.08,0-.11.12-.15.11-.3s-.1.15-.23.15V47c.06,0,.15,0,.15,0S9,47,8.89,47v-.15c.18,0,.23.13.37,0,0,.14.24.38.08.49.06.05.08.14.23.11-.07-.17,0-.32-.08-.6.11,0,.07.12.23.07V47h.22c.14.26.43.38.53.68.34.12.43.5.68.72,0,.14-.11.07-.08.18s.44.27.53.53C11.26,49.22,11.35,48.86,11,48.91ZM8,47H7.83c0-.19-.11-.24-.15-.38h.15C7.83,46.77,8,46.82,8,47Zm3.46,1.28c-.32,0-.39-.22-.53-.38.06,0,.14,0,.15,0a1,1,0,0,1-.45-.41,1.44,1.44,0,0,1,.68.53c-.11,0-.08-.13-.23-.08C11.13,48.06,11.41,48,11.45,48.24Zm.07-.76v-.15c-.4-.12-.59-.46-.9-.67,0-.11.11-.11.15-.19s-.17,0-.19,0c-.8-.23-1.14-.92-1.47-1.62-.3-.06-.24-.49-.52-.57,0-.24-.1-.45-.3-.52a5.31,5.31,0,0,0-1-1.73c0-.23-.07-.39-.23-.45,0-.45-.33-.48-.3-.91.18.06.16-.09.15-.22.1.07.15.2.3.22s-.07.06-.07.12.26.09.34.18-.09,0,0-.15c.38.08.31.59.6.76a.67.67,0,0,0,.23.52v.42c.16.1.16.36.3.48H8.44c0,.13.12,0,.07.16.12,0,0-.13.15-.08s-.07.05-.07.11a.46.46,0,0,1,.3.45,1.64,1.64,0,0,1,.45.83c0,.05.09,0,.15,0,0,.27.29.29.23.64.26.1.19.54.52.56,0,.19-.07.2-.07.34s.16,0,.22,0c0-.17-.12-.13-.07-.3h.22a.19.19,0,0,0,.15.23c0,.08-.07,0-.07.11s.31,0,.3.19h-.15c.05.08.13.2,0,.26s.07,0,.11,0,0-.1,0-.15h.15c0,.12,0,.14-.08.18.12.05.19.15.38.12,0,.12,0,.14-.07.19a.26.26,0,0,0,.3.11c0,.2.23.17.22.37Zm.08-29c-.12,0,0-.12-.15-.08.05-.07.16-.27-.08-.22,0-.14.21-.14.15-.38.15-.07.3-.52.45-.15C11.82,17.86,11.57,18,11.6,18.44Zm5.64,38.08v-.15a.18.18,0,0,1,.23.15Zm.6-43.05a1.7,1.7,0,0,1,.3-.23C18.08,13.35,18,13.48,17.84,13.47Zm.45,0v-.23c.24,0,.18-.22.46-.15C18.64,13.26,18.41,13.31,18.29,13.47Zm6.7-.83c.13,0,.23,0,.27.08,0-.18.35-.12.48-.23v.15a2.44,2.44,0,0,0-.75.23Zm.38.23c-.05.12.12,0,.07.15s-.33.09-.45.19.16,0,.23,0-.07.06-.08.12.07,0,.12,0,.06-.26.26-.22c-.07.13-.07.1,0,.22-.24,0-.33.17-.6.16,0-.12.08-.07.15-.08.05-.2-.15-.16-.15-.3s0,.12-.15.07C24.87,13,25.18,13,25.37,12.87Zm-2.94-1.66a.9.9,0,0,1-.67.3C21.84,11.27,22.19,11.3,22.43,11.21Zm-1.88,1.06h-.22c0-.15.22-.15.07-.3.09,0,.06.07.11.07a2.48,2.48,0,0,1,1.17-.53v.15c-.13.07-.4,0-.38.23C21,12,20.65,12,20.55,12.27Zm.75,43.42a.18.18,0,0,1,.23.15A.19.19,0,0,1,21.3,55.69Zm.31-.53c.21.14.66,0,.75.3C22.19,55.28,21.59,55.53,21.61,55.16Zm2.63-.38c0,.13.13.18.3.15,0,.22-.28.15-.41.08s0,.18-.08.15-.21-.12-.34,0c.06-.16-.21,0-.15-.15h.3c0-.25-.47-.08-.52-.3C23.72,54.65,23.88,54.81,24.24,54.78Zm-.08-41.84a.17.17,0,0,0,.16.15c0,.11-.13.08-.08.23-.12,0,0-.12-.15-.08,0,.11.11.2.15.31a6.7,6.7,0,0,1-.83.22c0-.08.07,0,.08-.11-.17-.13-.38.16-.53,0s.13-.07.08-.23a6.7,6.7,0,0,1-1.13.31c.07-.5,1-.2,1.05-.68h.3c0,.16-.22,0-.22.11.22.13.4-.12.71,0l.11-.11c-.08-.13-.37.2-.45,0a9.39,9.39,0,0,0,1-.22c.05.12-.12,0-.07.15H24V13C24.14,13.07,24,12.9,24.16,12.94Zm.23.53c0-.21.31-.14.53-.15A.7.7,0,0,1,24.39,13.47Zm6.7,1.43a2.89,2.89,0,0,1-.91-.08C30.27,14.56,30.91,14.78,31.09,14.9Zm-1.21,1.28c.12,0,.38-.08.38.07C30.15,16.22,29.88,16.34,29.88,16.18Zm2.56,36.87a.33.33,0,0,1-.3-.15h.3Zm2.71-34.46a8.65,8.65,0,0,0-1.88-1.21c0-.13-.15-.09-.15-.22h-.3V17a1,1,0,0,1-.68-.3c-.64-.09-1-.4-1.8-.46,1.06-.11,1.49.42,2.33.53.31.32.87.38,1.13.75H34c.39.33.91.53,1.28.87C35.31,18.52,35.24,18.56,35.15,18.59Zm-.07-.6c-.06-.3-.37-.34-.53-.53h.3c0-.13-.18,0-.19-.15-.06.07-.18.1-.26.15A10,10,0,0,0,31.2,16c-.17.23-.51-.11-.64.07a11.78,11.78,0,0,0-1.81-.3c.1-.21.69.08.68-.22.14,0,.31,0,.34-.08,1-.13,1.33.35,2.22.3-.06.16.21,0,.15.15.14-.12.38.06.6.08v.22c.29-.21.48.2.91.08,0,.08-.08.05-.08.11a7.33,7.33,0,0,0,1.58.94v.15c-.17,0-.12-.12-.3-.07,0,.26.4.2.45.45h.23c-.05-.09-.27-.15-.08-.26,0-.09-.21,0-.3,0s.26,0,.38-.08.14.36,0,.42c.06.14,0-.09.15,0s-.11.12-.15.19a.72.72,0,0,1,.37.34C35.57,18.34,35.49,18,35.08,18Zm3.83-.31c.18,0,.28,0,.31.15C39,17.86,38.93,17.81,38.91,17.68Zm.53,30.75c.08.15-.2.14-.22.07S39.42,48.36,39.44,48.43Zm1.28-28.49c0-.08.07-.05.08-.11s-.06.09-.16,0v-.15c-.12,0,0,.12-.15.07s-.12-.07-.07-.22c.23,0,.25.19.53.15,0,.11.11.11.15.18s-.06.1-.08.16a2.43,2.43,0,0,1,.49.41c.05,0,0-.1,0-.15h.15v.15c-.18,0-.23.13-.45.07A7.57,7.57,0,0,0,40.72,19.94Zm.08,1.28c.23,0,.3.1.37.23C41.07,21.35,40.81,21.41,40.8,21.22Zm.6.45a.33.33,0,0,1-.3-.15h.22C41.28,21.64,41.44,21.55,41.4,21.67Zm1.05,22c0-.15.2-.15.23-.3.17,0,.12-.12.3-.07C42.81,43.48,42.75,43.72,42.45,43.72Zm1-15.2c-.19-.19-.11.14-.3.15.09-.35-.15-.74,0-.9.17.07,0,.44.07.64,0,0,0,0,0,0s0-.16,0-.23S43.45,28.35,43.43,28.52Zm.22-1.2a.17.17,0,0,1-.15.15c-.12,0,0-.35-.15-.38.13-.12-.06-.25,0-.53h.15c.06-.2-.1-.2-.07-.37.12,0,.11.22.22.26A3.61,3.61,0,0,0,43.65,27.32Zm1.28,12.56h.23c0,.21-.18.22-.38.23V40C44.85,40,45,40,44.93,39.88Zm-.07-1.28c0,.28-.26.35-.45.46,0-.13-.12,0-.08-.15.17,0,.21,0,.3-.08s-.12,0-.07-.15C44.73,38.73,44.68,38.56,44.86,38.6Zm-.3-1.35a.85.85,0,0,1-.45.38A.4.4,0,0,1,44.56,37.25Zm-.3-1.35c-.13,0-.18,0-.15-.15h.15Zm-.53-9.56c0-.15.08-.12.08-.23C44,26.13,43.82,26.35,43.73,26.34Zm.15.53v-.46a2.42,2.42,0,0,1,.23.76C44,27.14,44.08,26.84,43.88,26.87Zm4.29-3.77h.15c0,.19,0,.37-.15.38ZM48.32,26h-.15c0-.19-.15-.15-.23-.22s.07-.26-.07-.23c0-.09.11-.14.07-.3h.16c0,.15.11.16.22.08C48.38,25.58,48.21,25.84,48.32,26Zm-.22-.9c0-.11.08-.07.15-.08,0-.2-.36-.09-.31-.37h.16c-.16-.25.07-.65.07-1,.16,0,0,.26.08.38s.11-.09.22-.08.08.38-.07.38.18.13,0,.15c.18.16-.07.33.07.45S48.28,25.07,48.1,25.06Zm.37,1.2a.33.33,0,0,1,.15.3C48.49,26.54,48.45,26.43,48.47,26.26Zm.15,3h-.07c0-.09-.08-.32.07-.3Zm0-1.5c-.15,0,0-.26-.07-.38C48.7,27.39,48.59,27.65,48.62,27.77ZM49.37,6a.33.33,0,0,1-.3-.15A.33.33,0,0,1,49.37,6Zm-.52-.45h.3c-.06.13-.22.06-.08.22C48.91,5.81,48.84,5.73,48.85,5.57Zm.45,20.54c-.12,0,0,.12-.15.08a.47.47,0,0,1,.07.37c-.28-.1,0-.63-.15-.75h.15c-.08-.23,0-.2-.07-.37a.31.31,0,0,0,.07-.46h.23A2.77,2.77,0,0,0,49.3,26.11Zm.38,1.58H49.6c0-.09-.07-.32.08-.3Zm.07-.45c-.09,0-.09-.08-.15-.11s.13-.1.08-.26C49.83,26.86,49.71,27.13,49.75,27.24ZM49.83,6.4c.17-.18-.09-.17-.15-.3.2.05.2-.11.37-.08s-.16,0-.15.11.26.12.3.27Zm.37,20.39c-.15,0,0-.26-.07-.38C50.28,26.41,50.17,26.68,50.2,26.79Zm5.87-12.12a.17.17,0,0,1-.22-.15A.18.18,0,0,1,56.07,14.67Zm-.3-.9a.74.74,0,0,1,.23.6c-.11,0-.08.13-.23.08,0-.18-.12-.13-.07-.3.06,0,.14,0,.15,0s-.27-.06-.23-.26C55.69,13.84,55.81,13.88,55.77,13.77Zm-.07,4.67v.3h-.08C55.65,18.64,55.55,18.41,55.7,18.44Zm-.23-4.89c.16,0,.24.06.23.22h-.23Zm-2,1c0,.3.18.38.15.68C53.54,15.17,53.37,14.73,53.51,14.6Zm-1-1c.15.05.11-.08.22-.07s0,.14-.08.18.06-.08.16,0c-.05.2.07.25.15.34-.1.18-.05.21,0,.41h-.15c.06.16,0,.38.15.6-.13,0-.1.16-.23.15s-.11-.39-.38-.38c0-.18.14-.23,0-.37s-.09-.16-.22-.15c0-.27-.16-.29-.15-.53h.15V14h.15a5.5,5.5,0,0,0-.23-.61c.21.06.17.36.34.46.08-.12-.08-.32-.11-.46A.43.43,0,0,1,52.54,13.62Zm-.31-.45a.69.69,0,0,1-.45-.6C52.1,12.61,52.14,12.91,52.23,13.17Zm-.15,11.14h-.15c0-.16.08-.12.08-.23S52.06,24.23,52.08,24.31ZM53,21.67c-.41-.11,0-.59-.11-1H53C53.13,20.86,53.06,21.44,53,21.67Zm-.18-1.35v-.23H53C52.92,20.15,53,20.3,52.84,20.32Zm2,1.5v-.45h-.12c-.24.64-.27,1.5-.71,2a10.17,10.17,0,0,0,.3-2.82l-.11-.12c-.1,0,0,.21-.11.15,0,.13.12,0,.07.15s-.09.39-.23.49.22,0,.16.12H54c0,.12.13,0,.08.15s-.07,0-.08.07,0-.16-.11-.15c-.13.26-.22.56-.34.83,0-.67-.25-1-.07-1.58h.22c0-.14-.14-.05-.22-.08s.08-.74-.23-.75c0-.23-.1-.27-.19-.37s0,.21,0,.3-.14.11-.31.07v.53c-.24-.06-.18-.42-.3-.6-.32,0,0,.71-.22.86,0,.1.21,0,.15.11a1.86,1.86,0,0,0-.26.31c-.15,0-.22-.12-.34-.15a1.25,1.25,0,0,0-.15-.72c0-.06-.18,0-.19-.11a1.15,1.15,0,0,1-.27.83,14,14,0,0,0,.23-1.51c.16.05.07.46,0,.53.25,0,.36-.66.08-.72,0-.12.06-.16.15-.19v.15c.11,0,.19-.1.3-.15A10.8,10.8,0,0,0,51.71,17c.31-.06.16.33.3.45-.07,0-.19,0-.15.07s.26.2.3.38S52,18,52,18.1c.23.09.38-.22.6-.27,0,.17.06.24.23.23,0,.08-.06.26.07.23-.11.23.17.6.08,1.05.15.05.12-.08.22-.07-.17-.15.14-.43-.07-.61a.17.17,0,0,0,.15-.22c.1,0,.1.12.26.07a5.1,5.1,0,0,0,0-1c.16.18.1.58.26.76.08-.05,0-.26.11-.27-.1-.11-.08-.34-.15-.49H54c-.18.18.14.15.19.3A2.85,2.85,0,0,0,54,16.56c.13,0,0,.12.16.07.06.68.3,1.2.37,1.88.16.06,0-.21.15-.15s.39,1,.15,1.21c.15.2.05.65.08,1h-.15c0,.13,0,.24-.08.27a.88.88,0,0,1,.15.41c.15.05.12-.08.23-.07C55,21.39,55.11,21.79,54.87,21.82Zm.45,7.68c-.2,0-.25-.11-.23-.3.13,0,.1-.16.23-.15s0,.07-.08.07A.49.49,0,0,1,55.32,29.5Zm0-1.13c-.09,0-.14.11-.3.08,0-.23.24-.3.07-.46.24.06.11-.24.3-.22C55.33,27.94,55.23,28.27,55.32,28.37Zm.07-6.55v-.37c.14,0,.06.25.15.3C55.42,21.7,55.52,21.87,55.39,21.82Zm1.13,6c0-.13,0-.31.15-.37A.36.36,0,0,1,56.52,27.84Zm.23-.52c-.14-.06-.06-.22-.23-.08,0-.16,0-.21.08-.3s.07.13.22.08C56.79,27.11,56.71,27.15,56.75,27.32Zm.45-6.4c-.22,0-.15.23-.3.26,0,.05.09,0,.15,0-.07.17,0,.68-.23.9.06-.25-.1-.29-.07-.52h-.11c0,.27-.23.4-.57.37,0-.21,0-.49-.07-.6.25-.3-.22-.62.15-.79,0-.08-.16,0-.23,0-.05.32.14.89-.15,1,.11-.33,0-.74.08-.94-.22,0-.09-.33-.31-.34.38-.39.08-.95.08-1.43.31,0,0,.52.38.46,0,.12,0,.23-.08.26s.15-.05.23,0a4.73,4.73,0,0,1,.19,1,15,15,0,0,0,0-1.66c.31.28.25.93.34,1.43a3.29,3.29,0,0,0,0-1.65c.13,0,0-.12.15-.08s-.12-.07-.07-.22,0,.12.15.07a.54.54,0,0,0,.07.38c0,.11-.11.11-.15.19s.16.09.23.15c-.06.26-.15.51.07.64C57.07,20.19,57.25,20.44,57.2,20.92Z"/><path class="cls-1" d="M46.06,34.09a4.39,4.39,0,0,1-.3,1.2c.12,0,.25.28.08.31s.06-.27-.08-.23c0,.24-.13.32-.07.6h.15c0-.17-.13-.12-.08-.3H46a1.42,1.42,0,0,1,.3-.6c.05-.12-.12,0-.08-.15a.18.18,0,0,0,.15-.23c-.14-.08-.16.16-.22,0,.51-.28.46-1.12.9-1.47-.16-.15.06-.24-.07-.37.11,0,.08-.17.15-.23-.18.09-.23.3-.34.45-.06,0,0-.09,0-.15-.17-.05-.13.13-.3.08-.06.16.21,0,.15.15C46.25,33.27,46.14,33.74,46.06,34.09Z"/><path class="cls-1" d="M46.36,2.86a.58.58,0,0,0-.67-.3C45.74,2.83,46.17,2.73,46.36,2.86Z"/><path class="cls-1" d="M49.45,2.71a.33.33,0,0,0-.3-.15A.33.33,0,0,0,49.45,2.71Z"/><path class="cls-1" d="M46.82,3.24a7,7,0,0,1,1.2.67h.45c0,.13.16.1.15.23a11.84,11.84,0,0,1,1.51,1,.48.48,0,0,0-.08-.38c-.43,0-.77-.18-.83-.6h-.45c-.44-.48-1.18-.68-1.65-1.13a6.22,6.22,0,0,1-.68-.15C46.51,3,46.86,3,46.82,3.24Z"/><path class="cls-1" d="M50.88,3.84a1.77,1.77,0,0,1,.68.52c.22,0,.28.18.37.31a.67.67,0,0,1,.53.37c-.07,0-.19,0-.15.08.38,0,.46.29.83.3-.11-.22-.41-.25-.46-.53a3.83,3.83,0,0,1-1.27-1h-.23c-.17-.53-.92-.48-1.2-.91-.21.06-.2-.1-.38-.07a3.63,3.63,0,0,0,1.28.83Z"/><path class="cls-1" d="M45.61,3.69a.33.33,0,0,0-.3-.15A.33.33,0,0,0,45.61,3.69Z"/><path class="cls-1" d="M27.32,3.84c0-.14-.14,0-.22-.08.06.16-.21,0-.15.15S27.12,3.78,27.32,3.84Z"/><path class="cls-1" d="M39.89,4.29c0,.12.12,0,.08.15a.46.46,0,0,1,.37.08c0-.13-.12,0-.07-.16A.5.5,0,0,1,39.89,4.29Z"/><path class="cls-1" d="M39.89,5.12c0,.12.12,0,.08.15.26-.06.32.13.45,0,0,.2.27.07.3.22s0-.12.15-.07.24.16.45.15c0,.07,0,.22,0,.22a12.26,12.26,0,0,0-2.59-.67c0,.27.55,0,.6.3.38-.17.81.17,1.28.15,0,.12.12,0,.07.15.17-.07.69,0,.76.3.26-.17.53.19.9.15-.2-.19-.58-.2-.83-.34.53-.09.89.32,1.51.27,0,.09.11.13.07.3h.3c0-.18-.12-.13-.07-.3-.07,0-.19,0-.15-.08s.21,0,.15-.15c-.34,0-.47-.19-.75-.23V5.49c-.35-.18-.75-.06-1.06-.15a11.6,11.6,0,0,1-1.73-.52,7.23,7.23,0,0,0-1.2-.08A2.83,2.83,0,0,0,39.89,5.12Z"/><path class="cls-1" d="M28.3,5.12A3.09,3.09,0,0,0,29.21,5,1.8,1.8,0,0,0,28.3,5.12Z"/><path class="cls-1" d="M50.35,5.27a.72.72,0,0,0,.3.3c0-.11-.12-.07-.07-.23C50.43,5.39,50.46,5.26,50.35,5.27Z"/><path class="cls-1" d="M20.18,5.79a1,1,0,0,0,.67-.3A2,2,0,0,0,20.18,5.79Z"/><path class="cls-1" d="M52.31,5.49a5.14,5.14,0,0,0,1.35,1A4.64,4.64,0,0,0,52.31,5.49Z"/><path class="cls-1" d="M21.19,7.07c-.22.15-.6.15-.71.46h.37c.57-.59,1.33-1,1.58-1.89.07,0,.19,0,.15-.07h-.15s0,.09-.07.07a.72.72,0,0,1-.3.46s0,.11,0,.15A6.06,6.06,0,0,1,21.19,7.07Z"/><path class="cls-1" d="M26.05,5.64c0-.14-.21,0-.31-.07.06.16-.2,0-.15.15C25.77,5.72,25.82,5.59,26.05,5.64Z"/><path class="cls-1" d="M20.78,6.62c.42,0,.39-.56.83-.6.05-.16-.21,0-.15-.15.19,0,.14-.15.22-.23-.29.11-.28.53-.68.53C21,6.43,20.74,6.36,20.78,6.62Z"/><path class="cls-1" d="M51.26,5.64c-.15.05-.16.23-.31.08a.34.34,0,0,0,.38.23C51.37,5.78,51.29,5.74,51.26,5.64Z"/><path class="cls-1" d="M39.14,5.79c.16.17.56.1.75.23,0,0,0-.09.08-.07S40,6,40,6C39.92,5.77,39.52,5.79,39.14,5.79Z"/><path class="cls-1" d="M13.18,6.17c.17-.08.45,0,.6-.15.05.12-.12,0-.08.15A.39.39,0,0,0,13.93,6c-.26-.23-.45.1-.75.07Z"/><path class="cls-1" d="M54.64,9.18a3.75,3.75,0,0,0-.83-1.09c.08,0,.09-.14.08-.26a.19.19,0,0,1-.23-.23h-.15c0,.2.15.16.15.3a2.33,2.33,0,0,1-.75-.68c.07,0,.19,0,.15-.07s-.19,0-.15-.08,0,.13-.19.08a3.19,3.19,0,0,0-.26-.26c0-.06.1,0,.08-.12-.18,0-.15-.25-.38-.22.05-.16-.08-.12-.08-.23A.41.41,0,0,1,51.63,6c-.17,0-.17.13-.37.07-.06.38.47.18.45.53.18,0,.35.1.37.3.18.05.13-.13.3-.08s-.12.13-.07.3.43.13.45.38a2.57,2.57,0,0,1,1,.9H54v.23C54.33,8.64,54.39,9,54.64,9.18Z"/><path class="cls-1" d="M25.22,6.1a.33.33,0,0,0-.3.15A.35.35,0,0,0,25.22,6.1Z"/><path class="cls-1" d="M42.68,6.55c.14-.23.42.14.52-.08C43,6.49,42.75,6.27,42.68,6.55Z"/><path class="cls-1" d="M9.49,13v.15c.09.05.09-.18.15,0a1.14,1.14,0,0,1-.11.11c-.06,0,0-.09-.12-.07-.11.49-.55.65-.75,1.05,0,.12.12,0,.08.15a.19.19,0,0,0-.15.23c.14,0,.06-.29.3-.23.37-.38.56-.94,1-1.28,0-.19.06-.25.11-.37.16,0,.16-.06.26-.08s-.12,0-.07-.15,0,.12.15.08c0-.19.06-.39.3-.38.05-.12-.12,0-.08-.15a9.28,9.28,0,0,0,1.09-1c.59,0,.66-.47,1.1-.6,0-.06,0-.14,0-.15.31,0,.38-.43.64-.34,0,.06-.09,0-.15,0-.07.33-.42.38-.6.6.06.31-.36.15-.3.45.24-.1.25,0,.53,0-.06-.23.24-.11.22-.3-.06,0-.19,0-.15-.07.18.05.13-.13.3-.08a.37.37,0,0,1,.53-.22c.05-.13-.12,0-.08-.16.12,0,.15-.23.23-.11s-.15.08-.15.19c.23,0,.2-.2.38-.23s-.13,0-.08-.15c.2.05.16-.14.3-.15s-.12,0-.07.15h.3a.17.17,0,0,1,.15-.15,1,1,0,0,1-.68.45c.06.19-.09.16-.23.16a2.26,2.26,0,0,1-.11.22c-.43,0-.43.39-.71.53,0,.47-.43.55-.57.9-.35.09-.36.52-.64.68-.05.37-.47.37-.52.75-.26,0-.3.25-.38.45h-.15a1.09,1.09,0,0,1-.38.53c0,.16,0,.21-.07.3.13-.1.29-.16.3-.38.26.05.19-.23.34-.3,0,.09.15,0,.19.11s-.2.19-.3.27c.07.13.07.09,0,.22.11,0,0,.13.18.08.25-.32.53-.6.79-.9,0-.1-.17-.09,0-.15s0,.09.11.07.15,0,.22-.07-.16,0-.15-.12c.28-.16.35-.52.68-.64-.05-.3.36-.14.3-.45h.15v-.15c-.14-.08-.16.16-.22,0a3.19,3.19,0,0,1,.26-.26c.28.18.63-.16.75-.38.65-.16.9-.91,1.62-.87-.14.16-.59.29-.38.57h-.22c0,.11-.11.19-.15.3s.09,0,.07.07a.8.8,0,0,1,.68-.07.18.18,0,0,1,.23-.15c0-.16-.21,0-.15-.15-.1,0-.1.17-.16,0,.11-.09.17-.26.31-.12,0-.12-.13,0-.08-.15a2.41,2.41,0,0,0,.79-.52c.17.19.37-.14.64-.08a.2.2,0,0,1,0-.3c-.11,0-.07.13-.22.08,0,.27-.34.21-.61.22,0,.15-.2.15-.3.23.05-.13-.12,0-.07-.15.28,0,.33-.15.41-.3.35,0,.65-.1.75-.38.21,0,.2-.13.42-.08,0,0,0-.14,0-.15.38-.09.67-.26,1-.37,0-.24-.26-.11-.07-.3h-.23v.22a6.19,6.19,0,0,1-.6.23c0-.13-.12,0-.08-.15s.14-.12.3-.08a.4.4,0,0,1,.3-.45v-.3c.18,0,.15-.26.38-.23A.63.63,0,0,1,18.9,8V7.83c-.33-.06-.47.32-.68.15-.17.13-.29.31-.6.3,0-.39.3-.46.6-.53V7.6c-.11,0-.07.13-.23.08V7.53h.23c-.06-.24.11-.24.15-.38-.36.19-.52.59-1.05.6,0,.15-.2.15-.31.23s.13,0,.08.15c-.43,0-.51.36-.94.37-.14-.13-.25-.3-.49-.34.1-.45.65-.45,1-.63.06.07.17.09.26.15a.62.62,0,0,0,.45-.53c-.22.1-.35.47-.68.34V7.37c.3-.07.45-.34.64-.52s.26,0,.19-.23c-.36.07-.39.46-.83.45q0,.2-.15.15c0,.07.05.23,0,.23l-.12-.11c.12-.07.09-.29.23-.34-.07-.13-.07-.1,0-.23-.19,0-.26.14-.38.23.07,0,.22,0,.23,0s-.2.12-.3.18c-.14-.13-.19,0-.38,0V7.07c.3-.07.22-.53.53-.6H16c-.06.23-.2.1-.38.08-.06.15.16,0,.15.11s-.19.13-.07.26h-.31c0,.12-.15.17-.18.3-.08-.12-.08,0-.19,0s.12,0,.07-.15c-.19.17-.5.21-.67.38-.05-.12.12,0,.07-.15-.09.09-.26.08-.45.07,0,.29-.31.3-.53.38a1.88,1.88,0,0,1-.75.45.16.16,0,0,1-.15.15c-.05-.15.08-.12.08-.22-.21,0-.19.31-.46.3.05.17-.12.12-.07.3-.22,0-.28.17-.38.3.27.1.27-.25.45-.11-.13.05-.2.17-.3.26a.53.53,0,0,0,.38-.07c0,.12.12,0,.07.15-.27-.06-.16.28-.37.3-.12.31-.42.43-.68.6a1.51,1.51,0,0,1-.45.6c.05.4-.37.33-.38.68h.15c0-.32.42-.19.38-.53a.58.58,0,0,0,.45-.45c.36-.09.53-.38.83-.53V9.71c.24,0,.42-.31.6-.27,0,.08-.15.08-.15.19s.16-.15.23,0l-.12.12h-.26c-.05.12.12,0,.08.15a1.19,1.19,0,0,1-.68.3c-.06.15.16,0,.15.11-.18.24-.52.31-.6.64h-.15a.76.76,0,0,1-.53.53c-.08.4-.67.65-.9,1-.11.15,0,.44-.3.37,0,.11-.13.08-.08.23Zm2.11.41c.07.13.15,0,.22,0s-.15.1-.15.23-.05-.07-.11-.07.09,0,0,.15c-.21-.06-.2.1-.38.07.23-.23.31-.59.68-.68C11.74,13.15,11.78,13.4,11.6,13.43Zm.45-.26c0-.17-.1-.18-.15-.26.22-.35.67-.46.9-.79,0,.24-.21.26-.3.41.12.13.18-.12.38,0A1.79,1.79,0,0,1,12.05,13.17Zm1.73-1.66c-.15,0-.12.09-.23.08a.19.19,0,0,1,.23-.23Zm3-3H17c0,.11-.16.09-.22.15Zm-.08,0c0,.11-.11.11-.15.19s.29.09.31.27c-.22,0-.5-.05-.61.07,0-.13-.15-.1-.15-.23C16.38,8.77,16.38,8.47,16.71,8.5ZM15,9V8.73h.3A1.4,1.4,0,0,1,15,9Zm1-.31h-.6C15.41,8.49,15.93,8.4,16,8.65Zm.38-1.12c-.11.23-.61.09-.83.22C15.48,7.35,16.08,7.43,16.34,7.53ZM15.59,8V8.2a3.73,3.73,0,0,1-.68.15A1.78,1.78,0,0,1,15.59,8Zm-1,.45c.07,0,.26-.06.22.07-.16,0-.21.05-.3.08S14.65,8.55,14.61,8.43Zm-.23.68A.54.54,0,0,0,14.76,9c0,.12.12,0,.07.15-.43,0-.56.29-.9.38C14,9.32,14.28,9.31,14.38,9.11Z"/><path class="cls-1" d="M14.68,6.55a.28.28,0,0,0-.3.3C14.45,6.72,14.63,6.7,14.68,6.55Z"/><path class="cls-1" d="M12.35,7.68c0-.27.43-.16.49-.38a.63.63,0,0,0,.26.19c-.06.1-.19.13-.22.26.13-.07.22-.23.37-.07,0-.17,0-.21-.07-.31s.07-.12.22-.07c-.05-.15.08-.12.08-.23s-.14,0-.15,0,.15-.08.15-.19H12.8c0,.22-.2.15-.15.37s.16-.15.23,0l-.19.18a3.35,3.35,0,0,1-.87.08V7.6C12,7.45,12.18,7.62,12.35,7.68Z"/><path class="cls-1" d="M22.89,6.92a5,5,0,0,0-1.66.76A16.78,16.78,0,0,0,22.89,6.92Z"/><path class="cls-1" d="M33.27,6.92c-.09.11-.28.12-.38.23h.38c0-.12-.12,0-.07-.15S33.28,7,33.27,6.92Z"/><path class="cls-1" d="M13.63,7.3c-.1.07-.28.07-.3.23a2.61,2.61,0,0,1,1-.38c0-.1-.16-.12-.27-.15a.86.86,0,0,1-.49.15C13.51,7.27,13.68,7.18,13.63,7.3Z"/><path class="cls-1" d="M25.59,7.68a.15.15,0,0,0-.15-.15c.06.15-.08.11-.07.22S25.44,7.62,25.59,7.68Z"/><path class="cls-1" d="M25,7.83V7.68c-.14.11-.42.08-.52.22C24.7,7.94,24.73,7.77,25,7.83Z"/><path class="cls-1" d="M22.66,8.58a.33.33,0,0,0,.3-.15A.33.33,0,0,0,22.66,8.58Z"/><path class="cls-1" d="M22.32,8.5c-.43.19-.69.54-1.24.61-.24.33-.82.33-1,.67.84-.38,1.64-.81,2.55-1.13C22.55,8.55,22.43,8.54,22.32,8.5Z"/><path class="cls-1" d="M18.52,9.11a.94.94,0,0,0,.53-.31H18.6C18.74,9,18.62,9,18.52,9.11Z"/><path class="cls-1" d="M28.83,9.56c.07.18.42,0,.45-.08C29.11,9.48,29.06,9.61,28.83,9.56Z"/><path class="cls-1" d="M27.32,9.93c-.17,0-.22.13-.45.08C27,10.19,27.29,10,27.32,9.93Z"/><path class="cls-1" d="M26.35,10.23a.19.19,0,0,1,.15.16A4.82,4.82,0,0,0,28.08,10c-.54,0-.93.35-1.51.19,0-.06.1,0,.08-.12-.19.14-.6.06-.68.31C26.21,10.44,26.21,10.27,26.35,10.23Z"/><path class="cls-1" d="M24.24,10.23a.33.33,0,0,0,.3-.15A.35.35,0,0,0,24.24,10.23Z"/><path class="cls-1" d="M33.65,10.69c-.13,0,0,.12-.15.07a.87.87,0,0,0-.61-.22v.15c.48,0,.78.28,1.28.3,0,.12.12,0,.08.15a.68.68,0,0,1,.45.07C34.5,10.88,33.9,11,33.65,10.69Z"/><path class="cls-1" d="M37.26,12.27c0-.13.12,0,.07-.15S37.16,12,37,12v.15C37.12,12.15,37.17,12.23,37.26,12.27Z"/><path class="cls-1" d="M35.53,11.21a.18.18,0,0,1-.23-.15c-.13,0-.09.16-.22.15s.12.08.07.23c.28.07.74,0,.75.3.1,0,.33-.07.3.07.13,0,0-.12.16-.07s.27.13.3.3H37c0-.22-.22-.16-.3-.26s.1-.07.07-.19c-.17.05-.11-.11-.26-.08s-.38.05-.57.08c0-.21-.34-.14-.45-.26S35.55,11.3,35.53,11.21Z"/><path class="cls-1" d="M27.48,11.21c-.38-.14-.86.25-1.43.15-.07.27-.55.12-.61.38.66-.07,1-.44,1.81-.38C27.19,11.18,27.34,11.21,27.48,11.21Z"/><path class="cls-1" d="M9.87,12.27H10V12a1.06,1.06,0,0,0,.52-.46h-.22a.58.58,0,0,1-.45.46c.05.15-.09.11-.08.22C9.94,12.11,10,12.11,9.87,12.27Z"/><path class="cls-1" d="M8.59,13.24c-.15,0-.11.2-.3.15v.23c-.43.1-.44.62-.68.9.29,0,.23-.36.53-.37.16-.46.61-.65.75-1.13H9c.05-.18-.13-.13-.08-.3.28,0,.15-.36.38-.38,0-.16,0-.21-.08-.3.11-.07.11-.24.15-.38-.29.11-.28.52-.75.46-.13.14-.2.34-.37.45v.3c-.2.23-.46.4-.53.75H7.61a20.83,20.83,0,0,1-1.13,2c.71-.78,1.32-1.66,2-2.49C8.5,13.15,8.59,13.15,8.59,13.24Zm.6-1a.19.19,0,0,1-.23.15A.18.18,0,0,1,9.19,12.27Z"/><path class="cls-1" d="M14.12,12.27c.06,0,0,.11.15.07.11-.23.45-.23.49-.53-.22,0-.26,0-.15-.15-.55.11-.69.62-1.13.83,0,.23-.2.2-.23.38.14-.17.46-.15.68-.23,0-.06,0-.19.08-.15,0-.12-.13,0-.08-.15C14.05,12.37,14.07,12.31,14.12,12.27Z"/><path class="cls-1" d="M15.21,11.81c-.23-.05-.15.21-.38.16.05.12-.12,0-.07.15C14.9,12,15.15,12,15.21,11.81Z"/><path class="cls-1" d="M15.59,12.27c-.19,0-.24.11-.31.22h.15C15.35,12.28,15.6,12.41,15.59,12.27Z"/><path class="cls-1" d="M37.71,12.42a1.45,1.45,0,0,0,.45.22A.43.43,0,0,0,37.71,12.42Z"/><path class="cls-1" d="M28.08,12.79c.06.11.24.11.37.15A.36.36,0,0,0,28.08,12.79Z"/><path class="cls-1" d="M13.25,12.94H13.1c0,.05,0,.09-.07.08a.17.17,0,0,0,.15.15c0-.12-.12,0-.08-.15S13.29,13.06,13.25,12.94Z"/><path class="cls-1" d="M10.47,13c-.73.37-1.05,1.16-1.51,1.8.29-.08.28-.47.61-.52,0-.12-.13,0-.08-.15a.73.73,0,0,0,.53-.6h.15C10.11,13.22,10.41,13.24,10.47,13Z"/><path class="cls-1" d="M27.1,13.24a.48.48,0,0,1-.38.08c0,.15.21,0,.3.07C27,13.27,27.15,13.37,27.1,13.24Z"/><path class="cls-1" d="M35.83,13.7c.35.47,1,.64,1.5,1,0-.33-.2-.39-.3-.6-.35,0-.37-.28-.67-.3,0,.12.12,0,.07.15C36.11,14,36.12,13.68,35.83,13.7Z"/><path class="cls-1" d="M12.2,14.07c0,.23-.37.08-.38.3h.3c0-.31.47-.19.46-.52C12.32,13.8,12.47,14.15,12.2,14.07Z"/><path class="cls-1" d="M59.31,13.92c.2.22,0,.79.3.94-.18.18.06.52.15.68A2.58,2.58,0,0,0,60,17c0-.26-.16-.5,0-.72a1.59,1.59,0,0,1-.08-.75c-.15-.08,0-.4-.08-.6,0,0-.06,0-.07-.08v-.22c-.08,0-.09-.14-.08-.27C59.52,14.31,59.47,13.75,59.31,13.92Z"/><path class="cls-1" d="M29.13,14.15v.15a1.19,1.19,0,0,1,.53,0v-.15C29.5,14.31,29.4,14.09,29.13,14.15Z"/><path class="cls-1" d="M10.54,15.05c.1-.1.37,0,.38-.23C10.68,14.79,10.61,14.92,10.54,15.05Z"/><path class="cls-1" d="M33.42,14.82c0,.21.36.15.53.23C33.85,14.9,33.61,14.88,33.42,14.82Z"/><path class="cls-1" d="M32.89,16.41a.37.37,0,0,0,.31.15A.36.36,0,0,0,32.89,16.41Z"/><path class="cls-1" d="M5.13,17.76c.34,0,.28-.47.52-.6,0-.27.16-.29.15-.53-.3.22-.35.71-.67.9,0,.29-.19.32-.23.53C5,18,5.14,18,5.13,17.76Z"/><path class="cls-1" d="M34,16.93c.07.11.12.24.3.23V17C34.16,17,34.11,17,34,16.93Z"/><path class="cls-1" d="M8.81,18.29v-.15c-.12-.05,0,.12-.15.07s-.07-.09,0-.22c-.1,0-.07.12-.22.07a.54.54,0,0,1-.3.45c.06-.16.19-.26.15-.52-.23-.24.22-.43.15-.76-.25.1-.24.41-.38.6s-.13,0-.15.08a6.21,6.21,0,0,0-.3.68s-.13,0-.15.07a2.32,2.32,0,0,0-.23.76c.2,0,.16-.15.3-.15s0-.23,0-.23.07.1.19.07.16-.16.19-.3c.06,0,0,.12.15.08s.09-.29.26-.3a.51.51,0,0,0,0,.45h.15c0-.1-.07-.32.08-.3,0-.11-.13-.08-.08-.23C8.79,18.61,8.54,18.19,8.81,18.29Z"/><path class="cls-1" d="M2.19,26c.17,0,.17-.23.3-.3,0,.38-.13.53-.07.9.2,0,.19-.13.26-.22l.11.11c-.2.21-.09.74-.37.87a2.54,2.54,0,0,1-.15,1.2c.15.05.11-.08.22-.07a7.22,7.22,0,0,1,.6-1.66A.53.53,0,0,1,3,26.41h.15c-.1-.41,0-.51.07-.9-.12-.05,0,.12-.15.08,0-.27,0-.52.23-.61-.18-.15.21-.41,0-.6.37-.66.23-1.83.75-2.33.06.43-.28.47-.22.9.24-.2.24-.63.37-.94,0-.1-.18,0-.15-.07a17.92,17.92,0,0,0,1.06-2.3c-.27,0-.19.26-.46.23,0,.2-.14.23-.15.41s.18,0,.15.08-.08.31-.18.41,0-.21-.12-.15-.07.28-.15.38c.07,0,.19,0,.15.07-.15-.05-.12.08-.22.08,0-.3.15-.46.15-.76-.12,0,0,.13-.15.08a9.58,9.58,0,0,1,.45-1.81c-.12,0,0,.12-.15.08,0,.24-.06.44-.3.45,0,.12.13,0,.07.19a6.55,6.55,0,0,0-.56,1c-.41.08-.3.69-.57.91,0,.53-.38,1-.45,1.58a5,5,0,0,1,0,.67c0,.07-.14.09-.15.15-.05.26,0,.57-.07.83-.13,0,0,.12-.15.08.07.31-.16.51,0,.68-.12,0-.09.24-.15.33C2.31,25.63,2.29,25.86,2.19,26Zm.45-1.28c.15,0,0,.21.08.3H2.57C2.6,24.89,2.68,24.85,2.64,24.68Z"/><path class="cls-1" d="M5.8,19.72a1.14,1.14,0,0,1-.15.52c.31-.11.68-.81.38-1C6.15,19.33,6,19.62,5.8,19.72Z"/><path class="cls-1" d="M.31,24.68c0-.07,0-.07-.08-.11.13-.06,0-.34.15-.41.22-1.85,1.12-3,1.51-4.67h-.3a4.9,4.9,0,0,1-.75,1.28c-.15.6-.4,1.11-.53,1.73a9.18,9.18,0,0,1-.23,1.36.2.2,0,0,1,0,.3c.06,0,.14,0,.15,0-.17.11,0,.6-.15.72C.25,24.92.17,24.7.31,24.68Z"/><path class="cls-1" d="M42.75,20.69c0,.44.43.38.45.76.28,0,.2.3.53.22,0,.3.32.24.3.53h.23c-.22-.43-.6-.71-.83-1.13h.3c.05-.16-.22,0-.23-.11s.1,0,.08-.11-.07-.09-.08-.16c-.18,0-.23-.11-.3-.22h-.3c.15.19.55.33.49.6C43.21,20.92,43.08,20.7,42.75,20.69Z"/><path class="cls-1" d="M42.45,21.6c.23.07.16.44.53.37v-.15h-.23c0-.1-.13-.07-.07-.22h.15c0-.12-.12,0-.08-.15s-.09.17-.15,0,.1,0,.08-.11-.07-.08-.08-.15,0,.12-.15.08,0-.09-.07-.08.11.11.15.19S42.42,21.48,42.45,21.6Z"/><path class="cls-1" d="M43.28,22.27c-.18.05-.13-.12-.3-.07.12.1.24.21.37.3C43.36,22.39,43.23,22.43,43.28,22.27Z"/><path class="cls-1" d="M4.37,23.48c-.12-.05,0,.12-.15.07s0-.2.08-.3c-.12,0,0,.12-.15.08,0,.28-.13.32-.08.6.1.05.09-.17.15,0-.14,0,0,.29-.11.34s0-.09-.11-.07a1.28,1.28,0,0,1-.15.52H4c0-.09,0-.27,0-.3s.12.06.12.15a1.12,1.12,0,0,0-.08.91c.08-.36.13-.73.23-1.06-.08,0-.26.06-.23-.07H4.3C4.26,24,4.43,23.84,4.37,23.48Z"/><path class="cls-1" d="M58.33,24.68c-.14.06-.06.22-.23.08v.15C58.27,24.92,58.34,24.85,58.33,24.68Z"/><path class="cls-1" d="M3.77,26.64c.25-.16.17-.64.3-.9,0,0-.09,0-.07-.08-.25.11-.28.43-.38.68.15,0,.08-.28.23-.3A1.37,1.37,0,0,0,3.77,26.64Z"/><path class="cls-1" d="M45.69,26.26c0,.25.26.47.07.68.07.24.25.75.08,1a1.56,1.56,0,0,1,.07,1.13c.36-.4.09-1.22.23-1.7a1.34,1.34,0,0,1-.08-.63C45.75,26.75,45.94,26.28,45.69,26.26Z"/><path class="cls-1" d="M2.72,28.14a.33.33,0,0,0,.15-.3A.34.34,0,0,0,2.72,28.14Z"/><path class="cls-1" d="M50.05,28.14c.15,0,.1-.19.3-.15,0-.13-.15,0-.22-.07C50.18,28.07,50,28,50.05,28.14Z"/><path class="cls-1" d="M46.36,28.6c.14.14,0,.19,0,.37h.15c0-.2,0-.43.08-.52C46.46,28.44,46.49,28.6,46.36,28.6Z"/><path class="cls-1" d="M51.56,28.82v.23h.15c-.05-.18.12-.13.07-.3C51.65,28.81,51.72,29,51.56,28.82Z"/><path class="cls-1" d="M46.06,30.4c0,.2.12.16,0,.3h.15c0-.29.14-.37.08-.67h.07c0,.07-.06.26.08.22.06-.21-.1-.2-.08-.37-.21,0-.14.31-.15.52Z"/><path class="cls-1" d="M49.6,30.55c-.05-.29.2-.3.15-.6C49.59,30,49.46,30.45,49.6,30.55Z"/><path class="cls-1" d="M46.29,30.93v-.15h-.23c-.05.22,0,.53-.22.6a.53.53,0,0,1,.07.38c.16.06,0-.21.15-.15s-.08.12-.07.22c.28-.07.06-.3.07-.52h.15c0-.15-.17-.31,0-.46C46.24,30.86,46.2,31,46.29,30.93Z"/><path class="cls-1" d="M48.55,34.62a.38.38,0,0,0,.15-.38c-.06,0-.14,0-.15,0,.14-.18.19-.46.34-.64,0,0,0,.1.11.08s.13,0,.07-.19-.14-.08-.15-.19.1-.41.3-.45c0-.07-.16-.15,0-.23s0,.1.11.08c.05-.33.09-.49,0-.68.15,0,.15-.2.3-.22a.32.32,0,0,0-.23-.38c-.33.9-.54,1.91-.9,2.78v.23c.06,0,.14,0,.15,0S48.51,34.5,48.55,34.62Z"/><path class="cls-1" d="M53.51,31.76c.06.15-.08.12-.07.22a.28.28,0,0,0,.3-.3C53.6,31.74,53.68,31.9,53.51,31.76Z"/><path class="cls-1" d="M53.21,32.28c-.05-.2.1-.2.08-.37s0,.21-.15.15C53.16,32.14,53.08,32.32,53.21,32.28Z"/><path class="cls-1" d="M51,33.94c-.06-.21.1-.2.07-.38s0,.21-.15.15C51,33.79,50.89,34,51,33.94Z"/><path class="cls-1" d="M2.42,33.64a2.91,2.91,0,0,0,.07,1.8c.23-.27-.11-1.27.08-1.73C2.45,33.76,2.54,33.59,2.42,33.64Z"/><path class="cls-1" d="M48.17,36c-.07-.13-.33-.13-.15-.3-.12-.05,0,.12-.15.08.06.23-.12.23-.15.37C47.85,36.05,47.91,35.91,48.17,36Z"/><path class="cls-1" d="M6,35.82c-.12,0,0,.12-.15.08,0,.07-.06.26.08.22C5.84,36,5.92,35.91,6,35.82Z"/><path class="cls-1" d="M5.88,36.5c.17,0,.28,0,.3-.15a.22.22,0,0,1-.3,0Z"/><path class="cls-1" d="M48.1,41.31h.22c.2-.45.63-.67.9-1.05a.19.19,0,0,1,.15-.23,5.76,5.76,0,0,1,.53-.82V39a.16.16,0,0,0,.15-.15c-.5.35-.72,1-1.2,1.35,0,.17-.07.24-.23.23C48.51,40.78,48.23,41,48.1,41.31Z"/><path class="cls-1" d="M3.24,40.26c-.07-.3-.28-.47-.3-.83-.22,0-.15-.4-.37-.45,0,.45.3.65.37,1.05C3.18,40,3.05,40.28,3.24,40.26Z"/><path class="cls-1" d="M52.16,39.36c.16,0,.24-.07.22-.23-.29,0-.22.29-.3.45s-.38.24-.3.45C52.06,40,52.17,39.72,52.16,39.36Z"/><path class="cls-1" d="M52.31,40c-.12.44-.49.64-.72,1-.14.05-.07-.11-.18-.08s0,.18-.15.15v.15c.09.05.09-.17.15,0s-.2.12-.31.18c0,.28-.12.48-.37.53,0,.28-.28.38-.45.53,0,.16-.07.24-.23.22a.26.26,0,0,1-.07.23,6.28,6.28,0,0,1-1.06.9c0,.16-.06.24-.22.23a2.14,2.14,0,0,1-.91.9.72.72,0,0,1-.6.53c0,.12.12,0,.08.15-.28,0-.2.3-.53.22a1.26,1.26,0,0,1-.6.46c0,.12.12,0,.07.15s-.32.07-.37.22.09-.17.15,0-.09.14-.08.27c.18,0,.15-.26.38-.23.06-.11.11-.23.3-.22a2.33,2.33,0,0,1,.75-.68c0-.24.2-.26.38-.3.32-.23.45-.65.9-.75,0-.17.06-.24.23-.23.26-.24.35-.65.75-.75.12-.33.54-.37.6-.76h.15c0-.12-.12,0-.07-.15.31-.16.34-.6.67-.75.06.15-.08.12-.07.23a2.22,2.22,0,0,0,.53-.53c-.16,0-.12.08-.23.08A13.08,13.08,0,0,0,52.46,40Z"/><path class="cls-1" d="M45.76,42a.22.22,0,0,1,.3,0,.32.32,0,0,1,.23-.37c.25.19.48-.27.6-.46-.22,0-.15.2-.38.15,0,.2-.12.2-.18.31s0-.1-.12-.08C46.15,41.78,45.83,41.76,45.76,42Z"/><path class="cls-1" d="M2.57,44.93c-.15-.06,0,.16-.12.15s-.27-.17-.15-.3,0,.09.12.07a.18.18,0,0,0-.15-.22c0,.06,0,.18-.08.15a7.18,7.18,0,0,1-.45-1.06H1.51c0-.35-.36-.39-.3-.83-.14,0-.06-.28-.3-.22a2.34,2.34,0,0,0-.45-.75c0,.18.14.23,0,.37.09,0,.09.09.15.12.13.71.75.93.83,1.69h.22c0,.22.2.15.15.37.41.37.52,1.05,1,1.36a.54.54,0,0,0-.15-.34c.11-.06.06-.26.15-.34C2.63,45.17,2.7,44.94,2.57,44.93Z"/><path class="cls-1" d="M1.36,42.22H1.21A3.49,3.49,0,0,0,2,43.42c0-.3-.35-.3-.3-.68C1.48,42.65,1.42,42.44,1.36,42.22Z"/><path class="cls-1" d="M8.14,42.37c-.05,0-.09,0-.08.07a.17.17,0,0,0,.15-.22H8.06C8,42.34,8.18,42.25,8.14,42.37Z"/><path class="cls-1" d="M44.48,44c.05.12-.12,0-.07.15a.36.36,0,0,0,.37-.15C44.59,43.94,44.63,44.07,44.48,44Z"/><path class="cls-1" d="M43.43,46.58c.11,0,.07-.23.3-.15-.06-.06,0-.21-.15-.22C43.63,46.43,43.38,46.36,43.43,46.58Z"/><path class="cls-1" d="M4.07,46.58c-.1,0-.07-.13-.22-.07,0,.24.22.32.37.45v-.15C4,46.86,4.06,46.71,4.07,46.58Z"/><path class="cls-1" d="M3.54,46.73c-.15.05-.11-.08-.22-.07s.11.14.07.3c.13,0,.1.15.23.15C3.68,46.9,3.52,46.91,3.54,46.73Z"/><path class="cls-1" d="M44.48,47.86a4.16,4.16,0,0,0-1.28,1A3.3,3.3,0,0,0,44.48,47.86Z"/><path class="cls-1" d="M6.78,48.09a.33.33,0,0,0,.15.3A.33.33,0,0,0,6.78,48.09Z"/><path class="cls-1" d="M41.32,50c-.13.24-.51.24-.6.53a5.48,5.48,0,0,0,1.81-1.21C42.05,49.44,41.79,49.81,41.32,50Z"/><path class="cls-1" d="M6.93,49.74c0,.22.32.14.3.38h.15C7.26,50,7.18,49.77,6.93,49.74Z"/><path class="cls-1" d="M38.91,50.5a.64.64,0,0,1,.46-.08c0-.16-.27,0-.38-.08C39,50.47,38.87,50.37,38.91,50.5Z"/><path class="cls-1" d="M7.68,50.72c-.08-.11-.06-.33-.3-.3C7.51,50.49,7.54,50.67,7.68,50.72Z"/><path class="cls-1" d="M35.53,51.62c0,.11-.11.2-.15.3.63-.45,1.57-.58,2.25-1,0-.12-.12,0-.07-.15.31,0,.36-.12.6,0,.05-.16-.08-.12-.07-.23A9.82,9.82,0,0,1,37,50.8c-.06.15.21,0,.15.15A10.71,10.71,0,0,1,35.53,51.62Z"/><path class="cls-1" d="M39.29,51.25c.05.12-.12,0-.07.15.1-.08.27-.08.3-.23S39.44,51.3,39.29,51.25Z"/><path class="cls-1" d="M41.4,51.7c0-.12-.12,0-.08-.15-.1.07-.28.07-.3.22.13-.07.1-.07.23,0C41.21,51.66,41.33,51.71,41.4,51.7Z"/><path class="cls-1" d="M38.09,52c.1-.07.27-.07.3-.23-.11,0-.08.13-.23.08C38.21,52,38,51.88,38.09,52Z"/><path class="cls-1" d="M39.85,53.66c-.05,0,0-.12-.15-.08-.23.19-.73.12-.9.38-.55.06-1.13.09-1.32.52a29.17,29.17,0,0,0,4.67-1.65c-.65.13-1.12.44-1.81.52C40.32,53.59,39.9,53.44,39.85,53.66Z"/><path class="cls-1" d="M40.12,53.88a1.19,1.19,0,0,0,.68-.3A1.93,1.93,0,0,0,40.12,53.88Z"/><path class="cls-1" d="M39.74,54.48c0-.06,0-.22,0-.22h.49l.11-.23H41c-.05-.12-.25-.08-.34-.15-.28.24-.63.07-.79.3-.06-.23.19-.16.22-.3-.22,0-.49.17-.3.38a1.2,1.2,0,0,0-.6.22Z"/><path class="cls-1" d="M41.25,55.16a.33.33,0,0,0,.3-.15A.33.33,0,0,0,41.25,55.16Z"/><path class="cls-1" d="M43.5,55.54c-.13,0-.31,0-.37.15C43.32,55.7,43.44,55.65,43.5,55.54Z"/><path class="cls-1" d="M36.2,56.52c-.13.11-.41.08-.52.22.23,0,.27-.13.52-.07Z"/><path class="cls-1" d="M39.4,57.12c-.09-.14-.41,0-.52-.15-.05.06-.15.08-.12.22.21,0,.24.15.42.15.13-.21.51-.17.64-.37-.26.05-.32-.08-.45-.15,0,.13.15.09.15.22S39.44,57.09,39.4,57.12Z"/><path class="cls-1" d="M32.22,57.42c.11,0,.38.08.37-.08s-.32,0-.37,0,.32-.06.37-.19c-.38.05-1-.1-1.2.07C31.57,57.37,32.1,57.18,32.22,57.42Z"/><path class="cls-1" d="M39.14,57.49c-.24-.33-.7,0-1,0,0,.11.16.09.22.15.1-.2.41-.15.6-.07.05-.12-.12,0-.07-.15S39,57.54,39.14,57.49Z"/><path class="cls-1" d="M37.18,57.49a.17.17,0,0,0,.15.15c0-.16.21-.09.23-.22h-.23C37.35,57.64,37.28,57.53,37.18,57.49Z"/><path class="cls-1" d="M36.58,58.1A3.14,3.14,0,0,0,38,57.64a6.15,6.15,0,0,0-1.28.31C36.79,58.1,36.52,57.94,36.58,58.1Z"/><path class="cls-1" d="M40.49,57.72a.43.43,0,0,0,.23.23c-.07-.27.33-.07.3-.31C40.79,57.64,40.68,57.91,40.49,57.72Z"/><path class="cls-1" d="M34.77,58.32h-.3c.05.12-.12,0-.07.15a.68.68,0,0,1,.45-.07c0-.06,0-.14,0-.15s.14.08.26.07-.12,0-.07-.15c.16,0,.2,0,.3-.07,0,.15-.08.11-.08.22h.3c0-.14-.23,0-.15-.22h.23V58c-.61,0-.92.24-1.51.22,0,.12-.12,0-.07.15C34.36,58.3,34.53,58.18,34.77,58.32Z"/><path class="cls-1" d="M36.43,58.17c-.12-.2-.27.09-.41-.07,0,.1-.21,0-.19.15C36.11,58.3,36.19,58.16,36.43,58.17Z"/><path class="cls-1" d="M34.1,58.62h.22v-.15c-.15.05-.12-.08-.22-.07s0,.07.07.11S34.08,58.54,34.1,58.62Z"/><path class="cls-1" d="M4.6,22.73c.12-1.08.86-2.11.68-3a13.36,13.36,0,0,0-.83,1.88c.13.15,0,.15.07.3-.27.22-.28.72-.3,1.2.13,0,.1.16.23.15,0-.28-.09-.36,0-.6C4.55,22.65,4.51,22.75,4.6,22.73Z"/></g></g></svg>