<svg xmlns="http://www.w3.org/2000/svg" viewBox="0 0 78.51 65.49"><title>资源 5</title><g id="图层_2" data-name="图层 2"><g id="央铋_1" data-name="央铋 1"><path d="M27.41,12.11s-.06,0-.05.07h.18c.09-.25.4-.28.66-.36,0-.23.4-.13.44-.35-.06,0,0,.08-.13,0s0-.1.06-.14h.2c.26-.26.71-.31,1.06-.48a.22.22,0,0,0,.22.09c0-.09-.1,0-.09-.07a.45.45,0,0,1,.39-.24s0-.08,0-.09c.19,0,.34-.24.5-.13,0-.11,0,0,.09,0s.05,0,.09,0c0-.17.2-.18.26-.31h-.17c-.18.2-.53.22-.73.39-.15,0-.17.08-.33.05,0,0-.05,0-.06.09a4.89,4.89,0,0,0-1.06.48c-.2,0-.23.17-.46.13a.62.62,0,0,1-.44.18c-.14.13-.32.23-.46.35h-.16c-.16.06-.15.28-.35.31v.09C27.23,12.19,27.29,12,27.41,12.11Z"/><path d="M28.42,10.9c-.1,0-.16,0-.18.09S28.41,11,28.42,10.9Z"/><path d="M30.35,11.87c.12,0,.16-.08.22-.13-.12,0-.11.06-.22,0Z"/><path d="M27,12.18c0,.08-.22,0-.18.17s.09-.12.22-.09S27,12.15,27,12.18Z"/><path d="M27.58,13.45a.11.11,0,0,0,.14-.09A.11.11,0,0,0,27.58,13.45Z"/><path d="M23,15.08c0-.08-.09-.06-.09-.13s.15-.13,0-.14-.25.11-.22.31C22.85,15.12,22.88,15.05,23,15.08Z"/><path d="M22.61,17.15q0-.12.09-.09c0-.11.07-.14.09-.22-.14,0-.12.11-.22.13S22.53,17.16,22.61,17.15Z"/><path d="M19.84,17.54c0-.19.25-.11.22-.31.15-.06.46-.18.36-.35-.14,0-.11.25-.31.22-.05.17-.3.15-.31.35-.06,0,0,.08-.13.05v.09S19.75,17.52,19.84,17.54Z"/><path d="M23.71,17.67a1.12,1.12,0,0,0,.66-.44c-.33,0-.35.3-.66.31Z"/><path d="M20.81,17.54a.51.51,0,0,0,.31-.22A.51.51,0,0,0,20.81,17.54Z"/><path d="M21.25,17.81c-.09,0-.14,0-.13.13A.24.24,0,0,0,21.25,17.81Z"/><path d="M21,17.94c0,.08-.12.06-.09.17S21.1,18,21,17.94Z"/><path d="M20.55,18.25c-.1,0-.14,0-.13.13A.27.27,0,0,0,20.55,18.25Z"/><path d="M20.86,18.46c.08,0,.06.05.13.05s0-.15-.09-.18S20.85,18.4,20.86,18.46Z"/><path d="M20.37,19.78a.25.25,0,0,0-.22.22,1.82,1.82,0,0,0,.55-.48s0,.06.07,0,.09-.14.13-.22A1.1,1.1,0,0,0,20.37,19.78Z"/><path d="M16.63,20.18c-.08,0-.11,0-.13.09S16.62,20.24,16.63,20.18Z"/><path d="M21.12,20.18c-.11,0-.15.08-.22.13C21,20.32,21.14,20.32,21.12,20.18Z"/><path d="M19.58,20.53c.09,0,.19-.11.09-.13S19.58,20.46,19.58,20.53Z"/><path d="M18.39,20.66c.12,0,.19,0,.18-.13S18.43,20.6,18.39,20.66Z"/><path d="M19.93,20.66c0,.16-.2.09-.17.27.09-.05.18-.21.3-.09C20.07,20.73,20,20.7,19.93,20.66Z"/><path d="M19.76,21.19c.16,0,.14-.18.22-.26h-.14C19.86,21.06,19.78,21.1,19.76,21.19Z"/><path d="M15.67,21.37c0,.12-.19.11-.18.26h.09C15.54,21.5,15.81,21.46,15.67,21.37Z"/><path d="M14.79,21.94c-.1,0-.14,0-.14.13S14.79,22,14.79,21.94Z"/><path d="M17.6,23.52h-.09v.13C17.57,23.64,17.61,23.61,17.6,23.52Z"/><path d="M14,23.74c0,.07-.07.05,0,.13S14.1,23.75,14,23.74Z"/><path d="M16.81,24.67v.13c.1,0,.13-.13.18-.22H16.9Q16.92,24.69,16.81,24.67Z"/><path d="M26.13,25.28c0,.09-.11.06-.09.18s.1-.09.18-.09A.11.11,0,0,0,26.13,25.28Z"/><path d="M14.87,25.33c0,.14-.24.16-.26.35h.09C14.67,25.5,15,25.46,14.87,25.33Z"/><path d="M15.71,26.21s.09,0,.09-.11,0-.07-.09-.07Z"/><path d="M12.81,26.12c0,.1-.08.1-.05.22S12.9,26.14,12.81,26.12Z"/><path d="M16,26.47q0-.15.09-.18a.09.09,0,0,0-.09-.08s0,.05,0,0,0,.16-.09.17v.14C15.92,26.57,15.85,26.42,16,26.47Z"/><path d="M14.74,29.37c0,.07-.05,0-.09.05a.11.11,0,0,0,.14.08S14.82,29.35,14.74,29.37Z"/><path d="M63.16,30.21a.53.53,0,0,0,0-.49Z"/><path d="M61.18,30.12c0-.13-.07-.13,0-.26H61C61.1,29.91,61.07,30.09,61.18,30.12Z"/><path d="M62.11,30.69v.18s.15-.19,0-.22S62.14,30.7,62.11,30.69Z"/><path d="M61.36,31.31c0-.14-.12-.09-.09-.22h-.09a.39.39,0,0,1,0,.26C61.29,31.35,61.27,31.28,61.36,31.31Z"/><path d="M63.21,31.26v.49A.6.6,0,0,0,63.21,31.26Z"/><path d="M62,33v.13h.09C62.12,33.07,62.08,33,62,33Z"/><path d="M62.2,33.73v-.18c-.09,0,0,.12-.05.18Z"/><path d="M61.49,34.17c.09-.06.1-.2.13-.31S61.51,34,61.49,34.17Z"/><path d="M63.47,34.69c-.09,0-.07.05-.13.05a.11.11,0,0,0,.09.09C63.4,34.74,63.47,34.76,63.47,34.69Z"/><path d="M61.58,35s0-.08-.13-.06,0,.12,0,.17A.1.1,0,0,0,61.58,35Z"/><path d="M63.34,35v.13h.09C63.44,35,63.4,35,63.34,35Z"/><path d="M61.58,35.66a1.37,1.37,0,0,0,0,.75c.1,0,0-.19,0-.22s0-.34.09-.42C61.6,35.77,61.66,35.65,61.58,35.66Z"/><path d="M63.29,35.92s.06,0,.05,0h-.09V36h.09C63.37,35.94,63.27,36,63.29,35.92Z"/><path d="M61.36,36.19h0V36C61.32,36,61.38,36.13,61.36,36.19Z"/><path d="M12,36.32a.11.11,0,0,0,.09-.09c-.06,0,0-.07-.13,0S12,36.26,12,36.32Z"/><path d="M62.94,36.19c0,.07-.07,0,0,.09a.1.1,0,0,0,.09.08S63,36.17,62.94,36.19Z"/><path d="M61.45,36.41c-.07,0,0-.07-.09,0v.14A.11.11,0,0,0,61.45,36.41Z"/><path d="M11.49,36.5s0,0-.05,0a.11.11,0,0,0,.09.09C11.52,36.58,11.57,36.48,11.49,36.5Z"/><path d="M60.13,36.72c0,.13-.22,0-.22.17a.3.3,0,0,1,.26,0S60.22,36.7,60.13,36.72Z"/><path d="M11.62,37.16c0-.16.06-.17,0-.31h-.08a4.75,4.75,0,0,1-.14.57C11.61,37.44,11.49,37.17,11.62,37.16Z"/><path d="M61.49,37c.06.06,0,.19,0,.31.09-.07.08-.24.17-.31S61.56,36.93,61.49,37Z"/><path d="M60.52,37.11h.09s0-.15,0-.13S60.52,37.05,60.52,37.11Z"/><path d="M11.14,37.46h.08c0-.09,0-.07,0-.13S11.13,37.37,11.14,37.46Z"/><path d="M61.14,37.38v.13h.09C61.24,37.42,61.2,37.39,61.14,37.38Z"/><path d="M61.62,37.68c0,.11-.17.12-.13.31h.18C61.64,37.9,61.72,37.71,61.62,37.68Z"/><path d="M60.52,38c-.09-.1-.19,0-.26,0s0,.19,0,.31C60.52,38.32,60.38,38,60.52,38Z"/><path d="M60.7,38c0,.1-.07.07,0,.17h.08S60.79,37.93,60.7,38Z"/><path d="M11.36,38.34v-.08h-.09C11.25,38.33,11.28,38.36,11.36,38.34Z"/><path d="M60.3,38.52c0,.06-.07,0,0,.13h.09S60.38,38.5,60.3,38.52Z"/><path d="M61.27,39.31c.09,0,.07-.05.13,0v.22c.1,0,.14-.33.05-.4C61.5,39.28,61.24,39.15,61.27,39.31Z"/><path d="M60,39.4h-.13v.13A.21.21,0,0,0,60,39.4Z"/><path d="M61.45,39.69s0-.07-.09-.07,0,.23-.07.35,0-.09-.11-.09,0,.07,0,.13.07,0,0,.09a1.71,1.71,0,0,0-.11.65.61.61,0,0,0-.34-.12c.15.29-.29.45-.35.7.15,0,.36-.14.36.11a.85.85,0,0,0,.27-.09v0s0,0,0,0c.28-.14.28-.33.17-.49s.05-.3.08-.45,0,.12-.09.09.08-.1,0-.22h.09C61.38,40.1,61.39,39.87,61.45,39.69Z"/><path d="M59.82,40.1c.1,0,.14-.23,0-.26C59.89,40,59.79,40,59.82,40.1Z"/><path d="M9.77,40.23c0-.1,0-.21.05-.26H9.73C9.75,40.05,9.68,40.23,9.77,40.23Z"/><path d="M10,40.19V40c-.09,0,0,.13,0,.18Z"/><path d="M60.88,40.41s.14-.12,0-.13S60.85,40.32,60.88,40.41Z"/><path d="M9.51,40.41c0,.24,0,.56-.09.79A1.19,1.19,0,0,0,9.51,40.41Z"/><path d="M62.42,40.81h0v-.18C62.37,40.62,62.43,40.75,62.42,40.81Z"/><path d="M9.47,41.51c0-.08,0-.26-.05-.26S9.37,41.5,9.47,41.51Z"/><path d="M9.47,41.82c0-.08,0-.26-.05-.27S9.37,41.81,9.47,41.82Z"/><path d="M11.62,41.64c-.07,0,0-.07-.09,0a.65.65,0,0,0,.09.39Z"/><path d="M59.6,41.77c-.05.1-.15.15-.13.31C59.51,42,59.7,41.85,59.6,41.77Z"/><path d="M9.42,41.86v1A2.45,2.45,0,0,0,9.42,41.86Z"/><path d="M60.74,42.17h.09c0-.05,0-.15,0-.13S60.74,42.11,60.74,42.17Z"/><path d="M60.39,42.57c0,.08-.11,0-.09.17h.09C60.36,42.66,60.52,42.6,60.39,42.57Z"/><path d="M9.47,43a2.38,2.38,0,0,0,0,.61c.1-.08.05,0,.13,0a.39.39,0,0,0-.13-.37C9.49,43.2,9.56,43,9.47,43Z"/><path d="M10.08,43.58c0-.07.05-.23,0-.22S10,43.58,10.08,43.58Z"/><path d="M9.6,44v-.18c-.09,0,0,.12,0,.18Z"/><path d="M9.64,44.28V44.1c-.09,0,0,.13,0,.18Z"/><path d="M11.53,44.19a.24.24,0,0,0,.09.22v-.17C11.55,44.26,11.6,44.17,11.53,44.19Z"/><path d="M11.18,44.46v.13h.09S11.25,44.46,11.18,44.46Z"/><path d="M62.59,44.63c.06,0,.15-.12,0-.13S62.56,44.54,62.59,44.63Z"/><path d="M60.57,44.81c-.09.14-.14.33-.22.48.09,0,.07.05.13.05C60.44,45.12,60.67,44.94,60.57,44.81Z"/><path d="M60.44,45.56s-.13,0-.14,0,.05-.2,0-.19-.07.13,0,.26.1,0,.08.13S60.39,45.62,60.44,45.56Z"/><path d="M58.68,45.64a.24.24,0,0,0,.13-.13C58.71,45.5,58.67,45.55,58.68,45.64Z"/><path d="M10,45.86c0-.1-.07-.13,0-.26H9.86c0,.1.07.13,0,.26Z"/><path d="M10,46.17c0,.13,0,.22.08.27,0-.14-.08-.14,0-.22S10.11,46.14,10,46.17Z"/><path d="M52.78,51.71c0-.07.09-.05.09-.13s-.19.05-.22.13Z"/><path d="M52.08,52.06a1.38,1.38,0,0,0,.53-.3c-.24,0-.22.19-.44.17C52.17,52,52.08,52,52.08,52.06Z"/><path d="M13.16,52.59c0,.17.18.15.26.22C13.41,52.66,13.29,52.62,13.16,52.59Z"/><path d="M13.82,53.12c0,.17.17.21.31.26C14.11,53.21,13.93,53.2,13.82,53.12Z"/><path d="M54.06,53.52c-.07.07-.21.08-.26.17C53.92,53.69,54.19,53.62,54.06,53.52Z"/><path d="M18,56.33v-.09h-.08C17.85,56.32,17.88,56.35,18,56.33Z"/><path d="M18.17,56.55a.11.11,0,0,0,.09-.09h-.13C18.1,56.53,18.2,56.48,18.17,56.55Z"/><path d="M18.44,56.73v.08c.1,0,.1.08.22,0C18.61,56.78,18.5,56.78,18.44,56.73Z"/><path d="M19,57c-.08,0-.07-.05-.13-.05s0,.14.13.13Z"/><path d="M19.58,57.25c-.16,0-.2-.12-.31-.17s-.05.07,0,.13.14.07.17.13h.18Z"/><path d="M3.53,59.48s.18,0,.13,0S3.48,59.38,3.53,59.48Z"/><path d="M41.75,60.68a.77.77,0,0,0,.61-.08C42.11,60.58,42,60.69,41.75,60.68Z"/><path d="M41.7,60.73c-.08-.06-.38,0-.48.09A.86.86,0,0,0,41.7,60.73Z"/><path d="M40,61.08c.07-.07.25,0,.39,0s.28-.08.35-.18c-.3,0-.5.09-.79.09C39.91,61,40,61,40,61.08Z"/><path d="M48.12,61a.74.74,0,0,1-.35,0C47.81,61.2,48.1,61.11,48.12,61Z"/><path d="M38.82,61.17c-.06,0-.13,0-.15.09a5.56,5.56,0,0,0,1.23-.09C39.64,61.08,39.1,61.28,38.82,61.17Z"/><path d="M47.07,61.26a.59.59,0,0,1-.31.08c.05.13-.1,0-.09.14.21,0,.23-.15.44-.14C47.11,61.31,47.13,61.23,47.07,61.26Z"/><path d="M35.76,61.61c.06,0,.19,0,.18,0S35.75,61.52,35.76,61.61Z"/><path d="M44.38,62v.09a.44.44,0,0,1,.27,0C44.64,61.91,44.46,62,44.38,62Z"/><path d="M21.3,19.61c-.06,0-.17,0-.18.13S21.26,19.67,21.3,19.61Z"/><path d="M50.54,55.32a5.26,5.26,0,0,0-.62.35A1.22,1.22,0,0,0,50.54,55.32Z"/><path d="M51.11,52.68c-.1,0-.06-.06-.15,0s0,.12-.07.08,0-.07,0-.13v0a5.45,5.45,0,0,0-.79.53c.17,0,.21-.14.39-.14,0-.16.2-.15.31-.22v.14A.31.31,0,0,0,51.11,52.68Z"/><path d="M35.81,9c.08,0,.14,0,.17-.09S35.84,9,35.81,9Z"/><path d="M34.84,9.36a1.76,1.76,0,0,0,.48-.22C35.15,9.21,34.93,9.21,34.84,9.36Z"/><path d="M34.05,9.62c.15,0,.34-.06.44-.17A.92.92,0,0,0,34.05,9.62Z"/><path d="M33.7,9.76c.08,0,.14,0,.17-.09S33.73,9.7,33.7,9.76Z"/><path d="M32.11,9.85c-.24,0-.29.14-.52.13C31.73,10.07,32,9.91,32.11,9.85Z"/><path d="M29.61,11c-.15.09-.33.14-.4.31q.21,0,.18-.18A.18.18,0,0,0,29.61,11Z"/><path d="M28.16,11.08c0-.07.07-.05,0-.14a2.86,2.86,0,0,0-.35.18C28,11.14,28,11,28.16,11.08Z"/><path d="M53.36,10.94c0,.09.11.09.17.14S53.46,10.94,53.36,10.94Z"/><path d="M30.35,11.52c.17.12.38-.1.49-.18C30.63,11.35,30.61,11.55,30.35,11.52Z"/><path d="M28.53,12.48a2,2,0,0,1,.73-.3c0-.1.12-.14.26-.14a3.17,3.17,0,0,1,.66-.35V11.6a13.41,13.41,0,0,0-1.61.8s0-.06-.06-.05-.14,0-.13.13C28.46,12.42,28.43,12.47,28.53,12.48Z"/><path d="M23.27,14.73a.09.09,0,0,0,.09.08,5.14,5.14,0,0,1,.79-.57v-.13a6.25,6.25,0,0,1,.93-.57s0-.08,0-.09.2,0,.33.05c0-.09.12-.09.09-.22.13,0,.13-.18.24-.22s0,.08.11.08.15-.26.35-.26c0-.12.09-.09.13-.13s-.07,0,0-.09,0-.07.09,0v.13c.09,0,.09-.11.09-.22s0-.08.13,0-.07,0-.05-.08a2.66,2.66,0,0,1-.66.3v-.08c-.16,0-.11.17-.3.13,0,.07.09.05.08.13s0,.1-.13.09.05-.07.05-.13-.06.11-.18.08V13c.05,0,.05-.1.09,0a2.48,2.48,0,0,1-.66.42.7.7,0,0,1-.31.22,3.77,3.77,0,0,1-.7.48,1.86,1.86,0,0,1-.31.26c0,.07.07.07.09.11s0,.09-.07.11-.07-.08-.15-.08-.25.13-.31.26S23.22,14.75,23.27,14.73Z"/><path d="M28.24,13c.06,0,.08-.07.18-.05v-.08C28.31,12.83,28.28,12.9,28.24,13Z"/><path d="M56.83,13.41v-.09c-.11,0-.14-.08-.22,0,0-.1-.06-.1-.09-.15s.06,0,0-.07-.13-.11-.22-.13a.11.11,0,0,0-.09.09c.18.14.33.31.53.44,0-.09-.12-.09-.14-.18S56.75,13.4,56.83,13.41Z"/><path d="M25.08,14.24c.13,0,.09-.11.22-.08v-.09C25.23,14.13,25.11,14.15,25.08,14.24Z"/><path d="M24.29,15.3c-.08.07-.2.09-.27.17A.31.31,0,0,0,24.29,15.3Z"/><path d="M20.75,16.75c.56-.2.78-.75,1.29-1,0-.21.26-.22.31-.4a19.61,19.61,0,0,0-1.85,1.54C20.66,16.91,20.67,16.8,20.75,16.75Z"/><path d="M20,17.1V17a.23.23,0,0,0-.13.14C20,17.15,19.93,17.07,20,17.1Z"/><path d="M22,17.1a.77.77,0,0,0-.22.22C21.91,17.27,22,17.25,22,17.1Z"/><path d="M15.93,21.28c0-.1,0-.21.18-.18,0-.2.23-.23.35-.35v-.09c.33-.26.59-.61.92-.88,0-.1.07-.07,0-.17a1.46,1.46,0,0,0,.51-.44c.13,0,.14-.05.24-.05s0-.13.13-.13,0-.08,0-.09a3,3,0,0,0,1-1c.11,0,.09-.06.2,0,0-.14.06-.17.08-.26-.23,0-.24.3-.48.35a7.8,7.8,0,0,1-.57.59,2.8,2.8,0,0,1-.66.59c-.23.31-.64.44-.82.8a.24.24,0,0,0-.19.22.6.6,0,0,0-.4.44.82.82,0,0,0-.44.44c-.14,0-.15.11-.17.22H15.8c0,.08-.05.07-.05.13S15.79,21.23,15.93,21.28Z"/><path d="M23.1,19.17a.75.75,0,0,0-.18.13C23,19.31,23.06,19.23,23.1,19.17Z"/><path d="M20.24,19.52h.09c0-.09,0-.12,0-.18S20.23,19.41,20.24,19.52Z"/><path d="M17.38,19.43c-.11.05-.16.16-.31.18s.07,0,.05.09-.2.15-.31.22h.13C17,19.7,17.32,19.68,17.38,19.43Z"/><path d="M21,19.65a2.48,2.48,0,0,0-.57.44A1.46,1.46,0,0,0,21,19.65Z"/><path d="M19.45,20.09a.37.37,0,0,0-.22.13h.13C19.31,20.1,19.46,20.18,19.45,20.09Z"/><path d="M18.52,20.27a1.4,1.4,0,0,0,.18-.13C18.59,20.13,18.56,20.2,18.52,20.27Z"/><path d="M20.42,21.19c.07,0,0-.07.08,0s-.07,0,0-.09a3.93,3.93,0,0,0,.7-.48c0-.1,0-.14.14-.14a.12.12,0,0,0-.09-.13c-.26.25-.52.51-.79.75C20.46,21.14,20.46,21.12,20.42,21.19Z"/><path d="M20.42,20.44a.79.79,0,0,1-.18.22.4.4,0,0,0,.31-.26C20.49,20.4,20.51,20.47,20.42,20.44Z"/><path d="M19.36,20.75a.75.75,0,0,0,.18-.13C19.43,20.61,19.4,20.69,19.36,20.75Z"/><path d="M19.54,21.85c-.07,0-.2,0-.18.18C19.4,22,19.51,21.94,19.54,21.85Z"/><path d="M15.05,21.94c-.06,0,0,.07-.13,0s-.05.07-.05.14S15,22,15.05,21.94Z"/><path d="M19.18,22.25c-.08,0-.07-.05-.13-.05s.08.05.05.13-.11.14-.22.14.07,0,0,.09,0,.13-.18.08c0,.26-.29.21-.3.44.17,0,.13-.18.3-.17v-.14a.11.11,0,0,0,.14-.08c-.06,0-.06.1-.09,0s.09-.13.17-.15v.08a.11.11,0,0,0,.09-.08s-.08,0-.09,0S19.17,22.4,19.18,22.25Z"/><path d="M14.48,23c-.07,0-.14.07-.13.17S14.44,23.1,14.48,23Z"/><path d="M17.65,23.83c.08,0,.11-.09.22-.09a.11.11,0,0,0-.09-.09C17.76,23.74,17.66,23.74,17.65,23.83Z"/><path d="M17.38,23.79c0,.19-.22.16-.22.35.17-.05.15-.29.35-.31C17.53,23.75,17.43,23.8,17.38,23.79Z"/><path d="M16.68,24.45c-.11,0,0,.16-.18.13,0,.09,0,.12,0,.17A.49.49,0,0,0,16.68,24.45Z"/><path d="M15.89,25.77c.15-.07.17-.27.26-.4A.63.63,0,0,0,15.89,25.77Z"/><path d="M16.5,25.55h-.09a1.2,1.2,0,0,1-.35.52.35.35,0,0,1,.22,0A1.52,1.52,0,0,1,16.5,25.55Z"/><path d="M15.18,27.13v.17c.14,0,.11-.24.18-.35C15.25,27,15.29,27.12,15.18,27.13Z"/><path d="M14.61,27.88h.09c0-.16.12-.2.13-.36C14.69,27.58,14.72,27.79,14.61,27.88Z"/><path d="M62.64,33.55c.06.11,0,.3.26.26-.11-.11-.1-.33-.18-.48a.19.19,0,0,0-.22.13c.07,0,0-.07.14,0v.09c.07,0,0-.08.08,0S62.71,33.61,62.64,33.55Z"/><path d="M61.36,36c.09-.1,0-.16,0-.31C61.24,35.7,61.37,35.84,61.36,36Z"/><path d="M11.88,37.16c-.06-.06,0-.22-.13-.22v.3c.06,0,0,.08.13,0s-.11-.06-.08-.18S11.81,37.18,11.88,37.16Z"/><path d="M61.8,37.42h.09c0-.1,0-.12,0-.18S61.84,37.36,61.8,37.42Z"/><path d="M60.83,38.34c.09,0,.14-.29.05-.35a.29.29,0,0,1-.05.22C61,38.23,60.79,38.26,60.83,38.34Z"/><path d="M60.35,39.14c-.07,0-.07.14-.09.21A.22.22,0,0,0,60.35,39.14Z"/><path d="M9.77,39.4a.11.11,0,0,0,.09.09c0-.11.07-.13,0-.27a.11.11,0,0,0-.08.09c0,.07.07,0,0,.09Z"/><path d="M61,39.57a2.7,2.7,0,0,1-.09.66c.11,0,.14-.32.09-.39s.1-.14.09-.27Z"/><path d="M60.57,40.19c0,.05,0,.15,0,.13s.06-.11,0-.22S60.66,40.22,60.57,40.19Z"/><path d="M62.5,40.54c0-.16.08-.19,0-.35s0,.2-.09.18S62.42,40.56,62.5,40.54Z"/><path d="M60,41.29c0-.09-.09,0-.09-.07.08-.32.23-.58.31-.9-.25.24-.24.73-.48,1v.18c-.11,0-.12.18-.18.26h.09a1.21,1.21,0,0,1,.24-.48S60,41.31,60,41.29Z"/><path d="M60.22,41.2h.08c0-.14.1-.19.09-.35C60.32,41,60.29,41.1,60.22,41.2Z"/><path d="M60.88,41.82A.22.22,0,0,0,61,41.6C60.9,41.64,60.9,41.74,60.88,41.82Z"/><path d="M59.91,42c-.06,0-.1.08-.09,0h-.09v.09c.13,0,.05.1.13.09S59.91,42.1,59.91,42Z"/><path d="M60.61,42.21c-.07,0,0,.07-.09,0s-.06.13-.08.22S60.55,42.3,60.61,42.21Z"/><path d="M59.73,42.35c-.11,0-.07.16-.13.22A.24.24,0,0,0,59.73,42.35Z"/><path d="M59.29,43v.13c.15-.09.17-.3.27-.44C59.4,42.73,59.43,43,59.29,43Z"/><path d="M62.77,44.32c.17,0,.12-.28.26-.35,0-.09,0-.12,0-.17C62.89,43.89,62.88,44.15,62.77,44.32Z"/><path d="M9.68,44.81c.11,0,0,.16.09.13s-.1-.2,0-.31,0,.06.07,0,0-.13-.05-.18,0,.07-.09,0v-.22C9.55,44.45,9.73,44.63,9.68,44.81Z"/><path d="M9.73,45a.26.26,0,0,1,0,.22c.09,0,0-.12.05-.17S9.8,45,9.73,45Z"/><path d="M9.82,45.42c.06,0,0,.08.13,0s-.14,0-.09-.18S9.83,45.38,9.82,45.42Z"/><path d="M58.06,45.34c-.06,0,0,.07-.13,0s0,.06,0,.13S58,45.4,58.06,45.34Z"/><path d="M55.82,49.78a.84.84,0,0,0,.26-.27A1,1,0,0,0,55.82,49.78Z"/><path d="M56.17,50.44a.39.39,0,0,0,.18-.18h-.09C56.29,50.38,56.17,50.35,56.17,50.44Z"/><path d="M54.85,51a1.65,1.65,0,0,0,.62-.48C55.28,50.71,55,50.79,54.85,51Z"/><path d="M58.32,51.19c0,.15-.2.08-.17.26h-.09c0,.18-.29.15-.26.39.13,0,.09-.11.22-.08a.17.17,0,0,1,.17-.18c0-.2.2-.27.27-.44C58.39,51.14,58.41,51.22,58.32,51.19Z"/><path d="M58.41,51.93a.28.28,0,0,0,.22-.22A.77.77,0,0,0,58.41,51.93Z"/><path d="M54.81,51.84c0,.08-.09.06-.09.14s.18-.08.22-.18S54.9,51.88,54.81,51.84Z"/><path d="M54.68,52c-.07.06-.19.08-.22.17S54.64,52.08,54.68,52Z"/><path d="M52.92,53.08c0,.07-.09.05-.09.13a3.12,3.12,0,0,0,.79-.53C53.34,52.76,53.23,53,52.92,53.08Z"/><path d="M52.78,53.21c-.05,0-.13.07-.17.13S52.75,53.27,52.78,53.21Z"/><path d="M53.49,53.56c.06,0,.16,0,.17-.13s0,.07-.13,0S53.46,53.49,53.49,53.56Z"/><path d="M56.39,53.65v.09a.23.23,0,0,0,.13-.14C56.46,53.6,56.48,53.68,56.39,53.65Z"/><path d="M54.94,53.69c-.19.17-.4.32-.59.49,0,0,0-.06-.07,0s-.05.07,0,.13a4.23,4.23,0,0,0,.83-.61C55,53.64,55,53.72,54.94,53.69Z"/><path d="M52.92,53.74c-.07,0-.12.06-.18.08v-.08a.1.1,0,0,0-.09.08s.11,0,.09,0S52.9,53.82,52.92,53.74Z"/><path d="M54.59,53.87c-.07,0,0-.08-.11,0s-.06.09-.09.14a2,2,0,0,0-.73.52c.26-.1.38-.35.71-.39C54.4,54,54.57,54,54.59,53.87Z"/><path d="M52.56,54.22a.49.49,0,0,0-.3.22C52.34,54.35,52.51,54.34,52.56,54.22Z"/><path d="M51.51,54.92a1.14,1.14,0,0,0,.44-.26A1.28,1.28,0,0,0,51.51,54.92Z"/><path d="M50.06,60.33c.09-.11.28-.13.35-.26a8.41,8.41,0,0,1-1.06.44C49.56,60.6,49.8,60.34,50.06,60.33Z"/><path d="M45.51,61.74c0-.08-.11,0-.16,0-.18-.14-.36.11-.48.18a6,6,0,0,0,.88-.22.29.29,0,0,1-.22-.05S45.54,61.73,45.51,61.74Z"/><path d="M43.17,62.14a.4.4,0,0,1-.43.08c-.07,0,0,.11-.05.09a.35.35,0,0,1-.24,0s0,.08,0,.09-.06-.08-.16,0,.07,0,0,.09-.16,0-.13,0c.66-.09,1.28-.23,1.93-.35C43.88,62,43.46,62.28,43.17,62.14Z"/><path d="M38.45,62.66c.1,0,.26-.08.35,0s-.07,0,0-.08C38.63,62.58,38.45,62.54,38.45,62.66Z"/><path d="M61.27,36.8c-.12.05-.05-.09-.13-.08s0,.28,0,.3V36.8c-.1,0,0,.19-.05.27.13,0,.08.09.09.17s0-.2.13-.08Z"/><path d="M61.1,38v.3H61c0,.07.07,0,0,.14h-.17c0,.08-.05.06-.05.13.17.1,0,.28.05.48.11-.06,0-.32.17-.35a.1.1,0,0,0,.09.13,4.88,4.88,0,0,0,0-.83Z"/><path d="M10.12,44.19c0,.34.13.72.09.93a8.05,8.05,0,0,1,.27,1.05c.07,0,0,.07.08,0a.25.25,0,0,0,0-.22c.09,0,0,0,0-.07s0-.19,0-.29-.05,0-.08-.06c.08-.2-.07-.51-.14-.71a1.15,1.15,0,0,0-.13-.72C10.24,44.21,10.16,44.19,10.12,44.19Z"/><path d="M53.15,10.2c0-.17.15-.23.21-.35-.16,0,0-.3-.21-.23.07,0-.18.15-.23.13s0-.16,0-.25c-.2.07-.21-.1-.46-.14a.44.44,0,0,0-.08.48C52.83,9.77,53.07,9.88,53.15,10.2Z"/><path d="M22.05,59.62c-.25.23-.05.45.26.22C22.33,59.65,22.24,59.58,22.05,59.62Z"/><path d="M21.28,61.15c-.25.42.27.43.49.12C21.77,61.06,21.53,61.1,21.28,61.15Z"/><path d="M19.54,61.4a.27.27,0,0,1,.14.36c.23-.14.65-.16.7-.43C20.24,61.09,19.72,61.13,19.54,61.4Z"/><path d="M47.21,8.07c0,.11-.15.18-.14.33.16,0,.14.11.28.08s0,0,0,0,.11-.17,0-.24,0-.1,0-.16S47.31,8.06,47.21,8.07Z"/><path d="M48,8.51c-.05-.11.13-.25,0-.36-.07,0-.13,0-.2.06S47.8,8.56,48,8.51Z"/><path d="M74.68,20.19c0,.1-.07.13-.07.22l.23-.06C74.86,20.22,74.83,20.14,74.68,20.19Z"/><path d="M71.73,21.1c-.11,0-.13.09-.23.11l0,.25C71.71,21.44,71.72,21.27,71.73,21.1Z"/><path d="M68,20.53c-.21-.27-.37-.6-.91-.51-.23.26-.49.16-.86.47,0,.11,0,.25-.19.29.09.37-.07.54.17.8l.28-.07c.21.44,1.06-.19,1.42-.41C67.76,20.92,68,20.76,68,20.53Z"/><path d="M72.82,20.57a.45.45,0,0,0,.29-.22C73,20.28,72.77,20.39,72.82,20.57Z"/><path d="M69.6,20.41a2.48,2.48,0,0,0-1.84.92,1.31,1.31,0,0,0-.11.82c.2.84,1.64.59,2.28-.07a.61.61,0,0,0,.56.08c-.13-.09-.22-.23-.39-.28a.83.83,0,0,0,0-.91c0-.09.07-.13.07-.22C69.92,20.77,69.87,20.45,69.6,20.41Z"/><path d="M67.8,23.4c.12,0,.13.14.21.19s.38-.19.36-.44C68.11,23.1,67.92,23.12,67.8,23.4Z"/><path d="M67.33,22c0-.11.25-.07.24-.21-.14,0-.08-.19-.33-.06C67.23,21.84,67.19,22,67.33,22Z"/><path d="M66.42,24.1c.23-.07.26,0,.45-.11,0,.09-.07.12-.07.21s.18.08.39,0,0-.12,0-.3-.22.05-.22,0c.33-.3-.2-.32,0-.6-.13,0-.32,0-.44,0-.09.17-.09.33,0,.39A.3.3,0,0,0,66.42,24.1Z"/><path d="M65.36,21c-.34,0-.31.26-.62.29-.12.56.39.41.75.15C65.59,21.09,65.34,21.17,65.36,21Z"/><path d="M55.9,10.63c.32,0,.35-.22.63-.26a.44.44,0,0,1,0-.4c-.56,0-.83,0-.92.48C55.83,10.39,55.8,10.58,55.9,10.63Z"/><path d="M56.92,10.22a2.12,2.12,0,0,0-.6.75c.26,0,.28.32.3.62.41,0,.66.14,1.05,0,0-.09-.07-.1,0-.15a1.7,1.7,0,0,0,.22,0,4.52,4.52,0,0,1,.54-.53.28.28,0,0,0,0-.24c.08,0,.14-.11.23-.16a1.19,1.19,0,0,1,0-.8c-.18,0-.22.06-.45.11a1.25,1.25,0,0,0-1.12.2.56.56,0,0,0-.39-.19C56.53,10.05,56.71,10.17,56.92,10.22Z"/><path d="M54.77,11.63c.2-.09.38-.2.36-.44-.26,0-.45,0-.57.25C54.68,11.44,54.69,11.58,54.77,11.63Z"/><path d="M61.44,8.23c0,.09-.07.13-.07.22l.23-.06C61.62,8.25,61.59,8.18,61.44,8.23Z"/><path d="M58.49,9.14c-.11,0-.13.09-.23.11s0,.17,0,.25C58.47,9.48,58.48,9.31,58.49,9.14Z"/><path d="M60.51,9.84a4.42,4.42,0,0,1,.59-.55c.21-.4.34-1.08-.14-1.25,0,0,0-.1,0-.15a2.35,2.35,0,0,0-.65,0c0-.19,0-.34-.24-.32,0,.09-.11.14-.24.16a2.88,2.88,0,0,0-.07.36,1.64,1.64,0,0,0-.92,1.6c.39.08.61.34,1.09.32C60,9.87,60.34,9.89,60.51,9.84Z"/><path d="M53.54,8.36s0-.07.07-.11-.13-.12-.22-.05S53.42,8.45,53.54,8.36Z"/><path d="M53.83,7.65a.24.24,0,0,0-.19-.13l-.15.13.15.16Z"/><path d="M52.16,9.18c0-.06,0-.12-.08-.17s-.18.18-.18.27C52,9.2,52.05,9.32,52.16,9.18Z"/><path d="M65.91,18.25c-.15-.47-1.16.24-.65.52A.74.74,0,0,0,65.91,18.25Z"/><path d="M63.27,20.32c.11,0,.12,0,.22,0s.13-.28,0-.35-.13.09-.23.11S63.28,20.24,63.27,20.32Z"/><path d="M72.17,12.53c0-.09.18-.09.13-.23l-.17,0C72.13,12.42,72.1,12.53,72.17,12.53Z"/><path d="M64.07,19.87c.29-.51-.12-.75-.57-.67C63.21,19.71,63.49,20.1,64.07,19.87Z"/><path d="M63.05,12.49c-.11-.07-.35,0-.3.23A.48.48,0,0,0,63.05,12.49Z"/><path d="M61.42,13.61c.22,0,.23-.2.24-.36-.1,0-.12.08-.23.1S61.42,13.52,61.42,13.61Z"/><path d="M60.43,14.31c-.17-.12-.27-.31-.54-.31C59.58,14.26,60.26,14.42,60.43,14.31Z"/><path d="M63.74,11.64a2.2,2.2,0,0,0,1.17-.94c-.22,0,0-.19.07-.27-.25.11-.16-.16-.32-.16.12-.16.09-.13.07-.32a.21.21,0,0,1-.16,0c-.06.18-.55,0-.79.1s-.56.42-.87.52C62.47,11.42,63.06,11.8,63.74,11.64Z"/><path d="M61.3,6.69c-.1-.75-.91.5,0,0Z"/><path d="M59.5,11.79a.38.38,0,0,1,.18-.2c0-.15-.07-.11,0-.23-.17.09-.21.19-.11,0l-.17,0c.11.23-.09,0-.18.19.06,0,0,0,0,.1C59.3,11.67,59.27,11.8,59.5,11.79Z"/><path d="M11,38.55a.26.26,0,0,1-.07.17c.1,0,.28.07.34-.09,0,0-.06,0-.05-.08A.27.27,0,0,1,11,38.55Z"/><path d="M14.41,25.77c.06-.22-.07-.23-.27-.18,0,.07-.07.09-.06.17S14.23,25.84,14.41,25.77Z"/><path d="M45.56,7.13c.09-.15,0-.29.19-.45.09,0,.16.09.26,0,0-.33-.16-.37-.3-.61C45.44,6.43,45.25,7,45.56,7.13Z"/><path d="M.73,47s.07,0,.06-.07S.58,47,.56,47s.06,0,0,0l-.11,0c0,.14.11.15.21.19,0-.15.16-.17.18-.29S.75,47.09.73,47Z"/><path d="M17.17,56.65c.18.05.14.32.43.24,0-.25,0-.23,0-.45C17.47,56.41,17.22,56.47,17.17,56.65Z"/><path d="M13.55,61.1c-.08,0-.14,0-.22,0s-.08.09-.07.17S13.54,61.23,13.55,61.1Z"/><path d="M14,61.44s-.43,0-.4.15.19,0,.34,0A.32.32,0,0,1,14,61.44Z"/><path d="M9.68,64.13c0,.09-.07.13-.07.22s.27.14.4-.06C9.87,64.27,10,64,9.68,64.13Z"/><path d="M11.71,59.73a2.07,2.07,0,0,0-.89,0,1.07,1.07,0,0,1-.64.46c-.25.51-.49.87-.13,1.13,0,.11-.18.14-.07.21.57-.17.69.13,1.23,0a.72.72,0,0,1,.52-.34c.08-.42.3-.74.41-1.14C11.86,60.07,11.68,59.94,11.71,59.73Z"/><path d="M8.91,62.58a3.36,3.36,0,0,1,0,.71,1.24,1.24,0,0,0,1.16.1c-.12-.12.41-.37.53-.44a2.27,2.27,0,0,0,.11-.92C10.27,61.69,9.22,62.07,8.91,62.58Z"/><path d="M14.55,58.9a2.35,2.35,0,0,0-1.3.34,1.08,1.08,0,0,0-.14,1.27,1.51,1.51,0,0,0,1.75-1.24C14.74,59.29,14.65,59,14.55,58.9Z"/><path d="M6.94,64.39c.09.06.35,0,.4-.16S6.94,64.18,6.94,64.39Z"/><path d="M7.73,64.13c.12,0,.11.17.28.13s.16-.17.23-.26C8.08,64,7.84,63.86,7.73,64.13Z"/><path d="M5.57,65.33s.11,0,.11,0a.22.22,0,0,0-.18.14c.21,0,.16,0,.34-.09S5.65,65.18,5.57,65.33Z"/><path d="M11.92,63.9c.05,0,.12,0,.11,0,.17-.06.31-.3.2-.39C12.06,63.61,11.9,63.69,11.92,63.9Z"/><path d="M18.37,61.4c.16-.08.14,0,.28,0a.22.22,0,0,0,0-.19A.37.37,0,0,0,18.37,61.4Z"/><path d="M19,60c.16,0,.31-.08.29-.23l-.28.08A.76.76,0,0,0,19,60Z"/><path d="M16.6,62.16c.1-.06.23-.09.29-.18S16.57,62,16.6,62.16Z"/><path d="M20.68,59.17c.12,0,.16.09.34,0s0-.29.25-.42A.84.84,0,0,0,20.68,59.17Z"/><path d="M18.82,60.44c-.14,0-.18.14-.28.08.09.31.41.39.69.51C19.24,60.67,18.9,60.71,18.82,60.44Z"/><path d="M18.55,59.47c0-.07.09-.12.07-.21l-.17,0C18.43,59.42,18.45,59.49,18.55,59.47Z"/><path d="M14.65,62.5c-.1.16-.11-.16-.21-.15-.31.16-.22-.08-.38-.15a2.74,2.74,0,0,0-1.5.88c.09.25-.26.54-.18.94.15.07.22,0,.34,0,0,.48.78.26,1.44,0a1.71,1.71,0,0,1,.49-.67C14.6,63,14.82,62.69,14.65,62.5Z"/><path d="M14.92,62.24c.16-.05.11,0,.23-.06S14.89,62.05,14.92,62.24Z"/><path d="M8,62.87c0-.11.22-.1.18-.25-.16.08-.14,0-.28,0C8,62.72,8,62.84,8,62.87Z"/><path d="M9.35,42.35c-.2-.08-.35,0-.47.26C9,42.77,9.41,42.59,9.35,42.35Z"/><path d="M5.15,47.94c.44.08,1,.25,1.4-.17.06,0,0,.19.16.11a8.64,8.64,0,0,1,1-.36,2.25,2.25,0,0,1,.93-.74c0-.19.19-.41,0-.44.23,0,0-.27.24-.26-.15-.47-.19-.73-.67-.92.07,0,.09-.07.12-.13-.39,0-.35-.22-.36-.5-.44-.05-1-.3-1.34.15a.23.23,0,0,1-.17,0c0,.32-.49.24-.65.56-.08,0-.09,0-.16,0-.5.34-.38.79-.48,1.36.2,0,.22.17.2.39C4.83,47.21,5.38,47.74,5.15,47.94Z"/><path d="M7,52.56c-.15-.12-.32.06-.56,0-.17.35.06.4.25.48C6.76,52.9,7,52.83,7,52.56Z"/><path d="M7.9,50.54c-.17.05-.2.18-.35.24C7.55,51.33,8.48,50.83,7.9,50.54Z"/><path d="M4.34,52.3C4.15,52.18,4,52,3.75,52c-.06.21-.15.21-.3.27.06.14,0,.19-.07.32A.56.56,0,0,0,4.34,52.3Z"/><path d="M8.33,51.33a.65.65,0,0,0,.34-.18C8.49,51.2,8.35,51.1,8.33,51.33Z"/><path d="M9.31,58.57c0-.11-.3,0-.28.12S9.36,58.74,9.31,58.57Z"/><path d="M6.51,60.58a.47.47,0,0,0,.28,0C6.81,60.41,6.52,60.44,6.51,60.58Z"/><path d="M9,58.88a2.75,2.75,0,0,0-1.41.26c.14.19,0,.36-.2.5.19.1,0,.31.08.52.14.05.31.06.37.19a.83.83,0,0,0-.36.17c.05.31.2.42.6.24,0-.16.11-.24.08-.42H8.11C8.84,60.19,9.38,59.31,9,58.88Z"/><path d="M10.75,58.75c.09.07.15.18.38.1s.09-.33,0-.34S10.8,58.57,10.75,58.75Z"/><path d="M7.24,62.23c0-.35-.3-.17-.33.08C7,62.36,7.17,62.31,7.24,62.23Z"/><path d="M.14,62.36c0,.14-.23.31-.09.41a.58.58,0,0,0,.48-.42A1,1,0,0,0,.14,62.36Z"/><path d="M4.28,55.89c-.49.77-.1,1.08.41,1.33A1.75,1.75,0,0,1,5.55,57c.14-.15-.08-.07,0-.24.63-.33.27-.67.41-1A1.64,1.64,0,0,0,4.28,55.89Z"/><path d="M8.16,55.74c.15.08.33,0,.56-.09,0-.26-.14-.28-.37-.25C8.37,55.57,8.14,55.57,8.16,55.74Z"/><path d="M8,52.65c-.28,0-.4.13-.63.26C7.29,53.41,8.11,53.13,8,52.65Z"/><path d="M6.55,54.31c0-.12.12-.13.12-.23s-.06,0,0-.09-.11.1-.17.15,0,0-.06,0,.07,0,.06,0-.12,0-.12.08C6.54,54.13,6.44,54.25,6.55,54.31Z"/><path d="M11.11,54l-.17.05c0,.07,0,.19,0,.18S11.16,54.19,11.11,54Z"/><path d="M64,33.71c-.07-.09-.12-.2-.29-.1S63.88,33.92,64,33.71Z"/><path d="M65.66,32.53c0-.06-.08-.14-.22-.09a.33.33,0,0,0-.19.34A.37.37,0,0,0,65.66,32.53Z"/><path d="M67.77,30.75c.13.06.12,0,.34,0,0-.05,0-.1,0-.15C67.91,30.59,67.87,30.56,67.77,30.75Z"/><path d="M69.45,29.32c.12-.13.2-.29.41-.36a.6.6,0,0,0-.25-.33c-.35.17-.78.4-.66.72C69.23,29.31,69.23,29.37,69.45,29.32Z"/><path d="M63.3,32.17c-.15,0-.17,0-.31,0a.64.64,0,0,1-.1.43A.4.4,0,0,0,63.3,32.17Z"/><path d="M72.89,26.41s.07,0,0,.08a.19.19,0,0,0,.18-.24A.36.36,0,0,0,72.89,26.41Z"/><path d="M71.88,27.51c0-.1.13-.16.13-.28C71.76,27.11,71.63,27.52,71.88,27.51Z"/><path d="M62.38,34.79c-.16-.56-.9-.29-.6.32C62.05,35.09,62.24,35.07,62.38,34.79Z"/><path d="M70.93,28.4c-.06,0-.05.07,0,0,0-.06-.17-.67-.53-.41C70.47,28.42,70.64,28.24,70.93,28.4Z"/><path d="M70.45,29l0,.25C70.66,29.21,70.68,28.86,70.45,29Z"/><path d="M67.62,27a.77.77,0,0,0-.77-.15c-.23.37-.17.61.12.76C67.29,27.49,67.4,27.22,67.62,27Z"/><path d="M66.58,30.31c.18-.21.49-.34.54-.64a.64.64,0,0,1-.49-.27C66.13,29.62,66.15,30.28,66.58,30.31Z"/><path d="M65.47,30.64c-.1,0-.28-.11-.34.08S65.42,30.83,65.47,30.64Z"/><path d="M64.9,29.5c0-.23-.14-.29-.43-.19C64.32,29.59,64.72,29.66,64.9,29.5Z"/><path d="M76.17,20c-.43,0-.92.31-.66.71.42,0,.35-.14.69-.27C76,20.23,76.23,20.14,76.17,20Z"/><path d="M71.25,22.41a.36.36,0,0,0-.07.37c.19,0,.24.08.45-.07-.09-.15,0-.13.07-.31C71.57,22.38,71.36,22.45,71.25,22.41Z"/><path d="M62.73,30.94c0,.1-.07.13-.07.22l.22-.06C62.91,31,62.88,30.89,62.73,30.94Z"/><path d="M62.09,35.66c0,.1-.12.17-.11.27s.14-.07.27-.15S62.19,35.62,62.09,35.66Z"/><path d="M69.46,23.52a.22.22,0,0,0,0,.19c.18,0,.18-.13.24-.21C69.6,23.55,69.62,23.44,69.46,23.52Z"/><path d="M70.2,27.59c.14-.15,0-.3,0-.39-.25.14-.44.05-.52.34C69.88,27.5,69.87,27.73,70.2,27.59Z"/><path d="M64.4,32.21c.07-.23-.05-.27-.09-.38S64.13,32,64,32C64,32.27,64.12,32.31,64.4,32.21Z"/><path d="M64.74,32.52l.16-.09c0-.16-.1-.24-.29-.1A.22.22,0,0,0,64.74,32.52Z"/><path d="M64.55,32.93c-.09-.13,0-.42-.15-.44,0,.18-.14-.1-.26,0C63.8,32.78,64.12,33.22,64.55,32.93Z"/><path d="M72,25.09c-.25.14-.37,0-.57.2.2,0,0,.25.09.27l0,0c0,.08-.06.17-.16.21.08-.17,0-.21,0-.45-.26.06-.38.42-.26.56a1.88,1.88,0,0,1,.56-.15c0-.15.18-.12.29-.17,0-.3-.37.12-.43,0C71.82,25.36,71.87,25.43,72,25.09Z"/><path d="M65.07,30.3a1.63,1.63,0,0,0,.18-.45,1.66,1.66,0,0,0-.61.09c0,.2-.22.19-.18.38A.52.52,0,0,0,65.07,30.3Z"/><path d="M69.3,27.83c-.08-.31-.33-.43-.7-.42-.14.35.34.4.4.69C69.08,28,69.23,27.94,69.3,27.83Z"/><path d="M66.06,29.65c0-.21-.21-.18-.31-.27-.11.16-.16.09-.35.24,0,.19.12.21.14.36C65.86,30,65.82,29.71,66.06,29.65Z"/><path d="M75.33,26.62a.72.72,0,0,0,.64-.51C75.82,25.64,74.82,26.35,75.33,26.62Z"/><path d="M68.79,49.64c.1,0,.28,0,.38,0C69.29,49.24,68.9,49.38,68.79,49.64Z"/><path d="M58.08,49.34c-.09-.35,0-.42-.34-.48a.07.07,0,0,1,0,.08s-.07,0,0,.07S57.76,49.4,58.08,49.34Z"/><path d="M60.33,47.94c0,.12.06.26.16.28s.22-.14.24-.23C60.55,48.07,60.55,47.81,60.33,47.94Z"/><path d="M62,46.75a3.8,3.8,0,0,0-.4.52c.12.38.72-.25.6-.52A.45.45,0,0,1,62,46.75Z"/><path d="M70.55,39.59a2.17,2.17,0,0,1-.69.11,1.05,1.05,0,0,1-.78.4c-.55.89.15,2,1.35,1.41C71.4,41,71.33,39.84,70.55,39.59Z"/><path d="M71,48c0,.09,0,.19-.09.23s-.26.13-.54.14c-.6.57-.46.87-.08,1.23C71.91,49.65,72.52,47.73,71,48Z"/><path d="M58,48.19l.17-.08c.07-.2-.07-.49-.35-.28C57.9,48,57.88,48.1,58,48.19Z"/><path d="M60.66,47.16c.08,0,.12,0,.23-.07a1.21,1.21,0,0,1,0-.18A.33.33,0,0,0,60.66,47.16Z"/><path d="M62.17,44.67c-.55.37.33.28,0,0Z"/><path d="M57.72,48.41c-.23,0-.55-.13-.7.22.2.19.33.08.66.06C57.68,48.59,57.76,48.52,57.72,48.41Z"/><path d="M63.41,45.13c0,.12.09.17.18.16a.33.33,0,0,0,0-.36C63.44,45,63.52,45.08,63.41,45.13Z"/><path d="M74.84,27.29c-.14.54.3.93.91.56C76,27.22,75.47,27.12,74.84,27.29Z"/><path d="M70.28,30.75c-.12-.05-.24-.28-.44-.09C69.83,30.83,70.2,30.82,70.28,30.75Z"/><path d="M73.35,27.92c0,.09,0,.17,0,.26s.12,0,.22,0,.13-.29,0-.35S73.45,27.9,73.35,27.92Z"/><path d="M63.7,35.48c-.21.09-.18.23-.21.36a.85.85,0,0,0,.35-.13C63.83,35.55,63.73,35.58,63.7,35.48Z"/><path d="M64.92,35.28c.09-.21.33-.12.46-.18,0-.3-.35-.07-.42-.3a.46.46,0,0,1-.29.11C64.8,35,64.62,35.29,64.92,35.28Z"/><path d="M67.72,35.24c-.34,0-.49,0-.44-.29-.36.19-.58.09-.92.1-.34.16-.5.62-.87.56a.67.67,0,0,1-.09.21.45.45,0,0,1-.17-.19c-.14.07-.15.16-.25.24s.1.23,0,.33h0l-.07.09h0c-.18.23-.19,0-.37,0a.32.32,0,0,1-.13.21,1,1,0,0,0-.32-.31,2,2,0,0,0-.87.08v-.16c-.08,0,0,.11,0,.17a2.31,2.31,0,0,0-.9.49.38.38,0,0,1,0-.1c-.16,0-.25,0-.39,0-.13.2,0,.31.1.42a1,1,0,0,0-.11.27.43.43,0,0,0,0,0,.42.42,0,0,0-.3.13c.11.17.1.28.35.28a.16.16,0,0,1,0-.09,1.38,1.38,0,0,0,1,.78c.93-.26,1.67-1.06,1.56-1.72a1.79,1.79,0,0,0,.65.44.66.66,0,0,0-.26.6c.13,0,.19,0,.36-.09s0-.33,0-.45a.16.16,0,0,0,.13,0,2,2,0,0,0,2.44-1.27C67.83,35.75,67.67,35.57,67.72,35.24Z"/><path d="M72.26,29.4c.14,0,.27-.08.33,0a.26.26,0,0,0,0-.34c-.16,0-.15.11-.29.12S72.26,29.31,72.26,29.4Z"/><path d="M62.87,41c-.51.64-.3.72-.47,1.47.29-.12.33,0,.29.27a2.23,2.23,0,0,0,.85,0,.13.13,0,0,1,0,.06c.35-.1.39-.18.62-.09,0-.23.36-.23.48-.39a.23.23,0,0,0,0-.13,1.45,1.45,0,0,0,.39-1C64.75,40.34,63.6,40.63,62.87,41Z"/><path d="M60,43.16c.14,0,.09-.14.26-.19,0-.18-.11-.26-.26-.22S59.85,43.06,60,43.16Z"/><path d="M72.34,30.66c0,.08.15.31.09.33s-.46.19-.52.38c.1,0,.13.07.27,0A.88.88,0,0,1,73,31c.16-.19,0-.25.14-.48A.66.66,0,0,0,72.34,30.66Z"/><path d="M78.16,28.43a.33.33,0,0,0,.34-.09C78.55,28,78.2,28.17,78.16,28.43Z"/><path d="M69.43,39.33a1.27,1.27,0,0,1-.51-.34c-.7.25-1,.86-.45,1.06A1.68,1.68,0,0,0,69.43,39.33Z"/><path d="M77.77,26.69a.35.35,0,0,0,.28,0C78.07,26.52,77.78,26.55,77.77,26.69Z"/><path d="M46.24,7.61c.06.2.18.31.37,0C46.52,7.51,46.42,7.4,46.24,7.61Z"/><path d="M46.71,5.32c.5-.05,1.23-.44,1-.8-.16.16-.34-.07-.56,0s-.39.19-.41.4C47,5,46.6,5.18,46.71,5.32Z"/><path d="M45.55,5.8c-.17,0-.21.09-.29.25s.12,0,.17.09C45.59,6,45.63,5.9,45.55,5.8Z"/><path d="M46.22.78c-.08-.05-.29.07-.29.23C46.09,1,46.24.93,46.22.78Z"/><path d="M15.94,25.38c-.1,0-.31,0-.4.15.08,0,.06.1.1.12A.41.41,0,0,0,15.94,25.38Z"/><path d="M46.43.22c-.13,0,.08-.15.07-.22-.16.08-.14,0-.28,0S46.36.34,46.43.22Z"/><path d="M44,6.39c0-.07,0-.15,0-.22a.7.7,0,0,0-.32.21C43.8,6.44,43.89,6.52,44,6.39Z"/><path d="M73.44,8.76c.15,0,.12-.12.22-.06.09-.3.07-.27.25-.36-.07,0,0-.05,0-.1s-.16.11-.18,0,.11-.07.12-.13c-.18,0-.1-.11-.56,0,0,.29-.12.41,0,.53C73.48,8.69,73.53,8.59,73.44,8.76Z"/><path d="M71,12.61l.11,0,.12,0c-.13-.15-.06-.26,0-.54-.22,0-.36.11-.41.31C71,12.3,71.11,12.4,71,12.61Z"/><path d="M64.07,14.19c.1-.25,0-.36.21-.6-.18-.36-.68-.53-1.34,0,0,.15,0,.29-.24.31a.93.93,0,0,1-.08.42C62.93,14.69,63.49,14.61,64.07,14.19Z"/><path d="M68,15.37c-.1-.06-.41,0-.4.2.1,0,.13.07.27,0S67.94,15.45,68,15.37Z"/><path d="M69.35,14c.15.08.34,0,.56-.1,0-.26-.14-.28-.37-.25C69.56,13.82,69.33,13.83,69.35,14Z"/><path d="M68.11,12.36c-.21.11-.3.29-.64.31a1.57,1.57,0,0,1-.42.51c0,.37,0,.39,0,.7.31.12.52.36.93.26a4.06,4.06,0,0,0,.8-.41c0-.28.33-.37.32-.67-.15-.08,0-.11,0-.34C68.82,12.49,68.4,12.5,68.11,12.36Z"/><path d="M61.09,17.63c.22,0,.25-.36.08-.32S61,17.56,61.09,17.63Z"/><path d="M66.38,15c.09-.88-.49-1.08-1.38-1-.09.08,0,.25-.14.33C63.26,15.34,65.44,16.59,66.38,15Z"/><path d="M62.88,18.64a.2.2,0,0,0,.18-.25.34.34,0,0,0-.23.16S62.89,18.58,62.88,18.64Z"/><path d="M64.25,21.49a1.25,1.25,0,0,0,1,.63c0-.52-.75-.39-.61-.89-.47.14-.4-.51-.87-.22C63.6,21.38,63.91,21.52,64.25,21.49Z"/><path d="M73.8,13.2c.07,0,.1.05.22,0s0-.1,0-.15S73.75,13.07,73.8,13.2Z"/><path d="M66.26,19.63c0-.29.18-.22.08-.52-.22.08-.3,0-.56.1a.55.55,0,0,0-.1.18.72.72,0,0,0-.32,0,1.53,1.53,0,0,0-.58.07c-.14.54.3.93.91.56a.55.55,0,0,0,0-.45h0A.8.8,0,0,0,66.26,19.63Z"/><path d="M68,18.81c0-.14-.28-.12-.28,0A.35.35,0,0,0,68,18.81Z"/><path d="M74.9,10.69c0-.12.12-.14.08-.27s-.14,0-.11-.07c-.14,0-.27.06-.29.17S74.69,10.75,74.9,10.69Z"/><path d="M71.37,14.55c-.11-.76-.91.49,0,0Z"/><path d="M73.44,10.69c-.25.27-.48.23-.64.51.08.2,0,.67.11.92a.47.47,0,0,1,.55.06,1.3,1.3,0,0,0,1.08-1.27C74.16,10.8,74,10.55,73.44,10.69Z"/><path d="M54.09,10c0-.11.25-.08.24-.21s-.08-.2-.33-.06C54,9.88,54,10.05,54.09,10Z"/><path d="M67.39,11.1c.72-.11.93-.54,1.28-.92-.09,0,0-.1,0-.15-.35.06-.38-.22-.53-.36a1.86,1.86,0,0,0-1.23.91C67,10.74,67.29,11,67.39,11.1Z"/><path d="M69.42,10.19c.09-.26-.35-.19-.44-.09C69.13,10.12,69.24,10.35,69.42,10.19Z"/><path d="M64.62,12.34c0,.09-.08.13-.07.21l.22-.05C64.8,12.36,64.77,12.28,64.62,12.34Z"/><path d="M63.14,38.53c-.31.1-.16.43,0,.32C63.05,38.73,63.25,38.66,63.14,38.53Z"/><path d="M64.53,38.46c-.18.07-.12.19-.16.29.1-.07.14,0,.23-.08A.13.13,0,0,0,64.53,38.46Z"/><path d="M60.07,42.15c-.13.06-.2.13-.19.21s.12,0,.23-.07S60.08,42.2,60.07,42.15Z"/><path d="M56.27,48.72l.22-.12C56.52,48.35,56.16,48.6,56.27,48.72Z"/><path d="M56.58,48.46l.16-.09c0-.15-.13-.18-.29-.1A.22.22,0,0,0,56.58,48.46Z"/><path d="M60.53,44.58c-.1-.29.07-.55.13-.91-.26,0-.51,0-.51-.34a2.32,2.32,0,0,0-1.38.34l.13-.27c-.16,0-.1.17-.22.18a.11.11,0,0,1,.09-.14c0-.07-.08,0-.05-.08h.09c0-.09,0-.07,0-.13s-.05.1-.08,0,0-.36.26-.33c0-.06-.07-.08,0-.18h.06a.49.49,0,0,0,.05.19c.28-.07.28-.29.18-.39l.06,0c0-.19.14-.18.13-.35-.17,0-.17.24-.31.31a1.4,1.4,0,0,1,.09-.31c-.12,0-.12.08-.16.13s-.06,0-.06,0a.51.51,0,0,0,.09-.37l0-.06c0,.06.08.08.18,0s-.05-.13-.07-.2.19-.42.31-.61c0,0,0,.06.06,0s0-.07,0-.13a2.9,2.9,0,0,0,.26-.53s-.08.1-.13,0,.08-.06.05-.16c-.13.06-.11.26-.2.35s-.06,0-.07,0,0-.1,0-.15,0,.07.09,0-.05-.07,0-.13h.08a.45.45,0,0,1,.14-.4.28.28,0,0,1-.05-.22c.07,0,0-.07.09,0s.09-.27,0-.48c0,0,.13,0,.14,0s-.06,0,0,.06.08-.18.18-.21-.07,0-.05-.09,0-.21.18-.18c0-.09-.11-.09-.22-.09a.49.49,0,0,1,0-.28c0-.06-.1,0-.08,0v-.19h.08c.06-.41.06-.7.09-1.06.09,0,.07-.05.13,0,.05.17-.13.13-.08.3.1,0,.18.09.26,0a.31.31,0,0,1,.09-.3s-.13,0-.13,0,.07-.08,0-.19,0,.09-.07.08-.11,0-.11,0,0-.21.18-.2v.14c.1,0,.05-.13.13-.14s.16.16,0,.27c.06,0,0,.07.13,0s0-.2-.09-.26c.12,0,0-.1.13-.09a1.13,1.13,0,0,0,.13.75v-.38c-.22-.21.1-.49,0-.72.08,0,0-.14.13-.13s0,.15.05.13c0-.19-.05-.46.08-.53,0,.11,0,.32,0,.35a5.11,5.11,0,0,1,0-.79c.08,0,0,.16.15.13,0-.1,0-.26-.08-.35.1-.09,0-.33,0-.44s.07-.14.09-.22,0,.17-.13.07,0-.26,0-.38c.16.06,0-.14.11-.17s0,.06.11,0v-.26c-.09,0-.12,0-.17,0,0-.14,0-.32,0-.39s-.05,0-.09-.07,0-.49,0-.77c-.15,0-.13.13-.13.26-.07,0,0,.08-.09,0s0-.06,0-.13.06-.24.07-.27.07.05.14.05a1.81,1.81,0,0,0,.53,0,.35.35,0,0,0,0,.11h.17c0-.07,0-.19,0-.22h.06s0,.15,0,.13c-.13-.24.06-.51,0-.66.1,0,0-.16.06-.18.25.13.11.58.07.84.09,0,0,.18,0,.26s0,.08.13,0c-.13-.11-.09-.51-.06-.71h.06a.5.5,0,0,0,.18.51.46.46,0,0,0-.13.2l.17.31v-.18h.14V33s-.09,0-.09,0,.05,0,0-.07c-.17-.12-.12-.47-.26-.62s.07,0,0-.08a2.35,2.35,0,0,1-.22-1.28c-.09,0,0,.19-.13.18a8.89,8.89,0,0,1-.26-.88,1.79,1.79,0,0,1-.34-.69,5.35,5.35,0,0,0,1.69-.45.5.5,0,0,0,0,.13V29a2,2,0,0,0,.67-.61l.29-.07c.16-.36.74-.45.94-.79-.1-.16,0-.37.3-.43a1,1,0,0,1,0-.17c0,.12.15.15.3.05s0-.25,0-.29-.16.1-.27.12a1.61,1.61,0,0,1,.36-1c-.15,0,.06-.51.2-.65a.46.46,0,0,1-.07-.52c-.1,0-.15.11-.17,0,.2-.17.16-.3.14-.53-.28-.09,0-.33-.12-.71-.13-.17-.6-.18-.47-.48-.17,0-.23-.12-.5,0-.06-.17-.24-.21-.31-.37l-.23.06c-.19-.37-.55-.23-1.05-.13,0-.13-.08-.14-.19-.14s0-.05,0-.07,0-.05-.08-.06,0-.28,0-.33.08,0,.06.13a.11.11,0,0,0,.09-.09c-.06-.2-.31-.57,0-.7-.11,0-.1.07-.22,0s0-.12-.05-.18,0,.07.09,0-.06-.32-.09-.49c-.13,0-.09-.15-.22-.15s.08-.09,0-.2-.08,0-.09,0c0-.2-.14-.31-.18-.51-.12,0-.17-.1-.21-.19a2.22,2.22,0,0,0,.31-.3,6,6,0,0,0-.17-1c-.17.06-.2-.1-.33,0-.12-.21-.35-.21-.61-.12a.61.61,0,0,1-.09-.18,1.16,1.16,0,0,1-.2-.24c.16-.16,0-.21-.2-.28a.22.22,0,0,1-.12-.18h0l.07-.08h-.13v-.09h-.13c0-.19-.2-.22-.22-.4a.24.24,0,0,1-.15-.08,3.25,3.25,0,0,0,1.21-.62c0-.29.15-.42.37-.54-.3.09-.09-.26,0-.39-.21,0,0-.15,0-.29l0,0c-.07-.13.06-.12.09-.3-.13,0-.34.06-.45,0l0,0c-.19-.08-.41-.14-.61-.24a.66.66,0,0,0-.24.26,1,1,0,0,0-.39,0c-.14.24-.51.32-.49.68-.11-.08-.11.05-.23.1s.12.25,0,.31h-.06v0c.06-.09,0-.1-.08-.15l0,0a.08.08,0,0,1,0-.06c.06,0,.16,0,.17-.09,0-.26-.43-.3-.4-.69,0,.07-.13.09-.18.14a.54.54,0,0,0-.33,0L58,14.5c.6-.15,1.08-.3,1.08-.67.38-.06.29-.43.59-.55.14-.74-.66-.82-1.1-1.06a2.7,2.7,0,0,0-1.51,1.33l-.2-.19v.18c.07,0,.11.07.19.09a.36.36,0,0,0,0,.1L57,13.67c-.07,0,0,.08-.11.05a6,6,0,0,1-.9-.84c-.07,0,0,.07-.09,0s.07,0,0-.08a.67.67,0,0,1-.22-.13A.53.53,0,0,0,56,12.5c-.13,0-.18,0-.16-.11s.06-.05,0-.05a.08.08,0,0,0,0,0c-.05-.11-.18-.13-.3-.16,0,.16.15.15.29.17-.06.08-.14.19-.21.2l0,0c.11,0,.19-.22.1-.18a.44.44,0,0,1-.12.15.74.74,0,0,0-.17-.12v-.11a5.16,5.16,0,0,1-1-.79c-.13,0-.16,0-.26,0s-.15-.27-.27-.17c0-.07.07,0,0-.09s0-.07-.09-.05.07,0,0,.09c-.25,0-.34-.26-.54-.25a.42.42,0,0,0,0-.33c-.06-.11-.19-.08-.32-.16s0-.14,0-.2a2.34,2.34,0,0,0-.56.09c-.05-.05,0-.17-.1-.22a.35.35,0,0,1-.28,0h0a1,1,0,0,0-.17-.1,1.37,1.37,0,0,0,.23,0c0-.51-.76-.39-.62-.88-.47.14-.39-.51-.87-.22-.18.37.14.51.47.47a1.1,1.1,0,0,0,.37.4c-.06,0-.16,0-.18-.07a.42.42,0,0,1-.35-.14.77.77,0,0,1-.48-.17c-.08,0,0,.07-.09,0s-.14,0-.13-.13a16.24,16.24,0,0,0-1.9-.62c-.63-.11-1.24-.31-1.89-.44-.12,0-.26,0-.39,0s-.14-.11-.22-.13a2.26,2.26,0,0,0-.58,0,.26.26,0,0,1,.14,0V8L45,8a.16.16,0,0,1,0,.16,1,1,0,0,1-.26-.06,13,13,0,0,0-3.41,0,2.8,2.8,0,0,1-.57.08c-.64.07-1.2.2-1.79.31,0,.06,0,.06-.06.09h-.33s0,0-.07.09a1.11,1.11,0,0,0-.79.26,1.3,1.3,0,0,0-.88.27c-.25,0-.37.17-.64.17-.48.3-1.16.4-1.65.7-.52.12-.86.42-1.38.53,0,.08-.08.1-.18.09s-.05.05-.06.09c-.3.07-.5.24-.82.31,0,.07.07,0,0,.08s-.13.08-.27.05a.88.88,0,0,1-.52.31.92.92,0,0,1-.53.22s0,.08,0,.08c-.38.07-.56.34-.95.4,0,0,0,.08,0,.09a2.92,2.92,0,0,1-.64.31c0,.14-.17.13-.24.22s0-.06-.07-.05a.1.1,0,0,1-.08.09s0-.11-.05-.09,0,.12-.09.13.11.06,0,.09,0-.06-.11,0,0,0-.05,0,.12,0,.09.09-.09.08-.18.09.05-.07.05-.13-.09.08-.18.08.12,0,.09.09-.07-.07-.18,0,.08,0,.05.09-.15.11-.31.08a.58.58,0,0,1-.48.22c0,.22-.36.12-.31.4.07,0,0-.07.09,0,0,.18-.21.23-.4.26a.48.48,0,0,1-.31.22v-.09c.15,0,.2-.13.31-.17s0-.06,0-.14c-.15,0-.17.22-.35.11a.09.09,0,0,0,0-.11c.09,0,.12,0,.13-.08a1,1,0,0,1-.26.08c0-.17.19-.13.18-.3s-.13,0-.18,0,.07,0,0,.09c-.26.1-.39.31-.66.39-.14.24-.51.26-.62.53.08,0,.17-.14.26-.06a1.94,1.94,0,0,1-.83.54c0,.08,0,.11-.09.09v.18c.06,0,0-.08.13,0a.24.24,0,0,1-.26.2c0-.08.07,0,0-.13s0-.07-.09-.07a.15.15,0,0,1-.22.18c0,.21-.29.18-.3.4a.52.52,0,0,0-.36.28c0,.06.11,0,.09.05s-.32.16-.35.37c.08,0,.22,0,.26,0-.21.11-.33.3-.57.38,0,.16-.24.09-.24.26-.13,0-.11.08-.2,0,0,.17-.25.13-.22.35h-.13c0,.11-.19.17-.26.15.19-.17.24-.5.61-.5,0-.12.19-.11.18-.26-.05,0-.12.15-.18.11.1-.05,0-.28.09-.33-.14,0-.11.2-.2.26s0-.07-.09,0-.1.17-.24.17.05.07.05.13-.09.13-.22.09c0,.12-.09.09-.13.13s.09.09,0,.14,0-.13-.09-.09c-.07.2-.33.21-.46.35v.18c-.06,0-.05.07-.13,0s0,.12,0,.2-.28.05-.26.24c.11,0,.09-.09.17-.09s.07,0,0,.09-.17.24-.36.26c0,.1,0,.13,0,.18.28-.11.44-.46.79-.42,0,.12-.14,0-.09.15s.05-.07.13,0,0-.07,0-.13-.11,0-.09-.09h.13v.09c.2,0,.18,0,.35,0a.59.59,0,0,0,.12-.22c0,.08.1,0,.15,0v.09c-.24,0-.23.3-.44.35s-.29.27-.4.44c0,0,.13,0,.13,0,0,.23-.25.22-.32.37H21c0,.1.12,0,.09.09h-.14c0,.14-.14.07-.13.18.17,0,.23-.16.35-.22,0,.09,0,.07,0,.13a1.64,1.64,0,0,0,.68-.57c.11,0,.14-.11.24-.13v.08c.06,0,.14-.1.18-.06s-.07.1-.13.11.09,0,.08.06c-.17.08-.2.31-.43.33,0,.07-.08.09-.11.14s-.21,0-.25.08.27,0,.36-.08.12,0,.17.06a.39.39,0,0,1-.17.11c0,.06.1.06,0,.09s-.12,0-.2,0,.12,0,.09.08-.09.06-.09.14.13-.09.18,0a.34.34,0,0,1-.31.11c0,.07-.07.14-.18.14s.1,0,.09.06,0,.09-.07.11a2.52,2.52,0,0,0-.33.13c0,.22-.14.21-.17.36.09,0,.09-.12.17-.14,0,.15-.19.27-.3.18-.06.11-.18.14-.31.18s-.12.2-.27.22c0,.09-.12.07-.15.13H19.8c0,.07-.09.05-.09.13s.08,0,.09,0a.23.23,0,0,1-.26.11c0,.09.12,0,.08.09s-.07.07-.17,0c0,.14-.17.1-.18.22.16,0,.16-.13.31-.13a.11.11,0,0,1,.13-.13c0-.11.07-.14.13-.18s-.07,0,0-.08.16,0,.18,0-.18.16-.22.28c.12,0,.2-.32.35-.17H20c0,.15-.14.17-.2.26s0-.06-.11,0,.07,0,0,.08c-.18,0-.2.24-.39.27,0,.23-.3.17-.31.39-.26.1-.33.38-.62.44a.11.11,0,0,1-.09.14c0-.07.08,0,.05-.11s0-.07-.09-.07-.05.09-.13.09a.55.55,0,0,1-.35.35c0,.15-.08.2-.11.31s0-.06-.07-.05-.09.06-.09.14.16,0,.14,0a.23.23,0,0,1-.18,0c0,.06,0,0-.09,0-.06.18-.24.23-.35.35.06.1,0,.09,0,.22-.13,0-.32.18-.22.31-.07,0,0-.07-.08,0s0,.11-.09.13,0-.16-.05-.13,0,.14-.08.17h.26c0-.07-.07,0,0-.09s.11-.06.22,0c0-.18.21-.14.17-.35.22,0,.19-.28.44-.27,0-.16.09-.17.09-.3.09,0,.07-.05.13-.05a.81.81,0,0,1,.57-.61c0,.05,0,.09.11.08s0-.12.11-.08v-.18a6,6,0,0,0,.62-.48V23c-.2,0-.13.31-.35.31a.25.25,0,0,1-.22.22s0,.08,0,.09-.19.23-.33.31c0-.11.13-.14.14-.27a1.67,1.67,0,0,0-.44.66s.11,0,.08.05-.07-.05-.13-.05-.11.16-.22.18.08,0,.05.13-.13,0-.18.05.1,0,.09.06-.11.26-.27.29c0,.11-.05.22-.13.15a.29.29,0,0,0,.13-.24c.14,0,.13-.11.18-.18s-.11.1-.22.09,0,.08,0,.09c-.26.13-.37.41-.55.62.14,0,.12-.12.22-.14-.05.2-.16.34-.22.53h-.09c-.07.27-.31.37-.39.62.07,0,0-.07.08,0s.09.17,0,.22l-.07-.06s.06,0,0-.11-.05,0-.13,0c-.1.18-.25.3-.35.48.15-.05.16-.25.31-.31a2.81,2.81,0,0,1-.33.62s0-.06-.07-.05-.11.09-.13.18.08,0,.09,0c-.14.33-.29.65-.42,1,0,0,0-.06-.11,0s-.09.29,0,.42a2.8,2.8,0,0,0-.31.5c0,.06.07.08,0,.18s-.08.06-.18,0,0,.17-.09.18,0-.07,0-.13,0-.13-.09-.09a.11.11,0,0,1-.13.13c-.09.1-.09.3-.18.4s-.12.31-.17.48c0,0,0,.05.08.07s-.05.08,0,.15-.07,0-.13,0,0,0-.05-.06a.2.2,0,0,1,.09-.2v-.22a5.34,5.34,0,0,0,.48-1.23c.09,0,.12-.1.16-.18h.06a.85.85,0,0,1-.08.35h.13a.92.92,0,0,1,.17-.61c-.05,0-.09,0-.08-.11s.06-.1.13-.11-.07,0-.05-.09.06-.09.14-.09-.07,0-.05-.09c.17-.05.17-.27.31-.35s0,.11,0,.09.13,0,.09-.15-.1,0-.09-.05c.09-.24.28-.38.36-.64-.11,0-.09.15-.22.14s-.05.11-.07.17a.75.75,0,0,0-.15-.09c0,.09-.11.06-.09.16s.09.06.13.09-.16.2-.35.19c0,.16-.16.17-.18.31.14,0,.07-.14.18-.13s-.07.07-.05.15.07,0,.05.09c-.05.23-.25.29-.27.55-.1,0-.08.25-.22.16.08-.05,0-.05,0-.11a1.67,1.67,0,0,0,.18-.62c-.15.13-.17.52-.4.51a1.73,1.73,0,0,0,.14-.42c-.15.05-.18.22-.25.35l-.06-.07.13-.19c-.09,0-.09.13-.17,0,0,.09,0,.07,0,.13s-.07.12-.11.18l-.07-.07c.08,0,0-.2.09-.24-.11,0-.16.11-.22.18,0-.16,0-.31.13-.36a2,2,0,0,1,.14-.52c-.08,0,0,.07-.09,0a1.64,1.64,0,0,1-.27.66,10.66,10.66,0,0,1-.39,1.32c.09.19-.1.41-.18.57a1.7,1.7,0,0,1-.22.71c0,.06,0,.18,0,.21L13,31.11c.07,0,0-.12,0-.2s-.09.13-.18.05c0,.08,0,.14-.06.21-.1-.08.07-.21,0-.24.05,0,0-.08.07-.11s0,.06.07.05v-.18c-.11,0-.1-.05-.09-.13s0,.2-.13.09c0,.05.06.08,0,.17h-.09c0,.12.11.18,0,.27s-.08,0-.11-.07a3,3,0,0,0,.09-.55c-.22.22-.16.71-.28,1-.11,0-.08-.12-.2-.09,0,.21-.11.22-.09.4H12V32c-.22.2-.24.61-.39.88A5.58,5.58,0,0,1,12.13,31c.06,0,0,.12.11.13a.37.37,0,0,1,.08-.35l-.13-.07c0-.08,0-.18.18-.15s-.1,0-.09-.07,0-.12.09-.11,0,.16,0,.14a.73.73,0,0,0,0-.36c.06,0,0-.07.13,0a1.27,1.27,0,0,1,.07-.32,1.76,1.76,0,0,0,.4-.27.68.68,0,0,0,0,.28s-.11,0-.09.05,0,.14,0,.17,0,.16,0,.22-.15,0-.09.11.1,0,.09.05-.09,0-.09.11,0,.07.13,0a1.4,1.4,0,0,1,.09-.31s-.08,0-.09,0,.05-.08,0-.15h.09a3.26,3.26,0,0,1,.22-.71c0-.09,0-.19,0-.28l.09,0a.4.4,0,0,0,0,.37c.15,0,.19-.4.09-.53a1,1,0,0,0-.09.15c0-.05,0-.07,0-.08a.19.19,0,0,1,.08-.07c0-.07-.07,0-.05-.09.18-.13.08-.54.22-.7,0,0-.08,0-.09,0a13.14,13.14,0,0,1,1.26-1.91s0,.06.06.05.07-.09.05-.18.06-.12.17-.09a6.53,6.53,0,0,1,.58-.7c0-.18.19-.25.3-.35s.14-.2.22-.27a.9.9,0,0,1,.44-.44V24l.43-.45a.76.76,0,0,0,0,.15c.16,0,.4-.05.45-.23h.1a.43.43,0,0,1,.19-.29c0,.15.18.24.51.1h0a.09.09,0,0,0,.09,0s0-.12,0-.13a.29.29,0,0,0,0-.3,1.56,1.56,0,0,0-.3,0,2.82,2.82,0,0,1,.36-.33c0,.06-.08,0-.05.13.21-.08.24-.32.4-.44,0-.17.18-.18.26-.27s-.07,0,0-.08,0,.07.09,0,.38-.25.55-.4.09,0,.15.05.18-.14.26-.22.19-.11.18-.27a1.05,1.05,0,0,0-.42.22.34.34,0,0,0-.31.22s0-.05-.06,0-.3.33-.44.26.07,0,0,.09c-.2.07-.34.19-.53.27,0,0,0,.08,0,.08a7.49,7.49,0,0,1-1.16.71c-.06.21-.24.3-.33.48-.24,0-.25.26-.51.26-.06.23-.3.28-.37.49-.18,0-.18.24-.38.26a.57.57,0,0,1-.35.4c-.05.16-.22.22-.31.35s.08,0,.05.09a4.23,4.23,0,0,0-.57.75c-.07,0-.05.07-.14,0a1,1,0,0,1-.3.48,1.74,1.74,0,0,1-.44.66,1.26,1.26,0,0,1-.31.53l-.12.25a1.56,1.56,0,0,0-1.76-.14c-.4.52-1.61,1.41-.95,1.83-.11,0-.05.18-.13.23.08,0,.3-.13.28,0s-.08.23-.13.33a3,3,0,0,1,.87.05,4.43,4.43,0,0,0-.13.55,14.91,14.91,0,0,1-.31,2,3.83,3.83,0,0,1-.28,1.54h-.07V34s.09,0,.09-.11-.1,0-.09-.05a4.7,4.7,0,0,1,.09-1,1,1,0,0,0-.22.53,1.72,1.72,0,0,0-.09,1s0,0,0,0c.09.27-.12.81-.05,1.07,0,0,0,.07-.08.07.1.44-.26,1-.18,1.41-.11.05,0,.28-.13.35,0,.39-.22.89-.18,1.45.06-.07.19-.16.09-.26.15-.06,0-.39.18-.44,0,.11-.13.27,0,.35a1.62,1.62,0,0,0,0-.53s0,.06.06,0a.74.74,0,0,1,.14-.44c-.06,0-.06.11-.09,0,.14-.11.09-.27.13-.47s.11-.18.13-.26,0-.16.05-.22a8.63,8.63,0,0,1,.3-1.19.39.39,0,0,1,.14-.39,12.2,12.2,0,0,0-.27,1.4c.11.2-.08.55,0,.8-.08.1,0,.35-.09.48a2.17,2.17,0,0,0,.36-1c.07,0,0-.07.08-.05a.28.28,0,0,0,0,.22.11.11,0,0,0-.08.09c.07,0,0,.07.08,0s0-.22.14-.22-.08,0-.05-.11a9.64,9.64,0,0,0,.4-1.52s0,0-.05-.07c.14-.29.07-.79.36-.94a.71.71,0,0,1,.22-.62,3.59,3.59,0,0,0,.22-.7,10.5,10.5,0,0,1,.33-1.67l.06.06a2.7,2.7,0,0,0-.17,1c-.08,0,0,.07-.09,0,0,.12,0,.25,0,.31.1,0,0,.18,0,.26s0,.07-.09.05c0,.19,0,.5-.18.39,0,.07.05.22,0,.22.07.1-.08.46,0,.57s-.15.32-.09.4c-.1,0-.13.13-.17.22s.08,0,.08,0,0,.35-.17.42.07,0,0,.09h-.09a2.57,2.57,0,0,1-.17.92c.07,0,0,.18.13.2a2,2,0,0,0,0,.5c.21-.07.2-.37.3-.57V36.1c.07,0,0-.07.14,0a.62.62,0,0,1,.08-.58c0,.33,0,.74,0,1-.08,0,0-.17-.15-.14.07.15,0,.17,0,.36h-.09c0,.08.09,0,.09.06s-.13,0-.09.07.1,0,.13.06.06.34,0,.38a.71.71,0,0,1,0,.48c-.06,0-.06-.12-.11-.15s.06,0,0-.07,0-.24-.13-.22c0,.1,0,.12,0,.18a1.27,1.27,0,0,1,.09.75,1.73,1.73,0,0,1,.08.55c0,.46,0,1,0,1.56.09,0,0-.13.09-.09v.13c-.1,0-.08.07-.18,0a2,2,0,0,1,0,.84c.06.06,0,.21.09.26-.12.26.13.53.09.86a6.37,6.37,0,0,1,.13.92c0,.18.17.48.09.64s.07.28.1.44a.36.36,0,0,1-.15.15l-.21,0a3.33,3.33,0,0,1-.14-.75c-.13.14.1.46,0,.57a.6.6,0,0,1,.06.19,1.07,1.07,0,0,0-.27.09.54.54,0,0,0-.1-.23.83.83,0,0,0,0,.27,1.52,1.52,0,0,0-.65.68A1,1,0,0,0,10.7,45a1.14,1.14,0,0,0,.09.48,2,2,0,0,0-.1.26.58.58,0,0,1,.36.5h.23a1.12,1.12,0,0,1,.08.55c.09.24.18.6.24.81a3.34,3.34,0,0,1-.33-.55c0-.12,0-.24-.18-.24,0,.23.12.26.09.48a.33.33,0,0,1,.08.21L11,47.39a1.09,1.09,0,0,0-.17-.36s.06,0,.05-.07a1,1,0,0,1-.22-.41.18.18,0,0,0-.18-.29c0,.06.07.06.09.11a4.6,4.6,0,0,0,.22,1l-.18,0a3.91,3.91,0,0,1-.35-1.67c-.18,0-.05-.3-.09-.44-.17,0-.05-.27-.09-.39s0-.05-.08-.07c-.12-.64-.23-1.3-.31-2,0,0,.06-.06,0-.13a8.19,8.19,0,0,1,.05-1.78c-.11,0,0,.17-.07.18-.07-.21.07-.4,0-.66-.07,0,0,.07-.09,0,.09.32,0,.39,0,.73.08,0,0,.15,0,.19a2.39,2.39,0,0,1,0,.8c0,.06.08,0,0,.11a8.92,8.92,0,0,0,.09,1.93c.19.79.27,1.67.49,2.42a.31.31,0,0,0-.09.2c.12.05.05-.1.13-.09s-.07.17,0,.31,0-.13.06-.14a1.21,1.21,0,0,1,.15.44,1.21,1.21,0,0,0-.68.28c.07-.17-.12-.06-.22-.05a.15.15,0,0,0,0,.14A1.78,1.78,0,0,0,8.92,49c-.16,0-.23,0-.39,0-1.13.54-.95,1.58,0,1.59-.08,0-.07.12-.12.18.11,0,.19,0,.22,0s-.22.09-.18.24c.2,0,.42.11.25.39a1.38,1.38,0,0,0,1.28,0s0,.09,0,.13c.28-.07,0,.14.16.21s.38,0,.37.2a5,5,0,0,0,1.07-.5.82.82,0,0,1,.09.31,1.57,1.57,0,0,1,.44-.11,1.71,1.71,0,0,0,.11.14c.13,0,.25.07.27.22.21.2.34.48.7.53-.06-.13-.2-.18-.26-.31a1.11,1.11,0,0,1-.4-.31,1.58,1.58,0,0,1-.25-.28h.08s0,0,0,0,.07,0,0,.09h.13a.45.45,0,0,0,.13.22s0,0,0,0l.13.07h0l.07,0,.05,0c0,.09,0,.07,0,.13a2.53,2.53,0,0,1,.53.44.17.17,0,0,1,.17.18c.09.06.23.07.27.18.32,0,.37.24.66.26,0,.13.1.16.17.23l-.18.08a1.05,1.05,0,0,0-.3-.22.57.57,0,0,0,.2.26c-.64.26-1.23.58-1.94.83-.12.27-.4.44-.54.69,0,.45.39.65.67.72-.25.14-.48.3-.75.44-.16,0-.21,0-.29.17a.18.18,0,0,0,.13,0,.08.08,0,0,0,0,0,1,1,0,0,0-.09.38l-.06.15.08,0c.1.3.44.45.9.42a12,12,0,0,0,1.1-.68c-.1-.31.06-1-.43-1.13a1.5,1.5,0,0,1,1.43.17,3.86,3.86,0,0,0,1.94-1.13.4.4,0,0,1,.16.2h.13c.38.32.82.59,1.19.92.16,0,.17.1.31.09v.09a8.55,8.55,0,0,1,.88.53c.05,0,.08-.07.17,0s.08,0,.05.14.15,0,.22.06-.06,0-.05.07.07,0,.13,0a1.61,1.61,0,0,0,1,.49.11.11,0,0,0,.13.13s0-.16,0-.18,0,.1,0,.14.1-.08.22,0,.23.09.22.27c-.32,0-.49-.07-.79,0,0-.1-.17-.1-.27-.13a4.46,4.46,0,0,0,1.1.66c0,.07.07,0,0,.09a1.89,1.89,0,0,1,.8.35c-.06,0-.08-.07-.18,0,.06.19.31.18.48.26,0,0,0-.08,0-.09s.14,0,.15.09h.13c0,.09.12,0,.09.09a3.16,3.16,0,0,1,.79.35c.14,0,.23,0,.27.13a9.54,9.54,0,0,1,1.27.48c.86.1,1.43.81,2.29.71a.22.22,0,0,1-.22-.09c.08,0,.25-.05.26,0,.18-.12.35.08.57,0v.09a.44.44,0,0,1,.27-.05v.09c.29.18.7.25,1,.46,0,0-.07,0-.05.11h.27c.22.17.58.21.79.4a1,1,0,0,1,.7.35c.16,0,.22.09.35.11s-.05,0,0,.07.06-.07.15,0,.48.12.55.35a4.8,4.8,0,0,1,1.23.33c0,.09-.06,0,0,.11a2.24,2.24,0,0,0,.66,0c0-.06.05-.06.06-.09s.16,0,.25.07,0,.07-.09.06.07,0,0,.13.18,0,.27.07-.13,0-.09.09.13,0,.13.11c.39,0,.57.19,1,.13,0-.07-.07,0,0-.09s.28.05.31,0a3.13,3.13,0,0,1-.66-.11v-.07c.61,0,.83-.1,1.45-.09,0-.07-.07,0,0-.08a37,37,0,0,0,4.67-.4s0-.08,0-.09c.21.16.52-.14.72,0,0-.07.07,0,.05-.09-.2,0-.34.09-.44,0,0,.09-.16,0-.16.09-.21-.1-.49.12-.63,0-.06.09-.11.09-.2,0s0,.1-.05.08c-.63-.07-1.49.16-2,.09a1.71,1.71,0,0,1-.84,0,.8.8,0,0,1-.44,0s0-.06,0-.06.08.07.19,0,.22-.08.36,0c0-.1.12,0,.08-.09s-.22,0-.26,0,.1,0,.11-.07c.11.11.32-.14.48,0,.13-.11.38,0,.55,0s.1-.13.18-.09c-.26-.24-.75,0-1.1-.13-.08,0-.39,0-.44-.09.1-.08.36,0,.44-.09a9.88,9.88,0,0,1-1.45,0c-.33,0-.67,0-.88-.2,0-.06.12,0,.09-.07-.59-.11-1.13-.27-1.67-.41,0,0,.05,0,0-.07s-.11,0-.18-.07l.07-.06s.08,0,.15,0v.09l1.45.26c0-.17.13-.1.14-.22h-.44c0-.07-.07,0-.05-.08s-.25.05-.26,0c.16,0,.3,0,.35-.13s-.15,0-.13,0a11.44,11.44,0,0,0,2.42.17s0-.13,0-.13c.24,0,.35-.08.59,0,0-.06,0-.06.07-.09.3,0,.44-.1.72-.09,0-.09-.12,0-.08-.09.21,0,.57-.14.7,0,0,0-.09,0-.09.11a7.69,7.69,0,0,0,.88-.09c-.08-.06-.13-.16-.31-.13,0,.12-.11.08-.19,0s-.3.07-.29,0a10.55,10.55,0,0,0,2-.35c0,.09.2,0,.24.06-.22.18-.7.09-.93.25-.06,0,0-.08-.11-.05s-.12.08-.24.05.07,0,0,.08-.06,0,0,0a14.07,14.07,0,0,0,2.07-.31c0-.05,0-.05.07-.09.13.15.35-.07.5,0,0,.1-.22,0-.22.16a7.62,7.62,0,0,0,1.89-.31c0-.08-.14,0-.13-.13.34,0,.39-.2.75-.13,0-.07-.07,0-.05-.09s.24-.12.44-.09c0,0,0,0,.07-.09a.28.28,0,0,1,.2,0c.17,0,.23-.14.33-.22.52-.15.89-.44,1.43-.57,0-.1-.13,0-.09-.09s.28-.13.44-.18v.09c.39-.09.67-.29,1.05-.4,0-.08-.14,0-.08-.13s.12,0,.13,0-.06,0,0,.07c.2,0,.35-.21.49-.13.3-.27.79-.36,1.1-.62-.31,0-.46.32-.79.24,0,0,0-.06,0-.06s0,.06.11,0,0-.07.09,0,0-.12,0-.18,0,.1-.09,0,.17,0,.22-.11-.07,0,0,.09c.06-.08.29,0,.35-.09a.09.09,0,0,0-.11-.08s-.09.14-.15.06c.16-.12.36-.21.53-.33,0,.12-.07.15-.18.13v.09c.13,0,.15-.17.35-.13.07-.15.24-.2.4-.26V57c.06,0,.19,0,.22,0s-.13,0-.09.06S51.91,57,52,57s-.07,0,0-.09,0-.07.09,0V57c.37-.19.67-.45,1.06-.62,0-.06.06-.14.17-.13a2,2,0,0,1,.53-.44,5.11,5.11,0,0,1,.92-.75c0-.06-.07,0,0-.13a1.59,1.59,0,0,0,.22-.13c0,.08-.12.09-.13.17a3.53,3.53,0,0,0,.88-.7c-.06,0-.14.11-.18.07.19-.22.49-.34.68-.55.09,0,0,.06.11,0s-.07,0,0-.09.16-.18.35-.17c.09-.26.45-.26.53-.53-.13,0-.22,0-.27.09s.13,0,.14,0-.36.15-.42.33-.25.18-.42.22-.29.16-.44.26-.1.23-.26.18c0,0-.09.13-.14.06.29-.13.46-.38.75-.5,0-.09,0-.07,0-.13s.13-.14.22-.05-.08,0,0-.13c.24-.11.39-.31.65-.4.06-.14.26-.15.31-.3-.36.15-.57.45-.92.61,0,.12-.22.12-.24.27-.27.06-.38.28-.64.35,0,.19-.31.11-.33.31-.09,0-.1,0-.15,0s.07,0,0-.09-.16,0-.18.13,0-.07.09,0,0,.09-.06.13,0-.05-.07,0a.87.87,0,0,1-.4.26.79.79,0,0,1-.39.27,1.92,1.92,0,0,1-.57.39c0,.06-.11.18-.18.11s0-.08.13-.06,0-.09,0-.09c.55-.36,1-.78,1.61-1.1,0-.07.08-.09.11-.13h.15a.41.41,0,0,1,.31-.22s0-.09,0-.09c.23-.12.41-.29.64-.4.19-.27.61-.32.75-.66a.71.71,0,0,0,.35-.26c-.15,0-.11.12-.26,0v.13c-.29.07-.44.28-.71.36,0,.16-.15.11-.22.17s.05.07.05.13h-.22c0,.07-.1.1-.11.18-.26.07-.36.3-.64.35,0,0,0,.08,0,.09-.2.1-.36.25-.55.35v.13c-.23.09-.33.29-.62.31-.16.25-.53.27-.72.49-.26,0-.41.26-.6.28.06,0,.07-.13.18-.11s.07-.07,0-.17a1.45,1.45,0,0,0,.44-.31h-.13s0,.08,0,.09a10.48,10.48,0,0,0-1.32.83h-.11c-.07.13-.25.15-.33.26-.27,0-.31.27-.6.27a2.79,2.79,0,0,1-1,.57v-.09h.09c0-.13.16-.16.31-.17a.31.31,0,0,1,.26-.18,3.44,3.44,0,0,1,.75-.44c0-.06,0-.1.13-.09a4.2,4.2,0,0,1,1-.66,1,1,0,0,1,.48-.3.44.44,0,0,1,.31-.22l.07-.14c.18,0,.22-.19.33-.3-.12,0-.15.09-.24.13s0-.06-.11-.05.07,0,0,.09c-.31.07-.48.28-.84.31,0,.08-.11.06-.08.18-.11,0-.11,0-.16.08-.38,0-.47.33-.86.36-.06.13-.26.13-.33.26-.55.17-.86.59-1.47.7,0,.08-.07.1-.17.09a.43.43,0,0,1-.36.15,4.84,4.84,0,0,0,.86-.5h.15c.16-.19.45-.23.67-.35,0,0,0-.08,0-.09a2.78,2.78,0,0,0,.77-.53,7.86,7.86,0,0,0-1.34.75c-.13,0-.16.06-.25.09s.07,0,.05-.09a2.71,2.71,0,0,0-.49.22v-.09a.23.23,0,0,0,.22-.13c-.13,0-.15.11-.3.09s0,.08,0,.08-.12.09-.15,0c.31-.25.74-.38,1-.64,0,0,0,0,.07,0a1.22,1.22,0,0,1,.66-.39A12.27,12.27,0,0,0,52,54.18l-.27.13c.07-.25.38-.24.49-.44-.51.25-1,.58-1.5.81a1.44,1.44,0,0,1,.48-.28s0-.09,0-.09a6.27,6.27,0,0,0,1-.71,4.78,4.78,0,0,0-.94.62h-.12s0,.08,0,.09a3.09,3.09,0,0,0-.63.44c.08,0,.09-.09.13,0s0,.06-.09.06,0-.07-.11,0a3.74,3.74,0,0,0-.53.35c-.16,0-.22.1-.31.18-.25,0-.42.25-.63.24a.73.73,0,0,1,.35-.24c0-.09,0-.1.06-.14.37-.14.6-.41.95-.57,0,0,0-.08,0-.09a11.24,11.24,0,0,1,1.3-.79c0-.12.12-.17.26-.17s0-.13,0-.14.1,0,.16,0,.26-.34.44-.33c0,0-.06,0,0,.06a.11.11,0,0,0,.14-.08s-.09,0-.09,0a22.13,22.13,0,0,0,3.08-2.22c-.13,0-.12.21-.31.18a.51.51,0,0,1-.31.22c0,.06-.07.14-.17.13a.9.9,0,0,1-.4.26c-.06.08-.09.18-.22.18s-.05.1-.13.09S54.08,52,54,52s-.07.14-.17.13a3.06,3.06,0,0,1-.8.49.38.38,0,0,1-.26.17c-.1.19-.36.21-.51.35h-.11c0,.12-.07.12-.11.18,0-.12-.13.06-.19,0S52,53.19,52,53c.21-.07.29-.26.52-.31a5.31,5.31,0,0,1,.88-.57c0-.06.07-.14.18-.13s.07-.14.18-.13.06-.14.17-.13a.34.34,0,0,1,.27-.18,1,1,0,0,1,.39-.31c0-.12.19-.08.18-.22-.34.15-.6.38-.93.53,0,0,0,.08,0,.09-.19.06-.34.27-.55.24,0-.11.14,0,.09-.15A.87.87,0,0,1,53,52c0,.13-.16.13-.26.17,0-.13.1-.16.17-.22s0,.11.05.09,0-.05,0,0-.07,0,0-.09.18-.19.39-.18a.33.33,0,0,1,.31-.26c0-.12.08-.09.09-.18-.18.09-.28.25-.53.27,0,0,0,.08,0,.08s0,0-.07,0a23,23,0,0,1-2.24,1.36.35.35,0,0,0-.26,0,.34.34,0,0,1-.27.18.15.15,0,0,1-.06.17c0-.09-.2,0-.25-.06s.06,0,.05-.07a1.72,1.72,0,0,1-1,.48.25.25,0,0,1-.26.14,4.58,4.58,0,0,1-.69.39.36.36,0,0,0-.26.13h-.11c-.05.11-.19.13-.35.14a9.51,9.51,0,0,1-1.25.57H46a1.09,1.09,0,0,1-.44.13s0,0-.06.09-.31.13-.38,0A11,11,0,0,0,48,53.91c.14,0,.15-.07.29,0a1,1,0,0,1,.53-.31,2,2,0,0,1,.61-.35c0-.06.05-.06.07-.09h.11a7.35,7.35,0,0,1,1.27-.79c0-.12.06-.15.18-.13,0-.17.16-.23.35-.22a3.8,3.8,0,0,1,.79-.36s0-.08,0-.08c.5-.19.82-.55,1.35-.71a1.47,1.47,0,0,1,.34-.24c-.08.12-.09.22.1.22v.07c.06,0,0-.08.13-.05v.09c-.22,0-.27.21-.44.16,0,0,0,0,0-.07h-.09c0,.09.05.07.05.13s-.14.07-.13.18.13-.14.22,0c.11-.07.17-.2.35-.22v.09c-.1,0-.19,0-.22.13.27,0,.31-.3.57-.35,0-.09-.1,0-.09-.07a.28.28,0,0,0,.11-.15c.08,0,0,.06.11,0s-.07,0,0-.09.07.05.13,0c0-.2.16-.27.29-.34a.16.16,0,0,0,.08.06.28.28,0,0,0,.16-.22s0,0,0,0a3.4,3.4,0,0,1,.3-.23.17.17,0,0,0,.23.1c0-.12-.06-.19-.13-.21l0-.06a.06.06,0,0,0-.06,0H55.6v-.08h-.13c0,.08.09.09,0,.13s-.21,0-.3.13h0c0,.09-.08,0-.2.16h0l-.1,0c0,.09.12,0,.09.09s-.07-.07-.15-.05l-.41.3a0,0,0,0,0,0,0c-.13,0-.06-.12-.14-.17a.33.33,0,0,1,.12,0,7.15,7.15,0,0,1,.57-.53.73.73,0,0,1,.39-.4c0-.11.07-.14.14-.17a.94.94,0,0,1,.31-.4c.07-.21.27-.31.39-.48s.07-.14.13-.18a.79.79,0,0,1,.27-.35,2.18,2.18,0,0,1,.35-.49.13.13,0,0,1,.08-.14.39.39,0,0,0,.34.27c.22-.22.12-.3,0-.53a1,1,0,0,0-.23.09c.2-.33.41-.65.58-1-.08,0-.06.09-.13.08a.29.29,0,0,1,.17-.26c0-.19,0-.35.14-.4a.43.43,0,0,1,.21-.34s0,.09,0,.14c.33.35.82.3,1.43.24A11.22,11.22,0,0,1,60.53,44.58Zm.52-10.11c0-.12.06-.11.05-.22S61.14,34.49,61.05,34.47Zm.05.27c0-.11.07-.08,0-.18S61.17,34.75,61.1,34.74Zm0-1.56v-.07c.07,0,.07.33,0,.35s0-.19-.09-.22S61.1,33.23,61.1,33.18ZM14.3,28.71a.1.1,0,0,1-.08-.13A.11.11,0,0,1,14.3,28.71ZM17.78,23c-.05.2-.22.26-.28.44a.47.47,0,0,0-.32,0A2.81,2.81,0,0,1,17.78,23Zm-4.51,5.89.05-.07s0,0,0,0-.06.07-.08.12A.28.28,0,0,1,13.27,28.84Zm-2,3.26c0-.09,0-.29,0-.31s-.07,0,0-.11a6.83,6.83,0,0,0,.37-1.45l.15,0a4.11,4.11,0,0,1,.42-.21c-.23.47-.45,1-.68,1.44,0,.07.07,0,.05.09S11.4,31.94,11.27,32.1Zm.88,0c0-.22.17-.42.09-.61h.08A.86.86,0,0,1,12.15,32.14ZM12.81,46a3.58,3.58,0,0,1-.24-.72l0,0A2.34,2.34,0,0,1,12.81,46Zm-.13-13.07V33s-.13,0-.14-.09Zm-.31,1.5c.14.12.06.33,0,.53-.11,0,0-.2-.09-.18A3.16,3.16,0,0,0,12.37,34.43Zm-.13,1a.11.11,0,0,1-.09-.09c0-.07.07,0,0-.08S12.22,35.39,12.24,35.44Zm0-.61c.09,0,0,.24,0,.35C12.11,35.13,12.24,35,12.24,34.83ZM11.4,47.88a2.29,2.29,0,0,1,.31.67c-.05,0-.05,0-.07,0a1.71,1.71,0,0,1-.28-.45A1.17,1.17,0,0,0,11.4,47.88Zm.23,2.65c-.15,0-.26-.09-.39-.12l-.08-.09.09-.23c-.14,0-.13-.16,0-.25-.32-.13-.47-.45-.85-.53a6,6,0,0,1,.47-.38l.17.25v.11a.7.7,0,0,1,.22.31,2.13,2.13,0,0,1,.44.71l.1.11A.61.61,0,0,0,11.63,50.53Zm.28-4c-.1-.12-.11-.32-.29-.35,0,.14.1.2,0,.3h-.06a2.39,2.39,0,0,0-.11-.32,1.35,1.35,0,0,0,.34-.11c0,.07,0,.13.07.19s-.05,0,0,.07S12,46.5,11.91,46.57Zm.33,1.1c-.05-.22-.24-.3-.22-.57h.13c0,.09,0,.23.13.26a.35.35,0,0,0,0,.22A.11.11,0,0,1,12.24,47.67Zm0-1.06c-.09,0,0,.1-.07.09a1.77,1.77,0,0,1-.31-.63l.29-.16c.1.4.23.81.33,1.14A1.7,1.7,0,0,1,12.24,46.61Zm.17.49h.13a1.15,1.15,0,0,0,.18.48A1,1,0,0,1,12.41,47.1Zm.66.7c0-.11-.06-.07-.09-.11-.05-.32-.32-.42-.35-.77a6.6,6.6,0,0,1-.39-.9v-.16h0a3.4,3.4,0,0,0,.3-.21.19.19,0,0,1,0-.08,0,0,0,0,1,0,0,.29.29,0,0,0,.05.22c-.07,0,0-.08-.09-.05s0,.07-.09.05A6.53,6.53,0,0,0,12.76,47c.06,0,.06,0,.09.07.05.28.28.52.29.77Zm.6-17.07c-.14,0-.05-.14,0-.17S13.69,30.72,13.67,30.73Zm.1-.21c-.08,0,0-.14-.13-.09,0-.26.11-.37.13-.57.09,0,0,.09.07.08s0-.09,0-.13H14C13.92,30.07,13.79,30.23,13.77,30.52Zm3-4.45c0-.08.11-.06.08-.17s0-.07.09,0S16.86,26,16.77,26.07Zm.35-.61c0-.1.07-.08,0-.18h.09C17.21,25.34,17.21,25.44,17.12,25.46Zm3.52,30.25c0,.06,0,.17.08.22-.18-.14-.5-.14-.57-.39a1,1,0,0,1,.4.22C20.62,55.79,20.56,55.69,20.64,55.71Zm-.84-1.36c-.1-.06-.22-.1-.32-.17l-.05,0a.57.57,0,0,1-.16-.15A1.81,1.81,0,0,1,19.8,54.35ZM17.87,24.49s.11,0,.08,0,0,.16-.08.13Zm0,29h-.07l-.05,0s.06,0,.09,0-.15-.14-.17-.26c.06.08.22.07.22.22h0Zm.5.52c-.05-.15-.25-.16-.31-.3.1,0,.07.07.18,0s-.08-.1-.18-.09a.15.15,0,0,0-.1-.15l.07-.11h0c.05.14.24.14.26.31h.18c0,.12.21,0,.18.22a.71.71,0,0,1,.39.26c.07,0,0-.07.09,0s0,0,0,0-.07,0,0,.11l.08.05h0l.32.22.06-.14c.09.07.23.07.27.18s0-.07.09,0c.11.2.34.3.48.48a1,1,0,0,1-.57-.26c-.4,0-.55-.22-.88-.27-.12-.13-.31-.19-.4-.35h.09v-.09c-.09,0-.07,0-.13,0s-.09-.12-.13-.18S18.42,54.07,18.35,54Zm1.58,1.67a.19.19,0,0,1-.17-.08h.13C19.86,55.7,20,55.64,19.93,55.71Zm.66.66v-.08c-.09,0-.07,0-.13,0s-.08.07-.18,0a3.22,3.22,0,0,0-.74-.44,1.41,1.41,0,0,0-.44-.27c0-.06-.07-.14-.18-.13-.1-.16-.33-.2-.44-.35.14,0,.34,0,.35.22H19c.19.19.5.26.7.44.27,0,.3.23.57.22-.07-.1-.22-.13-.3-.22.17.05.41,0,.44.22h-.14a1.3,1.3,0,0,0,.44.22c0,.12.06.12.05.22S20.69,56.35,20.59,56.37Zm.18-.39c0-.09.05-.07,0-.13s.05.09.09.13Zm11.48,5.54c-.2,0-.22-.11-.4-.09v-.09A.87.87,0,0,1,32.25,61.52Zm-4.67-47.8c.22,0,.2-.19.4-.18-.19.13-.36.28-.57.4C27.44,13.83,27.55,13.82,27.58,13.72Zm-1,1.09c.11,0,0,.15,0,.14S26.58,14.88,26.57,14.81Zm0,1.5c0,.06-.07.14-.18.13S26.47,16.35,26.53,16.31Zm-.31-2.24c.12,0,0,.16-.09.17S26.22,14.15,26.22,14.07Zm-.44.79a.1.1,0,0,1-.13.09C25.67,14.89,25.7,14.85,25.78,14.86Zm-.17,2.64v.09h-.09v.06c.05.06.15,0,.13-.11h.09v.09c-.11,0-.14.07-.18.13s0,0-.06,0,.05,0,0,.09h-.2c-.05.09-.1.19-.22.21a.15.15,0,0,1-.26.09s0,.06,0,.09,0-.07.09,0a.11.11,0,0,1-.13.13.24.24,0,0,1-.22.22c0,.1-.07.07,0,.18-.14,0-.12.11-.22.13s-.08-.08-.05-.18h-.06c-.06,0,0,.12-.07.09s.07.08,0,.17a.76.76,0,0,1-.39.22c0-.06.07,0,0-.13s-.11.1-.22.09c.06-.13,0-.17,0-.26s.24-.08.28,0a.37.37,0,0,0,.16-.29s-.09,0-.09-.11.36-.07.35-.31c.08,0,.24,0,.22-.13a.11.11,0,0,1,.09.09c-.1,0-.12.14-.22.18s-.06.17,0,.3.11-.08.15,0,0-.18.07-.22.06.07.15.05.09-.05.07-.13-.05.07-.14,0c.09-.09,0-.12,0-.18s.08,0,.11.05a2,2,0,0,0,.24-.27c.05,0,0,.05.07.05A3.62,3.62,0,0,1,25.61,17.5Zm-1.1,1.32c0-.11.06-.14.13-.18v.09h-.07C24.51,18.72,24.59,18.85,24.51,18.82ZM24,25.19v-.08c.19,0,.2-.19.35-.22C24.32,25.06,24.16,25.11,24,25.19Zm.31.09a.54.54,0,0,1-.35.27C24.11,25.47,24.16,25.31,24.33,25.28Zm0-.13c.12,0,.1-.08.18-.09a.39.39,0,0,1-.18.18Zm.31-7.48c.07-.08.16-.27.31-.19C24.91,17.57,24.85,17.68,24.68,17.67Zm.57-.39v-.13c.07,0,.05.07.13,0S25.34,17.29,25.25,17.28Zm-.48-1.85c.1.1.18-.08.18-.22a.83.83,0,0,0,.3-.18c.07,0,.05.08.13.05,0,.17-.22.22-.35.31s.07,0,0,.08-.13.08-.27,0C24.84,15.45,24.74,15.5,24.77,15.43ZM24.64,17c0,.07-.07.07-.09.11.34.05.45-.34.75-.41,0,.26-.31.22-.35.44h-.14v.08c.08,0,.18-.05.22-.13v.13c-.17.08-.28,0-.46.05s0,.1-.06.11.06,0,0,.11-.19,0-.31,0,.12,0,.09.09a2.8,2.8,0,0,0-.51.18s0,.05,0,.08-.2.09-.31.13.06-.2.18-.21-.07,0,0-.09c-.2.07-.35.18-.53.26v-.09c.18,0,.25-.19.35-.3a.52.52,0,0,0,.35-.27c.11,0,.14-.07.18-.13s.07-.06.15,0,0-.06,0-.09C24.36,17.1,24.47,16.88,24.64,17Zm-.71-.35q0-.11.18-.09C24.1,16.65,24,16.67,23.93,16.66Zm.22.13H24v-.08A.09.09,0,0,1,24.15,16.79Zm-.13.09a.58.58,0,0,1-.22.22C23.8,17,24,17,24,16.88Zm-.17-.09c-.05,0-.16,0-.14,0a.23.23,0,0,0,.18,0C23.92,16.78,23.82,16.72,23.85,16.79Zm0-.74C24,16.08,24,16,24,16a1,1,0,0,1-.35.31C23.72,16.2,23.84,16.16,23.89,16.05Zm.35.13c-.2.15-.33.37-.61.44A1.52,1.52,0,0,1,24.24,16.18Zm-.88.88c.09,0,.07.12.2.09s.07,0,.07-.09,0,.07.13,0a.49.49,0,0,1-.27.22v-.09c-.07,0-.08,0-.11,0a.43.43,0,0,1-.19.13c0,.07.07,0,0,.09l.18-.09v.13c-.16,0-.17.16-.31.18,0-.07-.07,0-.05-.09s.12-.06.09-.17a.09.09,0,0,0-.09.08h-.13C23,17.27,23.29,17.26,23.36,17.06Zm-.61,1.14c.13,0,.12-.12.22-.13s-.08,0,0,.13-.09.09-.17.09Zm-.05.7h.09c0,.11-.07.14-.13.18S22.73,19,22.7,18.9Zm-.35.36v.08c-.09,0-.07.05-.13.05A.21.21,0,0,1,22.35,19.26Zm-.75,1.36c-.08.09-.12.23-.3.22A.49.49,0,0,1,21.6,20.62Zm0,6.6c-.1,0-.12,0-.18,0s.12-.06.09-.17.16.09.13-.05h.09C21.65,27,21.56,27.08,21.56,27.22Zm.13-.53c0-.09.11-.13.09-.27.12,0,.07-.11.17-.1-.13-.12.12-.18.18-.25s-.07,0,0-.08,0-.08.13,0v-.13c.08,0,.16,0,.13-.09s.11,0,.09,0,0,0,.13,0c0,.16-.2.19-.31.28s.1,0,.13,0a.1.1,0,0,1-.08.08c-.07,0,0-.07-.14,0s.08,0,0,.09-.1.17-.27.13C22,26.41,21.78,26.56,21.69,26.69ZM22,20.31v-.09c.1,0,.08-.07.18,0A.75.75,0,0,1,22,20.31Zm.4,6.69c.09,0,.07-.05.13-.05s-.11.15-.22.18S22.49,27.12,22.44,27Zm-.22.57a.18.18,0,0,1-.22.13c-.05-.25.15-.26.17-.44.09,0,0,.19.09.22h-.09C22.15,27.55,22.25,27.5,22.22,27.57Zm-.22.57h-.13c0-.11.06-.14.17-.13S22,28.05,22,28.14Zm.13,0a.36.36,0,0,0,0-.22c.06-.06.11-.19.22-.08C22.22,28,22.23,28.12,22.13,28.18Zm.26.44c-.07,0-.1,0-.08-.08h.08Zm.18-.22c.07-.07,0-.09,0-.12a.21.21,0,0,0,.13,0s.08,0,.08.1S22.67,28.43,22.57,28.4Zm.13-.17v-.05h.09C22.81,28.25,22.75,28.23,22.7,28.23Zm.14-8.53c-.05,0,0-.05-.07-.05s0,.06,0,.09c-.29,0-.42.23-.66.31,0-.06.07,0,0-.13S22.07,20,22,20s.13-.08,0-.17,0,0,.07,0l.06-.13c.24-.08.24-.39.51-.44,0,0,0-.05,0-.09h.2a.62.62,0,0,1,.15-.2c0-.08-.06,0,0-.11a.79.79,0,0,1,.48-.39c.06.09.24.06.27.18h-.24c0,.13-.17.16-.25.24s.06,0,.09,0-.07.09,0,.17c-.12,0-.11.06-.22.05s-.07.14-.13.17-.05.13,0,.22S22.8,19.54,22.84,19.7Zm.26,7.91c-.11,0-.14.07-.22.09s.07,0,0-.13c.19-.06.25-.25.44-.31,0,.14-.13.1-.09.26S23.06,27.48,23.1,27.61Zm.09,23.79v-.08a1.64,1.64,0,0,1,.3.14A1.59,1.59,0,0,0,23.19,51.4Zm.44-24.67v.13c-.06,0-.08.07-.18.05.11-.08.1-.29.31-.27C23.74,26.7,23.71,26.74,23.63,26.73Zm0-.74c-.09,0-.07,0-.14,0,.11-.12.18-.27.36-.31,0-.09,0-.14.13-.13C23.94,25.8,23.68,25.79,23.63,26Zm.39.61H23.8c0-.16.16-.13.27-.18S24,26.55,24,26.6Zm.33-.22c-.1-.06-.12,0-.24,0v-.09c.07.08.15,0,.31,0C24.42,26.35,24.37,26.35,24.35,26.38Zm.6-.13a.11.11,0,0,1-.09-.09s.11,0,.09,0S25,26.21,25,26.25Zm.35,2.63h-.05a.2.2,0,0,0,0-.08h.09Zm.13-.23-.09.06v-.09c.06,0,.08,0,.1,0S25.43,28.63,25.43,28.65Zm0-2.66a.44.44,0,0,0-.29,0c0-.07.1-.1.13-.15-.14-.08-.18.13-.39.06,0,.09.14,0,.09.14s-.22,0-.18.13h-.18c0-.1.08-.08.05-.18-.08.08-.08,0-.22,0s.07,0,0-.09,0,.08.11,0,0,0,.07,0-.07,0-.05-.08.22,0,.18-.09c.14,0,.14-.07.22-.09s-.2.13-.26.24c.15.09.19-.13.26-.2a.36.36,0,0,0,.31-.17h.17c0,.08-.12.08-.09.22h-.17c0,.08.12,0,.17,0a.66.66,0,0,1-.17.16s.08,0,.11,0,0-.06,0-.09.13-.06.27,0C25.56,25.86,25.47,25.91,25.41,26Zm-.82-1c0-.11.17,0,.14-.18h.08C24.76,24.92,24.72,25,24.59,25Zm.93.66c0-.09-.05-.07-.05-.13s.05.07.14,0A.11.11,0,0,1,25.52,25.68Zm.66-.05c-.23,0-.29.22-.49.27v-.09c.16,0,.14-.13.27-.13,0-.1.06-.07,0-.16s-.16.11-.26.11.06-.06.09-.11-.06,0-.09,0a.12.12,0,0,0,0-.17H26c0-.07-.05,0-.09,0a.43.43,0,0,1,.31-.17c0,.07-.08.1-.18.08v.09c.2-.11.32,0,.4.18C26.29,25.48,26.19,25.52,26.18,25.63Zm.39-.35h-.22c0-.07.09-.05.09-.13s.06,0,.13,0Zm-.06-1.71a2.61,2.61,0,0,1-.9.61c0,.15-.13.17-.23.22s.15-.07.18-.15-.24.13-.35.17.09,0,.13,0-.05.07,0,.13-.16,0-.13,0c-.24-.11-.37.23-.62.26,0-.06.05,0,.09,0v-.09c-.09,0-.06.12-.18.09a.32.32,0,0,1,.33-.18c0-.1.14-.05.11-.17.16,0,.16-.14.31-.14s-.07,0,0-.08.3-.08.35-.22.13,0,.15,0a.46.46,0,0,0,.07-.07s0,0,0-.06,0,0,0,0a3.09,3.09,0,0,0,.75-.48h.17C26.65,23.54,26.6,23.58,26.51,23.57Zm.24-8.93c.1,0,.07-.07.17-.05-.05.08-.09.18-.22.18S26.78,14.73,26.75,14.64Zm0,10.47c0-.08.09-.06.09-.14S26.84,25.14,26.75,25.11Zm0-1.5c0-.06.05-.1.13-.09S26.88,23.62,26.79,23.61ZM27.58,15c-.07.23-.34.27-.44.48-.1,0-.13.07-.22.09v-.13c.18,0,.14-.19.31-.18s-.07,0,0-.09a1.24,1.24,0,0,0,.48-.39s0,0,.07,0,.11-.22.28-.22A.73.73,0,0,1,27.58,15ZM29,13.8a2.38,2.38,0,0,0-.66.44v.13c-.15,0-.11.16-.26.14,0-.1.14-.08.17-.16-.29-.06-.46.18-.74.2v-.13c.08,0,.09,0,.13-.07s-.16,0-.13-.06-.05.07-.14,0a.51.51,0,0,1,.31-.22v.09h.07c0-.1.12-.1.11-.22s.15-.11.26-.13v.09c.07,0,0-.08.09,0s-.07,0,0-.09,0-.07.08,0-.07,0,0-.09c.18,0,.22-.19.44-.17a.22.22,0,0,1-.22.08v.09c.07,0,0-.07.09,0s-.07,0-.05.09,0-.08-.13-.05.09.1.2.09,0-.06,0-.09h.13c0,.06-.07,0,0,.13h-.13c.17.14.31-.12.48-.13Zm1.41-1.14c-.15,0-.22.11-.42.09s-.05.16-.15.17c.06.08,0,.11,0,.2l.13.07c0,.05-.05.05-.07.09s-.05,0-.08,0,0,.06-.11,0,.12,0,.08.08-.13,0-.15,0,.05,0,0,.09c-.23-.12-.39.08-.57.15.12.08.18-.08.31-.06v.08c-.19,0-.21.09-.35.09s0,0,0-.06-.32.2-.4,0a.55.55,0,0,0,.58-.26c.29,0,.28-.24.52-.26,0-.06-.05-.06-.06-.09s-.11.07-.22,0,0,.06,0,.09-.14.07-.27,0c.08-.05.12-.14.27-.13v-.13c.21-.09.32-.28.63-.26.15-.28.53-.31.82-.44a1.21,1.21,0,0,1-.58.35C30.32,12.62,30.4,12.6,30.4,12.66Zm.53-.13c0,.06-.05.1-.13.09S30.84,12.52,30.93,12.53Zm-.27,48.95a1.1,1.1,0,0,1,.49.22A1.11,1.11,0,0,1,30.66,61.48ZM31,12.18a2.8,2.8,0,0,0,.25-.22c.13,0,.39,0,.41-.22a.11.11,0,0,0,.14-.09H32C31.65,11.81,31.48,12.14,31,12.18Zm.8,49.16h-.14v-.08S31.8,61.28,31.81,61.34Zm.08.49a.31.31,0,0,1-.39-.09c.08,0,.18,0,.2,0s.12.06.24,0c.16.15.45.16.57.35C32.37,61.94,32,62.05,31.89,61.83Zm.53-.18c0-.07-.07,0,0-.09a7.54,7.54,0,0,0,.88.27C33,61.93,32.73,61.65,32.42,61.65Zm1.81,1.15c-.25,0-.29-.14-.53-.09C33.84,62.6,34.11,62.73,34.23,62.8Zm.3-1.76c0-.09.12,0,.18,0S34.59,61,34.53,61Zm9.19-5.33c-.13.16-.4.17-.6.26,0,0,0-.1-.14,0s0,.08-.07.12a1.33,1.33,0,0,0-.55.19c-.08,0-.18,0-.2,0-.19,0-.23.08-.37.08v-.13a6.64,6.64,0,0,1,1.58-.48c0,.05,0,0,0,.07S43.57,55.71,43.72,55.71Zm-1.84.14c0-.09.12,0,.17-.05S41.93,55.83,41.88,55.85Zm.75-.66s.18,0,.17,0-.17.07-.31.05S42.66,55.29,42.63,55.19Zm-.36.09a.1.1,0,0,1-.13.08S42.19,55.26,42.27,55.28Zm-.13-.49c0,.07-.07,0,0,.09a3.35,3.35,0,0,0-.75.13C41.5,54.83,41.83,54.82,42.14,54.79Zm-1.71.31s0,0,0,0,.07,0,.13,0-.05.07,0,.13,0-.07-.13,0Zm-.27,1c0,.08-.12,0-.17,0S40.11,56.08,40.16,56.07ZM39.33,56c.08.07.06,0,.17,0s-.09.08-.17.09Zm-.27.22c0-.07.14-.07.22-.09A.2.2,0,0,1,39.06,56.2Zm.27.44v-.09h.22C39.51,56.62,39.44,56.64,39.33,56.64Zm.17-.4c0-.07.07,0,0-.08s.12,0,.13.08Zm.22,0v-.13c.06,0,.1,0,.09.13Zm.59.23a1.17,1.17,0,0,0-.05.11h-.14v-.09h.17V56.4s-.12,0-.17,0,.23,0,.31-.08-.1,0-.09.06.26,0,.28.07,0-.13.11-.09v-.07c-.09-.08-.14.07-.26,0s.13-.06.18-.11c-.17-.06-.52.12-.66,0,.19,0,.42-.05.61-.09,0-.06-.11,0-.11-.13s0,.05,0,.09h-.22c0-.12.27,0,.26-.2s-.15,0-.17-.11c.14,0,.22-.07.39,0,0,.07-.07,0,0,.14H40.6s0,0,.07.08.27,0,.24-.22c.11.1.31,0,.4,0,0,.11-.07.07-.09.11.23.08.4-.08.57-.13,0,0-.15,0-.15-.07,0,.09-.17.09-.25.13,0-.12-.07-.14-.19-.13s0,.06,0,.09h-.3v-.09a.9.9,0,0,0,.39-.08c.09.06.29,0,.4-.09s0,.08,0,.11,0,0,0,.06.1,0,.13.05c.1-.12.4,0,.44-.22a.7.7,0,0,0,.4-.09v.09c-.22,0-.2.14-.42.09,0,0,0,0,0,.08a.46.46,0,0,0-.31.07c0,.06.16,0,.13.06s-.18.12-.35.09c0,.08.15,0,0,.11s.15,0,.22,0a.2.2,0,0,1-.22.09c0-.13-.09-.08-.17-.09s.09,0,.08-.06a4.41,4.41,0,0,0-.92.15c.14.08.43-.06.62-.09a.11.11,0,0,1,.08.09,1.44,1.44,0,0,1-.44,0v.09c.08,0,0-.08.09,0a.11.11,0,0,1-.09.09c-.06,0,0-.05,0-.09s-.08,0-.22,0,.09,0,.13,0,0,.08,0,.13c.15-.12.47,0,.55-.22h.31c0,.07.09,0,.09.13a.17.17,0,0,0-.18.06c0,.05.1,0,.14,0s0,.05,0,.13a1.87,1.87,0,0,1-.49,0c0-.06.07-.06.09-.11l-.07-.06c0,.06-.07.08-.06.17s-.12,0-.18,0-.07-.14-.09-.22,0,.07-.08,0,.09.06.08.13,0,0,0,0-.14,0-.23,0a.19.19,0,0,0,0-.08C40.54,56.48,40.5,56.32,40.31,56.43ZM42,60.33s.22-.14.26,0S42.05,60.31,42,60.33Zm.87-.39a1,1,0,0,1,.44-.14C43.19,59.91,43,59.92,42.84,59.94Zm.4-1.76c-.19.06-.4.1-.57.17,0-.09-.15,0-.22,0s.16,0,.13.09-.13,0-.15,0a.44.44,0,0,1-.44,0c-.07.15-.34.1-.4.26-.2-.11-.53.2-.77.05a2.49,2.49,0,0,0,.77-.18s0-.06,0-.09c.2,0,.27-.12.51-.09.05,0,0-.09,0-.13a2.7,2.7,0,0,0,.79-.22.29.29,0,0,0,.4,0C43.32,58.09,43.21,58.06,43.24,58.18Zm.53.88c-.1-.1-.18,0-.35,0s.07,0,0-.09c.23.11.51-.21.75-.09C44.16,59,43.87,59,43.77,59.06Zm.7,1.19v-.09c.06,0,.16,0,.18,0S44.54,60.23,44.47,60.25Zm7.3-3.88c0-.17.34-.1.35-.3.21,0,.29-.15.44-.22A2.31,2.31,0,0,1,51.77,56.37Zm.66-.83a.25.25,0,0,1-.22,0C52.23,55.48,52.4,55.38,52.43,55.54Zm-.31.13c0,.14-.22.13-.26.26h-.18A.66.66,0,0,1,52.12,55.67ZM49,55.54v.09c-.07,0-.1,0-.09-.09Zm-.31,1.1v-.09h.14A.11.11,0,0,1,48.69,56.64Zm.05-1h.13c-.13.13-.36.16-.53.26C48.37,55.7,48.67,55.78,48.74,55.63ZM51.42,10s0,0,0,0l.17.08Zm3.39,40.37a.77.77,0,0,1-.22.22A.58.58,0,0,1,54.81,50.35ZM55.91,41c0-.06-.08,0,0-.13H56V41c-.09,0-.12,0-.17,0S55.82,41,55.91,41Zm-.44-.66s.11,0,.08,0,.16,0,.14,0h-.14c.06,0,.05.16.05.27s-.12,0-.18,0a1.36,1.36,0,0,1,.13-.24C55.56,40.33,55.43,40.41,55.47,40.32Zm-.18,1.06v.09c-.08,0-.1,0-.09-.09Zm-.17,1.76c-.21,0-.14.27-.31.3,0,0,.07-.13.13-.17s-.07,0,0-.09H55v-.06s-.12,0-.17,0a.55.55,0,0,1,.13-.17c0-.07-.07,0,0-.09s0,0,0,0a.1.1,0,0,1,.13.08A.11.11,0,0,0,55,43c.09,0,.07,0,.14,0s-.08,0,0,.09,0-.07.09,0S55.11,43.07,55.12,43.14Zm.17.66Zm.31.52a.05.05,0,0,1,0,0v0h0Zm-.05-2.22c0,.09.07,0,.05.11a1,1,0,0,0-.18.4c-.18,0-.11.27-.3.26,0-.13-.12-.08-.09-.22h.13c0-.1-.07-.07,0-.17s.11,0,.19,0,.07-.29.2-.35,0-.22.09-.26-.08,0-.05-.14.11,0,.09,0,0,.07.09,0A.88.88,0,0,1,55.55,42.1Zm-.22-.19a.11.11,0,0,1,.14-.09c0,.11,0,.21-.09.22S55.5,41.9,55.33,41.91Zm.4-.22a.25.25,0,0,0-.22,0c-.06-.07-.06-.2-.13-.26.09-.06-.08-.17,0-.25s-.09,0-.13,0,.08,0,0-.13c.2,0,.11-.19.31-.13,0,.1,0,.25,0,.28s.15,0,.13-.11.22,0,.22,0c-.17-.06-.14.09-.26.09s.07,0,0,.08-.14-.1-.22,0,.09,0,.13,0v.14s-.13-.09-.17,0,.18,0,.13.16c.06,0,.1-.05.09-.13h.13C55.85,41.6,55.75,41.6,55.73,41.69Zm.18,1.36v.13c-.07,0,0,.08-.13,0S55.85,43.09,55.91,43.05Zm0,1c-.07,0,0,0-.09-.05s0,0,0,0l0,0v0H56S56,44,55.93,44Zm.17-.21-.06.07v-.13h.06Zm1.1-30a.1.1,0,0,1,0,.05l-.09-.07C57.13,13.74,57.2,13.72,57.2,13.77Zm-.66,29.4a.35.35,0,0,0,0-.13.4.4,0,0,1,.17-.17h0a.3.3,0,0,0,0,.1Zm.29.23A2,2,0,0,1,57,43l.14-.12A3.2,3.2,0,0,1,56.83,43.4Zm.35-2.1a.21.21,0,0,0-.08.06c0-.09,0-.24.08-.33S57.19,41.19,57.18,41.3Zm0-.45c-.09,0-.1.07,0,.13s-.13,0-.13,0,0-.07.09-.07c-.14-.18.1-.5,0-.66.09,0,0-.13.06-.13s.08.24,0,.24S57.18,40.63,57.23,40.85Zm1.61.08a.54.54,0,0,0,0-.1h0a.38.38,0,0,1,.12-.16A1.67,1.67,0,0,1,58.84,40.93Zm0-1.07,0,0v0Zm.3-.51H59c0,.08.07,0,0,.09s-.08.1-.18.09c0-.22.08-.4.27-.44Zm.17.71a.45.45,0,0,0,.1-.09l0,.16a.18.18,0,0,0-.07-.05h0Zm.09.92s0,0,0,0,0,.16,0,.17Zm.13-1.32h-.13c0,.07.07,0,0,.09h0l-.06,0s0-.1-.05-.08.07-.08.05-.18h.08v.13c.07,0,0-.07.14,0S59.51,39.6,59.51,39.66Zm.09-.22c-.09,0-.09-.13-.18,0s-.07,0,0-.13c.08.07.06,0,.18,0v-.11s-.06,0-.09,0,.16-.14.17-.27h.09C59.69,39.06,59.65,39.26,59.6,39.44Zm-.22-.35v-.18h.09C59.48,39,59.46,39.08,59.38,39.09Zm.22-.57c.09-.06.06-.23.18-.26C59.73,38.36,59.76,38.53,59.6,38.52Zm.09.31v-.22s.11,0,.09,0S59.73,38.78,59.69,38.83Zm.13-.66V38c-.08,0-.07.09-.11.13s-.09,0-.11-.08.11-.13.09-.27.16,0,.17,0-.13,0-.08.14.09,0,.13,0A.2.2,0,0,1,59.82,38.17Zm.13,1c-.08,0,0-.13,0-.18S60.05,39.12,60,39.14Zm.49-2.73c.08.13-.09.3-.22.35v.07c0,.05.12,0,.08.06s-.1,0-.08.09c-.09-.09-.15,0-.22,0s0-.08,0-.08,0,.19-.06.17c.08.08,0,.13,0,.22-.09,0-.11.13-.22.16s.13,0,.18,0v.09c-.1,0-.22,0-.24-.14s0,.08,0,.11.14,0,.14.11c-.09-.08-.12,0-.22,0a.91.91,0,0,0,0-.35h.13c0-.1-.07-.07,0-.17h.13c-.08-.15,0-.28,0-.44.11,0,.08-.08.18,0-.09-.08,0-.21,0-.31s0,0,0,.09h.07c.06,0,0-.12.07-.09s0,.13,0,.14,0-.22,0-.31,0,.08,0,.13.19-.11.31-.13C60.61,36.32,60.51,36.35,60.44,36.41Zm-.09-3.83a.28.28,0,0,1-.22-.31s0,0,0,0,0,.07.13,0A.69.69,0,0,0,60.35,32.58Zm-.05,3.3h.09v.18c-.06,0,0-.08-.13-.05S60.34,36,60.3,35.88Zm0-3.25c.1,0,.14,0,.14.13S60.3,32.72,60.3,32.63Zm.22,3.21c0-.09,0-.07,0-.14S60.58,35.85,60.52,35.84Zm0-3.43v-.14a.11.11,0,0,1,.09.14Zm.09.35c0-.12-.06-.12,0-.22s.06.2.13.26S60.68,32.73,60.61,32.76Zm.22.48c-.13-.05-.14-.21-.13-.39.06,0,0,0,.09.06S60.86,33.06,60.83,33.24Zm.05-.53c.08-.08,0-.14,0-.26a.17.17,0,0,0,.06.06.88.88,0,0,1,0,.29C60.87,32.84,61,32.68,60.88,32.71ZM61,32.2a.32.32,0,0,0-.17-.28.82.82,0,0,1,0,.49c0-.32-.22-.48-.16-.75h.07c0,.08,0,.14.09.17-.08-.13,0-.19,0-.3.08,0,0-.15.09-.18a.11.11,0,0,1-.06-.18h.06l0,.1a.11.11,0,0,0,0,.05h0a1.63,1.63,0,0,1,.18.78Zm.75-1.51c-.07.14,0,.22.13.31s-.08.14,0,.22c-.23,0-.17-.36-.26-.53Zm-.17,0v.09q-.12,0-.09-.09Zm-.9-1c-.1.14.13.26.15.3.1-.16.31-.28.35-.39l0,0s0-.07,0-.08h0c.1.07.12.2.19.28-.09,0,0,.2-.06.25s0-.13-.11-.14c0,.18.05.22.17.25s-.09.1-.11.19c0-.1-.14-.1-.24-.13a.7.7,0,0,1,.09.4h.09s-.08-.21,0-.27a.13.13,0,0,0,.11.11c0,.09-.08.05,0,.14s.11.18.22.22-.07.08,0,.19.13,0,.13,0,0,.15,0,.16,0-.06-.07,0-.07,0,0,.09.13,0,.13,0-.07,0,0,.14,0,.07.08.06,0-.08,0-.09a.57.57,0,0,1,.15.36h.09c0-.16-.1-.33-.07-.44,0,.07.13,0,.16.06s0,.14,0,.22-.06.22-.18.24a.17.17,0,0,1,0,.19.4.4,0,0,0-.26-.12v-.15c-.06.05-.1,0-.13-.05H61.4v.13a.11.11,0,0,1,.08.07.82.82,0,0,0-.34.14c0-.15-.08-.28,0-.38s.05.09.11.09a1,1,0,0,1-.09-.49l-.06-.09a.43.43,0,0,0,0-.07.16.16,0,0,0-.1,0A.61.61,0,0,1,61,31c.06,0,.11,0,.09-.07a.35.35,0,0,1-.16-.42c.05.12.13.17.07.31h.13a3.62,3.62,0,0,1-.13-.35c-.34,0-.33-.44-.48-.67Zm-.12,2.4a1.09,1.09,0,0,1-.22-.57h.09C60.38,31.77,60.52,31.87,60.52,32.1Zm-.39-2.24c0,.11,0,.15.13.13a.25.25,0,0,1,0,.22c-.06,0,0-.08-.13-.05s.08,0,0-.11-.09,0-.14,0,0-.14-.13-.14S60.06,29.79,60.13,29.86ZM60,30.6v.18c-.1,0-.1-.11-.09-.22S59.93,30.63,60,30.6Zm-.13-.92.13,0a.08.08,0,0,0,0,.05c-.09,0-.07-.05-.14-.05A.06.06,0,0,0,59.87,29.68ZM60,32.45c0,.1,0,.12,0,.18H60c0-.12-.09-.09-.13-.14s.07,0,0-.08S59.91,32.48,60,32.45Zm-.27-9.68c0,.14.07.28.12.41h-.06l-.15-.42Zm0,13.68c.15,0,.11-.15.26-.13a1.58,1.58,0,0,0-.09.26H59.6C59.59,36.5,59.74,36.58,59.69,36.45Zm-.2.4s0-.11,0-.17h0c.1,0,.13.08.17,0s.05,0,.09.06-.08.06-.05.16,0-.05,0-.09H59.6a.41.41,0,0,1-.11.5,1,1,0,0,1,0-.43A0,0,0,0,0,59.49,36.85Zm-.24-7.39c.08,0,.11.09.22.09v.22c-.17,0-.16-.11-.26-.13S59.23,29.51,59.25,29.46Zm0,11.87c0-.07-.07,0,0-.08s.07-.1.17-.09c-.06.12-.12.26-.17.39a.1.1,0,0,1-.09-.08C59.31,41.53,59.19,41.32,59.29,41.33ZM59,38.7c.1,0,.07.07.17,0s-.11.06-.09.17S59,38.8,59,38.7Zm0,.35a.12.12,0,0,1-.09.13v-.13Zm-.18-.62h.09c0,.09,0,.12-.09.13Zm.13,1.14c0,.11-.07.08,0,.18s0,0,0-.09h0v0c-.07,0,0,.07-.09,0A.1.1,0,0,1,58.94,39.57Zm-.17.6h0s0,0,0,0a.29.29,0,0,0,0,.09h-.09Zm-.49-1.56.11,0a.35.35,0,0,1-.11.13Zm.13.09c.07,0,0,.07.09,0-.07.15-.07.37-.18.48a.25.25,0,0,0,0-.22A.4.4,0,0,0,58.41,38.7Zm-.68.39.05-.05,0,0a.08.08,0,0,0,.11,0v.14H58s0-.16.11-.18a.29.29,0,0,1,0,.22h-.22v.22h-.13A.94.94,0,0,1,57.73,39.09Zm.38.4c0,.08,0,.11-.09.13v-.13Zm-.4.13c0-.06.07-.08,0-.18s.15.06.14.18a.1.1,0,0,0-.09.13C57.73,39.74,57.75,39.65,57.71,39.62Zm.09.57c0,.1,0,.16-.09.18v-.22C57.78,40.12,57.73,40.22,57.8,40.19Zm-.18.75c0-.14.08-.16.05-.31C57.77,40.68,57.7,40.92,57.62,40.94Zm.09,2.2c0-.22.16-.29.13-.53.07,0,0,.07.09,0A.67.67,0,0,1,57.71,43.14Zm.18-1.37c.07,0,0-.09.13-.08s-.07.08-.05.17A.1.1,0,0,1,57.89,41.77ZM58.11,45s-.07,0,0-.06a1,1,0,0,1,.08-.14Zm0-2.61H58c0-.17.12-.26.17-.39C58.32,42.15,58.11,42.3,58.11,42.43Zm.48-.83h-.13c.12.19-.06.23-.09.39h-.09c0-.07.07,0,0-.08s0,.07-.08,0v-.13c.07,0,0,.07.08,0s-.07,0,0-.13.07,0,.13,0,0-.22.09-.22a.26.26,0,0,1,0-.16.28.28,0,0,0,.22-.08,1.4,1.4,0,0,0-.06.24C58.62,41.48,58.58,41.51,58.59,41.6Z"/><path d="M60.94,44.25c.45-.29.11-.55,0-.73C60.47,43.6,60.68,44.32,60.94,44.25Z"/><path d="M61.61,43.74c0,.13.07.24.24.13S61.82,43.57,61.61,43.74Z"/><path d="M61.35,43.93c0,.12.08.18.22.09C61.55,43.89,61.49,43.84,61.35,43.93Z"/><path d="M59.09,45.89c-.28.12-.26.33-.08.35,0-.15.17,0,.21-.16A.24.24,0,0,0,59.09,45.89Z"/><path d="M59.51,46.19c-.14.06-.15.15-.18.24s.08.13.21,0,0-.08.09-.11A.18.18,0,0,0,59.51,46.19Z"/><path d="M62.83,39.56l.17-.08c0-.16,0-.17-.09-.27C62.65,39.29,62.7,39.53,62.83,39.56Z"/><path d="M61.7,38.84l.27-.15c-.09-.18,0-.3-.13-.39-.23.13-.27.07-.37.25h0c-.06,0-.14-.09-.16,0s.15.11.13.27c-.12,0-.19,0-.18.13s.15-.16.27-.05a.52.52,0,0,0,.05-.23A.25.25,0,0,1,61.7,38.84Z"/><path d="M60.22,40c0,.08,0,.13,0,.2s.14,0,.23-.07S60.34,40,60.22,40Z"/></g></g></svg>