<svg xmlns="http://www.w3.org/2000/svg" viewBox="0 0 70.1 56.3"><title>资源 8</title><g id="图层_2" data-name="图层 2"><g id="央铋_1" data-name="央铋 1"><path d="M4.08,12.81a.17.17,0,0,0,.21-.14A.17.17,0,0,0,4.08,12.81Z"/><path d="M.81,20.61c-.13-.06-.13.21-.21.3C.74,21,.74,20.7.81,20.61Z"/><path d="M4.85,12.46c-.1,0-.14.11-.21.13l.13.06A1.54,1.54,0,0,1,4.85,12.46Z"/><path d="M3.05,16.83c.17.06.22-.16.3-.33l-.13-.06C3.12,16.68,3.21,16.66,3.05,16.83Z"/><path d="M3.68,16.11c-.19-.1-.28.1-.36.3A.73.73,0,0,0,3.68,16.11Z"/><path d="M3.83,15.94c.09-.39.63-.72.4-1.06-.1.11,0,.14,0,.22l-.13,0c0,.14,0,.11-.09.19C4.12,15.41,3.54,15.74,3.83,15.94Z"/><path d="M5.21,13.55c-.07,0-.2-.15-.22,0s.07,0,0,.09A.16.16,0,0,0,5.21,13.55Z"/><path d="M9.44,8.25c.06-.15.13-.3.2-.45-.1,0-.14.11-.22.14C9.6,8,9.26,8.22,9.44,8.25Z"/><path d="M12.46,6c-.13,0-.2.11-.3.17C12.32,6.24,12.41,6.16,12.46,6Z"/><path d="M14.62,4.78l-.13-.06s0,.09-.05.13S14.6,4.9,14.62,4.78Z"/><path d="M17.82,1.43a.37.37,0,0,0-.28.1l.2.09Z"/><path d="M3.72,34.66c-.06,0-.15-.1-.16,0s0,.34.18.46C3.87,34.92,3.58,34.87,3.72,34.66Z"/><path d="M3.51,37.19l-.09.2.13,0C3.52,37.37,3.6,37.25,3.51,37.19Z"/><path d="M24.61.06a.31.31,0,0,0-.31,0C24.44.16,24.55.17,24.61.06Z"/><path d="M6.47,42.15l-.06.13.19.08A.16.16,0,0,0,6.47,42.15Z"/><path d="M6.13,43.08c.06.1.21.17.17.31.2,0,.13.16.29.2C6.53,43.42,6.39,43,6.13,43.08Z"/><path d="M26.22,3.56a.17.17,0,0,0,.25,0A.17.17,0,0,0,26.22,3.56Z"/><path d="M26.08,4.89A.15.15,0,0,0,26,4.71a1.54,1.54,0,0,0-.08.19C26,5,26,4.81,26.08,4.89Z"/><path d="M26.81,5c.07-.09.17-.07.25-.12s0,.12.13.13c.07-.19.09-.07.16,0l.06-.13c-.26-.12-.45,0-.7-.16a.31.31,0,0,1-.32.09c-.05-.06,0-.16-.1-.2,0,.21,0,.15-.14.32C26.37,4.94,26.54,4.82,26.81,5Z"/><path d="M29.08.44c-.2-.1-.39-.17-.51-.07C28.77.47,29,.54,29.08.44Z"/><path d="M8.37,46.17c.12.06,0,.21.2.24l.06-.12C8.49,46.28,8.5,46,8.37,46.17Z"/><path d="M28.49,2.11l-.06.13a.41.41,0,0,0,.41-.05C28.68,2.06,28.63,2.2,28.49,2.11Z"/><path d="M9,46.9c.1.08.16.05.19-.07L9,46.77Z"/><path d="M29.57,5.22a2.41,2.41,0,0,0-.66,0c-.39-.18-.76-.35-1-.13.56.11,1.13.25,1.69.37C29.66,5.36,29.51,5.33,29.57,5.22Z"/><path d="M28,5.51c.11,0,0,.13.13.13s.38-.09.49-.32l-.19-.08C28.31,5.45,28.13,5.45,28,5.51Z"/><path d="M9.84,47.91c-.1,0,0-.14-.17-.15s0,.13,0,.22A.18.18,0,0,0,9.84,47.91Z"/><path d="M10.18,47.83c0,.16.23.23.3.36,0-.12.11,0,.12-.1C10.36,48,10.39,47.89,10.18,47.83Z"/><path d="M32.08,1.32l-.51-.23,0,.07.52.23Z"/><path d="M29.09,8.71,29,8.65l-.09.19C29,8.87,29,8.74,29.09,8.71Z"/><path d="M30.28,5.69c.1.08.16,0,.19-.07l-.13-.06Z"/><path d="M11.62,48.93c0,.07.27.32.33.12S11.65,48.81,11.62,48.93Z"/><path d="M33.34,1.81c-.16,0-.39-.27-.48-.14C33,1.69,33.24,1.93,33.34,1.81Z"/><path d="M32.93,5.64c-.19-.13-.32-.09-.48-.14,0,.18-.14.1-.25,0-.11.11.18.07.07.18a.31.31,0,0,0-.31,0l.71.31C32.71,5.82,32.87,5.86,32.93,5.64Zm-.56.22c0-.05,0-.08,0-.1s.14,0,.22,0A.18.18,0,0,1,32.37,5.86Z"/><path d="M32.79,4.57l-.26-.11c-.07.12.16.12.23.18Z"/><path d="M32.11,6.43c0-.17-.29-.14-.35-.08C31.87,6.37,32.06,6.57,32.11,6.43Z"/><path d="M33.15,5c.12,0,.3.21.36.08C33.39,5,33.21,4.83,33.15,5Z"/><path d="M13.92,50.35c0-.23-.62-.47-.81-.44C13.23,50.12,13.65,50.2,13.92,50.35Z"/><path d="M32.47,7.37c.11,0,.29.21.35.08C32.71,7.43,32.52,7.23,32.47,7.37Z"/><path d="M34.27,5.24,34,5.12s0,.13-.09.12.11-.17,0-.18c0,.17-.15.06-.17.23C34,5.44,34.09,5.29,34.27,5.24Z"/><path d="M33.28,7.11l-.06.13c.16.09.25,0,.31-.17L33.4,7C33.4,7.11,33.46,7.21,33.28,7.11Z"/><path d="M34.7,5c-.21,0-.14-.2-.36-.24a.17.17,0,0,0,0,.25C34.47,4.91,34.64,5.07,34.7,5Z"/><path d="M14,50.32c-.06.16.16.22.33.3a1.67,1.67,0,0,0,.08-.2C14.29,50.41,14.08,50.18,14,50.32Z"/><path d="M33.47,7.89l0-.06-.26-.12C33.16,7.83,33.4,7.83,33.47,7.89Z"/><path d="M33.88,7.23c-.05,0-.12,0-.15.08s.39.41.53.2C34.17,7.4,34,7.34,33.88,7.23Z"/><path d="M14.52,50.55l0,.12c.09,0,.25.19.28.06C14.6,50.7,14.59,50.61,14.52,50.55Z"/><path d="M36.26,7.52c.6.22,1.16.91,1.92,1.24.07-.11-.2-.1,0-.25-.15,0-.23-.12-.2-.24-.31-.1-.73-.4-.86-.39-.06-.15-.35-.21-.15-.45-.28-.12-.73-.14-.9-.4,0,.12-.12,0-.12.1S36.2,7.36,36.26,7.52Z"/><path d="M19.41,51.19s.08,0,.09,0l.13.06a.14.14,0,0,0-.07-.18C19.53,51.12,19.43,51,19.41,51.19Z"/><path d="M39.57,11a2.31,2.31,0,0,0-.15-.53C39,10.49,39.42,10.88,39.57,11Z"/><path d="M22,51.74l.06-.13a.42.42,0,0,0-.47,0C21.78,51.76,21.85,51.61,22,51.74Z"/><path d="M40.77,10.39c-.14,0-.13-.28-.26-.12.08.08.13.17.2.25Z"/><path d="M41.09,11.23a.17.17,0,0,1,.11.28c.19-.06.07,0,.16.15l.12-.26c-.21-.05-.18-.46-.4-.33C41.2,11.08,41.11,11.17,41.09,11.23Z"/><path d="M41.72,12.59l-.13-.06-.06.13C41.63,12.73,41.69,12.71,41.72,12.59Z"/><path d="M43.36,10.31c0-.07-.09-.3-.17-.15C43.29,10.19,43.21,10.3,43.36,10.31Z"/><path d="M44.73,14.32a.8.8,0,0,0-.12-.59c-.07.15,0,.24-.11.41C44.68,14.07,44.62,14.23,44.73,14.32Z"/><path d="M44.89,13.62l.12.06a.62.62,0,0,1,.11-.42c-.1-.1-.07.14-.15.09s-.11,0-.13,0C45,13.39,44.94,13.51,44.89,13.62Z"/><path d="M46.79,18.34l.19.08c0-.07-.14-.31-.23-.18S46.83,18.29,46.79,18.34Z"/><path d="M49.37,23.28c0-.1.18-.25.05-.29S49.23,23.24,49.37,23.28Z"/><path d="M36.26,52.55c.15.08.24,0,.34-.07C36.45,52.39,36.36,52.48,36.26,52.55Z"/><path d="M36.61,51.94a1.54,1.54,0,0,0-.08.19c.17.13.24,0,.41.11C36.93,52.1,36.8,52,36.61,51.94Z"/><path d="M49.39,25.29l.13.06a.49.49,0,0,0-.06-.56C49.4,25,49.46,25.11,49.39,25.29Z"/><path d="M51.28,21.43c0-.11.09-.22.14-.32a.16.16,0,0,0-.19.07C51.41,21.2,51.1,21.4,51.28,21.43Z"/><path d="M39,52l.12-.25L39,51.71A.33.33,0,0,0,39,52Z"/><path d="M49.9,27.61l-.09.19.13.06C49.91,27.78,50,27.66,49.9,27.61Z"/><path d="M39.53,52c0-.06-.23-.18-.22,0S39.54,52.14,39.53,52Z"/><path d="M39.44,52.35a.16.16,0,0,0,.25,0A.17.17,0,0,0,39.44,52.35Z"/><path d="M40.57,52.24c-.09.09.09.07,0,.16l-.45-.2c-.09.16-.3,0-.38.14.35.17.58,0,1,.28C40.83,52.43,40.78,52.3,40.57,52.24Z"/><path d="M41.19,51.36l-.12,0-.06.13C41.11,51.51,41.17,51.49,41.19,51.36Z"/><path d="M41.39,50.76l.13.05a1.08,1.08,0,0,0,.08-.19A.17.17,0,0,0,41.39,50.76Z"/><path d="M41.5,52.58c-.08.07-.25-.09-.32,0,.2,0,.14.16.3.2S41.45,52.67,41.5,52.58Z"/><path d="M42,51.2c-.08.14-.09.25,0,.32C42.14,51.38,42.14,51.27,42,51.2Z"/><path d="M54.24,31c-.07.24.11.39.12.59C54.42,31.38,54.57,31.11,54.24,31Z"/><path d="M55.85,28.81c0-.08-.08-.3-.16-.15C55.78,28.69,55.7,28.79,55.85,28.81Z"/><path d="M53.49,36.32c.07-.22.33-.51.13-.63C53.52,35.92,53.36,36.18,53.49,36.32Z"/><path d="M50.72,44.58c-.14.27-.24.52,0,.63.14-.2,0-.29.13-.48C50.73,44.72,50.81,44.62,50.72,44.58Z"/><path d="M16.39,4a2.71,2.71,0,0,0-.87.38c.15.08.24,0,.38,0,.06-.18.15-.26.31-.17C16.23,4,16.36,4.12,16.39,4Z"/><path d="M35.47,6.7c.11-.11-.18-.07-.07-.19-.09,0-.11.09-.22,0C35.11,6.62,35.39,6.63,35.47,6.7Z"/><path d="M10.2,7.59c-.13.17,0,.24-.11.42l.13.05A.34.34,0,0,0,10.2,7.59Z"/><path d="M.09,24.31a1.05,1.05,0,0,1,.1-.58C0,23.77-.09,24.22.09,24.31Z"/><path d="M4.72,14.48l.11-.25.19.08c.09-.14,0-.19.09-.35C4.94,14,4.64,14.31,4.72,14.48Z"/><path d="M13,4.06a3.74,3.74,0,0,0,.62-.34C13.35,3.65,13.21,3.92,13,4.06Z"/><path d="M14.92,2.91c0-.15.12-.07.15-.17-.14,0-.2.12-.31.17C14.85,3,14.83,2.82,14.92,2.91Z"/><path d="M15.43,4.53c-.08-.09-.07.09-.16,0s0-.08,0-.09.08.11,0,.22A.16.16,0,0,0,15.43,4.53Z"/><path d="M16,3.93l0-.12-.12-.06c0,.22-.23.06-.31.17C15.8,4.05,15.83,3.81,16,3.93Z"/><path d="M3.44,36.31c-.14-.3-.07-.68-.36-.93-.08.19.07.3,0,.47l.2.09A.26.26,0,0,0,3.44,36.31Z"/><path d="M18.76,1.07a.63.63,0,0,0,.37-.14A.6.6,0,0,0,18.76,1.07Z"/><path d="M4.23,36.44c-.29-.3-.09-.78-.45-1.06-.07.46.39.71.24,1.19.5.49.3,1.24.77,1.74l-.06.13s.12,0,.11.09a1.44,1.44,0,0,0,.6.92c0-.29-.27-.47-.29-.75-.29-.24-.25-.61-.54-.86.13-.21-.15-.26,0-.47A1.46,1.46,0,0,1,4.23,36.44Z"/><path d="M20,.86c.09-.09-.09-.07,0-.16.31.06.49-.21.82-.1l.06-.12a14.08,14.08,0,0,1-1.44.28c0,.19-.19.08-.25.2l.13.06A.83.83,0,0,1,20,.86Z"/><path d="M3.46,36.71c0-.06-.08-.1,0-.18s.08,0,.09,0a.18.18,0,0,0-.19.07c0,.09.09.11,0,.22.15,0,.07.12.17.15s-.09-.19,0-.2,0,.09.07.1-.08-.11,0-.22C3.51,36.51,3.54,36.76,3.46,36.71Z"/><path d="M4.11,38.7c.11.11.09.27.27.35-.13-.22-.07-.51-.32-.68l.06-.13c-.19,0-.08-.18-.2-.24,0,.17-.15.06-.18.23s.11-.09.22,0a2.72,2.72,0,0,1-.11.25c.09.09.07-.09.16,0s0,.16,0,.28C4.06,38.89,4,38.65,4.11,38.7Z"/><path d="M4.14,38a.36.36,0,0,0-.1-.28L4,37.87C4.13,37.88,4.05,38,4.14,38Z"/><path d="M4.35,38.42c0-.15-.13-.24-.14-.37A.26.26,0,0,0,4.35,38.42Z"/><path d="M21.49,2.22c-.32-.17-.47.08-.65.25C21.06,2.4,21.34,2.47,21.49,2.22Z"/><path d="M6.09,42.13a.26.26,0,0,1-.3-.36c-.2,0-.14-.17-.3-.21l.06-.13a.54.54,0,0,1-.25-.3c0-.05.1,0,.11-.07s0-.12-.1-.12-.07.09-.16,0-.08-.5-.4-.64c.06-.23-.34-.48-.12-.6-.09,0-.12.08-.23,0s0,.18-.12.1c0,.14,0,.11-.08.19.09,0,.13,0,.21,0s.16.15.16.26-.1,0-.11.07.18,0,.1.12c.09.08.07-.1.16,0s.07.33.08.5.07-.09.16,0c0,.43.44.7.69,1,0,.15-.11.12-.16.2s.17,0,.1.12c.08.08.07-.1.15,0s0,.32.12.44c0-.16.17-.1.2-.3C5.84,42.3,6,42.18,6.09,42.13Z"/><path d="M23.71,1.82a7.5,7.5,0,0,1-1.25.37l-.16-.07c0,.09-.13,0-.15.16A17.44,17.44,0,0,0,24.07,2C23.85,1.87,23.83,2,23.71,1.82Z"/><path d="M4,43.36c0,.11,0,.26,0,.38.24,0,.24.19.33.3C4.23,43.8,4.22,43.54,4,43.36Z"/><path d="M21,8.11c0,.07-.15.2,0,.22,0-.15.12-.16.18-.23C21.08,8,21.1,8.19,21,8.11Z"/><path d="M25.56,0c-.18,0-.43-.1-.57.06C25.18.05,25.43.18,25.56,0Z"/><path d="M25.94,0a.33.33,0,0,0-.32,0A.32.32,0,0,0,25.94,0Z"/><path d="M26.7.07c-.12,0-.27,0-.35.08C26.51.23,26.6.14,26.7.07Z"/><path d="M25.9,4.27c-.16,0-.33,0-.44.11C25.6,4.33,25.78,4.39,25.9,4.27Z"/><path d="M28.19.35c0-.18.28.17.32,0-.22-.15-.33,0-.55-.17C27.89.29,28.12.29,28.19.35Z"/><path d="M26.79,4.36c0-.08.15-.2,0-.22,0,.18-.19.08-.25.2C26.65,4.38,26.67,4.26,26.79,4.36Z"/><path d="M32.44,1.56c.09-.09.3.14.38,0l-.58-.26c0,.12-.11,0-.12.1S32.49,1.41,32.44,1.56Z"/><path d="M31.88,5.4l-.06.13c.16.08.25,0,.35-.08C32.07,5.45,32,5.5,31.88,5.4Z"/><path d="M35.12,8.17c0-.19-.29-.24-.36-.4-.19.15-.26-.17-.45-.2l-.06.13c.11.07.34.1.37.21s0,.09-.07.08-.15-.14-.26-.2c.3.49,1.18.76,1.53,1.23.1-.12.07.12.22,0,0,.1.11.14.14.22.1-.11,0-.13,0-.22-.12-.1-.19,0-.29,0,.05-.27-.52-.3-.52-.55-.21,0-.46-.32-.73-.44l.14-.06C34.79,8.07,35,8.1,35.12,8.17Z"/><path d="M38.49,5.12c0-.1-.08-.18-.2-.24A.34.34,0,0,0,38.49,5.12Z"/><path d="M37.42,7.34c.2,0,.13.17.29.21.09-.19-.26-.22-.29-.36C37.33,7.27,37.51,7.26,37.42,7.34Z"/><path d="M39,8.67c.11-.29-.45-.33-.43-.59-.26-.06-.28-.21-.49-.29C38.19,8.15,38.76,8.35,39,8.67Z"/><path d="M38,10.29c0-.17-.18-.26-.3-.37A.7.7,0,0,0,38,10.29Z"/><path d="M40.4,6.9c0-.17-.22-.27-.36-.39C40.07,6.67,40.26,6.78,40.4,6.9Z"/><path d="M39.36,9.06c.07,0,.2.15.22,0-.2,0-.13-.16-.29-.21C39.18,9,39.47,9,39.36,9.06Z"/><path d="M40.11,9.78c0-.17-.17-.25-.3-.36C39.89,9.55,39.89,9.71,40.11,9.78Z"/><path d="M43.86,11.08a2.34,2.34,0,0,0-.44-.74l-.06.13C43.63,10.63,43.67,10.88,43.86,11.08Z"/><path d="M44.93,17.66c.07-.12-.2-.1,0-.25.06,0,.15.1.16,0-.17-.08-.18,0-.26-.11A.26.26,0,0,0,44.93,17.66Z"/><path d="M45.85,17.68c-.09-.11-.18-.25,0-.31-.08-.09-.07.09-.15,0s0-.08,0-.09c.1.18,0,.43.12.6Z"/><path d="M46.49,17.12c-.07.17,0,.28,0,.41A.41.41,0,0,0,46.49,17.12Z"/><path d="M47.12,18.64c-.08.15,0,.24.08.34C47.17,18.87,47.24,18.72,47.12,18.64Z"/><path d="M35.19,52l-.12-.06-.06.13c.11,0,.14-.1.25,0a.18.18,0,0,0-.07-.19C35.1,51.93,35.28,51.91,35.19,52Z"/><path d="M51.23,22.57a2.24,2.24,0,0,0,0,1A2.79,2.79,0,0,0,51.23,22.57Z"/><path d="M40.65,51.89c0,.19.21.09.29.13a1.73,1.73,0,0,0,.27.35c.12-.15,0-.21.08-.35l.19.09c-.08.43.59.24.75.57,0-.13.21.08.21-.14C42,52.39,41.24,51.77,40.65,51.89Z"/><path d="M49.75,48.47c.06-.16.13-.31.24-.35l-.13-.06c-.11.16-.18.16-.16.35s-.19,0-.23.17C49.61,48.66,49.63,48.44,49.75,48.47Z"/><path d="M42.07,13.52c.09.09.07-.09.16,0l-.12.26c.12.05.17-.08.25-.12s.11.1.12.17a.67.67,0,0,0,.23.68c.53-.51-.08-.83-.3-1.22-.09-.08-.07.1-.16,0-.08.06.12.15,0,.14s-.1-.12,0-.23l-.2-.09C41.91,13.3,42.12,13.36,42.07,13.52Z"/><path d="M54.58,42.1c.1-.21.17,0,.37.12s0-.16-.1-.27c0,.08,0,.1-.12,0s0-.17,0-.27c-.24-.26-.32-.51-.63-.63-.06.19-.09.1-.27,0A1.89,1.89,0,0,0,54.58,42.1Z"/><path d="M53.84,45.66l.09-.09C53.79,45.38,53.57,45.48,53.84,45.66Z"/><path d="M56.5,41c0-.13-.29-.28-.37-.3s.13.18.2.28S56.43,41,56.5,41Z"/><path d="M53.83,44.58c-.14-.13-.06-.13-.2-.19s0,.15.1.27Z"/><path d="M53.94,46.11c-.37-.15-.24.17-.15.4s.19.11.3.19C54.07,46.45,54.18,46.43,53.94,46.11Z"/><path d="M53.46,45.35c-.06.07,0,.18.15.32l.08-.06A.73.73,0,0,0,53.46,45.35Z"/><path d="M55.28,41a1,1,0,0,0-.21-.13s0,.1,0,.16l-.22-.09c.18.23,0,.2-.14.26.17.13,0,.16.21.28-.16.35.55.89,1.15,1.28.32.07.42-.17.7-.07a2.56,2.56,0,0,0-.87-1.39,2,2,0,0,1-.6-.35Z"/><path d="M48.5,53.11c-.27-.22-.21-.35-.28-.51-.48-.27-1-.54-1.19-.31a.5.5,0,0,1,.16.44c.31.37,1.14,1.05,1.16.55a.22.22,0,0,1,.14,0C48.4,53.18,48.34,53.12,48.5,53.11Z"/><path d="M53.63,48.29c-.11.07.16.27.1.36.1.05.17.05.22,0A1.38,1.38,0,0,0,53.63,48.29Z"/><path d="M52.54,48.7a.32.32,0,0,1,0,.16c.32.33.93.34.49-.07A2.47,2.47,0,0,0,52.54,48.7Z"/><path d="M54.86,47.56c0-.22-.24-.46-.42-.62s-.06,0-.08,0,0,0-.07,0a1.21,1.21,0,0,0,.08.19c-.15-.06-.36-.08-.45-.29-.26-.17-.22.08-.44-.13-.29.28-.14.91.68,1.61.74.12,1.17-.05.53-.86Z"/><path d="M55.37,45.66c-.12,0,0,.09-.15,0,0,.14.37.36.42.26A1,1,0,0,0,55.37,45.66Z"/><path d="M55.1,45.9c0,.09.07.23.27.39C55.4,46.2,55.3,46.07,55.1,45.9Z"/><path d="M55.09,44.82c-.05.09-.19-.06-.3-.1,0,.18-.14,0-.17.15l.57.4C55.34,45.18,55.24,45,55.09,44.82Z"/><path d="M53.59,46.6a1.44,1.44,0,0,0-.42-.45c-.2.06.14.41.35.51Z"/><path d="M53.46,44.07c0-.06-.05-.16,0-.21h.14l0,.06c.09,0,.1-.08.2,0a.5.5,0,0,0-.11-.22c0-.27-.42-.81-.35-1.09a2.66,2.66,0,0,1-.38-.29.28.28,0,0,0,0-.09,1.54,1.54,0,0,0-.34-.28.89.89,0,0,0-.39-.24l-.09-.08c0-.15,0-.33,0-.45s.09,0,.11-.07-.07-.21-.06-.34a1.39,1.39,0,0,0,.32.12c-.06-.14.11-.16.25-.08.07-.22-.14-.59-.51-.9,0,0,0,0,0,0s0,0,0,0a2.18,2.18,0,0,1,.85.33c0-.2.2-.33.54-.1,0-.05-.15-.16-.09-.2.66.16.62-.42.59-1L54,38.74c0-.05.1,0,.17,0a5.25,5.25,0,0,0-.75-1.13,3.17,3.17,0,0,1,.23-.77c-.12,0,0-.11-.1-.12a6.67,6.67,0,0,1-.22.78l-.2-.22h.1c.17-.22,0-.44.23-.51-.14,0,0-.2,0-.29-.19.07-.18-.06-.23-.18a3.59,3.59,0,0,1-.38.76,5.55,5.55,0,0,0-1.11-.86v0c.1,0,.14-.1.22-.13L51.8,36a.4.4,0,0,0,0-.15l.08.06-.07-.11c0-.09,0-.18,0-.28.13.18.62.48.72.34-.11-.21-.38-.29-.49-.48,0,.11,0,.16-.21.1l0-.11s-.12,0-.11-.09a2.67,2.67,0,0,0,.1-.73c.15.13.32.28.51.47.09-.15.38.19.45,0,.1.2.29.15.41.36,0-.19.43.12.63.21,0-.14.06-.19.32.06-.05-.11,0-.16.19,0a.37.37,0,0,0-.09-.21c.21.15.32.07.51.15s0-.08-.06-.14.11.06.17.11c0-.19.4-.12.23-.45.07,0,.05.1.17.11.27-.27-.14-.86,0-1.23-.31-.37-.49-.69-.87-1.08,0-.06.17-.07.06-.17s0,.11-.22-.06.13,0-.09-.21c-.06,0-.44-.46-.62-.33,0-.09-.2-.22-.33-.34s0-.2-.08-.33-.07.15-.3,0c-.23-.3-.53-.47-.75-.39-.25-.28-.36-.21-.54-.31a2.22,2.22,0,0,1-.1-.31.73.73,0,0,1-.23-.15c-.08,0-.15,0-.26,0-.09.12.21.35.14.47a1.57,1.57,0,0,0-.82,0,2,2,0,0,1,0-.49c-.07-.31-.28-.57-.2-.94L50,29.18c.09-.18-.06-.26,0-.44l-.19-.09c.09-.24-.15-.37-.31-.52.08-.21,0-.35.1-.57-.08-.09-.07.09-.15,0s0-.08,0-.12.12-.09.16-.2-.07.18-.19.07c.12-.1-.08-.23.09-.27s0,.1.07.11-.1-.14,0-.25-.11.08-.22,0,0,.2-.12.17a.58.58,0,0,1,0-.55c-.1,0,0-.13-.17-.15.08-.13,0-.22-.1-.28l.06-.13c-.05,0-.13,0-.12-.09a9.64,9.64,0,0,0-.13-2c-.09-.08-.07.1-.16,0,.15-.55-.14-.94-.31-1.38-.13.27.12.39,0,.64.22.17.08.48.23.68,0,0-.09,0-.1.07.28.31.1.81.14,1.22,0,.12-.11,0-.12.1a.18.18,0,0,1,.14.22c0,.09-.14,0-.15.16s.07-.18.18-.07c-.11.12.05.14,0,.25s-.11.1-.21,0c0-.24-.32-.39-.19-.7a.58.58,0,0,1-.41-.11l.06-.13c-.11-.1-.14,0-.23,0s0-.38-.16-.5c0-.05.09,0,.11-.07s-.13,0-.12-.09c.14-.5-.15-.85-.19-1.28.14.09.06.26.14.37a4.19,4.19,0,0,0-.07-.88c-.06,0-.19.08-.21-.06l0-.09.13.05c0-.11,0-.19-.2-.24.1-.11,0-.13,0-.22s.13,0,.13-.13,0-.25-.09-.31c-.13.11,0,.25-.08.27a4.32,4.32,0,0,1-.15-1.31c0-.09-.22-.12-.11-.28-.09-.08-.07.1-.16,0l.09-.19c-.12,0-.2,0-.24.2a.17.17,0,0,1,0,.25c.11.11.07-.18.18-.07a2.72,2.72,0,0,1-.11.25c.06.12.23.32.08.43,0-.09-.11-.15-.17-.23s0,.07-.09,0,.11.15,0,.15-.24-.37-.08-.5c0,.05,0,.11.13.13l-.06.13c.09.09.08-.09.16,0-.07-.22,0-.5-.25-.65l.06-.13c-.1-.11-.07.14-.15.09l-.06-.14c0-.05.1,0,.11-.07s-.18.13-.28.19c0-.13-.21-.31,0-.41.05.06,0,.15.1.2a.71.71,0,0,0,.06-.67,2.09,2.09,0,0,0-.23.44,1.41,1.41,0,0,1-.34-.54c-.16.3.32.34.09.66.13,0,.15.09.08.19.2.1.21.27.08.5.12,0,0,.11.1.12s-.12-.14,0-.14a5.81,5.81,0,0,0,.09.58c-.28-.22-.2-.56-.41-.81,0,.23.18.4.18.63a4.51,4.51,0,0,1-.29-.72c0-.05.09,0,.1-.06,0-.66-.83-1.24-.3-1.92-.09,0-.16.05-.29-.05a.16.16,0,0,0,0-.25,1.67,1.67,0,0,0-.08.2c.16.06.09.21.17.3-.35-.16-.29-.47-.46-.7,0-.05.09,0,.11-.07a.92.92,0,0,0-.37-.39c.12-.19-.07-.26-.14-.38-.15.15.11.14,0,.25-.23-.12-.09-.39-.12-.59s-.07.09-.15,0-.19-.15-.11-.28.12,0,.12-.1-.34-.3-.3-.53c-.09-.08-.08.1-.16,0,.11-.13-.06-.16,0-.29,0,0-.18,0-.1-.12-.09-.09-.07.09-.16,0,.11-.11-.13-.08-.08-.16s.11,0,.13-.13,0-.1,0-.16c-.24-.06-.06-.29-.3-.36,0,.18,0,.26-.21.29,0,.09,0,.16-.05.29.11.1.13,0,.22,0s.08.11,0,.22c.09.07.09-.09.19,0s.2.29.11.51c.12.05.26.09.14.22.11.11.07-.18.19-.07-.09.14-.09.25,0,.31,0-.12.09-.14.18-.07-.17.17.07.31,0,.37s0-.2-.17-.23c0,.23.37.48.19.7,0-.14-.06,0-.16-.07.1-.11,0-.13,0-.22-.22-.1-.16-.3-.18-.47a14.88,14.88,0,0,0-.94-1.35c.1-.11,0-.13,0-.22l-.19-.09c0-.22-.28-.31-.31-.52-.38-.12-.22-.45-.5-.61.11-.16,0-.22-.09-.31s0-.09.08-.08.08.09,0,.17.07-.09.15,0,.22.24.12.44a.17.17,0,0,0,.25,0c-.29-.21-.31-.53-.6-.73a.44.44,0,0,0-.08.35c-.41-.36-.57-.82-1.12-1.12,0-.2-.2-.29-.09-.5-.09,0-.11.08-.22,0l.06-.13c.07,0,.2.16.22,0L39.63,11c-.11.1.14.07.09.15s-.12.08-.17.12c0-.2-.43-.25-.28-.51-.2-.09-.26-.37-.48-.3a.61.61,0,0,0,.05-.12l.2.08c0-.09.14,0,.15-.16-.16.13-.27,0-.42-.11-.08.09.1.07,0,.16-.07-.06-.25-.07-.24-.15a1,1,0,0,0,0-.1c.06,0,.15.11.16,0A5.94,5.94,0,0,1,38,9.31l.32.14a10.69,10.69,0,0,0-2.48-2l-.06.13c.05,0,.21,0,.18.12l-.14,0c-.08-.16-.38-.23-.3-.44.12,0,0,.11.1.12s.11,0,.12-.1l-.45-.2c-.12.13.25.08.13.21-.19-.07-.32-.16-.33-.3s.2.15.23,0c-.21-.08-.3-.31-.52-.23.09-.08-.09-.07,0-.15-.28-.16-.73-.26-.87-.47,0,.11-.36-.08-.4-.14s.22.15.24,0-.18-.08-.07-.19a3.87,3.87,0,0,0,1.48.66c0-.09,0-.16,0-.28a.57.57,0,0,0-.54,0,.17.17,0,0,0,0-.25.21.21,0,0,1-.38,0c0,.05,0,.13-.09.12,0-.3-.39-.11-.49-.38l-.09.2c-.16,0-.32,0-.38-.18-.07.11-.23,0-.28.11.13,0,.37,0,.46.17l0,.1L33,5.89c0,.17-.15.06-.18.23.94.45,1.55,1,2.43,1.32l-.06.13c.16.15.34,0,.4.14s-.09,0-.11.07a18.16,18.16,0,0,1,3.62,3.31c.08.09.07-.09.15,0s.2.3,0,.37a1.59,1.59,0,0,1,.5.61c-.16,0-.23-.12-.2-.24l-.45-.2c-.05.26-.27.29-.2.45-.16-.05-.24-.13-.2-.24a.39.39,0,0,1-.33-.15c-.06.22-.18.26-.37.14l.06-.12c-.31,0-.5-.36-.69-.54-.18.07-.32-.11-.45-.21,0,.25.46.33.44.59a5.62,5.62,0,0,0-.93-.34.18.18,0,0,0-.07-.19c-.06.12-.21,0-.25.2.36.25.53.56.87.81-.15,0-.21.06-.16.2-.06,0-.09,0-.13,0s-.2-.15-.29-.13c0-.28-.43-.4-.37-.71-.33-.09-.38-.3-.65-.28,0-.25.21-.21.27-.43-.25,0,0-.42.1-.49.3.16.76.26.91.48.16-.2.21,0,.41.11,0-.19-.29-.3-.41-.46a.43.43,0,0,1,.37.21c.1-.12,0-.19,0-.29a3.34,3.34,0,0,0,.37.21c-.09.09-.28,0-.35.11.19.15.32,0,.38.17.05-.05.05-.2.12-.18l.1,0-.15.32c.22,0,.15.19.36.24.1-.12,0-.14,0-.23.16.08.15.21.32.15,0,.17-.15.06-.18.23.13-.06.33.09.45,0l-.06.13a.86.86,0,0,0,.28,0c0,.08.11.1.12.17s-.15,0-.16.2c.18.11.26-.05.33-.24-.11-.17-.1-.36-.39-.33l.09-.19L38.56,11c0,.06.08.19-.06.21a.22.22,0,0,0-.09-.24c0-.14.12,0,.14-.13-.14,0-.21.11-.34.08s-.22-.24-.21-.4-.07.09-.16,0c.09-.09-.09-.08,0-.16-.17.06-.15-.13-.39-.18.09-.08-.09-.07,0-.15a1.3,1.3,0,0,1-.65-.61c-.13.05-.28,0-.23-.18a.19.19,0,0,1-.26-.11l-.06.13c.22.06.18.21.42.26a1.67,1.67,0,0,1-.08.2c-.35-.06-.6-.36-1-.28.09-.08-.09-.07,0-.16-.26,0-.61-.24-.74-.41l.26.12c0-.06,0-.13.08-.19a8.86,8.86,0,0,0-2.28-1.1.5.5,0,0,1,0-.13c-.1-.11-.07.13-.15.08s-.06,0-.16-.07c0-.18-.43-.17-.47-.33s.16.11.17,0l-.19-.08c-.1.11-.17.09-.23,0,0,.11-.09,0-.15,0s.09.14,0,.25c-.09-.07-.09.1-.19,0a1.21,1.21,0,0,1,0-.14s.11,0,.13-.14-.14-.08-.07-.18l-.51-.23c-.07.11.19.1,0,.25-.13-.09-.38-.12-.44-.24s.12,0,.14-.13a3.86,3.86,0,0,1-.83-.22c.13-.12,0-.14-.06-.21s.21,0,.27-.08c-.19-.1-.33.14-.42-.11-.08.09-.3.19-.39,0,.08,0,.13-.09.16-.2-.14-.07-.18.14-.27.19a.3.3,0,0,0-.21-.32c.05.14,0,.15-.14.24a7.86,7.86,0,0,1-1.31-.2c0-.13-.27-.16-.29-.28-.43-.1-.76.06-1.2-.08,0,0-.05.12-.09.11s-.08-.09,0-.17c.16.09.22-.06.31-.17-.18-.1-.27.05-.45,0-.11.13.06.15-.05.28a6.57,6.57,0,0,1-1,0L25,5.16c-.37-.2-.66.2-.93,0a.44.44,0,0,0,.36-.11c.06-.09-.1-.09,0-.19a7.27,7.27,0,0,1,.8-.22,2.37,2.37,0,0,0-1.61,0s0-.09-.07-.11c-.11.15.07.19,0,.32s.07-.1.15,0c-.08.09.1.07,0,.16-.37,0-.79.43-1.13.11,0,0,0,.21-.12.18s0-.09,0-.14a2.71,2.71,0,0,1-.41,0c-.06.11.09.15,0,.25s-.11.09-.22,0L22,5.29c-.13,0-.15.18-.28.11s.11.14,0,.14c-.16-.21.14-.28.2-.53.09,0,.11-.08.22,0A.14.14,0,0,0,22,4.85c-.06-.08-.15.11-.14,0s.22-.21.38-.17a.57.57,0,0,0-.1.41.17.17,0,0,0-.19.07c.19.08.3,0,.44-.11a.3.3,0,0,1,0-.41c.11.1.13,0,.22,0s-.11.15,0,.16.11-.11.18-.15c0,.13.28.16.29.29.12-.1.26-.11.36-.27s-.07-.06,0-.13c-.19,0-.33.16-.53.15l.09-.19c-.38.08-.86-.12-1.19.08a1.73,1.73,0,0,0,.49-.93c.15.11.19-.07.32,0s-.12.07-.15.17.07,0,0,.09.25,0,.27.08-.39-.13-.45.15c.19,0,.33-.07.5-.09a.53.53,0,0,1,.08-.5c.47.12.77-.21,1.26-.06L24,3.59c-.11-.1-.13,0-.22,0-.05.18-.16.19-.24.28s0-.1-.07-.11-.14,0-.15.17c.41.14.64-.18,1.11.1.08-.08.2-.08.27-.18l.16.07c.39-.21.92,0,1.32-.18-.15-.14-.32,0-.4-.14a.05.05,0,0,1,.08,0c.09-.09-.09-.08,0-.16s.06.15.23.18-.08-.11,0-.22c.15.06.24,0,.42.1,0,0,0-.12.09-.11s0,.09.07.11,0-.13.09-.12c.27.05.19.23.26.36.05-.05.05-.21.12-.18l.1,0c-.16.27.2.06.21.21s-.2,0-.26.08a1.72,1.72,0,0,0,.44,0c.09-.09-.09-.07,0-.16a3.29,3.29,0,0,1,1.26.11s0-.13.09-.12.08.11.12.17-.11.18-.2.18a.47.47,0,0,1-.32-.22c0,.14-.12.11-.19.15s0-.12-.13-.14c0,.18-.23-.13-.25.05.21.06.21.2.33.3.36-.18.94.23,1.33.13.11,0,0,.13.13.14s.25.08.32,0c0,.17.3.12.41.11,0,.16.22,0,.26.19A4,4,0,0,1,32,5.15c0-.22.19-.06.31,0,.09-.48-.57-.17-.79-.47l0-.1c.19.12.28,0,.48.14.05-.09-.08-.11,0-.22.16.08.25,0,.35-.08a4,4,0,0,0-1.77-.63c-.05,0,0-.1-.07-.11s-.3.08-.36-.05c.08,0,.1-.11.17-.12a1.7,1.7,0,0,0,1.1,0,7.36,7.36,0,0,0,1.93.78c-.31-.34-.94-.41-1.17-.67-.24.09-.68-.36-.92-.26,0-.24-.37-.09-.39-.25-.08.12-.29-.11-.38,0a.18.18,0,0,0-.07-.19c-.16-.06-.36.15-.46,0s.09,0,.11-.07c-.53-.07-1.1-.25-1.63-.34,0,.05,0,.13-.09.12-.23-.19-.43.06-.59-.15.11-.25.41,0,.51-.28-.52-.21-.95.18-1.37,0,.06-.05.15,0,.2-.11-.32-.12-.48.15-.83-.05-.12.12-.33.05-.53,0s-.17.22-.35.07c-.09.23-.35,0-.43.28-.2-.08-.47.11-.57-.11,0,.12-.1,0-.16,0-.06.21-.23.15-.41,0a1.54,1.54,0,0,1-.08.19c-.17-.1-.25.05-.38.07s0-.1-.06-.11a.32.32,0,0,1-.48-.06,2.66,2.66,0,0,0-.59.28c-.21-.07-.39-.06-.6-.12,0,0,0,.13-.09.12-.61-.09-1,.52-1.53.55,0,.14-.11.11-.18.15s-.08-.09,0-.17.06-.07.1-.23a2.72,2.72,0,0,1,.55-.18c.08-.08-.1-.07,0-.16.11.11.13,0,.22,0a.2.2,0,0,1,.12-.26c-.2,0-.33.15-.53.15.1-.11,0-.14,0-.22-.15,0-.25.09-.34.23.09.09.07-.09.16,0-.06.19-.18.22-.27.35,0-.21-.08,0-.19,0s.11-.15,0-.16-.27.17-.46.1,0-.21-.08-.26a.64.64,0,0,1-.52.3.86.86,0,0,1-.65.41c.09-.16-.06-.23-.17-.31a.61.61,0,0,1-.58.43c-.13.16,0,.22-.08.36.17,0,.32-.32.49-.06-.06.12-.14.15-.27.08s0,.17-.12.1c-.05.09.08.11,0,.22l-.39-.17a1.17,1.17,0,0,1-.61.34c0,.2-.17.13-.21.29l-.13-.06c-.16.39-.64.51-.84.32,0,.06,0,.25-.15.17s.08-.17.11-.26c-.12,0-.13.19-.24.2.05,0,.13,0,.12.09s-.16.16-.27.15,0-.09-.06-.1a.19.19,0,0,1-.19.07c-.07.09.09.09,0,.19s-.36.3-.6.31a3.37,3.37,0,0,1,.39-.37c-.12,0,0-.11-.1-.12a5.88,5.88,0,0,0-.76.58s-.09,0-.08-.07.19-.09.26-.23c-.12,0-.15.18-.28.1-.1.13-.05.2-.05.29s0-.11-.1-.12a1.32,1.32,0,0,0-.45.65c-.2,0-.28.24-.46.25l-.23-.1c-.06.11-.17.1-.31,0-.22.3-.41.7-.76.66,0,.1-.14.36-.27.42.08.2-.11.18-.17.39.12,0,.14-.18.28-.11-.12.12-.2.33-.37.3l-.17.39c-.24,0-.4.58-.67.28A4.38,4.38,0,0,0,10.09,8l-.32-.15c0,.22-.11.18-.07.32a2.57,2.57,0,0,1-.89,1c0-.07.15-.2,0-.22a.46.46,0,0,1-.09.2c-.51-.24-1-.12-.9.28l.2.17a.67.67,0,0,1-.18.07c-.05,0,0-.09-.07-.11a.07.07,0,0,1,0,.06,3.16,3.16,0,0,0-.39-.48c-.49-.21-.49.13,0,.57a1.49,1.49,0,0,1,.39.1.36.36,0,0,1-.48.12c-.08.09.1.08,0,.16L7.11,10c0,.07.09.2-.05.21s0-.09-.07-.11c0,.13-.19,0-.23.17a1.46,1.46,0,0,1,.07.19c-.11,0-.17.14-.33,0-.09.19-.25.18-.4.21-.53.65-1.25.81-1.73,1.62.06.08.15-.11.15,0s-.16,0-.21.1l.2.09A4,4,0,0,1,6.18,11c0,.07-.11.15,0,.16s0-.13,0-.22l.13.06a3.66,3.66,0,0,1,1.31-1c.11,0,0,.13.13.14S8,10,8,10.18a.48.48,0,0,1,.18-.42.33.33,0,0,1,.07.15l.22.16c-.28.21-.62.23-.8.66-.08-.09-.07.09-.16,0-.09.34-.32.32-.48.48C7,11.18,7.18,11,7,11s-.29.34-.52.31a.69.69,0,0,1-.52.46c-.36.44-.68,1-1.15,1.19,0,.1-.09.21-.14.32-.09-.05-.11.08-.22,0,.12-.37.61-.38.56-.75.19.12.17-.3.38-.14-.07-.17.06-.17.14-.32L5.43,12c0,.11-.09.22-.14.32-.17-.06-.21.21-.37.15-.08.11-.11.34-.21.37s0-.18-.1-.2.08.23-.09.27,0-.09-.06-.11c-.22.31-.51.41-.73.68-.14,0,0-.12-.13-.14A18.85,18.85,0,0,1,2.31,15,24.7,24.7,0,0,0,.47,18.61c.17.11-.26.46-.1.57.06-.07.07-.25.15-.24s0,.11.13.14a2.6,2.6,0,0,1,.23-.68l.12.06a2.94,2.94,0,0,0,.44-.81l.13.06c0-.14,0-.11.09-.19-.16-.17.2-.21.08-.35.09.08.07-.1.16,0a2.07,2.07,0,0,1-.32.71s.12,0,.11.09a2.37,2.37,0,0,0-.41,1.09,21.82,21.82,0,0,1,2-3.84C3.72,15,4,14.27,4.4,13.8a.93.93,0,0,0,.67-.62.18.18,0,0,0,.19-.08s-.13,0-.12-.09.14-.11.2-.18,0,.12.13.14a1.55,1.55,0,0,0,.2-.61c.31,0,.53-.25.77-.43,0,0,.09,0,.08.08a1.82,1.82,0,0,0-.71.72c.22,0,.32-.28.52-.3,0,.15-.11.07-.15.16.15.16.14-.11.25,0-.1.18-.22.31-.32.47,0,0,0-.12-.14-.14s.14.08.09.16a7.14,7.14,0,0,0-.78.69c.11.06.15-.09.25,0-.11.21-.42.34-.35.62-.36,0-.24,1-.72.91A8.8,8.8,0,0,1,2.8,17.56a2.63,2.63,0,0,1-.43,1.05l-.1-.05a6.08,6.08,0,0,1,.46-1.18c-.09-.09-.08.09-.16,0,0,.39-.63.84-.58,1.29.07-.09.08-.29.18-.31a8.62,8.62,0,0,1-.43,1.13c-.13-.16.12-.46.19-.69-.19-.05-.16.5-.35.46.06.17-.07.17-.15.32.11.11.07-.18.19-.07a3.07,3.07,0,0,1-.39.52c.09.09.07-.09.16,0,0,.24-.21.21-.27.42.13.12.08-.25.22-.13a1.39,1.39,0,0,0-.16.7c.06-.09.08-.3.17-.31a2,2,0,0,1-.29.91c0,.26,0,.69-.23.87a1.58,1.58,0,0,1-.12.95c-.09,1-.2,2.07-.4,3.14a16.19,16.19,0,0,1-.08,2.59.91.91,0,0,1,0,.69,1.39,1.39,0,0,1,.07.89c.19.53.12,1.18.31,1.72a1.11,1.11,0,0,0-.07.16,2,2,0,0,1,.17,1.16L.86,34c0,.72.35,1.28.35,2,.39.21.17.65.17,1l.26.11c.26,1.09.79,2.09,1.14,3.14a.65.65,0,0,1,.35.62,2.74,2.74,0,0,1,.55,1,1.54,1.54,0,0,1,.34.61,1.44,1.44,0,0,1,.4.65c.14.09.25.19.24.34a3.22,3.22,0,0,1,.44.73c.16.07.16.19.17.31.58.71,1.13,1.42,1.67,2.14.29.14.34.37.53.55.17-.33-.5-.47-.25-.74.19.27.55.47.71.75l-.24.09c0-.06,0-.12-.13-.14.28.6,1,1.05,1.36,1.61a8.13,8.13,0,0,1,1.25,1c.08.09.07-.09.15,0a.67.67,0,0,0,.37.39c.11-.12-.19-.09-.15-.18.19-.24-.15-.39-.32-.33,0-.33-.66-.43-.66-.77-.5-.19-.55-.57-1-.81,0-.06-.08-.19.06-.2a2.16,2.16,0,0,0,.94.57c0,.16.1.23.22.18-.05.11.1.14.05.25a4.89,4.89,0,0,0,.54.17l-.06.13c.21.13.35.41.65.36a.64.64,0,0,0,.42.35c-.08.08.1.07,0,.15.39.16.75.55,1.16.52a.72.72,0,0,0,.61.36,1.46,1.46,0,0,0,.93.34.31.31,0,0,0,0,.31c0-.23,0-.19.21-.29a8.47,8.47,0,0,1-1.62-.88c-.36-.11-1-.7-1.42-.79.08-.09-.1-.07,0-.16-.47-.16-.49-.49-.94-.65.08-.09-.1-.07,0-.16a12.29,12.29,0,0,1-2-1.75c-.08-.08-.07.1-.16,0,0-.32-.4-.45-.44-.74l-.19-.08c-.1-.37-.61-.59-.55-1-.15-.14-.17-.33-.43-.43-.16-.48-.71-.83-.87-1.32-.09-.08-.08.1-.16,0s.11,0,.12-.1l-.19-.08c-.15-.53-.69-.9-.74-1.46,0,0,.11,0,.13-.13-.17,0-.06-.15-.23-.18s.15.14.13.25-.1.08-.18,0A8.64,8.64,0,0,0,4,40.14c-.14,0-.17-.15-.1-.28s-.19-.27,0-.33,0,.21.08.26a.44.44,0,0,1,.21-.29c-.23-.2-.24-.48-.48-.67.13-.18-.11-.21,0-.38l-.19-.09c0-.3-.24-.52-.17-.84-.08-.09-.07.09-.15,0a.67.67,0,0,0-.12-.59c-.07.09.14.21,0,.23-.05-.19-.26-.52-.06-.64-.1-.14-.28-.25-.18-.47a.17.17,0,0,1-.11-.28c-.28-.16-.15-.47-.12-.75-.09-.08-.07.1-.16,0,.09-.26-.27-.48,0-.71l.1,0c-.08.16,0,.25.07.35.06-.39-.32-.75-.08-1.12,0,.52.34.92.32,1.45.12,0,.2,0,.24-.2a2.57,2.57,0,0,1-.19-.93c-.09-.09-.08.09-.16,0,.11-.18-.1-.25-.05-.4s.11,0,.15-.09c0,.14.23.18.11.36.14,0,.11,0,.2.08.07-.21-.11-.47,0-.61a5.57,5.57,0,0,0,.32.76c.06-.4-.28-.64-.05-1.1-.11-.11-.13,0-.22,0,0-.26-.09-.5-.13-.75-.1.34.15.67,0,.93A2,2,0,0,1,3,31.85c-.16,0-.08-.11-.17-.15s0,.21-.12.18,0-.16,0-.27.12-.08.16-.19-.21-.56,0-.7c-.12,0,0-.11-.1-.12,0,.16,0,.09-.1.22s.08.37-.09.47c.07-.27-.1-.67.19-.85-.09-.09-.07.09-.16,0s0-.09,0-.13l.1-.22a1.12,1.12,0,0,1,0-1c-.09-.09-.07.09-.16,0A1.84,1.84,0,0,1,2.71,28a1.48,1.48,0,0,0,.11.7c-.06.06-.16,0-.2.11s.07-.1.15,0,.13.34,0,.6c0,0,.12,0,.11.09-.09.38.21.62.09,1,.17.09,0,.34.21.4,0,.06-.11.15,0,.16a.46.46,0,0,0,.08-.35l.13.05c-.08.17-.14.38-.26.43.11,0,0,.09,0,.15s.13,0,.12.09-.1,0-.11.07.17.17.18.28-.11,0-.13.13.07-.14.15-.09a.54.54,0,0,0,.16.27c0,.07-.07.14-.11.22.22.44.35.92.55,1.37A.28.28,0,0,0,4,34c.07.06,0-.16.12-.1a.6.6,0,0,1,.06.8c-.08-.08-.07.1-.15,0a8.46,8.46,0,0,0,.16.85c.11.11.07-.19.19-.08l-.12.26.19.09c.14-.18,0-.25,0-.38.13.11.08.29.2.4a1.89,1.89,0,0,0-.24-.65c0,.05,0,.2-.12.18a.6.6,0,0,1,.09-.73l.1,0c-.09.25.26.33.12.59.29.13,0,.49.17.66-.12,0-.16.2-.22.33s.23.26.17.46a.5.5,0,0,1,.25.31s-.09,0-.1.06a.17.17,0,0,1,0,.25c.27.12.11.4.29.56-.17.81.58,1.27.84,1.92-.08.13-.06.22,0,.28,0-.13.14-.13.21-.21,0,.08.11.1.12.17s-.18-.1-.19.07.17.13.12.25-.15.07-.18.22a.27.27,0,0,1,.08.43c-.37-.49-.37-1.12-.88-1.56-.14.2.21.2,0,.41.2.13.3.48.12.59.09,0,0,.14.16.15s-.11-.14,0-.14c0,.2.24.32.08.58.09.09.07-.09.16,0,.06.3.49.46.23.88.12.11.08-.19.18-.15.19.22.47.41.5.69.07.06.31.06.23.18.09.07.09-.1.19,0s.13.48.17.73c-.08,0-.12.08-.16.2l.26.11c.08-.09-.1-.07,0-.16s.14.2.36.24a5.12,5.12,0,0,1-.25-.65c.37.2.48.49.85.69.08-.19-.29-.21-.21-.4.21.11.36.25.24.49.2.07.32.16.33.3s.21,0,.32,0c-.07.24.21.35.4.49.11-.12-.18-.08-.07-.19s.11.12.15.18-.1,0-.11.07c.55.38,1.28.69,1.19,1.31l.26.11c0,.26.29.39.34.62-.14-.09-.21-.24-.39-.17-.43-.46-1.25-.77-1.41-1.33-.09-.07-.09.09-.19,0a2.32,2.32,0,0,0-.63-.75c-.12.1.07.2-.06.21,0-.08-.11-.1-.11-.17s.11,0,.13-.13c-.31-.2-.3-.52-.78-.66,0,.18.39.37.18.55a.52.52,0,0,0-.23-.26c-.07.09.14.21,0,.23s0-.19-.17-.23c-.12.23.21.28.27.43.12-.09-.07-.2.05-.2s.11.1.12.17-.09,0-.11.06.2-.08.21.06-.09,0-.11.06.08.05,0,.1.07-.18.19-.07c-.14.27.15.07.29.21,0,.08.08.11,0,.22.21-.08.17.24.48.29-.08.19.29.21.21.4.12,0,.27,0,.23.18a.45.45,0,0,0,.35.08l-.06.13a11.45,11.45,0,0,0,3.27,2.62c.06-.05.15,0,.25,0a1.54,1.54,0,0,0-.08.19,15.44,15.44,0,0,0,2.38,1.07c-.05.09.08.11,0,.22a5.71,5.71,0,0,1,1.61.72.18.18,0,0,1,.19-.07c-.09.09.09.07,0,.16.32,0,.69.15,1,.14.27.37.78.19,1.19.46a12.73,12.73,0,0,1,1.4.32,1.08,1.08,0,0,0-.08.19.17.17,0,0,0,.25,0c-.06,0-.18,0-.1-.13.37.18.71-.11.95.12a1.54,1.54,0,0,0,.08-.19c-.19,0-.22-.15-.32-.22s-.14.09-.22.13-.09,0-.08-.07.1,0,.11-.07c-.53-.19-1.21-.12-1.6-.41,0,.09-.1.05-.15.09-.49-.28-1-.25-1.2-.69,0-.08.11-.05.16-.09a8.12,8.12,0,0,0,1.68.29l-.06.13c.16,0,.23-.16.41,0a1.67,1.67,0,0,0-.08.2.17.17,0,0,0,.25,0c-.12,0-.15-.08-.07-.18.18.12.29,0,.44,0,0,.06,0,.09,0,.13s-.09,0-.11.07a.59.59,0,0,0,.76,0c.22.1.45-.11.62.08l-.24.09-.28-.13c-.17.21.18.21,0,.41.15,0,.07.11.17.15s-.08-.11,0-.22c.11.11.23-.08.27.08s-.09,0-.11.07l.2.09c.08-.09-.1-.08,0-.16.18.1.37-.1.49.1-.1,0-.11.18-.19.18a.4.4,0,0,0-.32-.06c.06.16-.11.18-.21.29.12,0,0,.12.1.12s.21,0,.35,0,.08.1,0,.18c.12-.05.3.06.48.13a.37.37,0,0,1,.4,0c.05,0,.05-.21.12-.18s.1.14.23.18.14-.1.22-.14.34.17.44.12c-.09-.06-.29-.08-.3-.17a.58.58,0,0,1,.58.07c.29,0,.53-.2.92,0a1,1,0,0,1,.6,0c.15-.08.27-.22.5-.09,0,0,0-.12.09-.11s.17.1.1.2a4.61,4.61,0,0,1,.84.38c0-.15-.29-.16,0-.26-.19-.1-.53-.15-.46-.35a4.66,4.66,0,0,0,1,.52c0-.14-.18-.21-.14-.37.41.1.64-.28,1.07-.14,0,0,0-.13.09-.12s.18,0,.14.11-.11,0-.13.13.15-.06.28,0c.09-.2.32,0,.44-.11a.17.17,0,0,0,0,.25c0-.14.09-.19.18-.31,0,.11.2.15.23.26.14-.14.38,0,.53-.15-.15-.14-.32,0-.4-.14a2.57,2.57,0,0,1,.62,0c.08-.08-.1-.07,0-.15s.07.11.16.15-.09-.07,0-.16c.21.09.33-.07.57.1a2,2,0,0,0,.11-.26c.09.08.14,0,.19,0s0,.1.07.11a.56.56,0,0,1,.44-.11c0,.12-.12,0-.12.1.25.16.35-.09.6,0a.63.63,0,0,1,.81-.09c.14-.06.19-.36.41-.21a1.54,1.54,0,0,1,.08-.19c.42.07.76-.07,1.24.16.08-.19.28-.1.47,0,.11-.11-.18-.07-.07-.18.14.11.22,0,.28,0,.23.36.62,0,1,.2.06-.12.21,0,.24-.2.15.11.19-.07.32,0s-.09-.07,0-.15.11-.09.22,0-.05.13-.08.19c.12.1.19,0,.28,0s.05-.19.05-.28a2,2,0,0,1,1.23.54c0-.09-.08-.11,0-.22s.16,0,.29.05c0-.12-.13-.16,0-.31-.11-.11-.13,0-.22,0s-.08-.11,0-.22l-.19-.08c-.09.08.09.07,0,.15a.66.66,0,0,0-.42-.1l.06-.13A.31.31,0,0,0,40,51c-.11-.1-.13,0-.22,0l.06-.13c.17.13.24,0,.41.11,0-.14.12-.11.19-.15s.08.1,0,.17c.16-.06.45.12.54.25,0,0,.13,0,.16-.09-.13,0,0-.11-.1-.12s-.09.09-.19,0a.72.72,0,0,1,0-.33c.21,0,.15.2.36.24a.74.74,0,0,1,.22-.67c.24,0,.54.11.76,0s.1.18,0,.31c.16.13.21,0,.36.08,0-.15.12-.23.24-.2-.08.18-.15.35-.23.52a.17.17,0,0,1,.07.19c.19.07.4.22.54.16l.15-.32c.23,0,.35-.24.52-.39,0,0,.18,0,.14.11a2.14,2.14,0,0,1-.1.22c.37.09.81.2.75.57.22,0,.21.17.36.24l.14-.32a.66.66,0,0,1,.67.06c.11-.12.19-.33.37-.3s.08-.29.17-.3l.1,0c-.19.21.14.23,0,.44.46.06.59.28.85.54,0-.09-.08-.12,0-.23s-.21,0-.18-.12.14,0,.15-.16-.11-.19-.09-.31a9.57,9.57,0,0,0,1.12.27c.06-.24,0-.25.17-.39-.13-.11.18-.39.07-.51s-.19.09-.21,0c.18-.12.28-.46.4-.71.11.05.14-.1.25,0a1.59,1.59,0,0,1,.39-.53c-.15-.15-.14.11-.25.05.12-.21.31-.21.39-.53-.41,0-.54.66-1,.58.41-.67.87-1.18,1.28-1.82-.12,0-.14.18-.28.11-.06.16-.13.31-.27.26A4.12,4.12,0,0,1,50,46.65s.09,0,.08.07c-.26.06.06.26-.12.45.39,0,.28-.66.6-.66a.18.18,0,0,0,0,.26c.3,0,.33-.64.57-.75-.15-.06-.25,0-.36.11s.16,0,.1.12,0,.23-.13.21l-.1,0,.06-.13c-.06,0-.2.08-.21-.06s.12,0,.14-.13-.14.15-.25.12c-.14-.19.21-.56.16-.78-.19,0-.08-.18-.2-.24s-.07.25-.15.24l-.1,0c.05-.15.07-.34.14-.5a1.24,1.24,0,0,0,.18-.14s0,0,0,0l.05-.09a.1.1,0,0,1,0,0l0-.07a.69.69,0,0,1,.09-.34c-.3-.05.16-.4,0-.51.14,0,.13-.28.25-.31,0,.26,0,.7-.18.85.15,0-.09.17.07.18.23-.24.2-.43.34-.77a.27.27,0,0,1,0-.41c-.13-.07-.15.15-.28.11l.15-.32c-.26.1-.31.43-.39.77a.14.14,0,0,1,0-.06c-.14-.13-.25-.16-.32-.08a.31.31,0,0,0,.09.12l0,.07a1.68,1.68,0,0,0-.2-.29s0,0,0,0c-.23-.23.24-.43.15-.67-.09,0-.11.08-.22,0a3,3,0,0,1,.15-.31c0,.08.09.15.06.2.15.17.22.15.36.29l0,0c0,.1-.19.25-.05.29s.13-.2.09-.26h0c.15-.06-.22-.29-.1-.36a1.93,1.93,0,0,1-.28-.22c.12-.2.24-.39.35-.6,0,0,0,.07,0,.09-.16.07.29.47.34.69s-.07.24-.14.25,0-.09-.07-.11a.18.18,0,0,0,0,.26c0-.06,0-.18.12-.1l.11-.24c.27.27.49.5.74.71,0,.27-.08.54-.13.81,0-.06-.15-.13-.19-.18s.06.22.18.27c-.08.39-.18.78-.31,1.2.05,0,.05,0,.05,0a.11.11,0,0,0-.14,0,.82.82,0,0,0,.23.25c.15.09,0-.15.14,0a.44.44,0,0,0-.16-.22,6.07,6.07,0,0,0,.35-.79c.13.1.2,0,.29,0,.19-.3.36-.68.56-1A2.64,2.64,0,0,1,53.46,44.07ZM35,7c-.07-.06-.31-.06-.23-.18l.26.11Zm.3.52.06-.13.13.06C35.41,7.58,35.35,7.61,35.25,7.53Zm1.88,1c-.22,0-.15-.19-.36-.23,0-.13.11,0,.12-.1s0,0,0,.06S37.2,8.38,37.13,8.52ZM30.82,4.31l.05-.09s-.07-.07-.12-.09L30.81,4c.36.16.49.07.71.31-.1.18-.32,0-.4.21-.06,0-.15-.1-.16,0-.06-.12-.13-.14-.22,0-.09-.12-.06-.1-.2-.09C30.6,4.28,30.69,4.24,30.82,4.31ZM30.59,4l-.28.11A.17.17,0,0,1,30.59,4Zm-.26-.11L30.27,4c-.16-.09-.28-.1-.34.08-.11,0,0-.1,0-.16-.13-.08-.16.14-.28.1l.09-.19a.16.16,0,0,0,.19-.07A.58.58,0,0,0,30.33,3.86Zm-.94-.65a1.42,1.42,0,0,0,.54.16c-.14.2-.42,0-.66-.06C29.27,3.18,29.38,3.33,29.39,3.21ZM26.88,2.08c-.13.14-.34,0-.5.09C26.5,2,26.71,2.12,26.88,2.08ZM25.26,3.45a.33.33,0,0,1-.31,0A.29.29,0,0,1,25.26,3.45ZM7.77,9.6s0,0,.05,0l0,0ZM2.15,30.4l.12.06c0,.12-.08.15-.18.07Zm.15,2.24a.51.51,0,0,1-.08-.5A.65.65,0,0,1,2.3,32.64Zm.1.66c-.12-.11-.14,0-.23,0s.18-.09.21-.29A.32.32,0,0,1,2.4,33.3Zm.43-.81c-.11-.12-.06-.3-.11-.44A.56.56,0,0,1,2.83,32.49Zm1.33,1.36A.45.45,0,0,1,4,33.26,1.07,1.07,0,0,1,4.16,33.85ZM6.84,12.5c-.09-.09-.07.09-.16,0,.09-.25.38-.36.33-.55.11,0,.14-.1.25-.05C7.13,12.13,6.93,12.18,6.84,12.5Zm0-1c0,.09.05.16,0,.28-.13-.07-.15.15-.28.11.06-.22.21-.15.15-.32,0,0,.11.07.14,0-.11-.25.29-.18.35-.43l.12.06C7.16,11.28,7.11,11.61,6.89,11.52Zm1-.26c-.13-.12-.08.25-.21.13-.09.09.09.07,0,.16s-.23.14-.3.33c0-.24.14-.59.38-.68.09-.09-.09-.07,0-.16.1.08.1-.11.15-.16l.13,0C7.93,11.09,7.8,11.08,7.86,11.26ZM52.15,41.4l-.07.14a1.68,1.68,0,0,0-.86-.37c0-.28.1-.71.4-.66l-.12.25c.13.05.15-.19.22-.31a3.18,3.18,0,0,0,.43.28C52.14,41,52,41.23,52.15,41.4Zm-5.59,8.5a.16.16,0,0,1,.07.19c-.16,0-.28.11-.47,0l.06-.13C46.37,50.06,46.46,50,46.56,49.9ZM24.7,9.37c-.05,0-.08,0-.1,0s-.09-.19-.16,0c-.19-.13-.31-.09-.47-.13,0,.15-.12.07-.15.16-.18-.13-.27,0-.42-.11.28-.19.72,0,1-.17.13.1.2.05.29.05C24.6,9.3,24.78,9.28,24.7,9.37Zm-2.17-.51.06-.13c.11.11.13,0,.22,0A.36.36,0,0,1,22.53,8.86Zm9.36,2c0-.05,0-.07,0-.09s.14,0,.22,0A.16.16,0,0,1,31.89,10.89Zm-.13-.05-.25-.12a.5.5,0,0,0,0-.13c.07.07.09.19.16,0l.13.05Zm-.09,0c-.14.18-.11.12-.05.29-.22-.06-.15-.21-.32-.15a1.08,1.08,0,0,0,.08-.19C31.48,10.83,31.55,10.78,31.67,10.87ZM22.8,8.6c-.19-.12-.25.09-.41.05,0,.09.05.16-.05.28-.27-.09-.42.1-.73-.09.22-.22.57-.1.78-.35.23,0,.38-.1.56-.21Zm-2.71.15h0c-.11-.05-.14,0-.13,0l-.08,0a.17.17,0,0,1,.25,0ZM17.16,49.49c-.05.13-.24-.07-.35-.08C16.87,49.27,17.05,49.47,17.16,49.49Zm30.5-23.27a.7.7,0,0,1-.14-.37l.13.06C47.53,26.06,47.71,26.09,47.66,26.22Zm3,7a1.87,1.87,0,0,1,0,.52,1.24,1.24,0,0,1,0-.61ZM44.78,47.49l-.19-.09c.06-.16.19-.16.31-.17Zm4.39-5.15c.08,0,.12-.16.22-.13l-.18.39C49,42.57,49.35,42.37,49.17,42.34ZM49,42.7l.05-.1.13.06c0,.07,0,.1-.08.11Zm.4-.71c-.12-.14,0-.36.1-.57A.7.7,0,0,1,49.41,42Zm-.11,4.08,0,0h0Zm.46-3.92c.17,0,.05.23,0,.22S49.7,42.14,49.76,42.15ZM51.3,40c0,.07.09.14,0,.09s.1.09,0,.19-.23.37-.45.3c.11-.14.18-.41.31-.64A.52.52,0,0,0,51.3,40Zm.8-.26h0Zm-1-5.83s0,0,0,0l0,0S51.14,34,51.09,33.93Zm-3.38-8c.12-.15-.06-.19,0-.31.08.16.25.29.24.49C47.77,26.09,47.88,26,47.71,25.93Zm-.26-1c.16,0,.1.17.3.21,0,.12-.09.14-.19.07-.08.15,0,.24.08.34l-.09.19A3.1,3.1,0,0,1,47.45,25Zm-2.91-6.1c.22.22.1.57.35.78a.18.18,0,0,1-.19.07C44.69,19.42,44.42,19.22,44.54,18.87Zm-.63-1.59c.08,0,.05-.2.15-.09a.26.26,0,0,0,.14.37l-.06.13c-.24-.08,0-.33-.36-.39C43.8,17.22,43.85,17.26,43.91,17.28Zm-1.25-1.1c-.14-.09-.25-.19-.24-.34C42.58,15.92,42.6,16.06,42.66,16.18Zm-1-.75c-.21-.06-.21-.2-.33-.3C41.49,15,41.64,15.33,41.68,15.43Zm-.35-.93c-.3-.1-.26-.33-.5-.45C41.06,14,41.35,14.31,41.33,14.5Zm-.22.13-.06.13c-.22,0-.16-.19-.26-.27C40.93,14.33,41,14.62,41.11,14.63Zm-1.06-1.09a.14.14,0,0,1-.18.07s0-.07,0-.09S40,13.53,40.05,13.54Zm-.32-.14c-.3-.17-.21-.49-.66-.6.08-.14-.14-.16-.1-.28A1.56,1.56,0,0,1,39.73,13.4Zm-.41-1.5c-.21.42.45.51.38.87-.33-.21-.73-.4-.75-.73C39.05,11.94,39.21,12,39.32,11.9ZM37.13,13c-.07-.07-.08-.15-.23-.18,0-.05,0-.08,0-.1.14-.15.19.13.33.15Zm-.23-.88c.16.06.31.13.26.27a.49.49,0,0,0-.35-.08Zm-1.22-.39c-.06.11-.23-.05-.31,0a.44.44,0,0,0-.29-.21C35.28,11.39,35.48,11.62,35.68,11.74Zm-2.79-.48.25.12s0,0,0,.06S32.81,11.38,32.89,11.26ZM31.77,9.6l.33.15L32,9.88a.17.17,0,0,0,.21-.14l.13.06c-.16.08-.3.22-.53.15,0-.12.09-.11.14-.13s0-.06-.08-.08-.17.08-.21.22a.44.44,0,0,0-.3-.21C31.52,9.69,31.7,9.77,31.77,9.6Zm-.46-2.75.13.06c0,.12-.09.14-.19.07Zm.06,3.66-.06.12c.12.11.08-.18.19-.07-.06.22-.22.18-.27.42a1,1,0,0,1-.45-.35c0-.14.19,0,.28,0s-.22-.11-.16-.23a4,4,0,0,1-1.82-1c.08-.11.27.08.33,0s-.25-.21-.27-.08c0-.08-.16-.12-.13-.22.51.26.62.14,1,.46,0,.11-.09.2-.17.2s.11-.07.21,0c-.11.13.06.16,0,.29C30.49,10.23,30.93,10.36,31.37,10.51Zm-.75-1.42.13.05c-.09.11-.24,0-.28.27l-.25-.12C30.31,9.12,30.55,9.34,30.62,9.09Zm-1.1-1.35c0,.15-.12.07-.15.17s0-.12-.1-.12A.17.17,0,0,1,29.52,7.74Zm-1.24-.16c.21.06.11.24.14.37-.09,0,0-.14-.16-.15C28.36,7.69,28.23,7.67,28.28,7.58Zm.1.81c.4.17,1,0,1.06.48.07,0,.07-.13.12-.18.21.11.42.21.54.09.11.09.13.18.29.13-.09.08.09.07,0,.15-.24-.14-.38,0-.64-.21,0,0-.06.06-.12,0s.09.07,0,.15c-.18-.09-.27.06-.45,0l.12-.26c-.19-.08-.22.27-.37.3s0-.11-.1-.12.1.14,0,.25l-.19-.09c0-.08.08,0,.11-.06s-.33-.13-.47-.17c0-.08.09,0,.11-.07s-.06-.07,0-.13l-.31,0C28.19,8.55,28.34,8.62,28.38,8.39Zm-.32.71c.19.13.33.13.44,0,0,.25-.23.23-.17.39-.18,0-.28.1-.47,0l-.06.13c.09.09.07-.09.16,0a.16.16,0,0,1-.19.07c.05-.07,0-.11,0-.17s-.07.13-.11.18c-.2-.1-.3.07-.51-.07.07-.12.2-.08.34,0l.14,0c-.09-.09-.21-.17-.21-.3-.06,0-.1.07-.19,0A1.62,1.62,0,0,0,28.06,9.1Zm-.93-1.88.19.08a.16.16,0,0,1-.25,0ZM27,7.54a.52.52,0,0,0,.36.08l-.06.13c-.14-.09-.2,0-.35-.08A1.12,1.12,0,0,0,27,7.54Zm-.85-.16c.08,0,0,.09.06.11s0-.14.06-.21.17,0,.21-.13c.07.19.21.09.35.08a.17.17,0,0,1-.28.11.36.36,0,0,1,0,.09c0,.09.18.1.24.15s0,.08-.05.13a1.6,1.6,0,0,0-.33-.3c-.08.08,0,.09.1.12l-.06.13c-.16-.2-.3-.1-.51-.08C26,7.51,26.05,7.46,26.13,7.38ZM25.7,7c.11.1.13,0,.22,0a.37.37,0,0,1-.28.11Zm-.1,0a.16.16,0,0,1-.21.13A.16.16,0,0,1,25.6,7Zm-.82-.76c.1,0,.16,0,.29,0a.64.64,0,0,1-.37.15Zm-.6-.73c-.11.13.06.16-.05.29-.15-.07-.14-.2-.35-.24C23.89,5.48,24.05,5.54,24.18,5.51Zm-.7.54.09-.2c.11,0,0,.1,0,.16.2,0,.35,0,.54,0-.3.22-.76.06-1.09.2-.09-.11-.06-.09-.2-.08A.75.75,0,0,1,23.48,6.05ZM21.59,4.66c-.16,0,0-.23,0-.22S21.66,4.67,21.59,4.66ZM22,3.93a.52.52,0,0,1-.62.18C21.61,4,21.74,3.76,22,3.93Zm-.88,2.85s-.08.11,0,.14a2.12,2.12,0,0,1,1-.25c-.06.12-.21,0-.24.2.11,0,.2-.11.34-.08s-.09-.07,0-.15,0,.12.13.13.34-.18.46-.41c.06.17.17,0,.2.16.07,0,.09-.18.21,0,0-.17.16-.06.18-.23.36.17.54-.1.86,0-.11.11,0,.14,0,.23s-.3.31-.55.21c0-.1.13,0,.15-.17a2.11,2.11,0,0,0-.77.16c.05.1.29.12.33,0,.28.29.71.26.87.39.11-.19.37,0,.5-.17.07,0,.2.16.22,0,.09,0,0,.13.16.15s-.09-.07,0-.16.06.15.22.18c0,.12-.11,0-.12.1-.05-.13-.18-.14-.25,0-.05-.12-.2-.19-.28,0s0-.08-.07-.11c-.13.12-.34,0-.44.19-.13,0-.28-.09-.34.08l-.19-.08c-.09.08.09.07,0,.15l-.13-.05c-.16.3-.47.24-.74.28,0,.09,0,.16-.05.29l-.19-.09-.12.26a2.63,2.63,0,0,1-.57,0c-.09,0-.05-.14-.1-.2s0,.16-.08.27-.35.13-.53.15.09.07,0,.16c-.29-.23-.32.21-.57.06,0-.06.07-.12,0-.15a.31.31,0,0,1-.37.07c.16,0,.19-.25.37-.15l.06-.12c-.18,0-.28.1-.47,0-.1.26-.36.07-.5.24a.17.17,0,0,1,0-.25c.05,0,.07,0,.09,0s0,.08.07.11.07-.13.12-.18.38,0,.49-.24c.45.05.76-.25,1.23-.15a.51.51,0,0,1-.26.23c0,.14.08,0,.14,0a.05.05,0,0,0,0,.08c.1,0,.13-.26.2-.37s.26-.08.44,0c0,.11-.12,0-.13.13s.16,0,.27.09l.09-.2a.73.73,0,0,0,.33,0c-.1-.15-.4-.21-.5-.11-.07-.16-.09,0-.25-.11a.32.32,0,0,1,.27-.11c.09-.09-.09-.07,0-.16s0,.08.07.11.07-.13.11-.18c-.12-.11-.14,0-.25,0L22,7.24c-.12,0,0-.11-.1-.12s0,.16-.05.29c-.11-.06-.14.09-.25,0,.06-.07.14-.07.17-.23s-.08,0-.12.1l-.19-.08c.05-.17.18-.1.21-.3-.24,0-.37.24-.62.19-.09.11,0,.16,0,.23s.22,0,.27-.18c0,.08.17.11.14.21-.25-.09-.41.06-.63,0a.69.69,0,0,0,.05-.13.17.17,0,0,0-.21.14,3.17,3.17,0,0,0-.51-.08c.09-.08-.09-.07,0-.15s.4-.09.6-.12c0-.11.1-.22.14-.33C21,6.86,21.06,6.73,21.15,6.78ZM19.05,8l.13.06c.09-.09-.09-.07,0-.16s.32,0,.41-.2c.07,0,0,.08.06.1a.22.22,0,0,0,.21-.21l.13.06a6.87,6.87,0,0,1-1,.64l-.19-.09c.05-.09.17,0,.25,0S19,8.09,19.05,8ZM21.1,5.67c-.29.13-.59.24-.87.39l.09-.19a1.33,1.33,0,0,0,.52-.31ZM20,3.57c.12,0,.11.09.13.14s.08-.21.09-.27c.18.07.08.25.14.37a1.05,1.05,0,0,1-.65.25C19.8,3.8,20,3.78,20,3.57Zm-1.33.72c.14.07.14-.21.21-.29s0,.08.07.11c.11-.12.19-.3.3-.41.24.13.32-.18.56-.06,0,0,0,.09-.05.13l-.13,0a.77.77,0,0,0-.07.16s.06.06.11.09a.7.7,0,0,1-.37.14c0-.05.07-.12,0-.14s0,.14-.05.2,0-.11-.1-.12c.06.17-.07.17-.15.32-.15-.09-.25,0-.3.17C18.66,4.49,18.74,4.37,18.7,4.29Zm-.17,4c.11.1.13,0,.22,0l-.06.13A.37.37,0,0,0,19,8.35c.18.13.24,0,.42.11-.07.07-.15.08-.18.23-.26.06-.6-.07-.85,0,0-.07.15-.2,0-.22C18.41,8.38,18.51,8.46,18.53,8.31Zm-.05-4c0,.07-.06.13-.08.19l-.13,0C18.34,4.38,18.38,4.24,18.48,4.27Zm-.65.25a.17.17,0,0,1,.25,0c0,.16-.18.09-.21.29s.07-.09.16,0a.18.18,0,0,1-.22.14C17.89,4.74,17.81,4.65,17.83,4.52ZM16.6,9.68a.48.48,0,0,0-.21.3.16.16,0,0,1-.07-.19A.41.41,0,0,1,16.6,9.68Zm-7-.74c.09.06,0,.18,0,.25l-.12,0Zm2,38.29c-.22-.06-.18-.22-.43-.27,0-.15.18.09.19-.07.08.11.06.1.19.09-.07.08,0,.09.1.12S11.63,47.19,11.61,47.23Zm.39.33a.17.17,0,0,0-.11-.28c-.08.09.09.07,0,.16s-.06-.16-.23-.18c0-.15.12-.07.15-.16.16.09.35.22.68.38.11-.12-.18-.08-.07-.19l.26.12c0,.08.08.11,0,.22a2.25,2.25,0,0,1,.69.46c.08,0,.12-.1.22-.06-.05.3.31.45.47.68C13.14,48.29,12.82,48,12,47.56Zm3.69,2.12a.17.17,0,0,1,.25,0l-.06.13Zm1.38.54c-.15-.09-.28-.13-.37,0s.11-.07.21,0c0,.29-.28-.09-.34.08-.11-.12-.55-.19-.84-.37.07-.12.26.08.33,0s-.2-.05-.09-.15c.36,0,.92.44,1.28.42C17.24,50.3,17.08,50.06,17.07,50.22Zm7,1.81-.26-.11c.1-.06.25,0,.34-.08Zm-1-.68c.43-.17,1.07.19,1.55.15A4.25,4.25,0,0,1,23.05,51.35Zm2.16.35a1.76,1.76,0,0,0-.57-.1c0-.05,0-.09.05-.13a1.81,1.81,0,0,0,.58.1Zm.69,0c.16-.11.37-.05.57-.05C26.38,51.92,26.09,51.68,25.9,51.7Zm3.1.15a.17.17,0,0,1,.25,0A.16.16,0,0,1,29,51.85ZM30.61,51c-.18-.13-.21.11-.38,0l.09-.19c.1.07.16,0,.18-.07s0,.07,0,.12S30.72,50.92,30.61,51Zm.44,0c-.15-.13-.21,0-.35-.08a.31.31,0,0,1,.41-.05Zm8.56,0c-.17,0-.06-.14-.2-.17s-.07.13-.12.18c-.24-.08-.43,0-.66-.07a1.12,1.12,0,0,1,0-.13c.19.07.32,0,.51.08.05-.09-.08-.11,0-.22a1.75,1.75,0,0,0,.45,0C39.65,50.92,39.7,51,39.61,51.12Zm2.85-1.2c-.09-.08-.07.09-.16,0l.06-.13c-.11,0-.21,0-.32,0s0-.17-.13-.21.11,0,.12-.1c.1.06.2.09.25,0s0,.15.2.17C42.38,49.81,42.5,49.83,42.46,49.92Zm.56.48c-.09.09.09.07,0,.16-.08-.09-.07.09-.16,0,.08-.1.06-.16-.07-.19l.09-.19c.12,0,.27.05.31-.17a.44.44,0,0,1,.29.21A.48.48,0,0,1,43,50.4Zm.82-.63c-.06.12-.21,0-.24.2-.13,0,0-.12-.1-.12.18-.08,0-.15,0-.29s.2,0,.31,0c-.06.12-.21,0-.24.2S43.73,49.67,43.84,49.77Zm.29-.65c-.09,0,0-.13-.17-.15l.12-.25.19.08C44.22,48.91,44.18,49,44.13,49.12Zm.84.38-.13-.06c-.09.09.09.07,0,.16-.08-.08-.09,0-.12.1l-.13-.06c0-.12.12,0,.12-.1s-.11.08-.22,0l.09-.19c.11.1.13,0,.22,0s-.09-.07,0-.16,0,.17.14.22c0-.11-.1-.15,0-.25s.06.15.23.17C45.08,49.43,45,49.35,45,49.5Zm1.52,1.07c-.14-.09-.19,0-.35-.08,0,.12,0,.36-.21.29s-.09-.17,0-.31c.33.05.51-.27.81-.26C46.69,50.49,46.4,50.34,46.49,50.57Zm-.13-.91c.09-.24.26-.26.36-.46l.19.09C46.72,49.4,46.65,49.8,46.36,49.66ZM49,46.05c0-.06.09,0,.15,0s.08.15.16.2a2.24,2.24,0,0,1-.31.52C48.51,46.58,49.32,46.19,49,46.05Zm0,1.63-.13,0c.07-.07.15-.08.18-.23C49.21,47.44,49,47.59,49,47.68Zm1.33-2.1c-.09.12-.11.45-.26.42,0,.29-.26.41-.26.74-.27,0-.38.48-.6.65-.2-.19,0-.54,0-.79a.41.41,0,0,1,.47,0c.11-.13-.06-.15,0-.28-.11-.06-.14.09-.25,0,.11-.27.22-.53.42-.59s-.1-.07,0-.15.09-.05.12-.1S50.2,45.45,50.35,45.58Zm-.36-.4c-.07.09-.08.3-.18.31l-.1,0,.21-.47a.65.65,0,0,0,.27,0A.69.69,0,0,1,50,45.18Zm.36-1.32a.38.38,0,0,0,.16.11h0a1.34,1.34,0,0,1-.09.26L50.31,44A.36.36,0,0,1,50.35,43.86Zm.28-2,0,.08s0,0-.07,0A.24.24,0,0,1,50.63,41.83Zm0,.14s.05,0,.08,0l0,0Zm.09-.92a.31.31,0,0,0,0,.08h0s0,0-.06,0h-.06a.26.26,0,0,1,0,.08l0,0,0,0c0,.1-.22,0-.24.2a.18.18,0,0,1,.12.1c0,.13-.19.24-.26.38,0-.08-.09-.13,0-.24-.12.05-.32-.09-.44,0,0-.11-.15-.14-.12-.25a4.92,4.92,0,0,1,.86-2.28.16.16,0,0,1-.13-.21c-.11-.06-.14.09-.25,0s-.08-.11,0-.22c.17.13.27,0,.42.11a.36.36,0,0,1,0-.21,1.51,1.51,0,0,1,.3.13,1,1,0,0,0,.56.5c.17.18-.13.21-.25.17s.15.29.06.33l-.06,0,.06-.07-.13-.06,0,.08a1.64,1.64,0,0,1-.33-.16.31.31,0,0,0,0-.25c-.15.22,0,.33-.17.55l.13,0a1.4,1.4,0,0,1,.06-.28,1,1,0,0,0,.25.25c-.11.15-.25.27-.2.47,0,0-.2,0-.17-.12s.09,0,.1-.07c-.21,0,0-.17-.13-.21s0,.21-.12.18,0-.12-.13-.14c-.08.36,0,.9-.4,1.06.19.08.08.35,0,.38a.19.19,0,0,1,.07.19c.09,0,.11-.08.22,0,.12-.19,0-.3,0-.45.14.08.16-.14.28-.1-.07-.17.13-.12,0-.26.08,0,.1-.11.17-.11s0,.31.17.38c0-.08,0-.46.2-.45a2.63,2.63,0,0,1-.06.48h-.17C50.87,41.16,50.83,41.18,50.74,41.05Zm-.51-1.94a1.05,1.05,0,0,1,.08.35C50.14,39.4,50.14,39.27,50.23,39.11Zm2.06,5.25c-.15,0-.18.27-.34.23a3.65,3.65,0,0,0,.18-.87l.3.18h0A4,4,0,0,1,52.29,44.36Z"/><path d="M53.65,43.19c.08,0,0-.15-.13-.25S53.54,43.16,53.65,43.19Z"/><path d="M52.56,47.87a1.8,1.8,0,0,1,.2.19c.07,0,0-.09.05-.14S52.62,47.81,52.56,47.87Z"/><path d="M52.57,44.78c.1.08.18.07.3.19s.07-.1.14,0a1,1,0,0,0-.3-.37c0,.11-.23-.16-.27,0s0,.06,0,.09S52.68,44.74,52.57,44.78Z"/><path d="M52.27,44.86c-.12,0-.15,0-.17.16.26.26.36.41.57.4A1.19,1.19,0,0,0,52.27,44.86Z"/><path d="M69.84,55.93c-.1,0,0,.15-.08.19.15.17.19.1.3.18l0,0C69.89,56.11,70,56.06,69.84,55.93Z"/><path d="M50,49.25c-.31-.07,0,.33-.39.13.08.24.35.53.35.75a6.66,6.66,0,0,1,.87.55,1.24,1.24,0,0,0,.35-.39,5.24,5.24,0,0,1-.49-.69C50.43,49.4,50.31,49.56,50,49.25Z"/><path d="M50.28,47.17c.35.49.33-.16,0,0Z"/><path d="M3.5,9c.3.16.26.4.46.62a2.4,2.4,0,0,1,.65.5c.08-.13.18-.05.44.12.09-.13.27-.11.44-.18C5.62,9.21,3.83,8,3.36,8.47,3.34,8.64,3.58,8.88,3.5,9Z"/><path d="M45.56,56a1.1,1.1,0,0,1,0,.18c.13.13.07-.17.24,0C45.84,56.12,45.64,56.1,45.56,56Z"/><path d="M51,48.56c-.05,0-.17-.1-.2,0a1,1,0,0,0,.4.28A.52.52,0,0,0,51,48.56Z"/><path d="M57.86,44.92c-.27-.16-.42-.45-.66-.5-.08-.1,0-.1-.13-.16.06,0,.08-.2.12-.33-.33-.23-.32-.31-.3-.49-.24-.12-.48-.41-.81-.63-.37.06-.27.58-.38.84-.16-.13-.24-.06-.34-.06l0,0c-.07-.14-.37-.35-.32-.44-.2.11-.48-.54-.65-.34a1.33,1.33,0,0,1,.38.47.46.46,0,0,1-.2.27c.12,0,0,.12.1.13a.35.35,0,0,0,.18-.28,1.63,1.63,0,0,0,.23.23c-.21.37.2,1.11.44,1.56a12,12,0,0,0,1.59,1.19c.16-.15.23,0,.51.15-.07-.26.3-.09.49-.14,0-.15,0-.23-.06-.35.35.06,0-.33.2-.43C58,45.33,57.82,45.09,57.86,44.92Z"/><path d="M58.42,54.8c0,.08,0,.13-.08.19s.14.06.23.15C58.65,55.07,58.65,55,58.42,54.8Z"/><path d="M51.83,46.25c-.09,0-.19-.12-.24-.06a.69.69,0,0,0,.22.26s.06,0,.1,0S51.79,46.29,51.83,46.25Z"/><path d="M59.35,48.29c-.05.14-.09.25-.27.2.09.16,0,.21,0,.33A4.16,4.16,0,0,0,60.25,50c.11-.1.3,0,.51.14.08-.15.05-.32.23-.36a8.8,8.8,0,0,1-.47-.81A2.75,2.75,0,0,0,59.35,48.29Z"/><path d="M8.81,6.75c-.11.07-.08.18-.07.29.24.19.22.26.41.36,0-.06.08,0,.14,0-.16-.25.24,0-.06-.23a1.87,1.87,0,0,1,.82.21C11.3,7,7.84,4.8,8.58,6.5,8.74,6.61,8.68,6.65,8.81,6.75Z"/><path d="M63,52.19c-.21-.08-.21-.13-.44-.34,0,.06-.08,0-.14,0,0,.13,0,.06-.13.15.08.12.22.27.15.35.26.27.37.18.59.35,0-.11.14,0,.19-.1S62.94,52.27,63,52.19Z"/></g></g></svg>