<svg xmlns="http://www.w3.org/2000/svg" viewBox="0 0 75.24 58.3"><title>资源 4</title><g id="图层_2" data-name="图层 2"><g id="央铋_1" data-name="央铋 1"><path d="M28.93,51.87c0,.12-.19.34,0,.34,0-.06.05-.12.12-.08A.22.22,0,0,0,28.93,51.87Z"/><path d="M29.62,52c-.1.2-.38,0-.47.21.29.11.45-.07.78.11,0-.15.19-.05.19-.29C29.93,52,29.75,52.23,29.62,52Z"/><path d="M33.51,52.27c.2.1.36.08.43-.1C33.74,52.08,33.58,52.1,33.51,52.27Z"/><path d="M28.13,49.34c-.12-.05-.4.21-.19.29C28,49.48,28.13,49.58,28.13,49.34Z"/><path d="M18.61,45.9c-.2.05-.15.07-.29-.08,0,.24-.25-.09-.25.16.19,0,.23.14.22.29.4,0,.52.26.82.35l.06-.21C19,46.23,18.57,46.21,18.61,45.9Z"/><path d="M39.78,52.48l.09-.31-.19-.06C39.73,52.22,39.64,52.42,39.78,52.48Z"/><path d="M17.41,45.44l.66.19C18.14,45.28,17.54,45.24,17.41,45.44Z"/><path d="M17.69,44.83l-1.32-.38c.13.22.64.81,1,.46C17.41,44.75,17.69,45.09,17.69,44.83Z"/><path d="M31.54,48.84a.23.23,0,0,0-.34.13C31.37,49.05,31.46,49,31.54,48.84Z"/><path d="M16.55,43.82a.25.25,0,0,1-.12-.27c-.23-.1-.62-.1-.74-.27s.25.13.23-.1-.3-.22-.53-.27l-.06.21.28.08c-.15.32.28.25,0,.45l.47.14c-.09.25.05.37.16.5C16.23,43.94,16.45,44,16.55,43.82Z"/><path d="M38.54,50.41c0-.21,0-.37-.07-.48l-.09.32C38.55,50.22,38.37,50.43,38.54,50.41Z"/><path d="M26.51,46.12c-.12.13-.67.16-.44.45a.75.75,0,0,1,.85-.1l.06-.21C26.74,46.21,26.63,46.37,26.51,46.12Z"/><path d="M22.71,45.14c.13,0,.37.22.4,0L22.55,45c-.05.15.13.15,0,.34l-.38-.11c-.15.43.38.22.54.27C22.84,45.29,22.65,45.29,22.71,45.14Z"/><path d="M21.55,45.26c.13,0,.37.22.4,0C21.82,45.27,21.58,45,21.55,45.26Z"/><path d="M40.58,50.42c0-.18.23-.08.28-.26C40.68,50,40.36,50.31,40.58,50.42Z"/><path d="M20.32,43.87a1.08,1.08,0,0,0,.66.54C21,44.1,20.69,44,20.32,43.87Z"/><path d="M19.5,43.52c.31.11.44.35.69.09-.35,0-.32-.26-.63-.3Z"/><path d="M18.83,42.64l-.37-.11c0,.1-.13.25,0,.24C18.5,42.5,18.83,42.91,18.83,42.64Z"/><path d="M8.64,39.06c0,.13.26.1.36.16L9.06,39C8.91,39,8.65,38.77,8.64,39.06Z"/><path d="M16.06,40.92c.08-.22,0-.35-.19-.4C15.79,40.75,15.86,40.88,16.06,40.92Z"/><path d="M11,39c0,.37.6.32.76.56l.06-.21c-.17,0-.36-.06-.22-.29C11.45,39.15,11.23,39.08,11,39Z"/><path d="M7.17,37.78,7.11,38c.27,0,.14.26.32.32A.39.39,0,0,0,7.17,37.78Z"/><path d="M12.89,39.55,12,39.27C12,39.66,12.62,39.67,12.89,39.55Z"/><path d="M13,39l-.06.21.28.08A.24.24,0,0,0,13,39Z"/><path d="M13.67,39.31c.06-.32.13-.65-.07-.82C13.47,38.86,13.48,39.14,13.67,39.31Z"/><path d="M10.58,36.59l-.38-.11c-.09.26.33.19.16.5.22,0,.12.16.26.19C10.77,36.87,10.43,36.88,10.58,36.59Z"/><path d="M13.78,36.82l-.06.21.19.06C14,36.92,14,36.83,13.78,36.82Z"/><path d="M11.54,35.37c-.22-.06-.33.1-.59,0a1.46,1.46,0,0,0,1.67,1.28c.05-.32-.29-.3-.49-.25-.08-.39-.83-.35-1-.69,0,0,0-.1,0-.16A.23.23,0,0,0,11.54,35.37Z"/><path d="M9.82,35c-.24-.06-.25-.25-.41-.35a.24.24,0,0,0-.25.16C9.43,34.87,9.57,35.39,9.82,35Z"/><path d="M6.58,34.17c0-.18,0-.38-.28-.43L6.24,34C6.48,34,6.34,34.17,6.58,34.17Z"/><path d="M10.94,35l.57.16C11.58,34.82,11.06,34.45,10.94,35Z"/><path d="M6,32.84l-.09.31c.23,0,.15.25.44.25C6.29,33.14,6,33,6,32.84Z"/><path d="M9.26,30.93c0-.07.05-.12.12-.08a.26.26,0,0,0-.13-.27C9.25,30.7,9.07,30.93,9.26,30.93Z"/><path d="M5.3,29.44a.26.26,0,0,0,.09.37A.25.25,0,0,0,5.3,29.44Z"/><path d="M9.25,29.89l-.12.43c.17,0,0,.18.15.16C9.38,30.22,9.45,30,9.25,29.89Z"/><path d="M5.66,28.17c-.17.34,0,.48,0,.69l.28.08C6,28.63,6.12,28.2,5.66,28.17Z"/><path d="M5.73,28c-.09-.22.11-.62,0-.85a.83.83,0,0,0,.32-.42c-.18-.07-.27-.21-.42-.3.11,0,.12-.19.22-.22l.23.07a2.5,2.5,0,0,1,0-.48.38.38,0,0,1,.25.15c.23-.07.09-.34-.06-.47,0,.07-.17.14-.2.23a.26.26,0,0,0-.15-.23c.15,0,.18-.26.23-.45-.16-.13-.18.07-.31,0,0-.3.25-.17.31-.37-.17-.14-.29-.43,0-.59-.25,0-.16-.19-.1-.37-.13-.11-.09.16-.22,0-.07.11.18.26-.06.21a.35.35,0,0,1-.12.43c.25.06.07.62-.07.78s-.19-.15-.3-.2c-.07.21-.13.42-.19.63.23.2.17-.2.35-.13-.16.42.3.45.28.77l-.28-.08c0,.29-.17.44-.4.34-.28.67-.09,1-.28,1.65.18,0,0,.18.16.16,0-.41.29-.42.34-.82-.07-.06-.29,0-.27-.14s-.08-.32.08-.61c.13.08.42.05.45.19C5.43,27.37,5.38,27.78,5.73,28Z"/><path d="M10.4,29.08c-.22,0-.24-.13-.34-.21,0,.28-.18.25-.24.44s0,.19.15.22A3.07,3.07,0,0,1,10.4,29.08Z"/><path d="M57.37,40a1.79,1.79,0,0,1-.33.76c.06.07,0,.19.14.22a1.12,1.12,0,0,1,.06-.23.15.15,0,0,1,.1,0c.06-.07-.05-.09,0-.15s.1,0,0,0h-.07C57.38,40.4,57.48,40.15,57.37,40Z"/><path d="M6.68,25.37l-.06.21A.23.23,0,0,0,7,25.45Z"/><path d="M6.76,23.33c0-.19.16,0,.15-.19s-.13-.15,0-.34a.23.23,0,0,0-.26.21C6.78,23.05,6.59,23.3,6.76,23.33Z"/><path d="M57.32,37.38l-.1,0-.12.42C57.28,37.86,57.24,37.5,57.32,37.38Z"/><path d="M7.2,21.62c-.09,0-.22.4,0,.34S7.43,21.57,7.2,21.62Z"/><path d="M7.36,19.49l-.19-.06c0,.24-.14.28-.22.4l.29.08C7.32,19.63,7.15,19.64,7.36,19.49Z"/><path d="M8.57,17.77c-.23.32-.64.25-.81.69A3,3,0,0,0,8.82,18C8.61,18,8.71,17.8,8.57,17.77Z"/><path d="M59.82,28.35c.1-.23.09-.4-.06-.47C59.66,28.11,59.67,28.28,59.82,28.35Z"/><path d="M60.17,28.23c0-.24.15-.14.18-.29l-.19-.06C60.16,28,60,28.23,60.17,28.23Z"/><path d="M60.24,27.44c-.09,0-.23.4,0,.35S60.47,27.39,60.24,27.44Z"/><path d="M53.81,25.13l.19.05q.14-.25-.12-.27A1.87,1.87,0,0,1,53.81,25.13Z"/><path d="M56.16,24.77l.19.06a.51.51,0,0,0-.06-.48C56.24,24.49,56.2,24.63,56.16,24.77Z"/><path d="M13.13,11.18c-.17,0-.27.12-.31.37.14,0,.27-.14.16.16.13.11.08-.16.22-.05,0,.06,0,.13.06.13l.06-.21C13.11,11.54,13.05,11.4,13.13,11.18Z"/><path d="M60,23.72c.09,0,.26-.18.3,0a1,1,0,0,0-.44.44,3.61,3.61,0,0,1,.12.67c.61,0,.87-1.13.93-1.8L60.66,23c-.08.26.05.37,0,.58-.13-.11-.09.16-.22.05l.06-.21c-.24-.15-.29.07-.5,0C60,23.52,60.17,23.52,60,23.72Z"/><path d="M15.47,11.4l-.24.27c.23,0,.41-.06.69.09C15.91,11.55,15.55,11.56,15.47,11.4Z"/><path d="M10.52,10c-.25-.08-.53-.22-.63,0l.57.17Z"/><path d="M11.37,9.87l.06-.22c-.28-.05-.13-.11,0-.23-.22-.09-.34.07-.46.2C11.16,9.65,11.08,9.87,11.37,9.87Z"/><path d="M11.87,9.55c-.18-.08-.27,0-.35.13l.28.08A1.72,1.72,0,0,0,11.87,9.55Z"/><path d="M12.49,9.85c0-.26.19-.12.21-.34s-.11-.08,0-.19c-.19,0-.15.06-.28-.08,0,.35-.22.22-.32.37C12.29,9.63,12.21,9.85,12.49,9.85Z"/><path d="M51.45,20.66c0-.11-.18-.33-.35-.23a.1.1,0,0,1,0,.12c-.14,0-.18,0-.29-.07-.08.1.21.12.13.22a.17.17,0,0,0-.11-.11,0,0,0,0,1,0,0h0c-.08,0-.1.08-.08.12v0a.39.39,0,0,0,.17.14L51,21A.09.09,0,0,0,51,21c-.06-.12-.15.08-.06.14a.2.2,0,0,0,.21-.18l0,0c.13-.08.32-.05.43-.16s.08,0,.23.1c0-.1,0-.18-.12-.23s0,.1-.12.08,0,0,0-.06Z"/><path d="M15.07,6.24c-.13,0-.22.11-.41,0-.08.16.15.12,0,.3-.32.09-.39.7-.79.63.12.25-.15.55-.38.58l-.12.42c-.16-.05-.18.18-.34.13,0,.44-.47.7-.28,1C13.47,8.1,14.32,7.27,15.07,6.24Z"/><path d="M60.63,22.74l.19.06.09-.32-.28-.08C60.58,22.54,60.76,22.55,60.63,22.74Z"/><path d="M14.59,9c.2.14.21-.13.41,0,.05-.18-.16-.19-.1-.37l.66.19c0-.34.25-.28.28-.61-.24,0-.36.27-.6.29a3.6,3.6,0,0,1,1-.87c-.28-.08-.4.18-.66.15C15.35,8.41,14.73,8.18,14.59,9Z"/><path d="M17.91,8.78a.23.23,0,0,0,.34-.13L18,8.57Z"/><path d="M18.35,8.33,18,8.22c0,.1-.13.25,0,.24C18,8.19,18.34,8.6,18.35,8.33Z"/><path d="M16.76,6.38c-.23-.06-.7.2-.53.42C16.37,6.58,16.63,6.61,16.76,6.38Z"/><path d="M18.27,6.47l-.06.22a.57.57,0,0,0,.66-.16C18.6,6.38,18.53,6.63,18.27,6.47Z"/><path d="M20.47,7c-.13,0-.38-.23-.41,0C20.19,7,20.44,7.21,20.47,7Z"/><path d="M15.94,5.34a.23.23,0,0,0-.34.13A.23.23,0,0,0,15.94,5.34Z"/><path d="M20.58,5.88a1.28,1.28,0,0,0-1.22,0,.25.25,0,0,0,.13.27c.23-.21.66-.37.89-.09C20.44,6,20.55,6,20.58,5.88Z"/><path d="M22.24,5.1c0-.15,0-.27-.22-.29C22,5,22.05,5.07,22.24,5.1Z"/><path d="M24.14,2.78l-.66-.19C23.42,3,23.94,2.86,24.14,2.78Z"/><path d="M24.82,2.52c.1-.17-.3-.49-.36-.16C24.46,2.49,24.72,2.46,24.82,2.52Z"/><path d="M25.35,1.07,25,1l-.06.21A.43.43,0,0,0,25.35,1.07Z"/><path d="M44.24,5.27l-.09.32.19,0A.26.26,0,0,0,44.24,5.27Z"/><path d="M43.43,5.27c-.28,0-.21-.22-.44-.25C42.89,5.22,43.32,5.48,43.43,5.27Z"/><path d="M42,4.38a.23.23,0,0,0-.25.16l.28.08C42.09,4.46,41.84,4.53,42,4.38Z"/><path d="M40.47,3.15c.07-.22-.31-.15-.44-.24C40,3.12,40.34,3.06,40.47,3.15Z"/><path d="M31.61.24A.59.59,0,0,0,31.17,0l-.09.32C31.31.4,31.53.46,31.61.24Z"/><path d="M28.29,49.85l.06-.21c-.17-.08-.27,0-.35.13C28.19,49.71,28.15,49.7,28.29,49.85Z"/><path d="M16.62,44a.41.41,0,0,0,.31.32C16.91,44.11,16.79,44,16.62,44Z"/><path d="M14.85,42c.14-.19-.15-.34.07-.44s.07.22.3.2c-.2-.22-.18-.57-.5-.72,0,.08,0,.2-.11.2-.1-.27-.61-.28-.59-.63-.23-.17-.65-.22-.78-.45-.19,0-.15.06-.29-.09,0,.21-.2,0-.31,0,.25.27.13.78.67.88,0,.25.26.29.13.61.56,0,1.43.31,1,.85.06,0,.11,0,.07.14.13.11.08-.16.22-.05l-.07.21c.24,0,.1.2.3.2s.42,0,.46-.33C15,42.48,15.22,42,14.85,42Z"/><path d="M12.39,40.55c-.13-.11-.08.16-.21.05.05-.15-.13-.15,0-.34-.28-.12-.36-.35-.56-.51,0,.21-.15.2-.24.27-.16-.14-.17-.38-.42-.46-.07.3.4.26.22.64.36,0,.29.36.58.45-.07.1-.21.06-.26.21.17,0,.27-.16.42-.22.36,0,.37.26.68.31C12.62,40.75,12.31,40.78,12.39,40.55Z"/><path d="M12.19,38.08c-.06.29.27.52,0,.69.22,0,.12.16.26.19a.22.22,0,0,1,.17-.15.37.37,0,0,1,.12.07s0,0,0,0a.22.22,0,0,1,.1.11c.12-.27.45-.08.6-.28-.23,0-.41.06-.69-.09.05-.15-.13-.15,0-.34Z"/><path d="M10.3,36.16c-.24,0-.11-.22-.35-.22-.07.32-.11.15-.22.06-.11.15.14.08,0,.23C10,36.32,10.21,36.38,10.3,36.16Z"/><path d="M13.49,36.4c0,.21.25.16,0,.34.13.11.08-.16.21-.05C13.72,36.54,13.68,36.42,13.49,36.4Z"/><path d="M9.53,30.32l.19.05c0-.23.15-.13.19-.29A.58.58,0,0,0,9.53,30.32Z"/><path d="M14,8.32c0,.32-.21.25-.25.5A2.8,2.8,0,0,0,14.46,8C14.21,8,14.2,8.37,14,8.32Z"/><path d="M59,20.31c0,.26.27.3.13.62a.8.8,0,0,1,.39.79,2.13,2.13,0,0,1,.5.38c0-.36-.4-.44-.38-.8C59.14,21.14,59.4,20.51,59,20.31Z"/><path d="M14.74,7.75c.13.1.08-.17.22-.06,0-.23.15-.13.18-.29C14.94,7.38,14.87,7.63,14.74,7.75Z"/><path d="M17.54,5.81a1.57,1.57,0,0,0-.46.2C17.3,6.1,17.42,5.94,17.54,5.81Z"/><path d="M16.41,5.13c.11-.15-.14-.08,0-.24.28.14.42,0,.56-.18a.74.74,0,0,1-.59,0c0,.35-.24.29-.35.47C16.19,5.24,16.28,5.15,16.41,5.13Z"/><path d="M18.86,5.84c.3.06.45-.18.69-.26A.71.71,0,0,0,18.86,5.84Z"/><path d="M17.75,3.69c-.28,0-.44.33-.66.5C17.33,4.06,17.61,4,17.75,3.69Z"/><path d="M18.65,3c-.23.19-.55.21-.75.47A.78.78,0,0,0,18.65,3Z"/><path d="M19.19,3c.2-.26.49-.32.74-.48A2.6,2.6,0,0,0,18.78,3C18.91,2.94,19,2.84,19.19,3Z"/><path d="M21.84,1.89c.22-.34.76,0,1-.29a2.63,2.63,0,0,0-2,.47C21.26,2.14,21.39,1.68,21.84,1.89Z"/><path d="M24,1.48c0-.19.17,0,.16-.18a2,2,0,0,1-.91,0l-.06.22C23.5,1.56,23.64,1.28,24,1.48Z"/><path d="M27.38,1.08c.14-.2-.26-.06-.12-.26.21.13.3,0,.39-.12.07.31.34,0,.61.18,0-.21-.23-.32-.5-.38-.09.23-.31.16-.54.08-.21.63-.87.31-1.4.28a1.72,1.72,0,0,0-.07.21A14.82,14.82,0,0,1,27.38,1.08Z"/><path d="M54,20.73s0-.25.08-.28C53.64,20.18,53.61,20.69,54,20.73Z"/><path d="M53.61,17.36c.06,0,.32-.16.15-.13.26,0,.29-.17.45-.31-.28-.34-.6,0-.78.23C53.46,17.23,53.46,17.31,53.61,17.36Z"/><path d="M16.54,6.82c-.19.06-.13.23-.13.39s.2.06.26,0,.08-.18.1-.22S16.71,6.86,16.54,6.82Z"/><path d="M54.16,14.53c0,.07-.09,0-.1.12S54.32,14.57,54.16,14.53Z"/><path d="M51.36,11.48c0-.08,0-.13.08-.1-.06,0-.06.08,0,.13s.08-.15,0-.2S51.23,11.39,51.36,11.48Z"/><path d="M54.35,16.81a.16.16,0,0,1,.07.13c0-.12-.2,0-.07.07s0-.05.06,0,0,.05.06.06,0-.12,0-.18S54.4,16.78,54.35,16.81Z"/><path d="M53.84,16.24c0-.13-.05-.23-.22-.31-.1.08-.09,0-.16.17C53.57,16.23,53.72,16.31,53.84,16.24Z"/><path d="M53.4,17.82l.11.05C53.64,17.74,53.47,17.71,53.4,17.82Z"/><path d="M53.87,10.58c.06-.12.1,0,.19,0s0-.19-.11-.26S53.74,10.51,53.87,10.58Z"/><path d="M54.36,11.29c.06-.13.06-.24-.08-.32,0,.09-.14.06-.19.12C54.21,11.21,54.23,11.29,54.36,11.29Z"/><path d="M52,12.48c-.27,0-.27.22-.23.41A.24.24,0,0,0,52,12.48Z"/><path d="M52.43,13.09c.11,0,.08.09.17.11s.16-.09.22-.17C52.55,12.9,52.49,12.94,52.43,13.09Z"/><path d="M52.39,11.57c.13-.05.11-.11.21-.26-.05-.09-.24-.13-.34-.15,0,.14-.09.05-.13.19A1,1,0,0,0,52.39,11.57Z"/><path d="M54.1,13.67c-.06,0,0,0,0-.08-.19-.05-.06,0-.09-.11a.32.32,0,0,0-.24,0c.08,0-.09.05,0,.13S54,13.71,54.1,13.67Z"/><path d="M56.66,23.12c.1.08.09-.07.16-.06s-.09,0-.12-.13-.2,0-.09.1.1,0,.1.08S56.66,23.09,56.66,23.12Z"/><path d="M62.08,30.1l.05-.11c-.07,0-.16-.08-.11-.15a.11.11,0,0,0,.16,0c-.18-.11-.32-.1-.41-.19,0,.09-.1,0-.15,0s.07.14,0,.11,0,0,0-.05.17.14.07.24C61.8,30.14,61.94,30.06,62.08,30.1Z"/><path d="M63.7,41c0-.06,0-.22-.06-.16S63.55,41,63.7,41Z"/><path d="M62.92,29.17c.13.11.32.11.38,0-.12,0,0-.12-.2-.15S63,29.05,62.92,29.17Z"/><path d="M62.05,40.39s0-.06.06,0,0,0,.06.06,0-.18,0-.15,0,0,0,.05-.07-.09-.11-.05S61.92,40.32,62.05,40.39Z"/><path d="M62.43,38.46c.15,0,.46-.08.33-.23,0,.14-.1,0-.26,0S62.42,38.36,62.43,38.46Z"/><path d="M62.35,37s0-.06.1,0,0-.16.07-.25a2.65,2.65,0,0,0-.25-.15c0,.09-.13,0-.16.14S62.18,36.92,62.35,37Z"/><path d="M64.71,35.55c.11,0,.08.08.17.11a.16.16,0,0,0,0-.3C64.81,35.46,64.72,35.43,64.71,35.55Z"/><path d="M62.09,49.75a2.2,2.2,0,0,0,.64.18c0-.17.17-.22.29-.35s-.23-.25-.17-.42C62.24,48.76,61.74,49.29,62.09,49.75Z"/><path d="M64.3,40.85c0-.06.08.08.13.1s.09-.05.11-.13S64.23,40.79,64.3,40.85Z"/><path d="M63.61,35.5s-.21.1-.13.18S63.76,35.61,63.61,35.5Z"/><path d="M63.76,23.27a.09.09,0,0,1,0-.11c.08,0,.09.14.15.06s-.23-.11-.26,0S63.7,23.35,63.76,23.27Z"/><path d="M64.16,30.62s0,0,.09,0,0,.05,0,0,.1,0,.08-.1l-.14-.06s0,.05-.07,0,0-.05,0,0S64.11,30.59,64.16,30.62Z"/><path d="M61.93,26.13a.17.17,0,0,0,.19,0c0-.08-.13-.16-.22-.1.09.08-.1,0-.13.08s0-.16-.08-.21c-.11.11.09.15.07.24s-.24.14-.24.23a.92.92,0,0,0,.49.12C62.2,26.34,62,26.25,61.93,26.13Z"/><path d="M61.38,28.1c-.09,0-.05-.09-.17-.11S61.34,28.14,61.38,28.1Z"/><path d="M64.25,28.37l.23.1c-.11,0-.06.12,0,.18a.22.22,0,0,1,.22-.11V28.4a1.12,1.12,0,0,1,.45.1c.08.12-.14.06-.08.17s.1,0,.17,0-.09-.12,0-.21c.35.11.67-.11.56-.43L65.69,28c0,.17-.48-.21-.62.1-.21-.06-.37-.05-.58-.12-.12.13-.33.05-.34.26a.51.51,0,0,0,.16.09A.09.09,0,0,1,64.25,28.37Z"/><path d="M62,26.77c.08,0,.08.15.14.07a.08.08,0,0,1,0-.12c.08,0,.08.14.15.07S62.06,26.67,62,26.77Z"/><path d="M62.71,44.42c0-.06.09.08.14.1s.09-.05.1-.13S62.65,44.35,62.71,44.42Z"/><path d="M60.29,33.66h0c.06,0,.19.08.22-.06h0l0,0-.08-.05,0,0h-.08a.08.08,0,0,1,0-.07.13.13,0,0,0,.17,0c-.18-.1-.32-.1-.41-.18s0,.05-.1,0c0-.19.07-.4-.14-.44a11.38,11.38,0,0,1-.67,3,4.3,4.3,0,0,1,0,.81,1.75,1.75,0,0,0-.24,0c.08.08.1.17.21.24h0a1.16,1.16,0,0,1-.2.42c.17.07.11-.33.34-.13a1.39,1.39,0,0,1-.08.61c-.13,0-.24-.11-.34,0,.1.07.09.17.21.23a.11.11,0,0,0,.09,0,.74.74,0,0,0,0,.3c-.23,0-.2.54-.33.77s-.55.53-.24.67a16.54,16.54,0,0,0,1.59-5c-.22-.17.3-.8.07-1-.23.78-.28,1.25-.44,1.71a3.51,3.51,0,0,1,.17-1.86Zm-1,3.13v0Z"/><path d="M58.93,37.05a.34.34,0,0,1-.23-.1c0,.1-.12,0-.14.11s0,.13.15.17.22.1.25-.06S58.8,37.12,58.93,37.05Z"/><path d="M62.9,32.22c.05-.1.13-.11.23-.11s0-.3-.18-.39c-.15.06-.18.19-.28.22l.22.1C62.79,32.06,62.84,32.16,62.9,32.22Z"/><path d="M63,24.53c-.1,0-.06-.09-.18-.11S62.93,24.57,63,24.53Z"/><path d="M62.73,25.66a.46.46,0,0,0,0-.36c0,.09-.13,0-.2,0s0,.14-.09.2C62.56,25.67,62.58,25.64,62.73,25.66Z"/><path d="M62.5,36.12c.06,0,.09-.08.11-.15A.09.09,0,1,0,62.5,36.12Z"/><path d="M62,27.45c.08.09.15,0,.2.15s0-.21.14-.21,0,0,0,.05-.18-.21-.28-.19A.4.4,0,0,1,62,27.45Z"/><path d="M71.18,40.61s.12,0,.12-.08-.08-.14-.14-.07S71,40.55,71.18,40.61Z"/><path d="M64.88,25.57c-.12,0,0-.13-.19-.16s-.12.08-.18.19A.22.22,0,0,0,64.88,25.57Z"/><path d="M67.79,33.7s.11,0,.13,0,0-.09-.06-.17c.11,0,.17.18.26.12-.08-.07.1-.19,0-.26s-.31-.11-.4-.11S67.68,33.55,67.79,33.7Z"/><path d="M66.38,23.74c.11.09.07-.08.18,0s0-.22-.11-.16,0,0,0,.05C66.29,23.56,66.55,23.74,66.38,23.74Z"/><path d="M68.19,47.28s-.14.11,0,.17S68.31,47.32,68.19,47.28Z"/><path d="M67.17,23.68c.11-.08.1-.13.21-.15a.55.55,0,0,0-.4-.21C67,23.46,66.87,23.52,67.17,23.68Z"/><path d="M67.68,24.15c-.06-.11.11,0,.12-.16s-.17-.06-.25-.14C67.45,24,67.6,24.09,67.68,24.15Z"/><path d="M53.68,17.81c.07-.14.08-.09.1-.23s-.1,0-.16,0c0,.14-.11.14,0,.23S53.65,17.78,53.68,17.81Z"/><path d="M60.06,26.62a.13.13,0,0,0,.21-.15c-.07-.06-.23,0-.14,0s0,0,.09,0S60.19,26.6,60.06,26.62Z"/><path d="M69.39,28l.08-.17C69.26,27.69,69.24,27.94,69.39,28Z"/><path d="M68.38,46.73c0-.06.1,0,.11-.15s-.09,0-.16,0S68.32,46.68,68.38,46.73Z"/><path d="M68.24,40.94s0,0,0,0-.07-.08-.11,0-.14.06,0,.13,0-.05.06,0,0,0,.06.06S68.31,40.9,68.24,40.94Z"/><path d="M67.74,23.73a.13.13,0,0,0,.2-.15c-.07-.06-.23,0-.14,0a.08.08,0,0,1,.09,0C67.79,23.64,67.87,23.71,67.74,23.73Z"/><path d="M66.1,27.72c-.07-.12.1,0,.11-.16S66,27.5,66,27.41C65.87,27.56,66,27.65,66.1,27.72Z"/><path d="M65.59,27.25c.11-.09.09-.14.2-.15l0-.05s0,0,.08,0,0,0,0,0,.11,0,.09-.09l-.15-.07s0,.05-.06,0,0-.05,0,0,0,.07,0,.1a.53.53,0,0,0-.34-.15C65.39,27,65.29,27.09,65.59,27.25Z"/><path d="M65.83,30.62a.59.59,0,0,1,.25.14s0-.08.07-.07,0,0,0,0,.09-.09,0-.18c0,.08-.12.11-.06,0C66,30.56,65.86,30.49,65.83,30.62Z"/><path d="M65.7,27.51c0,.1-.12,0-.13.11s0,.09.12.12.08-.09.14-.11C65.72,27.61,65.78,27.54,65.7,27.51Z"/><path d="M64.89,27.21c-.18-.09.08.09-.09.09.1.09.07-.08.17,0s0-.21-.11-.15S64.91,27.18,64.89,27.21Z"/><path d="M66.19,40.5c-.08.08,0,.12.12.15S66.26,40.54,66.19,40.5Z"/><path d="M66.29,49.92c.06-.12-.05-.15-.15-.17a.18.18,0,0,1-.09.1c.06,0,.11,0,.11,0s-.14,0-.16.06a.2.2,0,0,0,.26-.09S66.25,49.91,66.29,49.92Z"/><path d="M66.57,37c-.16,0-.31-.11-.4-.11s-.07.27,0,.42c0,0,.11,0,.14,0s0-.09-.06-.17c.11,0,.16.18.26.12C66.46,37.15,66.64,37,66.57,37Z"/><path d="M66.67,25.1c.07,0,.1,0,.16,0s-.08-.12,0-.21c.36.11.68-.11.56-.43l-.11-.05c0,.16-.49-.22-.63.09-.2-.06-.37-.05-.57-.12-.13.13-.34,0-.35.26.28.25.61.06,1,.25C66.83,25.06,66.6,25,66.67,25.1Z"/><path d="M66.15,27.29c.15.11.24-.06.2-.15s-.22,0-.13,0,0,0,.08,0S66.28,27.28,66.15,27.29Z"/><path d="M66.16,40.28c0-.07,0-.12-.11-.16S66.06,40.24,66.16,40.28Z"/><path d="M69.72,37.49s0-.05.06,0,0,0,.07.07,0-.18,0-.15.05,0,0,0-.08-.08-.11,0S69.59,37.43,69.72,37.49Z"/><path d="M57.2,18.16c.09.12-.25.05-.14.21s.22,0,.27-.09S57.27,18.1,57.2,18.16Z"/><path d="M57.13,18.13c0-.05,0-.09,0-.13s.06,0,0,0-.08,0-.13,0-.06.07-.19.12c.13,0,0,.11.11.15S57,18.11,57.13,18.13Z"/><path d="M56.54,17.35s.27,0,.16-.07c-.08.08,0-.08-.1-.08S56.44,17.27,56.54,17.35Z"/><path d="M57.27,12.63c0-.06,0-.11,0-.15s0,.13-.1,0C57.07,12.57,57.2,12.59,57.27,12.63Z"/><path d="M56.55,16.53c.07,0,.06.07.13.09s0-.05.07,0,0-.13,0-.22-.1,0-.16,0,0,.07-.09.09C56.63,16.5,56.66,16.52,56.55,16.53Z"/><path d="M57,16.13c0,.06.05.12.15.17s.07,0,.1,0,.09-.18-.12-.33C57,16,57.21,16.09,57,16.13Z"/><path d="M57.27,20.65s.17,0,.13,0-.06,0-.09.09.1,0,.16,0,.11-.12.07-.24S57.24,20.61,57.27,20.65Z"/><path d="M57.88,25.6c-.16,0-.1-.13-.19-.19s0,.14,0,.07-.11.15,0,.1,0,.14.15.07C57.81,25.63,57.85,25.61,57.88,25.6Z"/><path d="M56.94,20.4c-.07,0-.1,0-.16,0s0,.12-.07.14C56.88,20.59,57,20.5,56.94,20.4Z"/><path d="M57.79,27.35a.31.31,0,0,0,0-.26c-.07,0-.18-.12-.2-.06s0,.07,0,.12S57.69,27.29,57.79,27.35Z"/><path d="M57.2,19.36l0-.08c-.11-.1-.29-.06-.2,0s0-.1.11-.05,0,0-.06,0Z"/><path d="M57.26,22c-.28.17-.2.46.12.64a.3.3,0,0,1,.32,0c0-.16.17-.28.07-.45-.07,0-.24,0-.22-.1S57.37,22.07,57.26,22Z"/><path d="M57.94,28.21c.1-.08-.12-.08-.07-.14s0,0,.05,0l-.11,0s-.05,0-.08.07S57.91,28.15,57.94,28.21Z"/><path d="M54.66,22.67c0-.09-.08-.19-.15-.17S54.58,22.69,54.66,22.67Z"/><path d="M54.66,23c0,.08-.1.06-.17.06s0-.08.08-.06,0,0,0,0,0-.1-.07-.14-.15.19-.15.24.19,0,.28,0C54.53,23.08,54.79,23.08,54.66,23Z"/><path d="M56.55,17.8v0l-.06.15a.68.68,0,0,1,.21,0,0,0,0,0,0,0,0l0,0,.07,0s.05,0,.06,0l0-.05a.3.3,0,0,0,.14-.17h0a.27.27,0,0,1,.07-.08c-.13,0-.14-.18-.21-.13s0,0-.09,0l0,0v0a1,1,0,0,1-.29.15c0-.1,0-.17-.12-.23s0,.13,0,.23A.37.37,0,0,1,56.55,17.8Z"/><path d="M54.36,21.07s0,.1.07.06,0,0,0-.13c-.21-.08-.22.05-.34.06s-.12-.13-.13-.2,0,0,.05,0l-.15-.07c-.14.08,0,.2.15.17a.13.13,0,0,0,0,.13c-.22-.1,0,.19-.14.21l.08,0s0,0,.05,0,0-.07,0-.08-.1-.05-.09-.08C54.18,21.29,54.29,21.09,54.36,21.07Z"/><path d="M53.48,19.44c.06-.07.11-.15.25-.06.08-.11,0-.12.15-.14-.08,0-.13-.15,0-.12s0,.07,0,.09.2,0,.06-.14,0,.06-.1,0,.07,0,0-.08c.16.06.22-.05.31-.1-.24-.37-.47.05-.67.11C53.62,19.24,53.28,19.25,53.48,19.44Z"/><path d="M54.93,21.81a.88.88,0,0,1-.31-.21C53.83,21.75,54.82,22.61,54.93,21.81Z"/><path d="M55,20.09c.08,0,.07.07.14.1s0-.06.06,0,0-.13.05-.22-.09,0-.16,0,0,.08-.09.1C55.05,20.07,55.08,20.08,55,20.09Z"/><path d="M56.24,19.1c0-.09-.07-.19-.15-.17S56.17,19.12,56.24,19.1Z"/><path d="M55.88,21.41s0,.05,0,.07,0-.08.07-.07,0,.05,0,0,0-.07,0-.09-.17-.07-.19,0S55.81,21.42,55.88,21.41Z"/><path d="M55.68,16.2c0-.07,0-.12,0-.15s0,.13-.1,0C55.48,16.14,55.62,16.16,55.68,16.2Z"/><path d="M55.46,19.7c0,.06,0,.12.14.17s.08,0,.1,0,.09-.17-.12-.33C55.43,19.59,55.62,19.66,55.46,19.7Z"/><path d="M58.18,24.57s-.24,0-.1,0,0-.14.2-.15c-.16-.11-.13,0-.18,0s0-.09,0-.12S58.19,24.54,58.18,24.57Z"/><path d="M60.88,29.11c.09.12.12.09.27.12a.53.53,0,0,0,0-.37c0,.1-.13,0-.2.05S61,29,60.88,29.11Z"/><path d="M60.62,19.36s-.11,0-.14,0,0,.12.06.17S60.59,19.39,60.62,19.36Z"/><path d="M59.67,15.87c.17.08.39,0,.33-.23-.06,0,0-.06-.19-.08,0,.16-.15.1-.19.22C59.8,15.84,59.57,15.83,59.67,15.87Z"/><path d="M61.16,43.89c0-.09.08-.08.11-.15s0-.15-.18-.19S60.91,43.79,61.16,43.89Z"/><path d="M59.46,22c-.15,0-.1-.13-.18-.19s0,.14,0,.07-.11.15,0,.11,0,.14.15.06S59.43,22,59.46,22Z"/><path d="M60.2,22.51a.46.46,0,0,1,0,.68l.29.08a3.05,3.05,0,0,1,0-.8c.06,0,.11-.09.07-.16h0s0,0,0-.06-.12,0-.16,0h0c-.17-.09-.22.05-.36,0C60.15,22.31,60,22.42,60.2,22.51Z"/><path d="M60,30.09s0-.09.07-.07,0,0,0,0a.06.06,0,0,1,0-.06,1.87,1.87,0,0,0,.32,0c.19-.13,0-.22-.07-.35a.18.18,0,0,0,.19,0c0-.08-.13-.16-.22-.1.09.08-.1.05-.13.08s0-.17-.09-.21.09.14.08.23a.23.23,0,0,0-.24.2c-.09,0-.18,0-.2.06S60,30,60,30.09Z"/><path d="M60.53,50.35c.08,0,.11-.14,0-.18S60.38,50.28,60.53,50.35Z"/><path d="M60.85,33.33c.06-.12,0-.16.11,0,0-.19-.17-.17-.32-.18C60.73,33.17,60.74,33.26,60.85,33.33Z"/><path d="M60.77,40.56s0-.07.1,0,0-.15.06-.24a1.14,1.14,0,0,0-.25-.15c0,.09-.12,0-.15.14S60.6,40.49,60.77,40.56Z"/><path d="M60.58,34.24c.09.07.08.16.21.23s.13-.13.15-.24C60.8,34.18,60.68,34.1,60.58,34.24Z"/><path d="M58.84,25.32c-.11,0,0,0,0-.12s-.14-.05-.18,0c.15.1-.15.06,0,.21C58.72,25.34,58.93,25.39,58.84,25.32Z"/><path d="M58.29,16.94c.17.08.24,0,.23-.11s-.1,0-.16,0S58.39,16.91,58.29,16.94Z"/><path d="M60,26.69s-.07,0-.08.07l0,0c-.08.12,0,.21.1.27s0,0,0,0h0c.16-.06.18-.14.08-.29C60.06,26.78,60,26.72,60,26.69Z"/><path d="M58.09,19.44a.16.16,0,0,0,.1,0h.05a.25.25,0,0,1,0,.08s0,0,0,0,.09-.07.16-.06a.26.26,0,0,0-.08-.06.18.18,0,0,0,.1-.22c-.06,0,0-.06-.19-.08,0,.16-.15.1-.19.22C58.21,19.4,58,19.39,58.09,19.44Z"/><path d="M57.56,27.15c0,.06,0,.1,0,0Z"/><path d="M57.76,26.41c.16.08.14.11.26.12s.06-.24-.13-.3C57.92,26.37,57.79,26.25,57.76,26.41Z"/><path d="M58.29,14.25s.11.14.15.07a1.06,1.06,0,0,1,.23-.31c-.13,0-.15-.18-.21-.13s0,0-.09,0a.72.72,0,0,1-.21.25c.05,0,.11,0,.1.08-.17-.09,0,.16-.13,0l-.07.14c.14,0,.1,0,.21,0A.15.15,0,0,0,58.29,14.25Z"/><path d="M58.52,20.64c-.19,0,0-.07-.05-.09s0-.06-.09-.11-.2,0-.11.15-.06-.07-.09,0c.19.1,0-.1.17-.09s0,.07,0,.12-.18,0-.08.07,0,0,0,0,.17.12.08,0S58.64,20.72,58.52,20.64Z"/><path d="M59,17.11c-.12,0-.06,0-.09.09s.1,0,.17,0,.11-.12.06-.24-.29,0-.26.09S59,17.05,59,17.11Z"/><polygon points="57.56 27.14 57.56 27.15 57.56 27.14 57.56 27.14"/><path d="M58.6,25.65s.11.05.16-.06S58.52,25.58,58.6,25.65Z"/><path d="M58.9,22.93c.07,0,0,.12.06.17s0-.14.08-.18S58.93,22.89,58.9,22.93Z"/><path d="M65.29,37.45c0-.05,0-.22-.06-.16S65.13,37.39,65.29,37.45Z"/><path d="M57.61,46.42a3,3,0,0,1-.44.08c.09,0-.05.11-.12,0a1.15,1.15,0,0,0,0,.66.78.78,0,0,0,1-.08A1,1,0,0,0,57.61,46.42Z"/><path d="M59.15,49.83c-.06,0-.18.19-.12.25s0,0,0,.08a1.29,1.29,0,0,0,.25,0c.08-.09,0-.16.07-.24S59.27,49.86,59.15,49.83Z"/><path d="M57.45,48c.16.11.16-.12.2,0,.12-.07.06-.14.07-.24a.33.33,0,0,1-.19-.08c-.07.09-.05.1-.11.15a.28.28,0,0,1,.08.11S57.46,48,57.45,48Z"/><path d="M59.32,46.41c.2-.15.08-.33.31-.38a1,1,0,0,0-.57-1c-.05,0-.06.1-.15,0s0-.08,0-.12a1.08,1.08,0,0,0-1,.72c.27.24.31.74.79.73C58.78,46.58,59.07,46.27,59.32,46.41Z"/><path d="M58.46,52.64a.12.12,0,0,1-.08.1c.06,0,.11,0,.11,0s-.14,0-.16.06a.22.22,0,0,0,.26-.08s0,0,0,0S58.57,52.66,58.46,52.64Z"/><path d="M55.46,48.85c-.06,0-.14,0-.16.16C55.45,49.12,55.67,49,55.46,48.85Z"/><path d="M55.18,52.06c-.61-.41-1.11.13-.76.58a2.23,2.23,0,0,0,.64.19c0-.18.16-.23.29-.35S55.12,52.22,55.18,52.06Z"/><path d="M57.48,48.55s-.06.1-.15,0a.1.1,0,0,0,0-.12,1.07,1.07,0,0,0-1,.72c.27.24.31.74.79.73.11.23.4-.09.65,0,.19-.14.07-.32.31-.37A1,1,0,0,0,57.48,48.55Z"/><path d="M56,50a2.57,2.57,0,0,1-.44.08c.09,0,0,.11-.11,0a1.07,1.07,0,0,0,0,.66.77.77,0,0,0,1-.09A.91.91,0,0,0,56,50Z"/><path d="M60.1,49.22c0-.11,0-.07.08-.17C59.85,48.73,59.71,49.28,60.1,49.22Z"/><path d="M61.5,54.42c0,.06.16.12.2,0S61.54,54.35,61.5,54.42Z"/><path d="M61.69,45.65c0-.11,0-.07.07-.17C61.44,45.17,61.29,45.71,61.69,45.65Z"/><path d="M61.64,40.71c0,.09-.17.09-.08.17s.19,0,.23-.1S61.69,40.79,61.64,40.71Z"/><path d="M61.93,40.46c-.23,0-.27-.26-.51-.36,0,.06-.1,0-.11.15s.33.23.43.44c0,0,.14,0,.18,0S61.89,40.55,61.93,40.46Z"/><path d="M54.73,50.93a.85.85,0,0,1,.44-.39.44.44,0,0,1,0-.32c-.23-.14,0-.38-.35-.5,0,.07-.06.14-.14.1s-.1-.1-.16-.24a6.31,6.31,0,0,1-.63.2c-.09.23,0,.37-.14.52.16,0,.08.11,0,.19a.79.79,0,0,1,.39.34c.21,0,.18.06.37.17C54.52,50.86,54.64,50.93,54.73,50.93Z"/><path d="M61.26,50.2c-.27.2-.46.17-.24.54C61.45,51,61.81,50.43,61.26,50.2Z"/><path d="M59.68,53.76c-.28.21-.46.18-.25.55C59.86,54.6,60.22,54,59.68,53.76Z"/><path d="M62,39.06s-.2.1-.12.19S62.18,39.18,62,39.06Z"/><path d="M61.27,52.73c-.61-.41-1.11.13-.76.58a2,2,0,0,0,.63.19c0-.18.17-.22.3-.35S61.21,52.9,61.27,52.73Z"/><path d="M60.45,36.54c-.08-.06.1-.19,0-.26s-.31-.1-.4-.11c-.15.15-.07.28,0,.43,0-.05.11,0,.14,0s0-.09-.06-.16C60.3,36.45,60.36,36.6,60.45,36.54Z"/><path d="M50.28,57.05s-.09,0-.11,0,0,.14,0,.2S50.38,57.13,50.28,57.05Z"/><path d="M50.17,55s-.25-.11-.34,0,0,.07-.09.2.16.07.29.16S50.21,55.16,50.17,55Z"/><path d="M50.24,56.76a.37.37,0,0,0,.2.06c0-.11.08-.12,0-.22S50.26,56.65,50.24,56.76Z"/><path d="M50.34,56.05c0,.06,0,.13,0,.18s.21,0,.15-.14S50.4,56.08,50.34,56.05Z"/><path d="M53.81,51.23c-.06.14-.22.07-.28.22a.45.45,0,0,0,.38.16C54,51.45,54,51.32,53.81,51.23Z"/><path d="M48.4,49.86c0,.08,0,.15.09.21s.09,0,.12-.08S48.56,49.87,48.4,49.86Z"/><path d="M50.51,53.24s0,.06-.06,0,0,0,0,0-.11,0-.12.15.07.09.12.13.16,0,.26-.16C50.57,53.33,50.61,53.27,50.51,53.24Z"/><path d="M49.37,48.17c-.06,0-.14.06-.16.17C49.36,48.44,49.59,48.27,49.37,48.17Z"/><path d="M48.7,51.09c-.06-.07-.06-.29-.2-.26,0,0,0,0,0,0s0,0,0,0C48.2,51,48.48,51.3,48.7,51.09Z"/><path d="M48.63,53s-.05,0-.09,0,.09.24.16.14C48.61,53.05,48.7,53,48.63,53Z"/><path d="M51.87,53.48s-.09,0-.12,0,0,.14,0,.2S52,53.56,51.87,53.48Z"/><path d="M50.13,50.6c-.25-.1-.71.23-.94,0,0,.26-.19.41-.24.64-.32,0-.24.27-.46.42.24.15-.13.3.06.47.05,0,.07,0,.2.05.12.52.74.36,1.08.39a.87.87,0,0,0,.48-.57c.07,0,.1,0,.17,0,0-.14.27-.5.27-.5s-.15-.26-.2-.36A1,1,0,0,0,50.13,50.6Z"/><path d="M51.75,51.44s-.25-.11-.34,0,0,.07-.09.2.17.07.29.17S51.8,51.59,51.75,51.44Z"/><path d="M9.15,6.82c-.12,0,.06,0,.1,0-.16-.12-.12-.18-.22-.14s0,0,0,0l0,0S9,6.58,9,6.52s.05,0,0,0-.1.14-.14.31a.37.37,0,0,1,.22.1C9.12,6.85,9.2,6.85,9.15,6.82Z"/><path d="M52.27,49.79c-.12,0-.08-.09-.17-.11s0,0-.07,0,0,0,0,0-.1.06-.12.16c.14,0,.08.08.13.12S52.18,49.92,52.27,49.79Z"/><path d="M51.17,56.39s-.07,0-.12,0a.3.3,0,0,0,.09.28s.13,0,.14-.11S51.24,56.44,51.17,56.39Z"/><path d="M50.84,57.62c0,.06,0,.11,0,.14s.18,0,.19-.12S51,57.69,50.84,57.62Z"/><path d="M51,57.23c0,.06-.07.15.05.19C51.09,57.29,51.18,57.26,51,57.23Z"/><path d="M69.24,56.57a.29.29,0,0,0,.3.13c.07-.07,0-.12,0-.19C69.39,56.39,69.34,56.53,69.24,56.57Z"/><path d="M66.25,54.66c0,.12-.08.19-.11.23s.07.14.24.18.12-.23.13-.39A.27.27,0,0,0,66.25,54.66Z"/><path d="M68.26,38.51c-.09,0-.11-.07-.21,0s0,.18.07.24S68.36,38.62,68.26,38.51Z"/><path d="M68.06,51.91c.16,0,0,.11.16.14s.19-.08.31-.07c0-.16-.12-.28-.17-.42C68.18,51.7,68.09,51.68,68.06,51.91Z"/><path d="M67.89,44.11a.25.25,0,0,0-.37-.06C67.72,44.11,67.75,44.18,67.89,44.11Z"/><path d="M67.88,55.1c-.48.06.1.77.15.06C68,55.23,68,55.1,67.88,55.1Z"/><path d="M67.66,27.19s0-.08.08-.07,0,0,0,.05.09-.09,0-.18c0,.08-.11.11,0,0-.11,0-.26-.09-.29,0S67.63,27.13,67.66,27.19Z"/><path d="M66.71,47.19s.05,0,0,.07a1.23,1.23,0,0,0,.25.05c.07-.1,0-.16.06-.25s-.09-.1-.21-.13S66.64,47.12,66.71,47.19Z"/><path d="M66.61,50.84c0,.06-.14.12,0,.18S66.72,50.89,66.61,50.84Z"/><path d="M67.25,33.8c-.08.09-.15-.07-.27,0s.08,0,.06.06a2.48,2.48,0,0,0,.29.06S67.29,33.84,67.25,33.8Z"/><path d="M68.6,26.58c0,.1-.11.05-.12.15s.07.11.16.14.13-.05.15-.14S68.66,26.65,68.6,26.58Z"/><path d="M72.35,47.46a.15.15,0,0,1-.09.1.17.17,0,0,1,.1.08s.08,0,.09-.1A.27.27,0,0,1,72.35,47.46Z"/><path d="M72.11,40.45a.18.18,0,0,0,0,.22c.13,0,.14,0,.15-.14Z"/><path d="M71.25,43.15a.76.76,0,0,0,.31.21c0-.08.12,0,.18-.19a1.41,1.41,0,0,0-.31-.21C71.31,43,71.31,43.11,71.25,43.15Z"/><path d="M75.23,39.69a.3.3,0,0,1-.24-.14c-.23.07-.1.34.05.47C75.11,39.93,75.29,39.84,75.23,39.69Z"/><path d="M71.22,41.32s-.12-.09-.16-.14-.11.11,0,.21.15,0,.19,0S71.19,41.33,71.22,41.32Z"/><path d="M62.07,53.26s0,.06.1.08.09-.07,0-.16C62.17,53.24,62.07,53.17,62.07,53.26Z"/><path d="M69.65,48.34c.16,0,0,.11.16.14s.18-.07.3-.07c0-.16-.11-.28-.17-.42C69.77,48.14,69.67,48.11,69.65,48.34Z"/><path d="M50.43,50a.92.92,0,0,0-.49-.7,2.82,2.82,0,0,1-.44.07c.08.06,0,.12-.12.06a1.15,1.15,0,0,0,0,.66A.79.79,0,0,0,50.43,50Z"/><path d="M70.88,34.09s-.14,0-.23,0a.36.36,0,0,0,.3.55A.35.35,0,0,0,70.88,34.09Z"/><path d="M70.32,38.72c-.06.05-.13.13,0,.2A.1.1,0,0,0,70.32,38.72Z"/><path d="M63.32,43.29c.06,0,0,0,0,.08s0,.06.1.08S63.44,43.22,63.32,43.29Z"/><path d="M63.52,36.9c-.24,0-.28-.26-.51-.37,0,.07-.11,0-.12.15s.34.23.43.44c0,0,.14,0,.18,0S63.48,37,63.52,36.9Z"/><path d="M63.62,48.4c-.07.1,0,.1-.12.15s.08.07.09.11,0,0-.05,0c.16.12.15-.12.2.06.12-.07.06-.14.07-.25A.33.33,0,0,1,63.62,48.4Z"/><path d="M63.67,23.68a.4.4,0,0,1-.09.2c.07.09.15,0,.2.16s0-.22.13-.21a0,0,0,0,0,0,0C64,23.77,63.76,23.66,63.67,23.68Z"/><path d="M63.25,38.93c0,.1-.11.07-.13.18s.08.09.18.12A.16.16,0,0,0,63.25,38.93Z"/><path d="M63.37,37.21c-.1-.05-.09,0-.15-.07,0,.09-.17.09-.07.17S63.33,37.31,63.37,37.21Z"/><path d="M62.77,49.91c-.24.36.34.63.46.37S63.07,49.85,62.77,49.91Z"/><path d="M62,51.24c.15,0,0,.11.16.14s.18-.08.3-.07c0-.16-.11-.28-.17-.42C62.1,51,62,51,62,51.24Z"/><path d="M64.34,34.66c0,.14-.09,0-.26,0s-.07.15-.07.25C64.17,34.93,64.47,34.82,64.34,34.66Z"/><path d="M64.55,53.32a.13.13,0,0,1-.09.09c.06,0,.12,0,.12.05s-.14,0-.17.07a.25.25,0,0,0,.27-.09s0,0,0,.05S64.66,53.33,64.55,53.32Z"/><path d="M65.66,37.37c-.07.09-.14-.07-.26,0s.07,0,.06.06l.29.06S65.71,37.4,65.66,37.37Z"/><path d="M65.12,50.76s0,0,0,.07a1.23,1.23,0,0,0,.25.05c.08-.1,0-.16.07-.25s-.09-.1-.21-.13S65.06,50.69,65.12,50.76Z"/><path d="M65.7,42.3c-.55-.56-1.31-.53-1.4.3.21.11.26.27.36.5.1-.26.23.07.34,0a.62.62,0,0,1,.41,0c.25-.22.45-.45.21-.76C65.64,42.33,65.69,42.35,65.7,42.3Z"/><path d="M64.24,38.24c.18.14.17-.09.27-.12a.71.71,0,0,0-.23-.27s-.06,0-.09,0-.08.17-.14.21.09.12.15.17S64.34,38.21,64.24,38.24Z"/><path d="M66.1,34.56a.7.7,0,0,0-.24-.28s0,0-.08,0-.08.17-.15.22c.08,0,.1.11.15.17s.15,0,0,0C66,34.81,66,34.58,66.1,34.56Z"/><path d="M64.26,45.6c.07-.09.2-.07.26-.19-.14-.09-.17,0-.32-.08-.22.2.12.48.17.32C64.35,45.67,64.26,45.63,64.26,45.6Z"/><path d="M65.13,45.1c.16.12.15-.12.2.06.12-.07,0-.14.06-.24a.48.48,0,0,1-.19-.09c-.07.1,0,.1-.11.16a.28.28,0,0,1,.09.1S65.13,45.08,65.13,45.1Z"/><path d="M66.09,58,66,58c.17.12.13.18.22.14a.06.06,0,0,1,.05,0l-.05,0s.06.07,0,.14,0,0,0,0,.09-.15.14-.32a.34.34,0,0,1-.23-.1C66.13,57.94,66.05,57.93,66.09,58Z"/><path d="M53.59,53.09c-.15.12-.28.16-.32.23l-.08,0c0,.08,0,.14-.14.11s-.1-.1-.16-.24a6.2,6.2,0,0,1-.62.2c-.09.23,0,.37-.15.51.16,0,.08.12.05.2.26.14.32.22.38.34.22,0,.19.06.38.17,0-.14.13-.08.21-.07a.93.93,0,0,1,.44-.39.39.39,0,0,1,0-.32.27.27,0,0,1-.09-.1C53.83,53.82,54.08,53.3,53.59,53.09Z"/><path d="M28.55,50.6a.22.22,0,0,0,.09.32c0-.09.14-.06.19-.13C28.71,50.68,28.69,50.6,28.55,50.6Z"/><path d="M15.74,39.28c.18-.36-.48-.55-.57-.33s.23.23.2.37C15.52,39.36,15.55,39.16,15.74,39.28Z"/><path d="M42,56.84c.06,0,0,0-.09,0s0,.16.09.21,0,0,.06,0,0,0,0,0,.09,0,.12-.08S42.11,56.78,42,56.84Z"/><path d="M35.55,53.55c-.07.11.12.1.11.15s-.13-.15-.2-.06,0,.15,0,.16a.21.21,0,0,1,.1.08c.07,0,.15-.07.18-.19S35.58,53.6,35.55,53.55Z"/><path d="M52.81,47.65c0-.09-.06-.15-.17-.21s0,.24.13.2,0,0,0,0S52.78,47.64,52.81,47.65Z"/><path d="M23.25,46c-.18-.08-.39,0-.33.23,0,0,0,.06.18.08,0-.16.16-.1.19-.22C23.12,46.05,23.35,46.06,23.25,46Z"/><path d="M24.63,47.63s-.11-.13-.15-.06a1.28,1.28,0,0,1-.23.31c.13,0,.15.18.21.13s0,0,.09,0a.69.69,0,0,1,.2-.25s-.1,0-.1-.08c.17.09,0-.16.14,0l.07-.14c-.14,0-.1,0-.22,0A.15.15,0,0,0,24.63,47.63Z"/><path d="M26.42,46.42a.59.59,0,0,1-.13.29c.14,0,0,.11,0,.17.26.08.07-.19.2-.18s-.05.15.15.31c0-.15.14-.17.09-.31-.08.09-.18-.08-.25,0v0s-.11-.07-.09-.13c.09.09.17.06.33.15C26.81,46.57,26.58,46.41,26.42,46.42Z"/><path d="M25.65,49.26c0,.06,0,.11,0,.15s0-.13.1,0C25.85,49.32,25.71,49.3,25.65,49.26Z"/><path d="M26.28,45.56c0-.1,0-.07.09-.09-.08-.08-.11-.1,0-.11-.07,0-.07-.07-.14-.09s0,0-.06,0,0,.13-.05.21S26.22,45.53,26.28,45.56Z"/><path d="M40.18,55.15c.07,0,0,.1.12.12s.05,0,.06-.14l-.11-.05S40.21,55.13,40.18,55.15Z"/><path d="M40,51a.1.1,0,0,0,0,.16s.12,0,.13-.08A.21.21,0,0,1,40,51Z"/><path d="M40.65,54.5c-.07,0,0,.06-.12,0,.06,0,0,.09,0,.12s0-.05.06,0,0,0,0,0S40.69,54.48,40.65,54.5Z"/><path d="M41.11,52.07c.12.15-.07.25.09.41a.28.28,0,0,0,.26-.49C41.34,52,41.19,52,41.11,52.07Z"/><path d="M39.16,51.6a.7.7,0,0,1-.33-.36c-.3,0-.33-.43-.58-.22-.2-.17-.43-.08-.62-.21-.08.15-.25.11-.35.08-.1.24-.58.21-.49.47H36.7l.06-.13c-.11-.1-.06.09-.15,0s0-.06,0-.09l-.07.17.11,0s0,0,.08,0c-.2.09,0,.47-.24.47a.51.51,0,0,0,.08.17h-.07c.08,0,0,.11.11.15h0c0,.09,0,.17,0,.23s0,0,.15.07c-.1,0-.08.15,0,.2.24-.06.6.44,1,.57a1.48,1.48,0,0,1,.66,0c0-.05,0-.09,0-.13a1,1,0,0,0,.48-.18l0,0c.06-.08.12,0,.19-.2l.14-.1a4,4,0,0,1,.07-.76C39.13,51.84,39.17,51.72,39.16,51.6Z"/><path d="M37.11,54.46c-.54.17,0,.89.24.27C37.33,54.63,37.22,54.54,37.11,54.46Z"/><path d="M38.7,53.42c.1.07-.12.07,0,.15S38.81,53.36,38.7,53.42Z"/><path d="M37,56.11l0,.08.19.09C37.27,56.18,37.13,56.08,37,56.11Z"/><path d="M39.42,55.84a.3.3,0,0,0,.08.31c0-.08.09,0,.16-.17s-.07-.12-.14-.17A.13.13,0,0,1,39.42,55.84Z"/><path d="M35.68,51.85a.13.13,0,0,1-.08.07s.11,0,.1.08-.05.09,0,.1.12-.14,0-.18S35.71,51.89,35.68,51.85Z"/><path d="M.2,24.76c-.07.09-.24.18-.19.33a.32.32,0,0,1,.25.15C.49,25.16.36,24.9.2,24.76Z"/><path d="M4.92,26.06c.06,0,.14-.13,0-.2A.1.1,0,0,0,4.92,26.06Z"/><path d="M6,8.21a.29.29,0,0,0-.3-.13c-.06.07,0,.12,0,.19C5.86,8.39,5.9,8.26,6,8.21Z"/><path d="M2.88,17.14s-.07,0-.09.1a.17.17,0,0,1,.1.08.15.15,0,0,1,.09-.1A.27.27,0,0,1,2.88,17.14Z"/><path d="M6.87,18.05c0,.07-.11.05-.12.15s.1,0,.16,0S6.92,18.1,6.87,18.05Z"/><path d="M9,10.12c-.05-.12.08-.19.1-.23S9,9.75,8.87,9.71s-.13.24-.13.39A.27.27,0,0,0,9,10.12Z"/><path d="M7.36,9.69c.48-.06-.09-.77-.15-.07C7.26,9.55,7.26,9.69,7.36,9.69Z"/><path d="M7.35,20.67a.27.27,0,0,0,.38.07C7.53,20.67,7.49,20.61,7.35,20.67Z"/><path d="M11.94,37.46l-.08.17C12.07,37.77,12.09,37.51,11.94,37.46Z"/><path d="M3,24.25l.19.08a.17.17,0,0,0,0-.22C3,24.13,3,24.12,3,24.25Z"/><path d="M6.6,37.91c0,.09-.12.05-.15.14s.14.09.2.16c0-.1.1-.06.11-.16S6.7,38,6.6,37.91Z"/><path d="M7.2,26.3c0-.09,0-.18-.07-.24s-.25.1-.14.21S7.09,26.35,7.2,26.3Z"/><path d="M3.68,21.42c0,.09-.11,0-.17.2a2.08,2.08,0,0,0,.31.21c.11,0,.11-.15.18-.2A.89.89,0,0,0,3.68,21.42Z"/><path d="M9.56,37c0,.11-.08.1-.14.11.11,0,.05.09.12.13s.13,0,.14-.11S9.63,37.08,9.56,37Z"/><path d="M5.85,36.78,5.77,37C6,37.09,6,36.84,5.85,36.78Z"/><path d="M4.3,30.14c-.16.15-.15.37.07.55a.24.24,0,0,1,.22,0A.36.36,0,0,0,4.3,30.14Z"/><path d="M4.07,24.17c0,.06-.12,0-.13.08s.09.14.15.07S4.2,24.23,4.07,24.17Z"/><path d="M4.24,23.39c0,.05-.15,0-.19,0s0,0,0,.05.13.09.17.14S4.3,23.49,4.24,23.39Z"/><path d="M29.05,51.31c-.06.12-.11,0-.19,0a.54.54,0,0,0,.11.26C29,51.52,29.17,51.38,29.05,51.31Z"/><path d="M53.35,25.27c.1.13.15,0,.22.1.07-.09.1-.33-.17-.31,0,0,0,0,0,0s-.08,0-.09,0C53.54,25.16,53.45,25.26,53.35,25.27Z"/><path d="M58.66,26.92s0-.07,0-.09-.23-.08-.28,0C58.49,26.92,58.54,27,58.66,26.92Z"/><path d="M54.42,25c-.05,0,0-.07-.05-.09s-.17-.07-.19,0,0,.06.11.05,0,.05,0,.07,0-.08.08-.07A0,0,0,0,0,54.42,25Z"/><path d="M55.57,41.93c.22.14.41.22.53,0a.66.66,0,0,0-.28-.19C55.86,41.84,55.59,41.78,55.57,41.93Z"/><path d="M57.62,40.35c.05-.06,0-.23-.07-.17C57.62,40.22,57.46,40.29,57.62,40.35Z"/><path d="M52.48,18.22c.1.09.25-.08.1-.13S52.48,18.12,52.48,18.22Z"/><path d="M22.43,42.53c-.07-.05,0-.13-.06-.17s0,.13-.07.17S22.41,42.56,22.43,42.53Z"/><path d="M53.59,24.09s0,0,0,.05.38,0,.35-.08A1,1,0,0,1,53.59,24.09Z"/><path d="M52.66,23.26a.19.19,0,0,0,.24,0,.29.29,0,0,1-.1-.08c0,.06-.08,0-.11.05S52.7,23.24,52.66,23.26Z"/><path d="M57,38.45c0-.2.28-.23.06-.42-.14,0-.23.2-.4.19a.46.46,0,0,0,.19.26C56.9,38.47,56.9,38.38,57,38.45Z"/><path d="M43.12,56.78l0,.09.19.08C43.36,56.85,43.22,56.76,43.12,56.78Z"/><path d="M55.88,47.94a.49.49,0,0,0-.14-.3c-.06.1-.22,0-.3.07.15.07,0,0,0,0C55.47,48,55.71,48,55.88,47.94Z"/><path d="M56,46.2c-.07-.08-.07,0-.17-.11s-.12.14,0,.18.07,0,.13,0S55.94,46.21,56,46.2Z"/><path d="M56.25,41.66c.1,0,.1-.3.27-.22.14-.21.08-.45.29-.53-.2,0-.15-.19-.28-.29a.15.15,0,0,1-.12,0s0-.1,0-.12c-.21-.12-.3,0-.46-.07-.32-.13-.3.18-.53.17a.42.42,0,0,1-.06.35c.16.16.08.27.28.47.08,0,.17,0,.25.15C56,41.51,56.19,41.46,56.25,41.66Z"/><path d="M54.57,48c-.22.09-.49.07-.64.25a.13.13,0,0,0-.08.24,2.37,2.37,0,0,0,.15.56.63.63,0,0,1,.39.24C55.27,49.46,55.6,48.45,54.57,48Z"/><path d="M57.21,38.55a.15.15,0,0,0-.05-.29c0,.09-.11.07-.12.18S57.11,38.52,57.21,38.55Z"/><path d="M55.7,40.1c-.1,0-.09,0-.15-.06,0,.09-.17.08-.07.17S55.66,40.2,55.7,40.1Z"/><path d="M30.86,47.38c-.1.1-.24,0-.23.21a1.18,1.18,0,0,0,.25,0C30.9,47.54,30.94,47.45,30.86,47.38Z"/><path d="M56.88,45.44c.15.11.38-.06.16-.16C57,45.33,56.9,45.33,56.88,45.44Z"/><path d="M46.23,50.77a.66.66,0,0,0-.18-.8,3,3,0,0,0-.6,0c-.22.35,0,.57.17.83,0,0,.09,0,.11.05C45.83,50.72,46.06,50.79,46.23,50.77Z"/><path d="M46.22,49.85c.19.12.18.1.17.21s0,0,.08,0,0-.09,0-.08,0,.06.05.09.13,0,.2-.25a1.57,1.57,0,0,0-.33-.16l0,0c-.07,0-.08.06-.06.11l0-.05C46.23,49.81,46.31,49.82,46.22,49.85Z"/><path d="M46.26,57.31c.06-.08,0,.07.1.07s.1-.08.22-.17c-.06-.11-.23-.11-.31-.11A.26.26,0,0,0,46.26,57.31Z"/><path d="M44.7,53.21l0,.09h0c0,.07,0,.08,0,.1.19.13.17.11.17.22s0,0,.07,0,0-.1,0-.08,0,.06,0,.09.13,0,.2-.25a1.53,1.53,0,0,0-.31-.16A.19.19,0,0,0,44.7,53.21Zm0,.11h0S44.74,53.35,44.71,53.32Z"/><path d="M46.66,51c-.06.1,0,.16.12.23a.18.18,0,0,0,0-.22A.1.1,0,0,1,46.66,51Z"/><path d="M43.6,53.33a.43.43,0,0,0,.35.43.74.74,0,0,1,0-.21A1.11,1.11,0,0,0,43.6,53.33Z"/><path d="M28.86,47.24c-.1-.1-.26.08-.11.12S28.85,47.33,28.86,47.24Z"/><path d="M44.19,56.38s-.09,0-.11-.05,0,.14.05.19S44.29,56.45,44.19,56.38Z"/><path d="M44.42,52.57s0,0-.06,0,0,0,0,0-.11.06-.12.16.07.08.13.12.16,0,.25-.16C44.48,52.66,44.52,52.6,44.42,52.57Z"/><path d="M44.08,54.34s-.25-.11-.34-.05-.05.07-.09.2.16.07.29.16S44.12,54.48,44.08,54.34Z"/><path d="M48.86,48.55a0,0,0,0,1,0,0v0A.52.52,0,0,0,49.1,48a.27.27,0,0,0,0-.23c.09,0,.12,0,.18-.06s.09.15.21.18,0,0,0,0a1.42,1.42,0,0,0,.64.35c0,.1-.14.21,0,.32s.07,0,.15,0l.09.13a.43.43,0,0,0,0,.07l.06.09,0,0c0,.11-.07.09-.09.1s0,0,.1.08a.15.15,0,0,0,0-.14.59.59,0,0,0,.53.36c.11.23.4-.09.65,0,.2-.15.07-.32.31-.38a.72.72,0,0,0-.05-.5c.06,0,.09,0,.15,0a1.59,1.59,0,0,1,.27-.5c0-.1-.15-.26-.2-.36a1.26,1.26,0,0,0-.24-.42h0a1.29,1.29,0,0,1,.91-.57,3.84,3.84,0,0,0,0,.48c.13.2.43.28.59.37s0,.1.09.11c.27.06.33-.2.62-.17.06,0,0,.11.16.14,0-.16.09,0,.21,0a.66.66,0,0,0,.59-.8c-.2-.18-.32-.37-.52-.54-.25,0-.51,0-.63.19,0-.07-.11-.09-.2-.1.44-.53,1.13-.53,1.46-1.29a.58.58,0,0,0,.23,0,3,3,0,0,0,.15.52.51.51,0,0,1,.38.24c.86.13,1.19-.83.25-1.26a.23.23,0,0,1,.27,0c.27-.57.78-.62,1.12-1.06A.58.58,0,0,1,58,43a6.58,6.58,0,0,1,.56-1.22l.42-1.48c-.13-.14-.15-.36-.5-.37a2.23,2.23,0,0,1-.31.71c-.32-.2-.36.45-.53.08-.05.14.13.15,0,.34a.92.92,0,0,0-.69.26c-.1.15.14.08,0,.24-.14-.11-.09.16-.22.05a2.46,2.46,0,0,1-.54,1.1h0c-.25,0-.51,0-.63.2-.06-.17-.36,0-.52-.24-.07,0-.08.13-.18.09a.71.71,0,0,0,0-1.17,8.09,8.09,0,0,0,.34-.88c-.18-.19.14-.71.31-.72a.36.36,0,0,0,0-.11.47.47,0,0,1,.18.19s.14,0,.18,0,0-.14,0-.23c-.16,0-.23-.13-.33-.23a1.66,1.66,0,0,1,.25-.68c.17.12.18-.08.31,0,.23-.43.48-.82.68-1.29l-.19-.06a.2.2,0,0,0,0,.09l-.13-.05c-.08.06-.08.14-.07.24h-.06c.35-1,.43-2,.71-2.44a2.9,2.9,0,0,1,0-.73.47.47,0,0,0,.17-.14l-.12,0a1.83,1.83,0,0,1,.3-.59c0,.12.17.12.19.22s-.11.33-.16.49l-.18,0c-.09.15,0,.26.08.38a17.67,17.67,0,0,1-.74,2.27c.65-.34,1-1.39,1.3-2.38.14.08.11-.16.27,0a.76.76,0,0,0,.25.36A8.52,8.52,0,0,0,57.94,37c.16.14.08-.22.2-.17s.26,0,.22.12-.24,0-.28.26-.06.15-.12.19a.8.8,0,0,1,.15.17c0-.06.14,0,0,0,.19.13.18-.09.27-.12a.75.75,0,0,0-.07-.12.89.89,0,0,0,.06-.56c.42-.12.25-.63.41-1.08-.18-.35.42-1.19.24-1.53.45-.89.56-2.73.94-3.58-.16,0,0-.14,0-.24-.32.12-.35.09-.69-.08-.6,1-.32,2.47-1,3.49.28-1.43.44-2.74.6-4a.65.65,0,0,1,.28-.12c0,.14.15-.05.26,0,.06-.14.08-.28-.06-.37a.92.92,0,0,1-.41-.13l.15-1.1s.05,0,.08,0-.09-.11,0-.2c.35.1.68-.12.56-.44l-.12-.05c0,.11-.24,0-.42,0,0-.18,0-.36.08-.55-.07,0-.07-.31,0-.37a.21.21,0,0,0,.06.08c-.07.19-.05.33.09.4l.06-.3h0c.11-.08.09-.13.2-.15a.4.4,0,0,0-.15-.13l.06-.33a.31.31,0,0,0,.23,0c0,.05,0,.13.1.18.06-.11.22-.11.33-.06a.31.31,0,0,0,0,.08,5.11,5.11,0,0,1,.39,2.53l.19.05c-.12-.26.05-.29.22-.4s-.14-.23-.21-.34c0-.69-.06-1.29,0-2,.06,0,.13,0,.17,0,.07-.14.09-.27,0-.37h-.09l0-.22c-.14-.11-.11.14-.18.17l-.07,0,.09-.3a.38.38,0,0,0-.25.22l-.18-.1a.76.76,0,0,1-.38.16.12.12,0,0,1,0-.1c-.1,0-.14,0-.2.06s0-.21,0-.3c-.17-.13-.19.07-.32,0,.16-.3-.06-.36.09-.66-.4-.27-.11-1-.44-1.28-.13.39.16.8-.09,1a2.7,2.7,0,0,1-.06,1.53c-.06,0-.06.1-.12.08l0-.12c-.18-.1-.22.05-.37,0a.09.09,0,0,1,0,.1.2.2,0,0,0-.14,0L58.3,26l.15.07.07-.06a.42.42,0,0,0,.24.12l0,0a3.79,3.79,0,0,1-.18.42l.13,0s0,.07,0,.07c.11.09.07-.08.18,0a.06.06,0,0,0,0,0h0c0,.26-.07.53-.09.8a3.38,3.38,0,0,1-.41-.09l-.09.07c-.11,0-.19,0-.22.1h0a.14.14,0,0,0,0,.09c.21.19.44.13.72.17a12.4,12.4,0,0,1-.2,1.32c-.27.13-.64.05-.76.35.18.13.31.18.44.13s0,.14.1.18h0a1.66,1.66,0,0,1-.06.16h-.06c-.1,0,0-.2-.24-.18a.35.35,0,0,0,.09.17s0,0,0,0,0,0,0,0,0,.09,0,.12,0,0,.09,0a0,0,0,0,0,0,0c-.05,0,0,0,0,0a.36.36,0,0,1,.18.24.5.5,0,0,1,0,.13.14.14,0,0,0,0,.14c-.1.36-.15.65-.24.94-.07,0-.14.12-.25.1s-.24-.06-.31-.12a1.11,1.11,0,0,1,.23-.4l-.12.43a.27.27,0,0,0,.25-.16c.05-.15-.13-.15,0-.35.08,0,.22.13.22-.05a.3.3,0,0,0-.44-.24l.09-.32c-.13,0-.15.16-.32,0a.69.69,0,0,0,0-.28s0,0,0,0,.11,0,.14,0,.13,0,.1-.12-.12-.08-.24-.12a.77.77,0,0,1,.06-.15l-.19-.06c-.16.37,0,1-.33,1.17,0-.09,0-.18.08-.26h0a9.89,9.89,0,0,0,.14-1.55s.1,0,0-.05.06,0,.06-.11l-.07,0a1.36,1.36,0,0,1,.14-.4c0-1.08.15-2.18.23-3.26-.2-.17-.13-.5-.07-.83-.31,0-.39-.21-.26-.53.15.09.24,0,.25-.16-.26-.15-.33.1-.59,0,0,.17.26.18.06.47l-.18-.05a.41.41,0,0,1,0,.19c-.07,0,0-.07,0-.11s-.2,0-.12.15,0-.08-.09,0c.2.1,0-.1.18-.09s0,.07,0,.12-.18,0-.08.06,0,0,.05,0,0,0,0,0a.34.34,0,0,1-.14.19c.32,0,.1.26,0,.34a.56.56,0,0,1,.2.4c-.18,0,0-.18-.16-.16,0,.1,0,.21-.05.31a1.33,1.33,0,0,0-.19-.14h-.19c0-.1,0-.19,0-.28a.51.51,0,0,0-.26.26h-.13c0,.05,0,.08,0,.13s-.08,0-.22-.1a1.12,1.12,0,0,1-.17.21c0-.23,0-.45,0-.69.16-.07.23-.33,0-.38.08.06-.1,0-.17,0s0,0,0-.05.1-.12,0-.17a6.19,6.19,0,0,1,.14-1.23l0,0,0-.09a.21.21,0,0,0-.1,0,5.39,5.39,0,0,1-.1-.91.06.06,0,0,0,0,.05c.12,0,.22,0,.26-.09s-.05-.18-.12-.12c.08.1-.17.06-.16.16l0-.2a.47.47,0,0,1,.12,0c0-.05,0-.08,0-.13s0,0,0,0-.07,0-.12,0a.25.25,0,0,1-.05.07,1,1,0,0,0-.08-.18.37.37,0,0,0,.12-.17l-.1-.06c0-.23,0-.42-.24-.49a.38.38,0,0,1,.06.21c-.06-.09-.12-.16-.2-.14s0,.09-.12.06a.72.72,0,0,1,0,.21L54.75,21c-.11.07,0,.13,0,.23.2.07.22.17.28.27s.09,0,.11.05h0a.22.22,0,0,0-.15,0s0,0,0,0-.07,0-.09,0c.2.06.12.16,0,.17a.14.14,0,0,0,.12.06.35.35,0,0,1-.11.19c0,.1.09.17.12.27s-.11.08-.09.15l-.09.06c0,.06.06.1.08.2l0,.07c-.09,0-.22-.13-.22.05s.13.15,0,.34c.17.14.07-.29.25-.16-.08.29-.22.18-.12.43-.3,0-.2.23-.26.38l-.06,0c0,.21-.63.13-.69.34.09-.21.35,0,.36-.11.06,0,0,.2.12.15s.11-.1.2-.15a10,10,0,0,0,0,1.9c-.06,0,0,0-.05,0H54.4s0-.08,0-.1-.11.08-.23,0a.29.29,0,0,0-.08.08c0-.22,0-.44-.24-.5-.12.17-.25.33-.37.51l-.12.08s0,0,0,0-.13-.18-.11-.32a.56.56,0,0,0,.08-.23l-.06,0a.5.5,0,0,0-.31-.29.25.25,0,0,0,0-.07l0,.05-.09,0c0-.06,0-.11,0-.18a.46.46,0,0,0-.21-.07h0c.09,0,.14-.1.18-.11s0,.06,0,.07h0c.17,0,0,.18.16.16a.61.61,0,0,0,0-.41l.06,0c0-.05,0-.1,0-.09s.19.06.18.19h0a.74.74,0,0,0,0,.12c.29.07.2,0,.4,0,0,0,0-.08,0-.09a1.18,1.18,0,0,1-.13-.18c0-.12,0-.17.06-.22-.25-.13-.27-.05-.42-.15s-.24.3-.36.28-.17-.23-.23-.28a2.12,2.12,0,0,0-.12.2c-.05-.32.12-.77,0-1,.05,0,.11,0,.13-.06s-.15-.15-.06-.16a.21.21,0,0,0-.11,0,3.1,3.1,0,0,0,0-.42c.12.06,0,.1.09.15s.08-.12.13-.16a1.21,1.21,0,0,0,.15.55,1.89,1.89,0,0,0,0-.74s0,0,0,0,0,.19.23.17c-.07-.26.09-.66-.18-.79a.3.3,0,0,1,0-.1s0,0,0,0,.13-.11.17-.21c-.29-.14-.6-.51-.43-.81,0,.26.2-.05.43.12A3.69,3.69,0,0,0,53.4,22c0,.08-.13,0-.14.13a.69.69,0,0,0,0,.13s-.05,0,0,.07h0v0h0l.05,0a1.48,1.48,0,0,1,.1,1,.4.4,0,0,0-.22,0l-.08-.06s0,.06,0,.08H53s0,0,0,0a.23.23,0,0,0-.18-.11c0,.1,0,.21,0,.31s-.09,0-.09,0,.06,0,0,0-.09.31.06.36a.34.34,0,0,1,0,.1c.23-.1.61-.37.82,0,.13-.2,0-.2,0-.35l-.09,0c.1-.08.2-.14.28,0,.08-.07,0-.09,0-.14s.11.09.2.05c-.07-.05.24-.13.15-.24s0,.06-.07,0,0,0-.17,0c.06,0,.07,0,0-.1s-.22,0-.29.14l-.06,0a2.5,2.5,0,0,1,.09-.87c-.21-.15-.12-.5-.19-.74.28,0,.21.21.44.24h0c.13,0,.21.06.24.15s0,0,0,0,0,0,.06,0-.11,0-.1-.08c.21.08.11-.07.11-.16a.34.34,0,0,0-.16,0c0-.06-.1-.3,0-.15,0-.09,0-.16-.14-.2,0,.16-.11.25-.13.38-.11-.18-.4-.24-.39-.49,0-.08.13,0,.14-.13s-.26-.21-.3-.37.16-.06.17-.24c-.25,0-.27-.24-.16-.51a.78.78,0,0,1-.38-.79,1.16,1.16,0,0,1-.34-.53.32.32,0,0,0,.24,0c-.08,0,0-.13,0-.18s-.13,0-.23-.07,0,.1-.06.1a2.48,2.48,0,0,0-.23-.61c.13,0,.22-.11.41,0a.58.58,0,0,0-.05-.14c.06,0,.13.07.16,0s0-.08,0-.13-.11,0-.11-.05,0,0,0,0,.12.13-.07.17c-.1-.19-.29-.33-.24-.62h0a.18.18,0,0,0,.17.06.15.15,0,0,0,0,.13c-.07-.12-.16.08-.07.14a.21.21,0,0,0,.22-.17c-.24-.1-.06-.29-.26-.39a.79.79,0,0,0-.06-.22.24.24,0,0,1,.11.07c0-.13.13,0,.15-.14l-.07-.1.09,0a.33.33,0,0,1,.12-.42c-.26,0-.12-.27-.19-.4l-.38-.11c.07-.49.34-.56.68-.49-.06-.13-.12-.26-.17-.39h0a.21.21,0,0,0-.08-.31.13.13,0,0,1-.07.06c-.07-.17-.15-.32-.23-.48a.09.09,0,0,0,.07,0,.38.38,0,0,0-.11-.25l0,.06a23.15,23.15,0,0,0-7.1-7.82.75.75,0,0,0,.48.49c-.08.17,0,.23,0,.32a.36.36,0,0,0-.16.22c0,.1.11.18.2.26v0a10.87,10.87,0,0,1-1.45-1c0-.12.12-.05.14-.13a5.28,5.28,0,0,0-1-.56h0A2.24,2.24,0,0,1,43,5.47c-.31.17-.62-.18-.82-.35-.32.15-.81-.16-1-.39-.07.06-.16.06-.21.18a.11.11,0,0,0-.07-.06s0,.05-.07,0,0,0,0,0-.09,0-.13.08h0a7.84,7.84,0,0,1-2.28-.66c.14-.56.62-.06.91,0,.14-.27-.12-.28-.07-.48.3,0,.23.26.53.27-.06.2-.29.07-.31.37.45-.43,1.21-.19,1.82-.28,0-.41-.68-.42-.85-.25s0-.14,0-.24c-.29-.07-.6.25-.79-.11,0-.19.17,0,.16-.18a1.81,1.81,0,0,1-.88.2c-.08.23.23.21.19.4-.23,0-.1-.22-.34-.21,0-.26.18-.12.2-.34a7.77,7.77,0,0,0-2.06-.31c0-.19.17,0,.16-.19.1.16.2.18.31,0,.94.38,1.46-.13,2.39.23l0-.08c-.2-.09-.4-.16-.61-.24a1.2,1.2,0,0,1-.33-.13c-.42-.16-.85-.31-1.27-.44v0l-.33-.13c-.45-.14-.9-.27-1.36-.39l0,.09c-.05.15.37,0,.23.24-.2-.09-.36-.08-.44.1-.22,0-.34-.13-.31-.32.2.13.21-.13.41,0,.08-.12,0-.1-.06-.17l-.13,0a.4.4,0,0,0-.1.12c-.17,0,0-.18-.15-.16s-.35.08-.41.34c-.16-.08-.49-.07-.55-.22s.25-.17.35-.29l-.22-.05-.1.07a.15.15,0,0,1-.14-.12l-.37-.08a1.39,1.39,0,0,1-.79-.07c0-.05,0-.07.07-.07-.8-.16-1.6-.29-2.41-.4a.18.18,0,0,1,.08.17L30.52.84l0-.1C29.87.65,29.18.57,28.5.5a.31.31,0,0,0-.08.19c.07.06.29,0,.26.14l0,.16c-.2-.08-.33,0-.38.23.08.06.3,0,.27.14-.26.59-.9-.3-1.21-.06-.08.15.15.11,0,.29-.11,0-.12.19-.22.22-.34-.18-.49,0-.83-.12-.32.29-.81.22-1.22.33,0,.28.29.37.46.53,0,.09-.13,0-.14.14.3,0,.11.33.41.34,0-.19-.28-.17-.19-.4.18.07.45-.13.58.11-.05.16-.33-.17-.33.08.07.06.3,0,.27.14s-.13.19-.22.22a10.66,10.66,0,0,1-1.71.08l-.06.21c.33,0,.57-.17.94-.07-.14.3.21.3.27.48-.21.22-.53.19-.73.42.07,0,.29,0,.26.13-.25.14-.67-.06-.9.14-.09-.18-.41-.31-.12-.49-.18.12-.51,0-.78-.11L23,4.39c.08,0,.25,0,.15.16-.27-.25-.88-.45-1,0,.44,0,.78-.08,1.07.19-.35-.16-.47.15-.75.13-.06.18.15.19.09.37L22,5.15c-.13.47-.81-.23-1,.18a.59.59,0,0,0,.5,0c-.11.15.14.08,0,.24-.11,0-.31-.18-.32,0,.18.17.36-.08.4.06-.17.26-.46.24-.58.58L20.9,6.2c-.11.16.14.09,0,.24-.26-.15-.33.1-.59-.06.05.17.27.24.28.43.21,0,.28-.26.41,0,.11-.15-.14-.08,0-.23l.19,0-.07.21.29.08c.13-.2-.27-.06-.13-.26.1.06.36,0,.36.16l0,.16c-.26-.2-.18.3-.44.1-.18.36-.59.24-1,.18-.11.15.14.08,0,.24l-.28-.09L20,7.2l-.47-.13c0,.19-.17,0-.16.18.37-.19.52.29.8.41a1.29,1.29,0,0,1-1,.68c-.1.36-.44.21-.75.12,0,.19.23.23.3.38-.28.51-.58,1-1.17.86l-.09.32c.28,0,.08.27.2.35-.23.05,0,.21-.13.47-.33-.17-.47.05-.53.42l.37.11c-.07.15-.07.48-.2.52l-.09-.2c0-.08.13,0,.14-.13l-.38-.11c.13-.2,0-.2,0-.35l-.57-.16c-.13.21.29.08.24.24s-.3.32-.17.58c-.12,0-.23-.08-.23.11s.21.15.22.29c-.15,0-.13.3-.25.33-.19-.21-.25-.14-.52-.15,0,.32.27.73.06,1.05-.25-.38-.73.15-1.1-.26l.14-.48c-.17-.13-.19.07-.32,0l.06-.21c.31.18.53-.1.66.19a1.87,1.87,0,0,1,.41-.68c-.22,0-.12-.16-.26-.19,0,.39-.3.32-.42.57-.16,0-.12-.16-.18-.23a2.35,2.35,0,0,0,.41-.74l.19,0c.08-.4.55-.49.43-.79.22,0,.25.14.35.22,0-.19.16,0,.16-.19s-.09.16-.22.05c.06-.26.13-.51.34-.47-.12-.26.1-.2.22-.4-.17-.12-.19.08-.32,0l.06-.21c.22.06.34-.1.6.05.05-.18.23-.08.28-.26l-.47-.14c-.11.16.14.09,0,.24-.07-.05-.29,0-.27-.13.34-.54.85-.71,1.22-1.2l.23.07c.1-.26-.33-.2-.16-.51-.25,0-.39-.15-.28-.42l.38.11c0-.15.18-.06.18-.29-.58-.2-.7.56-1.19.57,0,.3-.24.17-.31.37.31,0,.35.24.38.45-.17-.12-.18.08-.31,0-.05.15.13.15,0,.34-.39-.25-.45.18-.81,0-.05.38-.39.15-.49.43-.27-.15-.41,0-.64-.07-.14.2.27.06.13.26.13.11.08-.16.22-.05-.14.22.28.09.23.24-.29.11-.54.28-.82.39l.09-.31c-.41-.12-.52.39-.85.44h0c0-.09.13-.25,0-.24-.24.58-1,.05-1.41.28,0-.23.15-.13.19-.29L12.06,10l-.1.32H11.8a25.71,25.71,0,0,0-2.5,5.54h0l-.12.42-.07,0c-.1.33-.19.66-.29,1s0,.49.06.73c.1.06.36,0,.36.16,0,.29-.21.19-.24.45-.17-.08-.26,0-.34.13.2.13.21-.13.41,0,0-.08,0-.2.11-.2s.13,0,.12.1a.87.87,0,0,0-.34.3l-.33-.1c0,.25-.14.28-.22.4.36.06.51-.31.94-.07l-.12.42c-.43,0-.68.35-1.06.45a1.16,1.16,0,0,1,0,.18s0,0,0,.05l0,.17a.2.2,0,0,1,.18,0c-.1.31-.22.61-.34.9s0,.36-.08.54l0,0c-.07.09-.24.18-.19.33a.25.25,0,0,1,.16.05c-.11.73-.2,1.47-.27,2.2a4.1,4.1,0,0,0,0,.61c.16.05.18-.19.34-.13s.16.15.24.24a1,1,0,0,1-.46.15c0,.35,0,.25-.21.4.07.05.29,0,.26.13-.23-.06-.28.25-.35.52a.49.49,0,0,1,0,.12l.07,0c-.15.3.07.36-.09.66l.19.06c0-.1-.1-.36.07-.44,0,.2.11.41-.1.55.17.14.26.35.1.71.1.12.26.21.3.38s-.25.33-.36.52l.28.08c0-.21.15-.2.24-.27s0,.14.11.14c0-.19.1-.24.25-.15.19-.37-.06-.45-.24-.59,0-.06,0-.15.09-.14s.22.35.43.46c.34-.39.15-1.1,0-1.48-.13-.11-.09.16-.22.05.05-.15-.13-.15,0-.34l.19.05c0-.3-.38-.4-.17-.85.18.08.27,0,.35-.13-.48-.16-.51,0-.87-.19.27-.55.79.22,1.12,0,0,.1-.13.26,0,.24,0-.37.4,0,.45-.32,0,.09.13.12.08.25a1.4,1.4,0,0,0-.87.55c.42,0,.6-.45,1-.53-.06.15.12.15,0,.35a.51.51,0,0,0,.37-.24c0-.1-.1-.36.08-.43s.13,0,.12.09-.16.06-.17.24.25,0,.16.16c.13.11.09-.16.22-.05s-.16,0-.16.18c.34,0,0,.45.27.48-.15,0-.18.34-.38.29l-.13.42c-.23-.2-.17.21-.34.13.13-.19-.06-.19,0-.34s0,.18.15.16c.06-.35-.32-.43-.16-.85.09,0,.22.12.22,0l-.28-.08c0,.09,0,.27-.16.18l.09-.32c-.43,0-.11.56-.4.69l.28.08c-.12.35.2.65,0,.92-.08-.08,0-.24-.17-.28.05.37-.1.47-.24.84.18,0,.21-.24.43-.1.06-.09,0-.33.14-.3s.17.21.15.38c-.11,0-.31-.18-.32,0,.22,0,.25.13.35.21,0-.17.13-.06.22-.05.14-.25,0-.31,0-.51.09,0,.12-.14.24-.1,0,.1,0,.12,0,.19,0,.22-.15.06-.17.23.21.1.27-.12.51,0-.17.42.18.52-.09,1a.47.47,0,0,1,.13.61c.23.14.25-.14.44-.1-.06.28-.17.44-.41.34,0,.27-.21.13-.22.4.27,0,.14.26.32.32.09-.19.09-.55.23-.62s.12.15.19.22-.13,0-.14.13.11.43.24.59c0,.26-.19.29-.28.44.08-.24-.25-.22-.11-.5-.09-.06-.35,0-.25-.18a.58.58,0,0,0-.14,0,.36.36,0,0,0-.22-.23l0-.12c-.08-.06-.3,0-.27-.14.29-.09,0-.44.26-.55-.15,0,0-.15,0-.24-.22.14-.22-.15-.56-.17a1.31,1.31,0,0,1,0,.8c.16.12.17.33.27.48-.11,0-.16.16-.2.34.39.2-.07.94.34,1.13.11.08,0-.26.15-.18l.14,0c-.11.21,0,.31,0,.45-.23,0-.1-.22-.34-.22.09.19-.05.53.18.63s.05-.34.18-.29l.14,0a1.83,1.83,0,0,0,.12,1c-.11,0-.17.16-.2.34l.28.08c.05-.15-.13-.15,0-.34.13,0,.14-.15.31,0,.05-.14-.13-.15,0-.34-.17-.13-.18.07-.31,0,0-.1,0-.12,0-.18.28-.09,0-.31.17-.59-.07,0-.18,0-.18-.1s.13,0,.14-.13c-.15,0,0-.15,0-.24-.26-.14-.44-.33-.68-.49,0-.22.16-.06.17-.23-.2-.05-.27-.18-.19-.4h.05a.68.68,0,0,0,.12.12.16.16,0,0,1,.14,0,.65.65,0,0,1,.11.58c.31,0,.24.25.4.35,0-.19.1-.25.25-.16.11-.15-.14-.08,0-.24.16.14.08-.22.2-.17s.14,0,.13.09l-.05.16c-.08,0-.22-.12-.22.06.34,0,.27.23.16.5.14,0,0,.21.26.19,0-.22.14-.21.23-.28.27,0,.16.22.39.23.11-.15-.14-.09,0-.24l.28.08c-.2.39.51.2.35.56-.12,0-.23-.08-.23.11s.5.21.53-.08-.23-.35-.24-.58c.17.12.18-.08.31,0-.1.36.36.62-.05.9l.37.11c0,.21.13.33,0,.59L13.62,34a.14.14,0,0,0-.08-.09.54.54,0,0,1,0-.37.77.77,0,0,0-.7.32c-.07.13.24,0,.16.16a.75.75,0,0,0-.34.3c-.28,0,0-.28-.18-.28l-.09.32.66.19c.13-.23-.1-.23,0-.45.26,0,.3.18.42.29-.1.23-.17.14-.1.37-.11,0-.31-.18-.32,0l0,.1c.39.1.74.23.63.64.32.21.51.85,1,.65,0,.1.11.36-.07.43,0-.16-.23-.17-.4-.22-.16.46.48.42.5.77l-.14.47c.17.13.18-.07.31,0-.06.18.16.19.1.37-.21,0-.12-.16-.25-.19,0,.22.18.29.16.51-.11,0-.31-.18-.32,0,.39.08.47.34.91.38.17-.26-.24-.39,0-.57,0,.09.08.13.15.19a.23.23,0,0,1-.11,0,.58.58,0,0,0,.2.16h0l.1,0h0c.34.09.4.35.67.48-.05.42-.28.48-.48.61.08.06.3,0,.27.14s-.24.46,0,.5c.05-.26.13-.46.29-.49,0,.16.23.18.39.23l-.06.21c.62.16.65.69,1.05,1,.62-.19.81.56,1.32.73-.14-.23-.37-.41-.42-.7.6.38,1.64.48,1.58,1.26l.47.14c.14-.22-.28-.08-.24-.24s.37,0,.46-.16c-.17-.08-.49-.07-.55-.21s.16,0,.15-.19-.37-.28-.47-.48l.05-.16c.17.13.18-.07.31,0,0,.37.55.43.77.68.52-.18,1,.37,1.31.61.21-.1.13,0,.33.09.36,0,.82-.36,1.12,0a5.05,5.05,0,0,0,.52-.05h0s0,0,0,0a.87.87,0,0,1,.6.11c-.22,0-.26.3-.48.26a1.44,1.44,0,0,0-1.19-.11c.34.18.79.12,1,.22a.52.52,0,0,1-.76,0c-.21.14-.86-.09-1-.28l-.06.21c.11.06.36,0,.36.16s0,.15-.09.15a10.91,10.91,0,0,0-1.9-.67l-.09.32c.47.33,1.25.48,1.57.91.09-.22.3-.16.53-.07,0-.14-.08-.24,0-.45s.71,0,.63.29-.19.06-.18.29c.31.3.63.09.89.43-.1.11-.27.06-.29.32a1.15,1.15,0,0,0,.28.08c.05.09.12.16.1.26a.1.1,0,0,1,0-.13,1.15,1.15,0,0,1-.55,0s0,0,0-.1-.1,0-.17,0l-.05.1a11.55,11.55,0,0,0-1.45-.51c.1-.15-.15-.08,0-.23s.12.15.25.18l.07-.21c-.35,0-.33-.26-.63-.3,0,.08,0,.2-.11.2s-.26,0-.22-.12.25.13.23-.1c-.38-.34-1.08-.47-1.26-.94A3.41,3.41,0,0,1,19.33,42c0,.09,0,.33-.14.31s-.18-.21-.27-.31c-.1.07-.28,0-.34.13.3.1.53.5.82.35-.16.42.3.44.28.77.17-.1.39,0,.35.22a.76.76,0,0,0,.6,0,.23.23,0,0,0,.12.27.45.45,0,0,1,.57.16,15.1,15.1,0,0,0,2.36,1c-.11.15.14.08,0,.24.47.11,1,.41,1.33.16.09.34.51,0,.65.25h-.06c.09.12-.09.17.12.33.15-.07,0-.14.13-.18,0-.06-.06-.12-.14-.16s.2,0,.29,0c.21-.36-.09-.4-.13-.61.29.08.93-.07.91.38-.19-.08-.32,0-.37.23a2,2,0,0,0,.91,0c.06-.12,0-.4.17-.41.13.25.46,0,.69.26,0,.25-.24.11-.3.31s.3,0,.27.14-.25-.13-.23.1c.19.11.28,0,.4,0s-.12-.14,0-.34c.33-.07.73-.17.73.32L28.89,46a.22.22,0,0,0,.12.26.82.82,0,0,1,.6.06c-.11.16.14.09,0,.24.23.17.44-.15.58.11s-.16.07-.17.24.15-.15.32,0c0-.23.28-.36.35-.18s-.21.06-.26.21a2,2,0,0,0,1.29.14c0,.24.18-.07.25.19.11-.13.29-.13.5-.09a.94.94,0,0,1-.12.22c.14,0,0,.12,0,.18.26.07.06-.2.2-.18s-.05.14.15.3c0-.15.13-.17.09-.3-.09.08-.18-.09-.25-.05v0c-.05,0-.11-.08-.09-.13s.17.05.33.15a.13.13,0,0,0,0-.12l.37.11c.2-.47.87-.34,1.16-.13.11-.15-.14-.08,0-.23l.51-.2c.18.25.79.06,1.15.1-.06.18.11.23.18.33a.19.19,0,0,1,0,.1h0l0,.08c-.22-.14-.31,0-.39.11-.31-.11-.75-.13-.87-.36,0,.17-.13.06-.22,0,0,.35-.24.29-.34.47.21,0,.36-.2.61-.16l.1.2c-.26,0-.28.51-.55.47a5.59,5.59,0,0,0-.57-.51c-.11.16.14.09,0,.24-.49-.17-.74.15-1.29-.14-.11.15.14.08,0,.24-.17-.13-.18.07-.31,0s-.62-.07-.82,0c.11-.15-.14-.08,0-.23-.51,0-1.14-.29-1.55-.11-.07-.33-.42,0-.49-.26,0,.3-.24.17-.31.37.07,0,.18,0,.17.11l0,.16-.47-.14.06-.21c-.13,0-.15.15-.31,0,0,.35-.22.22-.32.36a11.28,11.28,0,0,1,1.7.15c.16-.31.49-.28.7-.48.15.22.46.34.66.53.73-.24,1.51.16,2.4,0,0-.29.43-.29.55-.13l-.05.16c-.3,0-.59,0-.72.36-.17-.14-.19.05-.26.12s-.09,0,0,0c-.12,0-.2-.09-.12-.13-.18-.07-.07.07-.2,0,.11,0,.06.05,0,.06a4.36,4.36,0,0,1-.51,0,.35.35,0,0,0,0-.15c-.08,0-.07.1-.08.14h0s-.09-.06-.08-.11c.16.07,0,0,0-.06s.16.06.19,0l-.15-.07c-.09.1-.18.24-.13.33S32,49,32,49.08a.26.26,0,0,1,.13.27c-.24-.1-.35.06-.41.34-.26-.15-.23.32-.53.07-.06.09,0,.33-.14.31-.29,0-.19-.26-.42-.12,0-.2-.28-.18-.19-.4l.37.11c.14-.22-.28-.09-.23-.25a.58.58,0,0,1,.33,0l0,0c.12,0,.19,0,.22-.11a.24.24,0,0,0,.08-.09h-.05a.55.55,0,0,0,0-.22.23.23,0,0,0-.33.22l-.1,0c-.1.26-.38.12-.63,0-.28.44-.91.12-1.38.17-.08.28.09.27-.12.42.1.11.19-.21.2,0l-.06.06a.48.48,0,0,0-.18,0,.41.41,0,0,0-.08.13.89.89,0,0,0-.38.15.53.53,0,0,0,.39,0,.25.25,0,0,1,0,.08c.2,0,.18.09.35.13a.31.31,0,0,0,.11-.22l.07,0c.11-.13.23-.26.42-.22s0,.24.18.28.47.08.56-.18c-.08-.06-.3,0-.27-.14.24.07.32-.27.23-.45.24.06.25.25.29.43s-.18,0-.17.24c.06.07,0,.22.19.23l0,0c-.07,0-.08.11-.16.23a.12.12,0,0,0,.06.06,1.23,1.23,0,0,1-.68,0l-.06.21c.28,0,.58,0,.86,0,0,.15,0,.35-.15.36,0,.18.29.41.16.55,0,.08,0,0,.14.06-.1,0-.08.15,0,.21.24-.06.6.43,1,.57.22-.09.45,0,.67,0,0-.05,0-.08,0-.13.43-.05.49-.2.83-.45,0,0,0-.1,0-.15s.1,0,.19,0c0-.14-.12-.17-.18-.25a1.25,1.25,0,0,1,0-.19c.08-.09.13-.26.22-.35.26,0,.45.15.33.44a.67.67,0,0,0,.49-.08c.21,0,.48.11.59-.12s-.3,0-.25-.19a2,2,0,0,1,.5-.07.32.32,0,0,0,0,.2c.12.08.16,0,.27.09a.21.21,0,0,0,0-.3l.27,0c0,.19-.16,0-.15.18.24,0,.1.22.34.22.34-.8,1.19-.53,1.61-1.14l.24.06.23-.27c.45.1.63-.37,1-.39.07,0,0,.14.11.15a.23.23,0,0,1,.21-.16.38.38,0,0,0,0,.33.19.19,0,0,1-.27,0l-.09.31c.18,0,.21-.24.44-.1a.39.39,0,0,1,.22-.27,1.74,1.74,0,0,1,.11.18s.09,0,.11.05c.1-.17.33-.09.5-.12a.6.6,0,0,0,.06-.23,1.09,1.09,0,0,1,.56-.42l-.06.21c.32-.17.69-.25,1-.39-.13.38-.48.3-.61.69,0,.11.27.09.11.32.62.32.67-.54,1.22-.34-.06.37-.38.57-.5.32,0,.79-.74,1-1,1.66.35,0,.47-.5.91-.31a1.16,1.16,0,0,1,.61-.47c0,.1-.14.2,0,.31s.07,0,.2.06c.12.52.74.35,1.08.38a.89.89,0,0,0,.49-.57c.06,0,.09,0,.16,0,0-.14.27-.5.27-.5a.47.47,0,0,0-.11-.21,2.5,2.5,0,0,1,1.32-.87c0-.07,0-.2.11-.19.33,0,.54-.32.74-.64a1.13,1.13,0,0,0,.1.13c.09-.09.15,0,.17.12,0-.15.2,0,.26-.09.07.1.06.07.21.13a.13.13,0,0,1,.08-.07c-.12-.08.21-.24.26-.37s-.08-.36,0-.53a1.06,1.06,0,0,0-.47-.26l.09-.08a1.89,1.89,0,0,0,.39,0c0,.16.12.32.15.44a.51.51,0,0,1,.38.24A.77.77,0,0,0,48.86,48.55Zm7.62-10.76,0,0-.08,0Zm-1.61-16.6a0,0,0,0,0,0,0h0Zm-2,3.22s0,0,0,0l0,.14a.19.19,0,0,0-.12,0C52.77,24.48,52.78,24.4,52.86,24.41ZM9,20.17c.22-.05.09.34,0,.35S8.86,20.18,9,20.17Zm.33,5.38c-.18-.09-.11-.34-.16-.51l.19.06C9.2,25.31,9.28,25.4,9.28,25.55Zm1.05,2.36c-.21,0-.11-.15-.25-.18a.23.23,0,0,1,.25-.16l-.06.21C10.35,27.78,10.35,27.85,10.33,27.91ZM20.72,43.19c.38.1.71.24.75.56C21.07,43.66,20.68,43.56,20.72,43.19ZM25,45a1.35,1.35,0,0,0-.32-.09.87.87,0,0,0,.28,0,.57.57,0,0,1,0-.13.27.27,0,0,1,.08.07Zm-.13-.61c-.15-.08-.16-.25-.06-.48.28,0,.21.21.44.24C25.16,44.33,24.91,44.15,24.86,44.39ZM39.3,49.72a.25.25,0,0,0,0,.07l0,0a.53.53,0,0,1,0-.12ZM22.22,6.93c-.11-.09-.15-.26-.22.05l-.19-.05.07-.22c.17.13.18-.07.31,0C22.08,6.85,22.33,6.77,22.22,6.93ZM55.07,27.56h0Zm-.59,3.3c.22.08.24-.13.36,0,.08-.13-.1-.29,0-.34-.14-.06-.16-.15-.22-.23l.06-.05c.12,0,.24,0,.31-.07l0,0a1,1,0,0,0,0,.18c-.09,0-.19.07-.12.12s0,0,.1.09c-.06.48-.08,1-.13,1.5l0-.07,0,.09s.08,0,.06.06-.24,0-.15,0,0,0,0,0l0,.09h0c-.18.18-.47.15-.72.21.07-.07,0-.11,0-.17l0-.06h0v0c.11-.39.23-.88.34-1.39Zm1.75,4.19s-.08-.06-.16-.08l0-.12c.18,0,.15.13.23.18A.14.14,0,0,1,56.23,35.05ZM50,20l0,0a.17.17,0,0,1,.22,0,.22.22,0,0,0-.13-.25c.08,0,.14,0,.17-.07s-.12-.08-.13-.13.06,0,0,0,0,0,0,0,0,0-.07-.06-.21,0-.11.15c.05-.06,0,0,0,.07l-.15,0c-.13.19.05.19,0,.34h0l-.12-.07c-.08.06-.21,0-.31,0a.2.2,0,0,1,0-.19c.23.1.35-.06.4-.34.19.11.28,0,.41,0-.06.18.15.19.1.37.13.11.08-.16.22,0,.12-.19-.06-.19,0-.34l.19,0c0,.18-.08.33-.2.34a.22.22,0,0,0,.08.13,1,1,0,0,0-.25,0,.81.81,0,0,0,0,.16h0A.41.41,0,0,0,50,20Zm2.4.74v0S52.41,20.75,52.41,20.74Zm0,.11c0,.14.12.25.06.45l-.19-.06a1.16,1.16,0,0,0,0-.33C52.33,20.94,52.37,20.88,52.41,20.85Zm-.16,0s0-.05,0-.07h0l.06,0S52.26,20.84,52.25,20.88ZM45,43.8l-.12.43c-.26-.1-.51-.16-.56.18l-.19-.06c.28-.37.64-.57.84-1.13a.33.33,0,0,0,.33,0l.06,0c0,.06-.15,0-.14.12a.23.23,0,0,0,.27,0l.07,0a.37.37,0,0,0-.09.19c.14.11.09-.16.22-.05-.15.19-.29.4-.53.42l.06-.21C45.13,43.64,45.18,43.91,45,43.8Zm-.15-2.16a.21.21,0,0,1,.19,0l-.27.25C44.78,41.8,44.84,41.73,44.89,41.64Zm-.16,1.84-.29-.08c0-.23.17-.16.21-.31a.13.13,0,0,1,.08,0Q44.85,43.19,44.73,43.48Zm-1.47.12,0-.08.18.06a.45.45,0,0,0-.11.13S43.29,43.63,43.26,43.6ZM49.41,40a.82.82,0,0,1,.1.29.84.84,0,0,1,.3.13,1.7,1.7,0,0,1-.65.74l-.09,0a.23.23,0,0,0-.13-.23C49.11,40.65,49.24,40.29,49.41,40Zm.6.65,0,0c0,.19-.15.12-.18.26C49.65,40.87,49.89,40.64,50,40.66Zm2.14-16.13a.39.39,0,0,1-.29.29.23.23,0,0,1-.07-.14l.23-.19Zm.13,13.7c-.06,0-.1-.07-.17-.14s0,0,0,0H52v0l-.07,0L51.81,38a.57.57,0,0,1,.13-.1,1.79,1.79,0,0,1-.13-.14l.51.25A.45.45,0,0,0,52.28,38.23Zm-.8-14c0-.07,0-.14,0-.19.13-.07,0,.05.16,0v0l0,0C51.61,24.21,51.6,24.27,51.48,24.27ZM48.84,41.2l-.19.06a.23.23,0,0,1,.21-.13S48.85,41.18,48.84,41.2Zm3.61-.42a1,1,0,0,0-.5.32.85.85,0,0,0-.19-.06s.05-.09.09-.14c-.14,0-.07-.15-.19-.22a.65.65,0,0,0,0-.34.57.57,0,0,0,.22-.07c.07.08.07,0,.17.12a.63.63,0,0,1,.58-.23Zm1-2.88c-.07.16-.15.31-.21.46,0-.1-.1-.15-.24-.18C53.1,38.05,53.22,37.91,53.41,37.9Zm.84-3.39c0,.09.08.08.18.12a.69.69,0,0,0,0,.25l-.07-.09a.12.12,0,0,1-.14,0c-.07.08,0,.12,0,.18a.29.29,0,0,1-.1-.08c-.07.13,0,.24.12.33,0-.17.13,0,.24,0s0,0,0,0l.08,0,.19-.64c.13.11.08-.16.22,0a3.08,3.08,0,0,0-.4,1c-.09,0-.22-.12-.22.05,0,0,0,0,0,.07a2.26,2.26,0,0,0-.28-.19c-.09.06,0,.16-.16.16a.39.39,0,0,0-.46.11s0-.12,0-.18c-.22-.17-.32-.22-.47-.35a.47.47,0,0,0,.22-.19.22.22,0,0,0,.28-.15.54.54,0,0,0-.21-.42v-.19a.45.45,0,0,1,.12-.06l.43.21c0,.13-.17.33,0,.33,0-.06.05-.12.12-.08a.29.29,0,0,0,0-.21l.32.19C54.25,34.58,54.24,34.61,54.25,34.51Zm-3.08-11.6a1.55,1.55,0,0,0,0,.21L51,23.07A.49.49,0,0,0,51,23a.08.08,0,0,0,0,0ZM45.38,41.83l-.1.09c-.08-.06-.05-.15,0-.25A.24.24,0,0,1,45.38,41.83ZM38.66,47.5s0,0,0,0l0,0ZM47,44.08a.36.36,0,0,0,0-.15c.27-.29.63-.41.9-.71H48a1.46,1.46,0,0,0,.23-.1l0,0-.18.19c-.17,0-.2.2-.38.2,0,0,0,.05,0,.08a.88.88,0,0,0-.26.37C47.24,43.83,47.16,44,47,44.08Zm8.6-6.5A3.14,3.14,0,0,1,56,36l.06,0a.86.86,0,0,0,.17,0C56.15,36.79,55.92,36.85,55.62,37.58Zm-1.28-9.07a.43.43,0,0,0,0-.11.57.57,0,0,1,.13.14Zm-2-7.13h0Zm.18-1.33c-.14,0,0-.2-.26-.19a.89.89,0,0,0,.07.5.64.64,0,0,0-.21.09,1.94,1.94,0,0,1-.11-.66.23.23,0,0,0,.24,0v-.05c.11,0,.2,0,.2-.18C52.61,19.65,52.62,19.82,52.53,20.05Zm-.73-1.36c.25.1.34.31.22.64C51.72,19.26,51.77,19,51.8,18.69Zm-.19,1c-.19.3.27.18.07.48.26.05.23.28.24.49l-.07.08c0,.08,0,.16.17.21h0l0,0a.27.27,0,0,0-.09.12.28.28,0,0,0-.31.12c0,.17.17.25,0,.35.07,0,.1,0,.16,0a.16.16,0,0,1,.08-.14H52a.77.77,0,0,0,.16.25c-.17.1-.11.23-.08.38-.12-.06-.23,0-.32-.19s-.09.06-.17,0a1.91,1.91,0,0,1-.23-.45c-.11,0-.08.21-.14.3s0-.18-.16-.16c0,.22.19.28.29.43a.93.93,0,0,0-.11.19h0c-.1-.07-.13,0-.24-.07s0,.12-.09.09a.49.49,0,0,0-.08-.13.26.26,0,0,0-.07-.37c.1,0,.09-.16.08-.17s-.14,0-.22,0,0-.05.08-.07a.44.44,0,0,0-.4,0,.34.34,0,0,1,0,.22.35.35,0,0,0,.2.06c0,.05,0,.19-.08.17.06-.17-.16-.09-.26-.12-.06.13-.1.27-.27.19h0c0-.1-.06-.15,0-.25h-.09a3.8,3.8,0,0,1-.18-.47l0,0a.21.21,0,0,0-.07-.13v0h0c.12.17.2.19.36.09-.06-.11,0-.25.05-.39.08.06,0,.15.18.19.32,0,.11-.32.2-.48a.31.31,0,0,0,.13-.06l.07,0c.09-.13.13-.11.19-.22a.41.41,0,0,1-.11-.23c.2.1.48.14.54.31.06,0,.06-.08,0-.14s.09,0,.15,0c.07-.13.11-.12.07-.25s-.3.05-.27.09.17,0,.13,0-.07,0-.09.09A.22.22,0,0,0,51,20c.07-.2.29-.07.31-.37C51.47,19.74,51.42,19.73,51.61,19.67ZM38.11,47.3c-.1.25.23.22.28.37a.12.12,0,0,0,0,.12c-.26,0-.21.22-.23.37,0-.08-.19-.1-.18-.21-.15.06-.24.22-.42.22,0-.24-.07-.47-.1-.72C37.76,47.58,37.74,47,38.11,47.3Zm10.41,0c.16.13.18-.07.31,0a.84.84,0,0,1,.05.29,1.37,1.37,0,0,0-.38-.23S48.51,47.34,48.52,47.33Zm6-4.66a1.54,1.54,0,0,0-.11.84.73.73,0,0,0,.18.17h0l.07,0-.1,0c0,.22-.15.17-.2.3l0,0c-.33-.12-.3.19-.53.18,0,0,0,.08,0,.13a2.94,2.94,0,0,1-1,.41c0-.15-.13-.15,0-.35-.16-.14-.08.22-.2.17a.22.22,0,0,1-.16-.13.6.6,0,0,0,.06-.41c.1-.16.2-.33.45-.16a8.2,8.2,0,0,0,.89-.88C54.13,42.89,54.3,42.73,54.53,42.67Zm2-6.68c-.17-.13-.18.07-.31,0a.8.8,0,0,0,.38-.35h0ZM57,34l-.19-.05c0,.41-.29.41-.34.82-.13,0-.14.15-.31,0a7,7,0,0,0,.3-1.22.22.22,0,0,0,.12,0,.27.27,0,0,1,0,.21l.14,0c.12,0,.1-.29.17-.41s-.08.34.22.3C56.93,33.79,56.94,33.75,57,34Zm.63,0c-.13,0-.08-.16-.15-.22.09-.14.16-.3.3-.31Zm-.17-1.5c0,.14-.09.24-.19.25a2.79,2.79,0,0,0,.06-.33A.57.57,0,0,0,57.44,32.41Zm0-2.4s0-.05,0-.07a.1.1,0,0,1,0,.07S57.44,30,57.44,30Zm-1-2.93c-.11,0-.16.17-.2.35h0v0c.08.06.09.11.15.13-.08.21-.3.15-.52.07l-.05.16c0,.15.31,0,.25.19s-.29-.1-.36-.16,0,.12-.12.07c.11.27-.15.77-.24,1.16-.06,0-.23-.11-.18-.25a.85.85,0,0,1-.28-.08,1.7,1.7,0,0,1,0-.22l.16,0a.46.46,0,0,0,0-.36.08.08,0,0,1-.09.06c0-.06,0-.1,0-.15s.05-.29.07-.42c.09.05.19.1.25.08a1.2,1.2,0,0,0,.08-.27c-.08,0-.27,0-.22-.06a.19.19,0,0,0,.15,0c-.07,0-.08-.06-.1-.08.1-.23,0-.58.22-.73.11-.06.18,0,.24-.08a.83.83,0,0,0,.16.12l-.14.5c.18.06,0,.31.31.32.16-.23-.08-.21-.11-.32a.64.64,0,0,1,.2-.27s0,0,0,0,0-.07.06-.13l.05-.06h0s0,0,0,0,0-.07,0-.1l.16,0A1.29,1.29,0,0,0,56.41,27.08Zm-.8-.68s0,0,0,0a.45.45,0,0,1-.09.1l-.14,0c0-.07,0-.13,0-.19A.37.37,0,0,0,55.61,26.4Zm-1.16-.21a3.52,3.52,0,0,1,.13.83,1.33,1.33,0,0,0-.27-.14.38.38,0,0,0,0-.29c-.06.12-.21.07-.25,0a.1.1,0,0,1,0,.05.37.37,0,0,1,.12-.28.36.36,0,0,1-.08-.15A.27.27,0,0,0,54.45,26.19ZM53.3,26s0,.05,0,.08l0,0,0,0a.54.54,0,0,1,0,.15s0,0,0,0a.35.35,0,0,0,0,.18c-.26,0-.2-.25-.3-.37S53.24,26.06,53.3,26Zm-.65-1.46Zm0,0a.37.37,0,0,1-.07-.14A.19.19,0,0,1,52.6,24.51Zm.1-2.15c-.06.05,0,.09-.08.09s.12-.1,0-.13l-.09.06s0,0-.08,0a.59.59,0,0,0,0-.13c.09-.07.11-.17,0-.33l0,0a3,3,0,0,1,0-.33s.12,0,.17,0A1.61,1.61,0,0,1,52.7,22.36ZM52,17.08l.31-.2c0,.06,0,.14.13.16a.47.47,0,0,0-.17,0c.07,0-.09.05,0,.13h0C52.11,17.19,52,17.17,52,17.08Zm-.24-.93.65.19a.26.26,0,0,0,.07.22.44.44,0,0,1-.1.16l-.06-.06c0,.09,0,.28-.15.18.07-.21-.1-.33-.25-.36a.44.44,0,0,0-.16-.06C51.71,16.34,51.61,16.31,51.72,16.15Zm-.17-1.89c-.14-.1-.09.17-.22.06-.27-.3-.2-.81-.64-1v0a.32.32,0,0,0,.06-.17C51.05,13.49,51.58,13.7,51.55,14.26Zm-.92-1.41c-.19,0-.23-.14-.23-.29C50.59,12.58,50.63,12.7,50.63,12.85Zm-1.22,5.27c-.25,0-.39-.16-.29-.43C49.36,17.74,49.37,17.94,49.41,18.12ZM45.85,6.77a3.65,3.65,0,0,0,.81.75c0,.24-.25.1-.36.18-.09-.14-.3-.19-.43-.3a.26.26,0,0,0-.07-.49S45.83,6.81,45.85,6.77ZM36.05,2.9l.47.14c0,.15-.19.06-.19.29-.13-.26-.2,0-.41,0ZM34.25,2c-.23-.11-.49-.21-.59-.4C33.92,1.73,34.32,1.74,34.25,2ZM27,3c-.11.16.14.09,0,.24-.1-.08-.12-.21-.34-.21C26.72,2.86,26.92,3.05,27,3ZM23.29,6.78c-.18-.07-.3-.16-.32-.32C23.19,6.49,23.31,6.59,23.29,6.78Zm-.92-.72c-.11.15.14.08,0,.23l-.29-.08A.24.24,0,0,1,22.37,6.06Zm-1.06.15c.31.15.46,0,.65-.16s0,.23,0,.35C21.71,6.18,21.36,6.55,21.31,6.21Zm.23,1.32-.06.22-.38-.11A.45.45,0,0,1,21.54,7.53Zm-3,2.58c-.11-.2,0-.5.31-.37-.06-.53.59-.86.93-1.11L19.7,9c.17.08.11-.33.34-.13.05-.15-.13-.15,0-.34l.28.08c-.13.19.05.2,0,.34-.43.12-.59.81-1.06.84-.05.15.13.15,0,.35L19,10c0,.18-.1.18-.17.23,0,.22.11-.1.21,0l-.13.43c-.15.16-.51-.12-.7,0,0,.13.26.09.36.16-.11.15.14.08,0,.24s-.23.19-.43.1c.13.15.15.36,0,.69-.16,0,0-.2-.2-.18-.42.06,0,.82-.49.78a3.55,3.55,0,0,0,0-.79c.29-.14.46-.51.65-.85l-.14,0c-.07,0-.08.12-.11.2l-.28-.08C17.91,10.59,18.14,10.17,18.55,10.11ZM17,13c-.09,0-.22-.13-.22,0-.16,0-.05-.14,0-.24.17.13.18-.07.31,0Zm.21-1.78c.07-.17.23-.19.43-.1l-.06.21Zm0,.8c-.13.19.05.19,0,.34s-.23.08-.28.26c-.13,0,0-.2-.25-.18a.38.38,0,0,1,.13-.29h0a.31.31,0,0,0,.07-.09h0l0-.07,0,0Zm-.28-.08Zm-2.74-.8c.14.09.2,0,.27,0s.11.18.33.09l-.09.32c-.26-.15-.33.09-.6-.06C14.21,11.3,14.2,11.34,14.16,11.13Zm.08,2.21-.15.52c.16,0,.24-.29.34-.47l.28.08-.18.64c-.21,0,.05-.24-.08-.26s-.1.47-.28.44a.32.32,0,0,0,.33.27c0,.24-.14.28-.21.39-.13-.26-.21,0-.41,0,.1-.24-.1-.29.06-.56l.18.06c-.06-.13.08-.39-.19-.4C14.05,13.84,14,13.33,14.24,13.34Zm0,2.06L14,15.32a.26.26,0,0,0,.13.27c-.21.16,0,.14-.12.42L13.79,16a3.19,3.19,0,0,0,.06-.9c.13,0,0,.2.25.18s-.14-.08,0-.24c.13.15.09.14.28.09Zm-2.81-2.3c0,.23-.15.14-.18.29-.21-.09-.36-.07-.44.1C10.62,13.15,11.24,13.13,11.45,13.1Zm.72,0a.54.54,0,0,0,.75-.13c-.05.35-.27.33-.3.72-.19,0,0-.23,0-.35-.19,0-.32.22-.62,0-.11.16.14.09,0,.24l-.38-.11c.14-.23-.1-.22,0-.45a.25.25,0,0,1,.13.27C11.92,13.23,12.15,13.38,12.17,13.08Zm0-.24a.23.23,0,0,1,.34-.13l-.06.21ZM12.3,32c-.1-.17-.39-.22-.25-.53C12.09,31.71,12.3,31.81,12.3,32Zm-.09-18a.53.53,0,0,1,.37-.24C12.53,14,12.41,14.08,12.21,14Zm-.5.66a.23.23,0,0,1-.34.13A.23.23,0,0,1,11.71,14.67Zm-1.44.38c.19,0,.21-.24.44-.1-.07.28-.21.18-.12.43-.13,0-.22.1-.41,0C10.32,15.21,10.31,15.26,10.27,15.05Zm-.17,1.33c.18.11.27,0,.4,0-.1.16.14.09,0,.24a.62.62,0,0,1-.51,0Zm1.13,10.19L11,26.51c.09-.25,0-.37,0-.58.1.08.13.21.34.22ZM12,30.92c.18.09.11.34.16.51l-.28-.08Zm0,1.38c.11-.15-.14-.08,0-.24a.47.47,0,0,1,.32.32Zm1-20.11c0,.14.13.15,0,.34-.48-.26-.69,0-1.1-.09,0-.33.25-.27.28-.6-.21.1-.49.47-.41.68-.17,0-.16.33-.31.37-.26-.15-.37,0-.59-.06.06-.26.24-.29.4-.34,0-.2-.2-.22-.06-.48-.09-.06-.36,0-.26-.18.52.28.5-.54.88-.55l.18-.64a1.86,1.86,0,0,0,.63-.05c.16,0,.05.26.22.3.06-.18-.16-.2-.1-.38.13,0,.22-.1.41,0l-.09.31c.26-.06.61,0,.84-.09-.06.4-.46.53-.34.81C13.4,11.68,13.31,12.11,13,12.19Zm.36.9c.1-.06.13-.28.28-.26l-.1.31Zm1,22.2-.09,0s.09,0,.1-.11-.07-.11-.16-.14-.11.06-.14.11l-.06-.06c0-.12.11,0,.14-.13s-.21,0-.3,0,0-.11-.06-.13c.21-.16,0-.14.12-.42.18.06,0,.31.32.32-.08.22,0,.36.19.4Zm2.19,4.42c.11-.42.87,0,.85.24C17.07,39.93,16.82,39.6,16.62,39.71Zm1.1.43c.22,0,.34.13.32.32C17.86,40.4,17.74,40.3,17.72,40.14Zm.5.38c.34.13.27.52.76.56C18.65,41.28,18.28,40.77,18.22,40.52Zm1.73.73a.6.6,0,0,0-.5,0c.14-.15.13-.1.09-.31l-.47-.14c.08-.17.23-.19.44-.1C19.4,41,20.06,40.89,20,41.25Zm2.67,1,.06-.21c.17.12.19-.08.32,0C23,42.24,22.82,42.32,22.62,42.25Zm12.52,6.49a.43.43,0,0,1-.33.32c0-.05,0-.1.1-.09l-.07-.1A1.94,1.94,0,0,1,35.14,48.74Zm-2.76,1.43-.25.16a.24.24,0,0,0-.11-.06s0-.05-.06-.05a0,0,0,0,0,0,0l-.1,0C31.93,50,32.36,50.21,32.38,50.17Zm-.94-.1a.5.5,0,0,1,.31.14.46.46,0,0,1-.21-.08.25.25,0,0,1-.3.1A.35.35,0,0,0,31.44,50.07Zm-.83.22c.11-.15-.14-.08,0-.24l.19.06c0,.09-.12.25,0,.24a.67.67,0,0,1,.37-.11c-.09.14-.3.18-.41.27a1.18,1.18,0,0,0-.24-.19.05.05,0,0,1,0,0S30.54,50.25,30.61,50.29Zm2.51.9a.33.33,0,0,1,0-.15.46.46,0,0,1,.16.07S33.15,51.14,33.12,51.19Zm.72-.42-.38-.11c0-.23.21,0,.24-.11s-.21,0-.3,0c.2-.3.71,0,1,0C34.34,50.79,33.93,50.45,33.84,50.77Zm1.27.35c.06,0,0,0,0,0h0C35.18,51.13,35.18,51.19,35.11,51.12Zm.33-.58.06-.21c.19,0,.23.14.22.29Zm.49-.66a1.4,1.4,0,0,1-.73-.1c-.07,0-.08.12-.11.2-.65,0-1.27.06-1.94,0l0,0v0l-.47,0A3,3,0,0,1,34,49.65c.13-.18-.2-.07-.14-.21.08-.39.48-.12.78-.06.41-.13.69-.53,1.27-.32l-.07.21c-.11,0,0-.12-.11-.15a2.52,2.52,0,0,1-1.51.48c.49.38,1.23-.19,1.76-.29.07,0,.08-.12.11-.2.2.14.21-.13.41,0-.05.19-.27.06-.29.31a.79.79,0,0,0,.55-.06c0,.08.07.15.14.27s-.06,0,0,0a0,0,0,0,1,.06,0c-.35.1-.69.27-.95,0C35.75,49.69,36,49.77,35.93,49.88Zm1.51-.25a.8.8,0,0,0-.46,0,.35.35,0,0,0-.1-.35l.18-.12.47.14Zm-.36-1.25c-.06.18.16.19.1.37-.13,0-.22.11-.41,0,0-.27.21-.13.22-.4-.14-.11-.09.16-.22,0l.06-.21.38.11c.11-.15-.14-.08,0-.24-.15.09-.42,0-.54.13.15.27-.27.58-.42.74-.43,0-.28-.4-.57-.51,0-.28.24-.23.36-.35a1.09,1.09,0,0,0,.58.28.26.26,0,0,0-.13-.27c.23-.14,0-.21.16-.53.49.07.59.38.85.59,0,.13-.11,0-.14.14s.3-.17.14.21c.17-.09.42,0,.58-.15a.75.75,0,0,0,.07.12v0a.31.31,0,0,0,.06.13c-.22.08-.4.16-.56-.08C37.47,48.7,37.14,48.51,37.08,48.38Zm.61,1.09c-.16,0,0-.14,0-.24.27.11.17,0,.16-.18.23,0,.16.24.44.24C38.19,49.63,37.8,49.25,37.69,49.47Zm8.36-.68c-.28-.13-.42,0-.56.19-.24-.17.14-.33.15-.53.21.1.26-.13.5,0Z"/><path d="M51.13,21.32s0,0,0,0,.12.13-.08.17c.06,0,.14.07.17,0s0-.08,0-.13S51.12,21.37,51.13,21.32Z"/><path d="M28.78,48.3c.18,0,.06,0,.09.11a.47.47,0,0,0,.24,0c-.08,0,.08-.05,0-.13s-.17-.07-.3,0C28.88,48.26,28.79,48.25,28.78,48.3Z"/><path d="M30.49,48.8c-.12,0-.08-.09-.17-.12s-.16.1-.22.18C30.36,49,30.43,49,30.49,48.8Z"/><path d="M54.6,32.13s0,0-.05,0c.2.09.13,0,.22-.08-.14-.06,0-.17-.15-.17,0,0,0,.25-.08.07C54.45,32.08,54.6,32.08,54.6,32.13Z"/><path d="M54.87,31.18c.1-.11,0-.17,0-.27s-.18-.12-.2-.05-.09.07-.08.17S54.71,31.17,54.87,31.18Z"/><path d="M47.46,53.11c-.23-.14,0-.38-.36-.5,0,.07-.05.14-.13.11s-.11-.11-.16-.25a4.46,4.46,0,0,1-.63.2c-.09.23,0,.38-.15.52.17,0,.08.12,0,.19a.76.76,0,0,1,.39.35c.21,0,.18.06.37.17,0-.15.13-.08.21-.08a.93.93,0,0,1,.45-.38A.38.38,0,0,1,47.46,53.11Z"/><path d="M51.09,20.31a.45.45,0,0,0-.22-.21.43.43,0,0,1-.14.21c.07.1.11,0,.21.13C51,20.32,51.07,20.4,51.09,20.31Z"/></g></g></svg>