<svg xmlns="http://www.w3.org/2000/svg" xmlns:xlink="http://www.w3.org/1999/xlink" viewBox="0 0 300.47 300.94"><defs><style>.cls-1,.cls-4,.cls-6{fill:#fc766a;}.cls-2{fill:none;stroke:#fc766a;stroke-miterlimit:10;stroke-width:5.47px;}.cls-3,.cls-4{font-size:32.35px;}.cls-3{fill:#666;}.cls-3,.cls-4,.cls-5,.cls-6{font-family:PTSans-Regular, PT Sans;}.cls-5,.cls-6{font-size:22.41px;}.cls-7{clip-path:url(#clip-path);}.cls-8{clip-path:url(#clip-path-2);}</style><clipPath id="clip-path"><rect class="cls-1" x="80.63" y="108.25" width="17.79" height="85.06" rx="4.6"/></clipPath><clipPath id="clip-path-2"><path class="cls-1" d="M218.42,107.86,160.09,74.13a6.51,6.51,0,0,0-9.77,5.65V222.23a6.51,6.51,0,0,0,9.77,5.65l58.33-33.73a6.51,6.51,0,0,0,3.26-5.65v-75A6.51,6.51,0,0,0,218.42,107.86Zm-23.6,67.06a5.74,5.74,0,0,1-5.74,5.74h-6.31a5.74,5.74,0,0,1-5.74-5.74V126.64a5.74,5.74,0,0,1,5.74-5.75h6.31a5.74,5.74,0,0,1,5.74,5.75Z"/></clipPath></defs><g id="图层_2" data-name="图层 2"><g id="图层_11" data-name="图层 11"><ellipse class="cls-2" cx="150.24" cy="150.47" rx="147.5" ry="147.73"/><text class="cls-3" transform="matrix(0.94, 0.33, -0.33, 0.94, 95.05, 279.1)">Z</text><text class="cls-3" transform="translate(113.13 285.2) rotate(13.34)">J</text><text class="cls-3" transform="translate(123.89 288.01) rotate(6.36)">U</text><text class="cls-3" transform="translate(146.6 290.11) rotate(-0.93)">·</text><text class="cls-3" transform="translate(156 289.99) rotate(-4.36)">I</text><text class="cls-3" transform="matrix(0.98, -0.2, 0.2, 0.98, 167.09, 289.4)">D</text><text class="cls-3" transform="translate(189.98 284.57) rotate(-20.72)">G</text><text class="cls-4" transform="matrix(0.94, 0.33, -0.33, 0.94, 95.05, 279.1)">Z</text><text class="cls-4" transform="translate(113.13 285.2) rotate(13.34)">J</text><text class="cls-4" transform="translate(123.89 288.01) rotate(6.36)">U</text><text class="cls-4" transform="translate(146.6 290.11) rotate(-0.93)">·</text><text class="cls-4" transform="translate(156 289.99) rotate(-4.36)">I</text><text class="cls-4" transform="matrix(0.98, -0.2, 0.2, 0.98, 167.09, 289.4)">D</text><text class="cls-4" transform="translate(189.98 284.57) rotate(-20.72)">G</text><text class="cls-5" transform="translate(57.31 67.66) rotate(-46.82)">I</text><text class="cls-5" transform="translate(61.5 63.03) rotate(-42.64)">n</text><text class="cls-5" transform="translate(70.34 55) rotate(-38.23)">t</text><text class="cls-5" transform="matrix(0.83, -0.56, 0.56, 0.83, 75.84, 50.55)">e</text><text class="cls-5" transform="translate(85.06 44.38) rotate(-29.85)">r</text><text class="cls-5" transform="translate(91.37 40.67) rotate(-25.65)">a</text><text class="cls-5" transform="matrix(0.93, -0.36, 0.36, 0.93, 101.11, 36)">c</text><text class="cls-5" transform="matrix(0.96, -0.29, 0.29, 0.96, 110.3, 32.54)">t</text><text class="cls-5" transform="matrix(0.97, -0.24, 0.24, 0.97, 117.36, 30.41)">i</text><text class="cls-5" transform="translate(122.92 28.95) rotate(-10.03)">v</text><text class="cls-5" transform="matrix(0.99, -0.09, 0.09, 1, 132.98, 27.14)">e</text><text class="cls-5" transform="translate(144.06 26.22) rotate(-1.32)"> </text><text class="cls-5" transform="matrix(1, 0.06, -0.06, 1, 149.73, 25.9)">D</text><text class="cls-5" transform="matrix(0.99, 0.16, -0.16, 0.99, 163.97, 26.78)">a</text><text class="cls-5" transform="matrix(0.97, 0.23, -0.23, 0.97, 174.63, 28.51)">t</text><text class="cls-5" transform="matrix(0.95, 0.3, -0.3, 0.95, 181.78, 30.11)">a</text><text class="cls-5" transform="translate(192.09 33.43) rotate(21.26)"> </text><text class="cls-5" transform="matrix(0.9, 0.43, -0.43, 0.9, 197.45, 35.34)">G</text><text class="cls-5" transform="translate(209.45 41.24) rotate(30.48)">r</text><text class="cls-5" transform="translate(215.81 44.88) rotate(34.87)">o</text><text class="cls-5" transform="matrix(0.76, 0.64, -0.65, 0.76, 225.38, 51.52)">u</text><text class="cls-5" transform="translate(234.34 59.08) rotate(45.62)">p</text><text class="cls-6" transform="translate(57.31 67.66) rotate(-46.82)">I</text><text class="cls-6" transform="translate(61.5 63.03) rotate(-42.64)">n</text><text class="cls-6" transform="translate(70.34 55) rotate(-38.23)">t</text><text class="cls-6" transform="matrix(0.83, -0.56, 0.56, 0.83, 75.84, 50.55)">e</text><text class="cls-6" transform="translate(85.06 44.38) rotate(-29.85)">r</text><text class="cls-6" transform="translate(91.37 40.67) rotate(-25.65)">a</text><text class="cls-6" transform="matrix(0.93, -0.36, 0.36, 0.93, 101.11, 36)">c</text><text class="cls-6" transform="matrix(0.96, -0.29, 0.29, 0.96, 110.3, 32.54)">t</text><text class="cls-6" transform="matrix(0.97, -0.24, 0.24, 0.97, 117.36, 30.41)">i</text><text class="cls-6" transform="translate(122.92 28.95) rotate(-10.03)">v</text><text class="cls-6" transform="matrix(0.99, -0.09, 0.09, 1, 132.98, 27.14)">e</text><text class="cls-6" transform="translate(144.06 26.22) rotate(-1.32)"> </text><text class="cls-6" transform="matrix(1, 0.06, -0.06, 1, 149.73, 25.9)">D</text><text class="cls-6" transform="matrix(0.99, 0.16, -0.16, 0.99, 163.97, 26.78)">a</text><text class="cls-6" transform="matrix(0.97, 0.23, -0.23, 0.97, 174.63, 28.51)">t</text><text class="cls-6" transform="matrix(0.95, 0.3, -0.3, 0.95, 181.78, 30.11)">a</text><text class="cls-6" transform="translate(192.09 33.43) rotate(21.26)"> </text><text class="cls-6" transform="matrix(0.9, 0.43, -0.43, 0.9, 197.45, 35.34)">G</text><text class="cls-6" transform="translate(209.45 41.24) rotate(30.48)">r</text><text class="cls-6" transform="translate(215.81 44.88) rotate(34.87)">o</text><text class="cls-6" transform="matrix(0.76, 0.64, -0.65, 0.76, 225.38, 51.52)">u</text><text class="cls-6" transform="translate(234.34 59.08) rotate(45.62)">p</text><rect class="cls-1" x="80.63" y="108.25" width="17.79" height="85.06" rx="4.6"/><g class="cls-7"><polygon class="cls-1" points="151.11 64.12 76.05 107.53 76.05 194.34 151.11 237.74 226.17 194.34 226.17 107.53 151.11 64.12"/></g><path class="cls-1" d="M218.42,107.86,160.09,74.13a6.51,6.51,0,0,0-9.77,5.65V222.23a6.51,6.51,0,0,0,9.77,5.65l58.33-33.73a6.51,6.51,0,0,0,3.26-5.65v-75A6.51,6.51,0,0,0,218.42,107.86Zm-23.6,67.06a5.74,5.74,0,0,1-5.74,5.74h-6.31a5.74,5.74,0,0,1-5.74-5.74V126.64a5.74,5.74,0,0,1,5.74-5.75h6.31a5.74,5.74,0,0,1,5.74,5.75Z"/><g class="cls-8"><polygon class="cls-1" points="151.11 64.12 76.05 107.53 76.05 194.34 151.11 237.74 226.17 194.34 226.17 107.53 151.11 64.12"/></g><path class="cls-1" d="M238.9,95.9,163.09,52.07l-10.91-6.31a3.33,3.33,0,0,0-3.32,0L93.17,78,64.86,94.33c-2.11,1.22-3.87,1.85-4.34,4.52-.39,2.27,0,4.93,0,7.22v90.69c0,2.19-.08,3.79,1.91,5.26,6.66,4.92,14.79,8.56,21.95,12.7L148.86,252a3.33,3.33,0,0,0,3.32,0L228,208.17l10.92-6.31a3.31,3.31,0,0,0,0-5.67L222.64,187c-3.69-2.07-7,3.6-3.31,5.67l16.25,9.16v-5.67L159.78,240l-10.92,6.31h3.32L76.37,202.5l-10.91-6.31L67.09,199V98.74l-1.63,2.83,75.81-43.83,10.91-6.31h-3.32l75.81,43.83,10.91,6.31c3.67,2.12,7-3.55,3.32-5.67Z"/></g></g></svg>